<svg xmlns="http://www.w3.org/2000/svg" xmlns:xlink="http://www.w3.org/1999/xlink" width="1000" zoomAndPan="magnify" viewBox="0 0 750 749.999995" height="1000" preserveAspectRatio="xMidYMid meet" version="1.0"><path fill="#b2d7d8" d="M 102.414062 722.050781 C 97.691406 721.78125 91.582031 720.328125 87.484375 714.855469 C 83.332031 709.324219 82.238281 701.074219 84.398438 691.625 C 85.589844 686.402344 89.632812 673.4375 101.441406 666.398438 C 106.410156 663.4375 112.140625 661.9375 118.476562 661.9375 C 122.21875 661.9375 126.207031 662.46875 130.347656 663.519531 L 158.421875 614.910156 L 165.425781 615.929688 C 179.382812 617.953125 193.71875 619.910156 208.308594 621.796875 L 223.425781 623.753906 L 181.605469 700.851562 L 180.636719 702.578125 C 173.007812 716.082031 168.8125 723.511719 156.878906 723.511719 Z M 102.414062 722.050781 " fill-opacity="1" fill-rule="nonzero"/><path fill="#b2d7d8" d="M 301.773438 741.574219 C 297.046875 741.304688 290.941406 739.855469 286.835938 734.378906 C 282.6875 728.847656 281.59375 720.597656 283.753906 711.148438 C 284.945312 705.925781 288.996094 692.960938 300.796875 685.921875 C 305.765625 682.960938 311.5 681.460938 317.835938 681.460938 C 321.578125 681.460938 325.5625 681.992188 329.703125 683.042969 L 356.167969 637.210938 L 362.730469 637.714844 C 378.066406 638.886719 393.039062 639.910156 407.222656 640.746094 L 423.632812 641.714844 L 380.960938 720.375 L 379.992188 722.101562 C 372.363281 735.605469 368.167969 743.039062 356.332031 743.039062 Z M 301.773438 741.574219 " fill-opacity="1" fill-rule="nonzero"/><path fill="#b2d7d8" d="M 508.609375 647.566406 C 361.515625 647.566406 147.207031 621.421875 39.332031 597.003906 L 31.566406 595.246094 L 31.199219 587.285156 C 22.613281 401.851562 39.378906 228.332031 85.566406 24.65625 L 87.320312 16.941406 L 95.214844 16.527344 C 122.148438 15.109375 150.527344 14.390625 179.558594 14.390625 C 330.855469 14.390625 491.667969 33.585938 599.238281 64.488281 L 606.253906 66.503906 L 606.777344 73.785156 C 619.96875 256.296875 592.210938 446.464844 565.371094 630.375 L 563.0625 646.136719 L 554.46875 646.554688 C 540.585938 647.226562 525.160156 647.566406 508.609375 647.566406 Z M 508.609375 647.566406 " fill-opacity="1" fill-rule="nonzero"/><path fill="#79afae" d="M 561.933594 629.8125 C 588.28125 449.289062 615.539062 262.5625 603.839844 82.78125 L 602.910156 68.527344 C 602.773438 66.464844 604.96875 65.066406 606.78125 66.0625 L 619.300781 72.9375 C 640.742188 84.714844 703.175781 123.199219 714.648438 142.996094 C 726.796875 164.726562 712.363281 313.351562 707.65625 358.386719 C 702.941406 403.421875 686.3125 551.808594 670.058594 570.503906 L 669.742188 570.867188 L 669.394531 571.199219 C 641.980469 597.421875 601.296875 630.039062 576.585938 641.632812 L 565.0625 647.042969 C 562.421875 648.285156 559.46875 646.078125 559.90625 643.191406 Z M 561.933594 629.8125 " fill-opacity="1" fill-rule="nonzero"/><path fill="#79afae" d="M 548.339844 280.109375 C 540.710938 279.503906 533.097656 278.976562 525.492188 278.449219 L 524.894531 278.40625 C 513.96875 277.652344 502.75 276.875 491.625 275.851562 L 481.765625 274.941406 L 482.136719 265.046875 C 482.574219 253.242188 483.46875 243.878906 485.675781 227.949219 L 486.949219 218.765625 L 496.21875 218.925781 C 515.351562 219.265625 533.535156 220.894531 553.4375 224.058594 L 562.863281 225.558594 L 562.226562 235.082031 C 561.8125 241.367188 561.34375 247.304688 560.871094 253.238281 L 560.78125 254.433594 C 560.375 259.652344 559.964844 264.886719 559.597656 270.378906 L 558.894531 280.949219 Z M 548.339844 280.109375 " fill-opacity="1" fill-rule="nonzero"/><path fill="#d1f2f0" d="M 452.980469 583.171875 C 327.765625 583.171875 214.183594 572.351562 105.75 550.101562 L 96.902344 548.285156 L 97.414062 539.265625 C 106.347656 381.050781 123.078125 228.882812 147.140625 86.992188 L 148.472656 79.121094 L 156.414062 78.335938 C 188.480469 75.15625 220.960938 73.542969 252.957031 73.542969 C 342.503906 73.542969 431.53125 85.671875 525.121094 110.621094 L 532.632812 112.621094 L 532.871094 120.398438 C 533.675781 146.277344 533.054688 177.691406 531.007812 213.773438 L 530.40625 224.4375 L 519.761719 223.609375 C 509.351562 222.800781 499.597656 222.386719 489.992188 222.351562 C 486.898438 243.839844 485.8125 254.109375 485.429688 271.746094 C 495.972656 272.820312 506.664062 273.609375 515.933594 274.265625 L 526.570312 275.023438 L 525.597656 285.65625 C 521.425781 331.136719 515.613281 380.679688 508.792969 428.929688 L 507.414062 438.664062 L 497.617188 437.890625 C 487.1875 437.070312 477.347656 436.652344 467.578125 436.617188 C 464.480469 458.144531 463.390625 468.414062 463.015625 486.007812 C 471.84375 486.910156 480.679688 487.59375 488.234375 488.152344 L 499.695312 488.992188 L 497.773438 500.328125 C 494.066406 522.164062 487.082031 561.035156 481.9375 576.023438 L 479.539062 583.019531 L 472.144531 583.085938 C 465.726562 583.140625 459.335938 583.171875 452.980469 583.171875 Z M 452.980469 583.171875 " fill-opacity="1" fill-rule="nonzero"/><path fill="#79afae" d="M 525.917969 494.378906 C 518.261719 493.769531 510.628906 493.238281 503 492.710938 L 501.890625 492.636719 C 491.148438 491.886719 480.140625 491.121094 469.203125 490.109375 L 459.359375 489.199219 L 459.722656 479.3125 C 460.152344 467.5 461.050781 458.136719 463.261719 442.210938 L 464.539062 433.035156 L 473.796875 433.195312 C 492.898438 433.527344 511.089844 435.15625 531.023438 438.324219 L 540.449219 439.824219 L 539.8125 449.347656 C 539.398438 455.632812 538.929688 461.570312 538.457031 467.503906 C 538.015625 473.121094 537.574219 478.734375 537.175781 484.648438 L 536.472656 495.21875 Z M 525.917969 494.378906 " fill-opacity="1" fill-rule="nonzero"/><path fill="#b2d7d8" d="M 183.148438 452.476562 C 172.957031 452.160156 158.589844 446.929688 147.703125 423.773438 C 139.03125 405.300781 144.984375 384.15625 160.980469 376.632812 C 163.90625 375.25 168.492188 373.597656 173.675781 373.597656 C 177.753906 373.597656 181.464844 374.613281 184.703125 376.628906 C 190.171875 380.035156 196.703125 387.917969 197.414062 406.144531 C 203.652344 406.160156 210.195312 409.863281 214.097656 415.59375 C 218.339844 421.847656 218.644531 429.296875 214.949219 436.050781 C 210.609375 443.960938 197.539062 452.488281 183.988281 452.488281 Z M 183.148438 452.476562 " fill-opacity="1" fill-rule="nonzero"/><path fill="#b2d7d8" d="M 387.460938 470.253906 C 377.316406 469.933594 362.949219 464.695312 352.066406 441.542969 C 347.882812 432.636719 346.929688 422.847656 349.390625 413.988281 C 351.878906 405.023438 357.539062 398.066406 365.328125 394.402344 C 368.308594 393.007812 372.910156 391.367188 378.035156 391.367188 C 382.132812 391.367188 385.851562 392.394531 389.089844 394.417969 C 394.527344 397.804688 401.066406 405.679688 401.777344 423.921875 C 408.03125 423.9375 414.578125 427.644531 418.46875 433.382812 C 422.699219 439.605469 423.003906 447.058594 419.308594 453.820312 C 414.984375 461.726562 401.953125 470.265625 388.425781 470.265625 Z M 387.460938 470.253906 " fill-opacity="1" fill-rule="nonzero"/><path fill="#1a4447" d="M 301.207031 416.761719 C 295.597656 413.007812 289.640625 410.671875 283.515625 409.816406 C 281.769531 409.570312 279.972656 409.449219 278.171875 409.449219 C 271.976562 409.449219 265.726562 410.863281 259.601562 413.652344 L 247.28125 419.253906 C 245.421875 420.101562 243.347656 418.613281 243.546875 416.582031 L 244.871094 403.109375 C 246.542969 386.050781 255.773438 371.710938 268.953125 365.683594 C 273.050781 363.804688 277.3125 362.847656 281.59375 362.847656 C 288.511719 362.847656 295.039062 365.289062 300.996094 370.113281 C 311.691406 378.769531 317.84375 393.050781 317.464844 408.324219 L 317.109375 422.496094 C 317.058594 424.585938 314.722656 425.796875 312.988281 424.636719 Z M 301.207031 416.761719 " fill-opacity="1" fill-rule="nonzero"/><path fill="#f4c3e9" d="M 280.097656 449.796875 C 276.222656 449.796875 272.445312 449.109375 268.878906 447.757812 C 260.109375 444.433594 252.605469 436.707031 248.300781 426.558594 L 244.773438 418.238281 L 252.492188 413.539062 C 260.648438 408.582031 269.523438 405.960938 278.164062 405.960938 C 280.128906 405.960938 282.097656 406.097656 284.015625 406.367188 C 292.828125 407.597656 301.425781 411.769531 308.867188 418.429688 L 315.40625 424.285156 L 310.777344 431.742188 C 306.910156 437.972656 301.5 442.96875 295.144531 446.179688 C 290.457031 448.542969 285.257812 449.796875 280.097656 449.796875 Z M 280.097656 449.796875 " fill-opacity="1" fill-rule="nonzero"/><path fill="#f4c3e9" d="M 308.160156 300.078125 C 302.839844 300.078125 297.53125 299.613281 292.375 298.703125 C 252.980469 291.71875 220.582031 256.390625 217.011719 216.515625 C 213.441406 176.652344 239.050781 136.128906 276.578125 122.25 C 287.101562 118.359375 297.914062 116.382812 308.726562 116.382812 C 331.597656 116.382812 353.511719 125.40625 370.429688 141.789062 C 396.453125 166.988281 405.503906 204.011719 394.050781 238.414062 C 385.878906 262.972656 366.710938 283.5 342.769531 293.328125 C 332.019531 297.746094 320.046875 300.078125 308.160156 300.078125 Z M 308.160156 300.078125 " fill-opacity="1" fill-rule="nonzero"/><path fill="#1a4447" d="M 307.984375 237.652344 C 306.285156 237.652344 304.589844 237.507812 302.941406 237.21875 C 290.28125 234.96875 279.890625 223.640625 278.746094 210.863281 C 277.601562 198.074219 285.8125 185.078125 297.847656 180.628906 C 301.171875 179.394531 304.625 178.769531 308.101562 178.769531 C 315.496094 178.769531 322.554688 181.65625 327.96875 186.902344 C 334.503906 193.222656 339.925781 204.675781 335.539062 217.859375 C 332.914062 225.746094 326.761719 232.335938 319.074219 235.488281 C 315.617188 236.90625 311.78125 237.652344 307.984375 237.652344 Z M 307.984375 237.652344 " fill-opacity="1" fill-rule="nonzero"/><path fill="#f4c3e9" d="M 203.550781 342.636719 C 203.550781 343.257812 203.519531 343.878906 203.460938 344.492188 C 203.398438 345.109375 203.308594 345.722656 203.1875 346.332031 C 203.066406 346.9375 202.917969 347.539062 202.734375 348.132812 C 202.554688 348.726562 202.347656 349.308594 202.109375 349.882812 C 201.875 350.453125 201.609375 351.015625 201.316406 351.5625 C 201.023438 352.109375 200.707031 352.640625 200.363281 353.15625 C 200.019531 353.671875 199.648438 354.167969 199.257812 354.648438 C 198.863281 355.125 198.449219 355.585938 198.007812 356.023438 C 197.570312 356.460938 197.113281 356.878906 196.632812 357.269531 C 196.15625 357.664062 195.65625 358.03125 195.140625 358.375 C 194.625 358.722656 194.097656 359.039062 193.550781 359.332031 C 193.003906 359.625 192.445312 359.890625 191.871094 360.125 C 191.296875 360.363281 190.714844 360.570312 190.121094 360.75 C 189.53125 360.933594 188.929688 361.082031 188.320312 361.203125 C 187.714844 361.324219 187.101562 361.414062 186.484375 361.476562 C 185.867188 361.535156 185.25 361.566406 184.628906 361.566406 C 184.011719 361.566406 183.394531 361.535156 182.777344 361.476562 C 182.160156 361.414062 181.546875 361.324219 180.941406 361.203125 C 180.332031 361.082031 179.730469 360.933594 179.136719 360.75 C 178.546875 360.570312 177.960938 360.363281 177.390625 360.125 C 176.816406 359.890625 176.257812 359.625 175.710938 359.332031 C 175.164062 359.039062 174.632812 358.722656 174.121094 358.375 C 173.605469 358.03125 173.105469 357.664062 172.628906 357.269531 C 172.148438 356.878906 171.691406 356.460938 171.253906 356.023438 C 170.8125 355.585938 170.398438 355.125 170.003906 354.648438 C 169.613281 354.167969 169.242188 353.671875 168.898438 353.15625 C 168.554688 352.640625 168.238281 352.109375 167.945312 351.5625 C 167.652344 351.015625 167.386719 350.453125 167.152344 349.882812 C 166.914062 349.308594 166.703125 348.726562 166.523438 348.132812 C 166.34375 347.539062 166.195312 346.9375 166.074219 346.332031 C 165.953125 345.722656 165.863281 345.109375 165.800781 344.492188 C 165.742188 343.878906 165.710938 343.257812 165.710938 342.636719 C 165.710938 342.019531 165.742188 341.398438 165.800781 340.785156 C 165.863281 340.167969 165.953125 339.554688 166.074219 338.945312 C 166.195312 338.339844 166.34375 337.738281 166.523438 337.144531 C 166.703125 336.550781 166.914062 335.96875 167.152344 335.394531 C 167.386719 334.824219 167.652344 334.261719 167.945312 333.714844 C 168.238281 333.167969 168.554688 332.636719 168.898438 332.121094 C 169.242188 331.605469 169.613281 331.109375 170.003906 330.628906 C 170.398438 330.152344 170.8125 329.691406 171.253906 329.253906 C 171.691406 328.816406 172.148438 328.398438 172.628906 328.007812 C 173.105469 327.613281 173.605469 327.246094 174.121094 326.898438 C 174.632812 326.554688 175.164062 326.238281 175.710938 325.945312 C 176.257812 325.652344 176.816406 325.386719 177.390625 325.152344 C 177.960938 324.914062 178.546875 324.707031 179.136719 324.527344 C 179.730469 324.34375 180.332031 324.195312 180.941406 324.074219 C 181.546875 323.953125 182.160156 323.863281 182.777344 323.800781 C 183.394531 323.742188 184.011719 323.710938 184.628906 323.710938 C 185.25 323.710938 185.867188 323.742188 186.484375 323.800781 C 187.101562 323.863281 187.714844 323.953125 188.320312 324.074219 C 188.929688 324.195312 189.53125 324.34375 190.121094 324.527344 C 190.714844 324.707031 191.296875 324.914062 191.871094 325.152344 C 192.445312 325.386719 193.003906 325.652344 193.550781 325.945312 C 194.097656 326.238281 194.625 326.554688 195.140625 326.898438 C 195.65625 327.246094 196.15625 327.613281 196.632812 328.007812 C 197.113281 328.398438 197.570312 328.816406 198.007812 329.253906 C 198.449219 329.691406 198.863281 330.152344 199.257812 330.628906 C 199.648438 331.109375 200.019531 331.605469 200.363281 332.121094 C 200.707031 332.636719 201.023438 333.167969 201.316406 333.714844 C 201.609375 334.261719 201.875 334.824219 202.109375 335.394531 C 202.347656 335.96875 202.554688 336.550781 202.734375 337.144531 C 202.917969 337.738281 203.066406 338.339844 203.1875 338.945312 C 203.308594 339.554688 203.398438 340.167969 203.460938 340.785156 C 203.519531 341.398438 203.550781 342.019531 203.550781 342.636719 Z M 203.550781 342.636719 " fill-opacity="1" fill-rule="nonzero"/><path fill="#f4c3e9" d="M 407.382812 361.566406 C 407.382812 362.1875 407.351562 362.804688 407.292969 363.421875 C 407.230469 364.039062 407.140625 364.652344 407.019531 365.257812 C 406.898438 365.867188 406.75 366.46875 406.566406 367.0625 C 406.386719 367.65625 406.179688 368.238281 405.941406 368.808594 C 405.707031 369.382812 405.441406 369.941406 405.148438 370.488281 C 404.855469 371.035156 404.539062 371.566406 404.195312 372.082031 C 403.851562 372.597656 403.480469 373.09375 403.089844 373.574219 C 402.695312 374.054688 402.28125 374.511719 401.839844 374.949219 C 401.402344 375.390625 400.945312 375.804688 400.464844 376.199219 C 399.988281 376.59375 399.488281 376.960938 398.972656 377.304688 C 398.457031 377.648438 397.929688 377.96875 397.382812 378.261719 C 396.835938 378.550781 396.277344 378.816406 395.703125 379.054688 C 395.128906 379.292969 394.546875 379.5 393.953125 379.679688 C 393.363281 379.859375 392.761719 380.011719 392.152344 380.132812 C 391.546875 380.253906 390.933594 380.34375 390.316406 380.402344 C 389.699219 380.464844 389.082031 380.496094 388.460938 380.496094 C 387.84375 380.496094 387.226562 380.464844 386.609375 380.402344 C 385.992188 380.34375 385.378906 380.253906 384.773438 380.132812 C 384.164062 380.011719 383.5625 379.859375 382.96875 379.679688 C 382.378906 379.5 381.792969 379.292969 381.222656 379.054688 C 380.648438 378.816406 380.089844 378.550781 379.542969 378.261719 C 378.996094 377.96875 378.464844 377.648438 377.953125 377.304688 C 377.4375 376.960938 376.9375 376.59375 376.460938 376.199219 C 375.980469 375.804688 375.523438 375.390625 375.085938 374.949219 C 374.644531 374.511719 374.230469 374.054688 373.835938 373.574219 C 373.445312 373.09375 373.074219 372.597656 372.730469 372.082031 C 372.386719 371.566406 372.070312 371.035156 371.777344 370.488281 C 371.484375 369.941406 371.21875 369.382812 370.984375 368.808594 C 370.746094 368.238281 370.535156 367.65625 370.355469 367.0625 C 370.175781 366.46875 370.027344 365.867188 369.90625 365.257812 C 369.785156 364.652344 369.695312 364.039062 369.632812 363.421875 C 369.574219 362.804688 369.542969 362.1875 369.542969 361.566406 C 369.542969 360.945312 369.574219 360.328125 369.632812 359.710938 C 369.695312 359.09375 369.785156 358.480469 369.90625 357.875 C 370.027344 357.265625 370.175781 356.664062 370.355469 356.074219 C 370.535156 355.480469 370.746094 354.894531 370.984375 354.324219 C 371.21875 353.75 371.484375 353.191406 371.777344 352.644531 C 372.070312 352.097656 372.386719 351.566406 372.730469 351.050781 C 373.074219 350.535156 373.445312 350.039062 373.835938 349.558594 C 374.230469 349.078125 374.644531 348.621094 375.085938 348.183594 C 375.523438 347.746094 375.980469 347.328125 376.460938 346.933594 C 376.9375 346.542969 377.4375 346.171875 377.953125 345.828125 C 378.464844 345.484375 378.996094 345.164062 379.542969 344.875 C 380.089844 344.582031 380.648438 344.316406 381.222656 344.078125 C 381.792969 343.84375 382.378906 343.632812 382.96875 343.453125 C 383.5625 343.273438 384.164062 343.125 384.773438 343.003906 C 385.378906 342.882812 385.992188 342.789062 386.609375 342.730469 C 387.226562 342.667969 387.84375 342.636719 388.460938 342.636719 C 389.082031 342.636719 389.699219 342.667969 390.316406 342.730469 C 390.933594 342.789062 391.546875 342.882812 392.152344 343.003906 C 392.761719 343.125 393.363281 343.273438 393.953125 343.453125 C 394.546875 343.632812 395.128906 343.84375 395.703125 344.078125 C 396.277344 344.316406 396.835938 344.582031 397.382812 344.875 C 397.929688 345.164062 398.457031 345.484375 398.972656 345.828125 C 399.488281 346.171875 399.988281 346.542969 400.464844 346.933594 C 400.945312 347.328125 401.402344 347.746094 401.839844 348.183594 C 402.28125 348.621094 402.695312 349.078125 403.089844 349.558594 C 403.480469 350.039062 403.851562 350.535156 404.195312 351.050781 C 404.539062 351.566406 404.855469 352.097656 405.148438 352.644531 C 405.441406 353.191406 405.707031 353.75 405.941406 354.324219 C 406.179688 354.894531 406.386719 355.480469 406.566406 356.074219 C 406.75 356.664062 406.898438 357.265625 407.019531 357.875 C 407.140625 358.480469 407.230469 359.09375 407.292969 359.710938 C 407.351562 360.328125 407.382812 360.945312 407.382812 361.566406 Z M 407.382812 361.566406 " fill-opacity="1" fill-rule="nonzero"/><path fill="#1a4447" d="M 411.125 642.847656 L 371.773438 715.390625 L 370.882812 716.96875 C 362.644531 731.558594 361.417969 732.761719 355.339844 732.5625 L 302.054688 731.125 C 297.25 730.84375 295.707031 728.78125 295.199219 728.105469 C 292.992188 725.164062 292.519531 719.699219 293.945312 713.484375 C 294.640625 710.417969 297.585938 700.011719 306.148438 694.902344 C 311.890625 691.484375 319.320312 690.996094 328.21875 693.46875 C 332.035156 694.539062 336.105469 692.867188 338.089844 689.433594 L 367.460938 638.5625 C 366.226562 638.539062 364.988281 638.558594 363.753906 638.4375 C 358.835938 637.945312 354.007812 636.339844 349.144531 635.441406 L 326.199219 675.183594 C 315.285156 673.375 305.554688 674.960938 297.222656 679.933594 C 283.117188 688.355469 278.347656 703.492188 276.957031 709.605469 C 274.332031 721.082031 275.863281 731.367188 281.261719 738.566406 C 284.417969 742.765625 290.40625 747.902344 301.3125 748.535156 L 354.878906 749.984375 C 355.222656 749.996094 355.566406 750 355.898438 750 C 372.246094 750 378.0625 739.695312 386.054688 725.539062 L 429.9375 644.6875 C 423.734375 645.222656 417.253906 644.46875 411.125 642.847656 Z M 411.125 642.847656 " fill-opacity="1" fill-rule="nonzero"/><path fill="#1a4447" d="M 226.007812 626.089844 C 221.085938 625.796875 216.167969 625.105469 211.253906 624.273438 L 172.417969 695.867188 L 171.527344 697.445312 C 163.285156 712.035156 162.042969 713.210938 155.980469 713.039062 L 102.699219 711.597656 C 97.894531 711.320312 96.351562 709.257812 95.839844 708.582031 C 93.636719 705.640625 93.164062 700.179688 94.589844 693.960938 C 95.285156 690.894531 98.230469 680.488281 106.792969 675.378906 C 112.53125 671.960938 119.960938 671.472656 128.859375 673.945312 C 132.671875 675.007812 136.753906 673.34375 138.734375 669.90625 L 170.398438 615.066406 C 164.332031 613.699219 158.265625 612.554688 152.195312 611.746094 L 126.839844 655.660156 C 115.929688 653.855469 106.199219 655.441406 97.867188 660.410156 C 83.761719 668.828125 78.992188 683.96875 77.601562 690.082031 C 74.976562 701.558594 76.507812 711.847656 81.90625 719.042969 C 85.058594 723.246094 91.050781 728.378906 101.957031 729.011719 L 155.523438 730.460938 C 155.867188 730.46875 156.207031 730.476562 156.542969 730.476562 C 172.886719 730.476562 178.707031 720.167969 186.699219 706.015625 L 230.101562 626.050781 C 228.78125 626.144531 227.425781 626.175781 226.007812 626.089844 Z M 226.007812 626.089844 " fill-opacity="1" fill-rule="nonzero"/><path fill="#1a4447" d="M 308.113281 307.046875 C 302.417969 307.046875 296.730469 306.554688 291.160156 305.566406 C 248.773438 298.054688 213.910156 260.042969 210.070312 217.140625 C 206.230469 174.246094 233.789062 130.636719 274.167969 115.710938 C 310.113281 102.414062 347.925781 110.292969 375.277344 136.78125 C 403.238281 163.863281 412.964844 203.648438 400.660156 240.617188 C 391.851562 267.078125 371.199219 289.195312 345.414062 299.777344 C 333.71875 304.582031 320.894531 307.046875 308.113281 307.046875 Z M 280.203125 132.0625 C 246.949219 144.355469 224.257812 180.261719 227.425781 215.585938 C 230.582031 250.914062 259.292969 282.21875 294.199219 288.40625 C 309.074219 291.039062 324.910156 289.355469 338.800781 283.652344 C 359.960938 274.964844 376.90625 256.820312 384.132812 235.109375 C 394.300781 204.558594 386.265625 171.683594 363.160156 149.304688 C 340.738281 127.59375 309.734375 121.132812 280.203125 132.0625 Z M 280.203125 132.0625 " fill-opacity="1" fill-rule="nonzero"/><path fill="#1a4447" d="M 308.042969 244.636719 C 305.929688 244.636719 303.808594 244.449219 301.703125 244.078125 C 286.074219 241.304688 273.222656 227.292969 271.804688 211.480469 C 270.390625 195.664062 280.546875 179.589844 295.4375 174.085938 C 308.515625 169.253906 322.851562 172.238281 332.816406 181.894531 C 343.097656 191.851562 346.671875 206.476562 342.144531 220.066406 C 338.890625 229.847656 331.257812 238.023438 321.722656 241.9375 C 317.367188 243.726562 312.722656 244.636719 308.042969 244.636719 Z M 308.101562 189.222656 C 305.90625 189.222656 303.671875 189.625 301.46875 190.4375 C 293.84375 193.257812 288.433594 201.820312 289.15625 209.925781 C 289.882812 218.03125 296.730469 225.492188 304.738281 226.914062 C 308.207031 227.523438 311.890625 227.128906 315.105469 225.8125 C 319.941406 223.828125 323.96875 219.515625 325.621094 214.558594 C 328.472656 205.984375 324.949219 198.53125 320.695312 194.414062 C 317.175781 191.003906 312.734375 189.222656 308.101562 189.222656 Z M 308.101562 189.222656 " fill-opacity="1" fill-rule="nonzero"/><path fill="#1a4447" d="M 321.976562 150.855469 C 321.976562 151.382812 321.925781 151.910156 321.820312 152.429688 C 321.71875 152.953125 321.566406 153.457031 321.363281 153.949219 C 321.160156 154.4375 320.910156 154.902344 320.613281 155.34375 C 320.320312 155.785156 319.984375 156.195312 319.609375 156.570312 C 319.234375 156.945312 318.828125 157.28125 318.386719 157.574219 C 317.945312 157.871094 317.480469 158.121094 316.988281 158.324219 C 316.5 158.527344 315.992188 158.679688 315.472656 158.78125 C 314.953125 158.886719 314.425781 158.9375 313.898438 158.9375 C 313.367188 158.9375 312.839844 158.886719 312.320312 158.78125 C 311.800781 158.679688 311.292969 158.527344 310.804688 158.324219 C 310.3125 158.121094 309.847656 157.871094 309.40625 157.574219 C 308.964844 157.28125 308.558594 156.945312 308.183594 156.570312 C 307.808594 156.195312 307.472656 155.785156 307.179688 155.34375 C 306.882812 154.902344 306.632812 154.4375 306.429688 153.949219 C 306.226562 153.457031 306.074219 152.953125 305.972656 152.429688 C 305.867188 151.910156 305.816406 151.382812 305.816406 150.855469 C 305.816406 150.324219 305.867188 149.796875 305.972656 149.277344 C 306.074219 148.757812 306.226562 148.25 306.429688 147.761719 C 306.632812 147.269531 306.882812 146.804688 307.179688 146.363281 C 307.472656 145.921875 307.808594 145.511719 308.183594 145.136719 C 308.558594 144.761719 308.964844 144.425781 309.40625 144.132812 C 309.847656 143.835938 310.3125 143.589844 310.804688 143.386719 C 311.292969 143.183594 311.800781 143.027344 312.320312 142.925781 C 312.839844 142.820312 313.367188 142.769531 313.898438 142.769531 C 314.425781 142.769531 314.953125 142.820312 315.472656 142.925781 C 315.992188 143.027344 316.5 143.183594 316.988281 143.386719 C 317.480469 143.589844 317.945312 143.835938 318.386719 144.132812 C 318.828125 144.425781 319.234375 144.761719 319.609375 145.136719 C 319.984375 145.511719 320.320312 145.921875 320.613281 146.363281 C 320.910156 146.804688 321.160156 147.269531 321.363281 147.761719 C 321.566406 148.25 321.71875 148.757812 321.820312 149.277344 C 321.925781 149.796875 321.976562 150.324219 321.976562 150.855469 Z M 321.976562 150.855469 " fill-opacity="1" fill-rule="nonzero"/><path fill="#1a4447" d="M 309.988281 265.464844 C 309.988281 265.996094 309.933594 266.519531 309.832031 267.042969 C 309.726562 267.5625 309.574219 268.066406 309.371094 268.558594 C 309.167969 269.046875 308.917969 269.515625 308.625 269.957031 C 308.328125 270.398438 307.996094 270.804688 307.621094 271.179688 C 307.246094 271.554688 306.835938 271.890625 306.394531 272.1875 C 305.953125 272.480469 305.488281 272.730469 305 272.933594 C 304.507812 273.136719 304.003906 273.289062 303.484375 273.394531 C 302.960938 273.496094 302.4375 273.546875 301.90625 273.546875 C 301.375 273.546875 300.851562 273.496094 300.328125 273.394531 C 299.808594 273.289062 299.304688 273.136719 298.8125 272.933594 C 298.324219 272.730469 297.859375 272.480469 297.417969 272.1875 C 296.976562 271.890625 296.566406 271.554688 296.191406 271.179688 C 295.816406 270.804688 295.484375 270.398438 295.1875 269.957031 C 294.894531 269.515625 294.644531 269.046875 294.441406 268.558594 C 294.238281 268.066406 294.085938 267.5625 293.980469 267.042969 C 293.878906 266.519531 293.824219 265.996094 293.824219 265.464844 C 293.824219 264.933594 293.878906 264.40625 293.980469 263.886719 C 294.085938 263.367188 294.238281 262.859375 294.441406 262.371094 C 294.644531 261.878906 294.894531 261.414062 295.1875 260.972656 C 295.484375 260.53125 295.816406 260.125 296.191406 259.75 C 296.566406 259.371094 296.976562 259.039062 297.417969 258.742188 C 297.859375 258.449219 298.324219 258.199219 298.8125 257.996094 C 299.304688 257.792969 299.808594 257.640625 300.328125 257.535156 C 300.851562 257.433594 301.375 257.378906 301.90625 257.378906 C 302.4375 257.378906 302.960938 257.433594 303.484375 257.535156 C 304.003906 257.640625 304.507812 257.792969 305 257.996094 C 305.488281 258.199219 305.953125 258.449219 306.394531 258.742188 C 306.835938 259.039062 307.246094 259.371094 307.621094 259.75 C 307.996094 260.125 308.328125 260.53125 308.625 260.972656 C 308.917969 261.414062 309.167969 261.878906 309.371094 262.371094 C 309.574219 262.859375 309.726562 263.367188 309.832031 263.886719 C 309.933594 264.40625 309.988281 264.933594 309.988281 265.464844 Z M 309.988281 265.464844 " fill-opacity="1" fill-rule="nonzero"/><path fill="#1a4447" d="M 373.261719 214.15625 C 373.261719 214.6875 373.210938 215.214844 373.109375 215.734375 C 373.003906 216.253906 372.851562 216.761719 372.648438 217.25 C 372.445312 217.742188 372.195312 218.207031 371.902344 218.648438 C 371.605469 219.089844 371.269531 219.496094 370.894531 219.871094 C 370.519531 220.25 370.113281 220.582031 369.671875 220.878906 C 369.230469 221.171875 368.765625 221.421875 368.273438 221.625 C 367.785156 221.828125 367.277344 221.980469 366.757812 222.085938 C 366.238281 222.1875 365.714844 222.242188 365.183594 222.242188 C 364.652344 222.242188 364.125 222.1875 363.605469 222.085938 C 363.085938 221.980469 362.582031 221.828125 362.089844 221.625 C 361.601562 221.421875 361.132812 221.171875 360.691406 220.878906 C 360.253906 220.582031 359.84375 220.25 359.46875 219.871094 C 359.09375 219.496094 358.757812 219.089844 358.464844 218.648438 C 358.167969 218.207031 357.921875 217.742188 357.71875 217.25 C 357.515625 216.761719 357.359375 216.253906 357.257812 215.734375 C 357.152344 215.214844 357.101562 214.6875 357.101562 214.15625 C 357.101562 213.625 357.152344 213.101562 357.257812 212.578125 C 357.359375 212.058594 357.515625 211.554688 357.71875 211.0625 C 357.921875 210.574219 358.167969 210.105469 358.464844 209.664062 C 358.757812 209.222656 359.09375 208.816406 359.46875 208.441406 C 359.84375 208.066406 360.253906 207.730469 360.691406 207.4375 C 361.132812 207.140625 361.601562 206.890625 362.089844 206.6875 C 362.582031 206.484375 363.085938 206.332031 363.605469 206.230469 C 364.125 206.125 364.652344 206.074219 365.183594 206.074219 C 365.714844 206.074219 366.238281 206.125 366.757812 206.230469 C 367.277344 206.332031 367.785156 206.484375 368.273438 206.6875 C 368.765625 206.890625 369.230469 207.140625 369.671875 207.4375 C 370.113281 207.730469 370.519531 208.066406 370.894531 208.441406 C 371.269531 208.816406 371.605469 209.222656 371.902344 209.664062 C 372.195312 210.105469 372.445312 210.574219 372.648438 211.0625 C 372.851562 211.554688 373.003906 212.058594 373.109375 212.578125 C 373.210938 213.101562 373.261719 213.625 373.261719 214.15625 Z M 373.261719 214.15625 " fill-opacity="1" fill-rule="nonzero"/><path fill="#1a4447" d="M 258.699219 202.160156 C 258.699219 202.691406 258.648438 203.21875 258.546875 203.738281 C 258.441406 204.257812 258.289062 204.765625 258.085938 205.253906 C 257.882812 205.746094 257.632812 206.210938 257.339844 206.652344 C 257.042969 207.09375 256.710938 207.503906 256.335938 207.878906 C 255.957031 208.253906 255.550781 208.585938 255.109375 208.882812 C 254.667969 209.175781 254.203125 209.425781 253.710938 209.628906 C 253.222656 209.832031 252.71875 209.984375 252.195312 210.089844 C 251.675781 210.191406 251.152344 210.246094 250.621094 210.246094 C 250.089844 210.246094 249.566406 210.191406 249.042969 210.089844 C 248.523438 209.984375 248.019531 209.832031 247.527344 209.628906 C 247.039062 209.425781 246.574219 209.175781 246.132812 208.882812 C 245.691406 208.585938 245.28125 208.253906 244.90625 207.878906 C 244.53125 207.503906 244.195312 207.09375 243.902344 206.652344 C 243.605469 206.210938 243.359375 205.746094 243.15625 205.253906 C 242.953125 204.765625 242.800781 204.257812 242.695312 203.738281 C 242.59375 203.21875 242.539062 202.691406 242.539062 202.160156 C 242.539062 201.628906 242.59375 201.105469 242.695312 200.585938 C 242.800781 200.0625 242.953125 199.558594 243.15625 199.066406 C 243.359375 198.578125 243.605469 198.113281 243.902344 197.671875 C 244.195312 197.230469 244.53125 196.820312 244.90625 196.445312 C 245.28125 196.070312 245.691406 195.734375 246.132812 195.441406 C 246.574219 195.144531 247.039062 194.894531 247.527344 194.691406 C 248.019531 194.488281 248.523438 194.335938 249.042969 194.234375 C 249.566406 194.128906 250.089844 194.078125 250.621094 194.078125 C 251.152344 194.078125 251.675781 194.128906 252.195312 194.234375 C 252.71875 194.335938 253.222656 194.488281 253.710938 194.691406 C 254.203125 194.894531 254.667969 195.144531 255.109375 195.441406 C 255.550781 195.734375 255.957031 196.070312 256.335938 196.445312 C 256.710938 196.820312 257.042969 197.230469 257.339844 197.671875 C 257.632812 198.113281 257.882812 198.578125 258.085938 199.066406 C 258.289062 199.558594 258.441406 200.0625 258.546875 200.585938 C 258.648438 201.105469 258.699219 201.628906 258.699219 202.160156 Z M 258.699219 202.160156 " fill-opacity="1" fill-rule="nonzero"/><path fill="#1a4447" d="M 360.722656 171.878906 C 360.722656 172.410156 360.671875 172.9375 360.570312 173.457031 C 360.464844 173.976562 360.3125 174.480469 360.109375 174.972656 C 359.90625 175.464844 359.65625 175.929688 359.363281 176.371094 C 359.066406 176.8125 358.734375 177.21875 358.359375 177.59375 C 357.984375 177.96875 357.574219 178.304688 357.132812 178.601562 C 356.691406 178.894531 356.226562 179.144531 355.738281 179.347656 C 355.246094 179.550781 354.742188 179.703125 354.21875 179.808594 C 353.699219 179.910156 353.175781 179.960938 352.644531 179.960938 C 352.113281 179.960938 351.589844 179.910156 351.066406 179.808594 C 350.546875 179.703125 350.042969 179.550781 349.550781 179.347656 C 349.0625 179.144531 348.597656 178.894531 348.15625 178.601562 C 347.714844 178.304688 347.304688 177.96875 346.929688 177.59375 C 346.554688 177.21875 346.21875 176.8125 345.925781 176.371094 C 345.632812 175.929688 345.382812 175.464844 345.179688 174.972656 C 344.976562 174.480469 344.824219 173.976562 344.71875 173.457031 C 344.617188 172.9375 344.5625 172.410156 344.5625 171.878906 C 344.5625 171.347656 344.617188 170.824219 344.71875 170.300781 C 344.824219 169.78125 344.976562 169.277344 345.179688 168.785156 C 345.382812 168.296875 345.632812 167.828125 345.925781 167.386719 C 346.21875 166.945312 346.554688 166.539062 346.929688 166.164062 C 347.304688 165.789062 347.714844 165.453125 348.15625 165.15625 C 348.597656 164.863281 349.0625 164.613281 349.550781 164.410156 C 350.042969 164.207031 350.546875 164.054688 351.066406 163.949219 C 351.589844 163.847656 352.113281 163.796875 352.644531 163.796875 C 353.175781 163.796875 353.699219 163.847656 354.21875 163.949219 C 354.742188 164.054688 355.246094 164.207031 355.738281 164.410156 C 356.226562 164.613281 356.691406 164.863281 357.132812 165.15625 C 357.574219 165.453125 357.984375 165.789062 358.359375 166.164062 C 358.734375 166.539062 359.066406 166.945312 359.363281 167.386719 C 359.65625 167.828125 359.90625 168.296875 360.109375 168.785156 C 360.3125 169.277344 360.464844 169.78125 360.570312 170.300781 C 360.671875 170.824219 360.722656 171.347656 360.722656 171.878906 Z M 360.722656 171.878906 " fill-opacity="1" fill-rule="nonzero"/><path fill="#1a4447" d="M 271.238281 244.4375 C 271.238281 244.96875 271.1875 245.496094 271.082031 246.015625 C 270.980469 246.535156 270.828125 247.042969 270.625 247.53125 C 270.421875 248.023438 270.171875 248.488281 269.878906 248.929688 C 269.582031 249.371094 269.246094 249.78125 268.871094 250.15625 C 268.496094 250.53125 268.089844 250.867188 267.648438 251.160156 C 267.207031 251.457031 266.742188 251.703125 266.25 251.90625 C 265.761719 252.109375 265.253906 252.265625 264.734375 252.367188 C 264.214844 252.472656 263.6875 252.523438 263.160156 252.523438 C 262.628906 252.523438 262.101562 252.472656 261.582031 252.367188 C 261.0625 252.265625 260.558594 252.109375 260.066406 251.90625 C 259.578125 251.703125 259.109375 251.457031 258.667969 251.160156 C 258.226562 250.867188 257.820312 250.53125 257.445312 250.15625 C 257.070312 249.78125 256.734375 249.371094 256.441406 248.929688 C 256.144531 248.488281 255.898438 248.023438 255.695312 247.53125 C 255.492188 247.042969 255.335938 246.535156 255.234375 246.015625 C 255.128906 245.496094 255.078125 244.96875 255.078125 244.4375 C 255.078125 243.910156 255.128906 243.382812 255.234375 242.863281 C 255.335938 242.339844 255.492188 241.835938 255.695312 241.34375 C 255.898438 240.855469 256.144531 240.390625 256.441406 239.949219 C 256.734375 239.507812 257.070312 239.097656 257.445312 238.722656 C 257.820312 238.347656 258.226562 238.011719 258.667969 237.71875 C 259.109375 237.421875 259.578125 237.175781 260.066406 236.972656 C 260.558594 236.769531 261.0625 236.613281 261.582031 236.511719 C 262.101562 236.40625 262.628906 236.355469 263.160156 236.355469 C 263.6875 236.355469 264.214844 236.40625 264.734375 236.511719 C 265.253906 236.613281 265.761719 236.769531 266.25 236.972656 C 266.742188 237.175781 267.207031 237.421875 267.648438 237.71875 C 268.089844 238.011719 268.496094 238.347656 268.871094 238.722656 C 269.246094 239.097656 269.582031 239.507812 269.878906 239.949219 C 270.171875 240.390625 270.421875 240.855469 270.625 241.34375 C 270.828125 241.835938 270.980469 242.339844 271.082031 242.863281 C 271.1875 243.382812 271.238281 243.910156 271.238281 244.4375 Z M 271.238281 244.4375 " fill-opacity="1" fill-rule="nonzero"/><path fill="#1a4447" d="M 279.71875 163.398438 C 279.71875 163.929688 279.664062 164.453125 279.5625 164.972656 C 279.457031 165.496094 279.304688 166 279.101562 166.492188 C 278.898438 166.980469 278.648438 167.445312 278.355469 167.886719 C 278.0625 168.328125 277.726562 168.738281 277.351562 169.113281 C 276.976562 169.488281 276.566406 169.824219 276.125 170.117188 C 275.683594 170.414062 275.21875 170.664062 274.730469 170.867188 C 274.238281 171.070312 273.734375 171.222656 273.214844 171.324219 C 272.691406 171.429688 272.167969 171.480469 271.636719 171.480469 C 271.105469 171.480469 270.582031 171.429688 270.058594 171.324219 C 269.539062 171.222656 269.035156 171.070312 268.542969 170.867188 C 268.054688 170.664062 267.589844 170.414062 267.148438 170.117188 C 266.707031 169.824219 266.296875 169.488281 265.921875 169.113281 C 265.546875 168.738281 265.214844 168.328125 264.917969 167.886719 C 264.625 167.445312 264.375 166.980469 264.171875 166.492188 C 263.96875 166 263.816406 165.496094 263.710938 164.972656 C 263.609375 164.453125 263.558594 163.929688 263.558594 163.398438 C 263.558594 162.867188 263.609375 162.339844 263.710938 161.820312 C 263.816406 161.300781 263.96875 160.792969 264.171875 160.304688 C 264.375 159.8125 264.625 159.347656 264.917969 158.90625 C 265.214844 158.464844 265.546875 158.058594 265.921875 157.679688 C 266.296875 157.304688 266.707031 156.972656 267.148438 156.675781 C 267.589844 156.382812 268.054688 156.132812 268.542969 155.929688 C 269.035156 155.726562 269.539062 155.574219 270.058594 155.46875 C 270.582031 155.367188 271.105469 155.3125 271.636719 155.3125 C 272.167969 155.3125 272.691406 155.367188 273.214844 155.46875 C 273.734375 155.574219 274.238281 155.726562 274.730469 155.929688 C 275.21875 156.132812 275.683594 156.382812 276.125 156.675781 C 276.566406 156.972656 276.976562 157.304688 277.351562 157.679688 C 277.726562 158.058594 278.0625 158.464844 278.355469 158.90625 C 278.648438 159.347656 278.898438 159.8125 279.101562 160.304688 C 279.304688 160.792969 279.457031 161.300781 279.5625 161.820312 C 279.664062 162.339844 279.71875 162.867188 279.71875 163.398438 Z M 279.71875 163.398438 " fill-opacity="1" fill-rule="nonzero"/><path fill="#1a4447" d="M 352.246094 252.921875 C 352.246094 253.453125 352.195312 253.976562 352.089844 254.496094 C 351.988281 255.019531 351.835938 255.523438 351.632812 256.015625 C 351.429688 256.503906 351.179688 256.96875 350.882812 257.410156 C 350.589844 257.851562 350.253906 258.261719 349.878906 258.636719 C 349.503906 259.011719 349.097656 259.347656 348.65625 259.640625 C 348.214844 259.9375 347.75 260.1875 347.257812 260.390625 C 346.769531 260.59375 346.261719 260.746094 345.742188 260.847656 C 345.222656 260.953125 344.695312 261.003906 344.167969 261.003906 C 343.636719 261.003906 343.109375 260.953125 342.589844 260.847656 C 342.070312 260.746094 341.5625 260.59375 341.074219 260.390625 C 340.582031 260.1875 340.117188 259.9375 339.675781 259.640625 C 339.234375 259.347656 338.828125 259.011719 338.453125 258.636719 C 338.078125 258.261719 337.742188 257.851562 337.449219 257.410156 C 337.152344 256.96875 336.902344 256.503906 336.699219 256.015625 C 336.496094 255.523438 336.34375 255.019531 336.242188 254.496094 C 336.136719 253.976562 336.085938 253.453125 336.085938 252.921875 C 336.085938 252.390625 336.136719 251.863281 336.242188 251.34375 C 336.34375 250.824219 336.496094 250.316406 336.699219 249.828125 C 336.902344 249.335938 337.152344 248.871094 337.449219 248.429688 C 337.742188 247.988281 338.078125 247.582031 338.453125 247.203125 C 338.828125 246.828125 339.234375 246.496094 339.675781 246.199219 C 340.117188 245.90625 340.582031 245.65625 341.074219 245.453125 C 341.5625 245.25 342.070312 245.097656 342.589844 244.992188 C 343.109375 244.890625 343.636719 244.835938 344.167969 244.835938 C 344.695312 244.835938 345.222656 244.890625 345.742188 244.992188 C 346.261719 245.097656 346.769531 245.25 347.257812 245.453125 C 347.75 245.65625 348.214844 245.90625 348.65625 246.199219 C 349.097656 246.496094 349.503906 246.828125 349.878906 247.203125 C 350.253906 247.582031 350.589844 247.988281 350.882812 248.429688 C 351.179688 248.871094 351.429688 249.335938 351.632812 249.828125 C 351.835938 250.316406 351.988281 250.824219 352.089844 251.34375 C 352.195312 251.863281 352.246094 252.390625 352.246094 252.921875 Z M 352.246094 252.921875 " fill-opacity="1" fill-rule="nonzero"/><path fill="#1a4447" d="M 509.226562 654.546875 C 363.539062 654.546875 143.273438 628.578125 31.261719 602.296875 C 27.476562 601.40625 24.742188 598.121094 24.550781 594.242188 C 15.136719 403.984375 32.308594 225.855469 80.238281 16.683594 C 81.105469 12.898438 84.363281 10.148438 88.230469 9.925781 C 261.78125 -0.0234375 475.164062 20.355469 607.132812 59.5 C 621.140625 63.65625 706.53125 115.085938 720.679688 139.507812 C 734.511719 163.398438 718.054688 327.992188 714.617188 360.742188 C 709.773438 406.859375 692.550781 558.691406 674.265625 576.1875 C 652.46875 597.042969 589.824219 651.535156 562.0625 653.160156 C 546 654.105469 528.238281 654.546875 509.226562 654.546875 Z M 41.640625 586.800781 C 169.46875 615.738281 425.585938 643.71875 561.039062 635.761719 C 577.210938 634.8125 627.292969 597.003906 662.167969 563.644531 C 682.636719 540.097656 720.78125 175.40625 705.605469 148.242188 C 694.332031 128.785156 613.03125 79.429688 602.175781 76.210938 C 473.570312 38.0625 266.320312 17.996094 95.761719 26.96875 C 49.867188 229.339844 33.109375 402.617188 41.640625 586.800781 Z M 41.640625 586.800781 " fill-opacity="1" fill-rule="nonzero"/><path fill="#1a4447" d="M 570.859375 641.019531 L 572.265625 631.378906 C 599.429688 445.292969 627.503906 252.890625 613.414062 68.390625 C 607.90625 66.742188 602.335938 65.515625 596.824219 64.117188 C 596.1875 65.449219 595.847656 66.945312 595.972656 68.527344 C 610.121094 251.457031 582.109375 443.316406 555.023438 628.859375 L 552.929688 643.203125 C 552.761719 644.363281 552.839844 645.5 553.105469 646.570312 C 558.972656 644.535156 564.898438 642.730469 570.859375 641.019531 Z M 570.859375 641.019531 " fill-opacity="1" fill-rule="nonzero"/><path fill="#1a4447" d="M 499.882812 490.5 C 496.210938 490.597656 492.582031 490.230469 488.96875 489.609375 C 482.152344 530.863281 475.898438 561.417969 472.050781 572.628906 C 340.191406 573.777344 220.902344 563.058594 107.847656 539.859375 C 116.761719 381.960938 133.441406 230.269531 157.445312 88.742188 C 277.519531 76.835938 397.058594 87.308594 522.425781 120.726562 C 523.347656 150.316406 522.339844 184.960938 520.082031 221.625 C 525.863281 222.203125 531.78125 223.699219 537.128906 226.210938 C 539.820312 184.195312 540.921875 145.167969 539.601562 113.621094 C 539.445312 109.824219 536.847656 106.570312 533.183594 105.574219 C 401.152344 69.640625 275.519531 58.6875 149.050781 72.082031 C 145.175781 72.492188 142.039062 75.429688 141.382812 79.273438 C 116.292969 225.542969 99.011719 382.703125 90.035156 546.390625 C 89.800781 550.683594 92.734375 554.507812 96.941406 555.394531 C 207.863281 578.742188 324.535156 590.144531 452.875 590.144531 C 461.105469 590.144531 469.378906 590.101562 477.703125 590.007812 C 480.167969 589.976562 482.496094 588.910156 484.128906 587.070312 C 489.191406 581.359375 497.640625 543.707031 506.464844 490.566406 C 505.566406 490.464844 504.5625 490.359375 504.101562 490.363281 C 502.695312 490.378906 501.289062 490.460938 499.882812 490.5 Z M 499.882812 490.5 " fill-opacity="1" fill-rule="nonzero"/><path fill="#1a4447" d="M 516.082031 274.988281 C 511.296875 329.550781 504.488281 385.527344 497.488281 434.253906 C 498.734375 434.554688 499.953125 434.957031 501.109375 435.507812 C 501.257812 435.539062 501.3125 435.539062 501.507812 435.585938 C 502.402344 435.800781 503.308594 435.929688 504.210938 436.097656 C 507.289062 436.660156 510.113281 437.535156 512.917969 439.105469 C 513.398438 439.375 513.824219 439.699219 514.277344 439.996094 C 521.515625 389.851562 528.378906 332.492188 533.226562 277.0625 C 527.410156 276.6875 521.734375 276.199219 516.082031 274.988281 Z M 516.082031 274.988281 " fill-opacity="1" fill-rule="nonzero"/><path fill="#1a4447" d="M 557.316406 287.835938 C 557.054688 287.835938 556.796875 287.824219 556.539062 287.800781 C 545.953125 286.851562 535.410156 286.125 524.878906 285.398438 C 511.105469 284.445312 496.855469 283.460938 482.746094 281.980469 C 478.25 281.511719 474.859375 277.675781 474.941406 273.152344 C 475.3125 253.558594 476.433594 243.046875 479.859375 219.363281 C 480.488281 215.007812 484.25 211.902344 488.683594 211.894531 C 513.578125 211.894531 536.34375 213.933594 562.464844 218.503906 C 566.808594 219.261719 569.898438 223.152344 569.660156 227.5625 C 569.152344 236.960938 568.488281 245.371094 567.824219 253.785156 C 567.171875 262.0625 566.519531 270.34375 566.015625 279.59375 C 565.882812 281.953125 564.800781 284.160156 563.015625 285.710938 C 561.425781 287.085938 559.402344 287.835938 557.316406 287.835938 Z M 492.582031 265.433594 C 503.789062 266.46875 515.085938 267.246094 526.082031 268.007812 C 533.765625 268.539062 541.457031 269.070312 549.164062 269.6875 C 549.5625 263.730469 550.011719 258.074219 550.453125 252.414062 C 550.917969 246.523438 551.382812 240.632812 551.796875 234.390625 C 532.378906 231.304688 514.664062 229.710938 496.027344 229.386719 C 493.988281 244.113281 493.027344 253.367188 492.582031 265.433594 Z M 492.582031 265.433594 " fill-opacity="1" fill-rule="nonzero"/><path fill="#1a4447" d="M 534.894531 502.097656 C 534.640625 502.097656 534.378906 502.085938 534.117188 502.066406 C 523.558594 501.121094 513.027344 500.390625 502.511719 499.664062 C 488.71875 498.710938 474.460938 497.722656 460.332031 496.246094 C 455.835938 495.773438 452.449219 491.941406 452.53125 487.417969 C 452.890625 467.816406 454.019531 457.304688 457.445312 433.625 C 458.070312 429.273438 461.902344 426.082031 466.269531 426.15625 C 491.167969 426.15625 513.933594 428.195312 540.050781 432.769531 C 544.394531 433.53125 547.484375 437.421875 547.246094 441.828125 C 546.730469 451.226562 546.070312 459.640625 545.40625 468.054688 C 544.753906 476.332031 544.101562 484.609375 543.59375 493.859375 C 543.464844 496.21875 542.382812 498.425781 540.59375 499.972656 C 539.007812 501.351562 536.984375 502.097656 534.894531 502.097656 Z M 470.167969 479.699219 C 481.390625 480.734375 492.699219 481.515625 503.714844 482.277344 C 511.382812 482.808594 519.054688 483.339844 526.746094 483.949219 C 527.144531 477.992188 527.589844 472.339844 528.039062 466.683594 C 528.503906 460.789062 528.96875 454.898438 529.382812 448.65625 C 509.96875 445.566406 492.257812 443.976562 473.617188 443.648438 C 471.566406 458.375 470.609375 467.625 470.167969 479.699219 Z M 470.167969 479.699219 " fill-opacity="1" fill-rule="nonzero"/><path fill="#1a4447" d="M 184.089844 459.460938 C 183.679688 459.460938 183.277344 459.457031 182.875 459.445312 C 170.789062 459.070312 153.785156 453.09375 141.394531 426.734375 C 131.082031 404.789062 138.535156 379.484375 158.007812 370.324219 C 168.769531 365.25 179.839844 365.394531 188.394531 370.714844 C 194.625 374.601562 201.976562 382.808594 203.945312 400.101562 C 210.148438 401.851562 215.972656 405.960938 219.863281 411.679688 C 225.625 420.160156 226.0625 430.265625 221.054688 439.40625 C 215.570312 449.414062 200.378906 459.460938 184.089844 459.460938 Z M 173.675781 384.050781 C 170.277344 384.050781 167.046875 385.332031 165.425781 386.097656 C 154.644531 391.167969 150.9375 406.070312 157.160156 419.320312 C 164.089844 434.0625 172.921875 441.699219 183.410156 442.023438 C 194.117188 442.289062 203.574219 435.039062 205.777344 431.023438 C 207.601562 427.691406 207.496094 424.484375 205.457031 421.484375 C 203.128906 418.0625 199.1875 416.332031 196.808594 416.636719 C 194.359375 416.933594 191.886719 416.195312 190.015625 414.574219 C 188.144531 412.953125 187.054688 410.613281 187.007812 408.140625 C 186.8125 396.566406 184.03125 388.535156 179.183594 385.511719 C 177.457031 384.4375 175.542969 384.050781 173.675781 384.050781 Z M 173.675781 384.050781 " fill-opacity="1" fill-rule="nonzero"/><path fill="#1a4447" d="M 219.097656 515.425781 C 218.421875 510.660156 213.988281 507.320312 209.246094 508.023438 C 189.363281 510.832031 171.542969 503.9375 163.75 490.4375 C 156.269531 477.484375 158.671875 460.296875 170.171875 442.347656 C 162.980469 441.886719 158.097656 438.046875 155.535156 432.914062 C 140.363281 456.574219 137.769531 480.28125 148.664062 499.15625 C 158.5625 516.304688 177.726562 526.105469 200.222656 526.105469 C 203.960938 526.105469 207.800781 525.835938 211.699219 525.277344 C 216.460938 524.605469 219.773438 520.191406 219.097656 515.425781 Z M 219.097656 515.425781 " fill-opacity="1" fill-rule="nonzero"/><path fill="#1a4447" d="M 388.449219 477.234375 C 388.046875 477.234375 387.640625 477.230469 387.234375 477.21875 C 375.152344 476.84375 358.152344 470.867188 345.757812 444.507812 C 340.863281 434.101562 339.769531 422.597656 342.671875 412.125 C 345.714844 401.175781 352.707031 392.640625 362.363281 388.09375 C 373.15625 383.023438 384.226562 383.175781 392.757812 388.492188 C 398.992188 392.375 406.339844 400.582031 408.308594 417.875 C 414.511719 419.621094 420.332031 423.730469 424.222656 429.445312 C 429.992188 437.925781 430.421875 448.035156 425.414062 457.179688 C 419.929688 467.1875 404.734375 477.234375 388.449219 477.234375 Z M 378.035156 401.820312 C 374.636719 401.820312 371.40625 403.105469 369.777344 403.867188 C 364.785156 406.214844 361.121094 410.804688 359.460938 416.785156 C 357.667969 423.242188 358.40625 430.453125 361.527344 437.09375 C 368.457031 451.835938 377.285156 459.472656 387.773438 459.796875 C 398.269531 460.113281 407.941406 452.8125 410.136719 448.796875 C 411.960938 445.460938 411.855469 442.25 409.816406 439.253906 C 407.492188 435.828125 403.628906 434.117188 401.175781 434.410156 C 398.730469 434.71875 396.25 433.96875 394.378906 432.351562 C 392.507812 430.726562 391.417969 428.390625 391.375 425.914062 C 391.175781 414.34375 388.398438 406.308594 383.546875 403.285156 C 381.824219 402.210938 379.902344 401.820312 378.035156 401.820312 Z M 378.035156 401.820312 " fill-opacity="1" fill-rule="nonzero"/><path fill="#1a4447" d="M 423.457031 533.199219 C 422.777344 528.433594 418.335938 525.101562 413.605469 525.796875 C 393.722656 528.609375 375.902344 521.710938 368.109375 508.210938 C 360.84375 495.617188 362.992188 479.015625 373.675781 461.613281 C 366.863281 459.90625 362.71875 454.742188 361.1875 448.761719 C 344.898438 473.054688 341.835938 497.542969 353.023438 516.925781 C 362.921875 534.078125 382.085938 543.878906 404.582031 543.878906 C 408.320312 543.878906 412.160156 543.609375 416.054688 543.050781 C 420.820312 542.378906 424.132812 537.964844 423.457031 533.199219 Z M 423.457031 533.199219 " fill-opacity="1" fill-rule="nonzero"/><path fill="#1a4447" d="M 211.578125 298.441406 C 212.160156 298.507812 212.734375 298.613281 213.300781 298.761719 C 213.867188 298.910156 214.425781 299.101562 214.976562 299.335938 C 215.527344 299.566406 216.066406 299.839844 216.59375 300.152344 C 217.117188 300.464844 217.632812 300.816406 218.132812 301.207031 C 218.628906 301.597656 219.113281 302.027344 219.578125 302.492188 C 220.042969 302.957031 220.492188 303.457031 220.921875 303.992188 C 221.347656 304.523438 221.757812 305.089844 222.144531 305.691406 C 222.53125 306.289062 222.898438 306.917969 223.238281 307.574219 C 223.582031 308.234375 223.898438 308.917969 224.191406 309.628906 C 224.484375 310.335938 224.753906 311.070312 224.996094 311.824219 C 225.238281 312.582031 225.453125 313.355469 225.640625 314.148438 C 225.832031 314.945312 225.992188 315.753906 226.125 316.578125 C 226.257812 317.402344 226.363281 318.238281 226.4375 319.085938 C 226.515625 319.929688 226.5625 320.785156 226.582031 321.648438 C 226.601562 322.507812 226.589844 323.375 226.550781 324.242188 C 226.511719 325.109375 226.445312 325.976562 226.347656 326.84375 C 226.253906 327.707031 226.128906 328.566406 225.976562 329.421875 C 225.824219 330.277344 225.644531 331.125 225.4375 331.960938 C 225.230469 332.796875 224.996094 333.621094 224.734375 334.429688 C 224.476562 335.238281 224.191406 336.03125 223.878906 336.808594 C 223.566406 337.582031 223.234375 338.335938 222.875 339.070312 C 222.519531 339.800781 222.136719 340.511719 221.734375 341.195312 C 221.332031 341.878906 220.910156 342.535156 220.46875 343.164062 C 220.027344 343.792969 219.566406 344.390625 219.089844 344.957031 C 218.613281 345.523438 218.117188 346.054688 217.609375 346.554688 C 217.101562 347.054688 216.578125 347.519531 216.042969 347.945312 C 215.507812 348.371094 214.960938 348.761719 214.402344 349.113281 C 213.847656 349.464844 213.28125 349.777344 212.710938 350.046875 C 212.136719 350.320312 211.558594 350.550781 210.976562 350.738281 C 210.394531 350.929688 209.808594 351.078125 209.222656 351.183594 C 208.632812 351.289062 208.046875 351.351562 207.460938 351.371094 C 206.875 351.394531 206.292969 351.371094 205.710938 351.308594 C 205.132812 351.242188 204.558594 351.136719 203.992188 350.988281 C 203.421875 350.839844 202.863281 350.648438 202.3125 350.414062 C 201.765625 350.183594 201.226562 349.910156 200.699219 349.597656 C 200.171875 349.285156 199.660156 348.933594 199.160156 348.542969 C 198.660156 348.152344 198.179688 347.722656 197.710938 347.257812 C 197.246094 346.792969 196.800781 346.292969 196.371094 345.761719 C 195.941406 345.226562 195.535156 344.660156 195.144531 344.058594 C 194.757812 343.460938 194.394531 342.832031 194.050781 342.175781 C 193.710938 341.515625 193.390625 340.832031 193.097656 340.125 C 192.804688 339.414062 192.539062 338.679688 192.296875 337.925781 C 192.054688 337.167969 191.835938 336.394531 191.648438 335.601562 C 191.460938 334.808594 191.300781 333.996094 191.167969 333.171875 C 191.035156 332.347656 190.929688 331.511719 190.851562 330.664062 C 190.777344 329.820312 190.726562 328.964844 190.710938 328.101562 C 190.691406 327.242188 190.699219 326.375 190.738281 325.507812 C 190.777344 324.640625 190.84375 323.773438 190.941406 322.910156 C 191.039062 322.042969 191.160156 321.183594 191.3125 320.328125 C 191.46875 319.472656 191.648438 318.625 191.855469 317.789062 C 192.0625 316.953125 192.296875 316.128906 192.554688 315.320312 C 192.816406 314.511719 193.101562 313.71875 193.410156 312.941406 C 193.722656 312.167969 194.058594 311.414062 194.414062 310.679688 C 194.773438 309.949219 195.152344 309.238281 195.554688 308.554688 C 195.957031 307.871094 196.378906 307.214844 196.820312 306.585938 C 197.261719 305.957031 197.722656 305.359375 198.203125 304.792969 C 198.679688 304.226562 199.171875 303.695312 199.683594 303.195312 C 200.191406 302.695312 200.714844 302.230469 201.25 301.804688 C 201.785156 301.378906 202.332031 300.988281 202.886719 300.636719 C 203.445312 300.285156 204.007812 299.972656 204.582031 299.703125 C 205.152344 299.429688 205.730469 299.199219 206.3125 299.011719 C 206.898438 298.820312 207.480469 298.671875 208.070312 298.566406 C 208.65625 298.460938 209.242188 298.398438 209.828125 298.378906 C 210.417969 298.355469 211 298.378906 211.578125 298.441406 Z M 211.578125 298.441406 " fill-opacity="1" fill-rule="nonzero"/><path fill="#1a4447" d="M 371.484375 316.207031 C 372.0625 316.273438 372.636719 316.378906 373.203125 316.527344 C 373.773438 316.675781 374.332031 316.867188 374.882812 317.097656 C 375.429688 317.332031 375.96875 317.601562 376.496094 317.917969 C 377.023438 318.230469 377.535156 318.582031 378.035156 318.972656 C 378.535156 319.363281 379.015625 319.789062 379.484375 320.253906 C 379.949219 320.71875 380.394531 321.21875 380.824219 321.753906 C 381.253906 322.289062 381.660156 322.855469 382.050781 323.453125 C 382.4375 324.054688 382.800781 324.683594 383.144531 325.339844 C 383.484375 325.996094 383.800781 326.679688 384.097656 327.390625 C 384.390625 328.101562 384.65625 328.835938 384.898438 329.589844 C 385.140625 330.34375 385.359375 331.121094 385.546875 331.914062 C 385.734375 332.707031 385.894531 333.515625 386.027344 334.339844 C 386.160156 335.164062 386.265625 336 386.34375 336.847656 C 386.417969 337.695312 386.46875 338.550781 386.484375 339.410156 C 386.503906 340.273438 386.496094 341.136719 386.457031 342.003906 C 386.417969 342.875 386.351562 343.742188 386.253906 344.605469 C 386.15625 345.472656 386.035156 346.332031 385.882812 347.1875 C 385.726562 348.042969 385.546875 348.886719 385.339844 349.726562 C 385.132812 350.5625 384.898438 351.382812 384.640625 352.195312 C 384.378906 353.003906 384.09375 353.796875 383.785156 354.570312 C 383.472656 355.347656 383.136719 356.101562 382.78125 356.832031 C 382.421875 357.566406 382.042969 358.277344 381.640625 358.960938 C 381.238281 359.644531 380.816406 360.300781 380.375 360.929688 C 379.933594 361.554688 379.472656 362.152344 378.992188 362.71875 C 378.515625 363.285156 378.023438 363.820312 377.511719 364.320312 C 377.003906 364.820312 376.480469 365.28125 375.945312 365.710938 C 375.410156 366.136719 374.863281 366.527344 374.308594 366.878906 C 373.75 367.230469 373.1875 367.539062 372.613281 367.8125 C 372.042969 368.082031 371.464844 368.316406 370.882812 368.503906 C 370.296875 368.695312 369.714844 368.839844 369.125 368.945312 C 368.539062 369.054688 367.953125 369.117188 367.367188 369.136719 C 366.777344 369.15625 366.195312 369.136719 365.617188 369.070312 C 365.035156 369.007812 364.460938 368.898438 363.894531 368.75 C 363.328125 368.601562 362.769531 368.410156 362.21875 368.179688 C 361.667969 367.949219 361.128906 367.675781 360.601562 367.363281 C 360.074219 367.050781 359.5625 366.699219 359.0625 366.308594 C 358.566406 365.914062 358.082031 365.488281 357.617188 365.023438 C 357.152344 364.558594 356.703125 364.058594 356.273438 363.523438 C 355.847656 362.988281 355.4375 362.421875 355.050781 361.824219 C 354.664062 361.226562 354.296875 360.597656 353.957031 359.9375 C 353.613281 359.28125 353.296875 358.597656 353.003906 357.886719 C 352.710938 357.175781 352.441406 356.445312 352.199219 355.6875 C 351.957031 354.933594 351.742188 354.160156 351.554688 353.363281 C 351.363281 352.570312 351.203125 351.761719 351.070312 350.9375 C 350.9375 350.113281 350.832031 349.277344 350.757812 348.429688 C 350.679688 347.582031 350.632812 346.730469 350.613281 345.867188 C 350.59375 345.003906 350.605469 344.140625 350.644531 343.273438 C 350.683594 342.40625 350.75 341.539062 350.847656 340.671875 C 350.941406 339.808594 351.066406 338.945312 351.21875 338.089844 C 351.371094 337.234375 351.550781 336.390625 351.757812 335.554688 C 351.964844 334.71875 352.199219 333.894531 352.460938 333.085938 C 352.71875 332.273438 353.003906 331.480469 353.316406 330.707031 C 353.625 329.933594 353.960938 329.179688 354.320312 328.445312 C 354.675781 327.710938 355.058594 327.003906 355.460938 326.320312 C 355.863281 325.636719 356.285156 324.980469 356.726562 324.351562 C 357.167969 323.722656 357.628906 323.125 358.105469 322.558594 C 358.582031 321.992188 359.078125 321.457031 359.585938 320.960938 C 360.09375 320.460938 360.617188 319.996094 361.152344 319.570312 C 361.6875 319.140625 362.234375 318.753906 362.792969 318.402344 C 363.347656 318.050781 363.914062 317.738281 364.484375 317.464844 C 365.058594 317.195312 365.636719 316.964844 366.21875 316.773438 C 366.800781 316.585938 367.386719 316.4375 367.972656 316.332031 C 368.5625 316.226562 369.148438 316.164062 369.734375 316.140625 C 370.320312 316.121094 370.902344 316.144531 371.484375 316.207031 Z M 371.484375 316.207031 " fill-opacity="1" fill-rule="nonzero"/><path fill="#1a4447" d="M 280.089844 456.761719 C 275.433594 456.761719 270.792969 455.9375 266.414062 454.28125 C 249.015625 447.6875 236.890625 427.597656 237.585938 406.515625 C 238.289062 385.445312 249.464844 366.929688 266.050781 359.34375 C 279.335938 353.269531 293.679688 355.21875 305.378906 364.695312 C 318.996094 375.714844 326.199219 394.308594 324.183594 413.226562 C 322.320312 430.746094 312.875 445.023438 298.285156 452.402344 C 292.550781 455.296875 286.300781 456.761719 280.089844 456.761719 Z M 272.585938 437.980469 C 278.25 440.128906 284.746094 439.714844 290.429688 436.84375 C 299.644531 432.1875 305.632812 422.902344 306.859375 411.378906 C 308.238281 398.480469 303.355469 385.472656 294.421875 378.246094 C 286.128906 371.53125 278.34375 372.878906 273.292969 375.199219 C 262.660156 380.058594 255.480469 392.578125 255 407.09375 C 254.550781 420.730469 262.109375 434.011719 272.585938 437.980469 Z M 272.585938 437.980469 " fill-opacity="1" fill-rule="nonzero"/><path fill="#1a4447" d="M 307.214844 431.808594 C 310.148438 427.128906 315.277344 423.324219 316.984375 418.132812 C 317.128906 417.691406 317.351562 417.34375 317.519531 416.925781 C 308.605469 407.539062 297.246094 401.175781 284.960938 399.457031 C 271.738281 397.617188 258.105469 401.28125 246.472656 409.011719 C 247.003906 412.074219 247.519531 415.171875 248.234375 418.289062 C 248.984375 421.554688 249.777344 424.765625 250.566406 427.960938 C 259.8125 419.65625 271.53125 415.167969 282.554688 416.722656 C 291.894531 418.027344 300.609375 423.703125 307.214844 431.808594 Z M 307.214844 431.808594 " fill-opacity="1" fill-rule="nonzero"/></svg>