<svg xmlns="http://www.w3.org/2000/svg" xmlns:xlink="http://www.w3.org/1999/xlink" width="1000" zoomAndPan="magnify" viewBox="0 0 750 749.999995" height="1000" preserveAspectRatio="xMidYMid meet" version="1.0"><path fill="#d1f2f0" d="M 500.695312 197.855469 C 473.34375 188.214844 432.582031 160.539062 407.726562 122.546875 L 404.574219 117.722656 L 407.914062 113.027344 C 413.410156 105.292969 419.507812 96.996094 426.027344 88.371094 L 433.324219 78.714844 L 439.867188 88.898438 C 464.8125 127.75 500.773438 149.183594 515.078125 156.597656 L 519.441406 158.859375 L 519.628906 163.769531 C 519.90625 170.925781 520.148438 178.089844 520.347656 185.195312 L 520.480469 189.894531 L 516.5625 192.484375 C 513.679688 194.386719 510.496094 196.078125 506.835938 197.648438 L 503.808594 198.953125 Z M 500.695312 197.855469 " fill-opacity="1" fill-rule="nonzero"/><path fill="#f4c3e9" d="M 506.257812 154.96875 C 476.820312 137.898438 450.71875 112.710938 434.652344 85.863281 L 431.691406 80.914062 L 435.21875 76.355469 C 441.566406 68.160156 447.921875 60.15625 454.109375 52.5625 L 461.425781 43.578125 L 467.734375 53.300781 C 479.269531 71.082031 495.058594 87.84375 513.394531 101.777344 L 516.453125 104.101562 L 516.710938 107.9375 C 517.554688 120.554688 518.300781 133.789062 518.925781 147.273438 L 519.640625 162.734375 Z M 506.257812 154.96875 " fill-opacity="1" fill-rule="nonzero"/><path fill="#d1f2f0" d="M 501.355469 95.597656 C 485.675781 82.054688 472.734375 67.011719 462.890625 50.894531 L 459.722656 45.703125 L 463.640625 41.050781 C 476.175781 26.164062 485.523438 16.140625 491.417969 11.253906 L 495.296875 8.039062 C 497.839844 5.933594 501.695312 6.945312 502.878906 10.023438 L 504.6875 14.734375 C 508.628906 25.015625 512.195312 49.84375 515.289062 88.535156 L 516.929688 109.050781 Z M 501.355469 95.597656 " fill-opacity="1" fill-rule="nonzero"/><path fill="#f4c3e9" d="M 472.53125 204.082031 C 455.792969 204.082031 437.171875 200.230469 421.445312 193.519531 C 399.277344 184.058594 384.96875 170.472656 383.167969 157.183594 L 383 155.945312 L 383.195312 154.710938 C 383.765625 151.164062 386.101562 144.933594 399.148438 125.632812 L 406.023438 115.460938 L 413.0625 125.523438 C 437.976562 161.140625 471.589844 180.921875 484.890625 187.773438 L 494.941406 192.949219 L 506.835938 197.648438 L 499.417969 200.492188 C 498.359375 200.894531 497.265625 201.191406 496.152344 201.371094 L 481.75 203.695312 C 478.761719 203.953125 475.660156 204.082031 472.53125 204.082031 Z M 472.53125 204.082031 " fill-opacity="1" fill-rule="nonzero"/><path fill="#f4c3e9" d="M 147.9375 511.746094 C 107.371094 511.746094 80.171875 504.503906 64.792969 489.605469 C 52.660156 477.855469 47.972656 461.175781 50.871094 440.035156 C 53.972656 417.339844 66.507812 401.019531 85.257812 395.261719 C 89.800781 393.867188 94.507812 393.164062 99.242188 393.164062 C 111.609375 393.164062 123 397.949219 130.488281 406.300781 C 136.6875 413.207031 141.875 426.394531 138.597656 439.011719 C 137.28125 444.066406 134.195312 450.398438 127.054688 455.160156 C 126.140625 455.773438 126.222656 457.164062 127.265625 457.507812 C 139.671875 461.625 159.308594 463.789062 184.414062 463.789062 C 199.894531 463.789062 217.542969 462.925781 234.105469 461.363281 L 245.722656 460.265625 L 243.128906 471.644531 C 242.148438 475.949219 241.855469 479.988281 242.257812 483.65625 C 242.554688 486.398438 243.289062 489.195312 244.441406 491.964844 L 248.574219 501.917969 L 237.921875 503.554688 C 201.980469 509.066406 172.542969 511.746094 147.9375 511.746094 Z M 147.9375 511.746094 " fill-opacity="1" fill-rule="nonzero"/><path fill="#d1f2f0" d="M 414.464844 615.351562 C 307.550781 607.878906 211.738281 591.589844 121.546875 565.558594 L 114.542969 563.535156 L 115.523438 556.308594 C 117.367188 542.726562 119.308594 529.246094 121.289062 515.796875 L 122.421875 508.105469 L 130.179688 508.601562 C 135.867188 508.960938 141.734375 509.148438 147.621094 509.148438 C 173.261719 509.148438 203.785156 506.164062 243.785156 499.765625 L 245.332031 499.519531 C 242.058594 494.777344 240.066406 489.53125 239.457031 483.960938 C 238.75 477.441406 239.933594 470.328125 242.746094 463.347656 L 241.429688 463.492188 C 223.683594 465.488281 202.894531 466.636719 184.386719 466.636719 C 170.113281 466.636719 149.902344 465.9375 134.660156 462.609375 L 125.542969 460.621094 C 123.234375 460.117188 122.339844 457.296875 123.933594 455.550781 L 130.230469 448.660156 C 132.96875 445.664062 134.867188 442.179688 135.875 438.300781 C 136.9375 434.199219 137.09375 429.832031 136.332031 425.316406 L 136.09375 423.890625 L 136.339844 422.464844 C 150.175781 343.023438 166.285156 266.617188 184.222656 195.367188 L 185.792969 189.117188 L 192.238281 188.984375 C 197.675781 188.875 203.113281 188.820312 208.539062 188.820312 C 301.433594 188.820312 392.539062 205.023438 487.0625 238.359375 L 492.984375 240.449219 L 492.6875 246.726562 C 491.695312 267.734375 489.203125 292.984375 485.289062 321.777344 L 484.125 330.324219 L 475.605469 328.980469 C 467.300781 327.671875 459.46875 326.71875 451.699219 326.078125 C 447.847656 343.171875 446.320312 351.371094 444.894531 365.554688 C 453.339844 367.089844 461.890625 368.402344 469.296875 369.515625 L 477.820312 370.800781 L 476.359375 379.296875 C 470.136719 415.53125 462.3125 455.046875 453.738281 493.570312 L 452.011719 501.320312 L 444.175781 500.078125 C 435.835938 498.757812 427.9375 497.792969 420.070312 497.148438 C 416.21875 514.257812 414.691406 522.453125 413.265625 536.621094 C 420.265625 537.894531 427.355469 539.007812 433.433594 539.941406 L 442.605469 541.351562 L 440.339844 550.351562 C 435.972656 567.699219 427.882812 598.554688 422.796875 610.289062 L 420.417969 615.765625 L 414.460938 615.351562 Z M 414.464844 615.351562 " fill-opacity="1" fill-rule="nonzero"/><path fill="#79afae" d="M 495.007812 376.273438 C 488.925781 375.304688 482.851562 374.402344 476.777344 373.496094 C 467.851562 372.171875 458.730469 370.816406 449.617188 369.246094 L 441.746094 367.886719 L 442.664062 359.949219 C 443.765625 350.460938 445.078125 342.980469 447.867188 330.304688 L 449.476562 322.996094 L 456.925781 323.71875 C 472.328125 325.203125 486.867188 327.667969 502.671875 331.476562 L 510.15625 333.277344 L 509.050781 340.902344 C 508.328125 345.890625 507.582031 350.589844 506.835938 355.292969 C 506.097656 359.933594 505.386719 364.429688 504.691406 369.164062 L 503.445312 377.617188 Z M 495.007812 376.273438 " fill-opacity="1" fill-rule="nonzero"/><path fill="#79afae" d="M 463.386719 547.34375 C 457.3125 546.375 444.582031 544.480469 444.582031 544.480469 C 435.839844 543.179688 426.875 541.84375 417.992188 540.316406 L 410.121094 538.957031 L 411.039062 531.019531 C 412.136719 521.539062 413.449219 514.058594 416.242188 501.375 L 417.851562 494.066406 L 425.296875 494.785156 C 440.699219 496.273438 455.238281 498.738281 471.046875 502.546875 L 478.53125 504.347656 L 477.425781 511.96875 C 476.703125 516.960938 475.953125 521.660156 475.207031 526.363281 C 474.453125 531.117188 473.75 535.554688 473.0625 540.230469 L 471.824219 548.683594 Z M 463.386719 547.34375 " fill-opacity="1" fill-rule="nonzero"/><path fill="#b2d7d8" d="M 476.730469 671.664062 C 365.589844 668.289062 164.191406 629.882812 65.097656 599.097656 L 58.957031 597.191406 L 59.164062 590.757812 C 60.109375 561.476562 61.882812 532.429688 64.585938 501.960938 L 65.757812 488.730469 L 77.238281 495.40625 C 87.226562 501.214844 100.511719 505.226562 116.722656 507.332031 L 125.242188 508.4375 L 123.992188 516.9375 C 121.816406 531.722656 119.671875 546.550781 117.660156 561.492188 C 209.980469 588.542969 308.34375 605.328125 418.28125 612.792969 C 420.410156 609.148438 426.90625 591.828125 437.921875 548.332031 L 439.796875 540.925781 L 447.347656 542.050781 C 454.71875 543.144531 462.089844 544.253906 469.476562 545.484375 C 470.421875 538.578125 471.414062 532.320312 472.40625 526.066406 C 473.40625 519.773438 474.402344 513.476562 475.351562 506.515625 C 469.871094 505.125 464.21875 503.851562 457.679688 502.527344 L 449.253906 500.816406 L 451.113281 492.421875 C 459.5 454.582031 467.246094 415.210938 473.511719 378.5625 L 474.90625 370.40625 L 484.808594 371.890625 C 490.234375 372.699219 495.664062 373.515625 501.105469 374.417969 C 502.046875 367.507812 503.039062 361.253906 504.035156 355 C 505.03125 348.707031 506.03125 342.410156 506.980469 335.445312 C 501.441406 334.042969 495.6875 332.75 488.992188 331.398438 L 481.21875 329.828125 L 482.296875 321.972656 C 486.609375 290.542969 489.21875 263.785156 490.058594 242.40625 C 394.464844 208.246094 302.269531 191.640625 208.242188 191.640625 C 201.503906 191.640625 194.757812 191.722656 188 191.894531 C 171.027344 258.894531 155.710938 330.097656 142.476562 403.554688 L 139.480469 420.179688 L 136.777344 430.75 L 136.09375 423.890625 L 127.984375 407.808594 C 121.082031 400.378906 110.589844 396.117188 99.203125 396.117188 C 95.855469 396.117188 92.503906 396.496094 89.242188 397.238281 L 76.035156 403.527344 L 76.988281 400.03125 L 79.039062 387.628906 C 92.03125 308.910156 111.515625 228.328125 138.601562 141.277344 L 140.5 135.175781 L 146.882812 135.34375 C 220.210938 137.25 304.300781 146.644531 383.664062 161.792969 L 387.382812 162.5 L 389.328125 165.75 C 395.019531 175.269531 406.820312 184.214844 422.550781 190.929688 C 438.257812 197.632812 455.980469 201.328125 472.457031 201.328125 C 474.921875 201.328125 477.382812 201.246094 479.820312 201.074219 C 490.1875 200.339844 499.59375 198.003906 507.773438 194.132812 L 510.761719 192.71875 L 513.914062 193.707031 C 526.574219 197.679688 538.601562 201.792969 549.660156 205.925781 L 555.183594 207.992188 L 555.144531 213.894531 C 554.191406 361.683594 519.796875 512.988281 486.535156 659.3125 L 483.675781 671.875 Z M 476.730469 671.664062 " fill-opacity="1" fill-rule="nonzero"/><path fill="#b2d7d8" d="M 118.460938 701.003906 C 117.652344 701.003906 116.785156 700.949219 115.8125 700.847656 L 72.996094 696.3125 C 69.207031 695.792969 64.382812 694.234375 61.425781 689.578125 C 58.433594 684.855469 58.074219 678.148438 60.410156 670.679688 C 61.703125 666.53125 65.796875 656.359375 75.734375 651.441406 C 79.253906 649.707031 83.140625 648.835938 87.308594 648.835938 C 91.046875 648.835938 95.039062 649.550781 99.191406 650.960938 L 125.410156 612.824219 L 131.078125 614.21875 C 142.121094 616.941406 153.480469 619.625 164.832031 622.199219 L 176.636719 624.878906 L 138.09375 684.269531 L 137.199219 685.601562 C 130.511719 695.53125 126.828125 701.003906 118.460938 701.003906 Z M 118.460938 701.003906 " fill-opacity="1" fill-rule="nonzero"/><path fill="#b2d7d8" d="M 289.8125 744.15625 C 289.011719 744.15625 288.140625 744.101562 287.167969 744 L 244.355469 739.460938 C 240.5625 738.945312 235.742188 737.382812 232.78125 732.722656 C 229.789062 728.007812 229.429688 721.300781 231.761719 713.832031 C 233.058594 709.6875 237.144531 699.511719 247.089844 694.589844 C 250.601562 692.863281 254.492188 691.984375 258.660156 691.984375 C 262.398438 691.984375 266.390625 692.699219 270.550781 694.109375 L 301.59375 648.953125 L 306.878906 649.820312 C 318.675781 651.75 330.414062 653.585938 342 655.289062 L 355.019531 657.203125 L 309.453125 727.414062 L 308.5625 728.738281 C 301.867188 738.683594 298.179688 744.15625 289.816406 744.15625 Z M 289.8125 744.15625 " fill-opacity="1" fill-rule="nonzero"/><path fill="#79afae" d="M 483.796875 658.664062 C 516.445312 515.042969 550.210938 366.511719 552.183594 220.929688 L 552.339844 209.347656 C 552.363281 207.699219 554.195312 206.722656 555.574219 207.628906 L 565.257812 213.980469 C 581.78125 224.824219 629.625 259.769531 637.613281 276.441406 C 646.011719 294.703125 624.972656 413.433594 618.328125 449.390625 C 611.683594 485.347656 588.890625 603.75 574.617188 617.769531 L 574.339844 618.042969 L 574.039062 618.289062 C 551.085938 637.023438 515.550781 661.175781 494.890625 669.039062 L 485.402344 672.652344 C 483.144531 673.511719 480.835938 671.5 481.378906 669.144531 Z M 483.796875 658.664062 " fill-opacity="1" fill-rule="nonzero"/><path fill="#b2d7d8" d="M 54.480469 233.832031 C 53.511719 233.832031 52.535156 233.78125 51.558594 233.675781 C 43.40625 232.78125 32.175781 227.65625 24.878906 208.324219 C 22.175781 201.164062 21.9375 193.476562 24.203125 186.679688 C 26.644531 179.375 31.875 173.742188 38.550781 171.21875 C 40.582031 170.445312 43.785156 169.515625 47.394531 169.515625 C 51.265625 169.515625 54.816406 170.625 57.664062 172.726562 C 61.84375 175.8125 66.609375 182.578125 66.019531 197.324219 C 71.277344 197.828125 76.085938 201.105469 78.855469 205.953125 C 81.871094 211.242188 81.652344 217.261719 78.242188 222.472656 C 74.578125 228.0625 64.691406 233.832031 54.480469 233.832031 Z M 54.480469 233.832031 " fill-opacity="1" fill-rule="nonzero"/><path fill="#b2d7d8" d="M 694.296875 350.21875 C 691.40625 350.21875 688.546875 349.738281 685.800781 348.78125 C 674.609375 344.894531 667.40625 333.753906 666.511719 327.203125 C 665.667969 321.039062 668.046875 315.503906 673.042969 312.023438 C 676.039062 309.941406 679.644531 308.800781 683.210938 308.800781 C 685.035156 308.800781 686.792969 309.109375 688.359375 309.707031 C 694.15625 296.15625 701.355469 292.101562 706.449219 291.113281 C 707.464844 290.917969 708.480469 290.824219 709.480469 290.824219 C 716.460938 290.824219 721.800781 295.300781 724.367188 297.964844 C 729.183594 302.976562 731.449219 309.855469 730.738281 317.335938 C 730.039062 324.730469 726.496094 331.839844 720.773438 337.34375 C 711.890625 345.886719 702.984375 350.21875 694.296875 350.21875 Z M 694.296875 350.21875 " fill-opacity="1" fill-rule="nonzero"/><path fill="#f4c3e9" d="M 306.242188 377.347656 C 299.945312 377.347656 293.726562 376.5625 287.75 375.011719 C 256.46875 366.886719 232.621094 336.390625 232.277344 304.070312 C 231.929688 271.75 255.117188 240.75 286.210938 231.957031 C 293.027344 230.03125 299.957031 229.054688 306.8125 229.054688 C 327.46875 229.054688 346.550781 237.785156 360.535156 253.640625 C 379.890625 275.578125 384.828125 305.957031 373.429688 332.925781 C 365.289062 352.175781 348.554688 367.484375 328.664062 373.878906 C 321.5 376.179688 313.957031 377.347656 306.242188 377.347656 Z M 306.242188 377.347656 " fill-opacity="1" fill-rule="nonzero"/><path fill="#1a4447" d="M 306.066406 326.929688 C 304.050781 326.929688 302.054688 326.675781 300.128906 326.175781 C 290.097656 323.566406 282.449219 313.785156 282.339844 303.425781 C 282.230469 293.0625 289.664062 283.117188 299.636719 280.296875 C 301.796875 279.6875 304 279.382812 306.191406 279.382812 C 312.863281 279.382812 319.011719 282.179688 323.492188 287.265625 C 328.351562 292.773438 331.988281 302.339844 327.625 312.664062 C 325.007812 318.847656 319.636719 323.757812 313.257812 325.8125 C 310.953125 326.554688 308.53125 326.929688 306.066406 326.929688 Z M 306.066406 326.929688 " fill-opacity="1" fill-rule="nonzero"/><path fill="#f4c3e9" d="M 202.570312 418.789062 C 202.570312 419.792969 202.46875 420.785156 202.273438 421.769531 C 202.078125 422.753906 201.789062 423.710938 201.40625 424.636719 C 201.019531 425.566406 200.550781 426.445312 199.992188 427.28125 C 199.4375 428.113281 198.800781 428.886719 198.09375 429.597656 C 197.382812 430.304688 196.613281 430.941406 195.777344 431.496094 C 194.941406 432.054688 194.0625 432.527344 193.136719 432.910156 C 192.207031 433.292969 191.253906 433.582031 190.269531 433.78125 C 189.285156 433.976562 188.289062 434.074219 187.289062 434.074219 C 186.285156 434.074219 185.289062 433.976562 184.304688 433.78125 C 183.320312 433.582031 182.367188 433.292969 181.4375 432.910156 C 180.511719 432.527344 179.632812 432.054688 178.796875 431.496094 C 177.964844 430.941406 177.191406 430.304688 176.480469 429.597656 C 175.773438 428.886719 175.136719 428.113281 174.582031 427.28125 C 174.023438 426.445312 173.554688 425.566406 173.167969 424.636719 C 172.785156 423.710938 172.496094 422.753906 172.300781 421.769531 C 172.105469 420.785156 172.003906 419.792969 172.003906 418.789062 C 172.003906 417.785156 172.105469 416.789062 172.300781 415.804688 C 172.496094 414.820312 172.785156 413.867188 173.167969 412.9375 C 173.554688 412.011719 174.023438 411.128906 174.582031 410.296875 C 175.140625 409.460938 175.773438 408.6875 176.480469 407.980469 C 177.191406 407.269531 177.964844 406.636719 178.796875 406.078125 C 179.632812 405.519531 180.511719 405.050781 181.4375 404.667969 C 182.367188 404.28125 183.320312 403.992188 184.304688 403.796875 C 185.289062 403.601562 186.285156 403.503906 187.289062 403.503906 C 188.289062 403.503906 189.285156 403.601562 190.269531 403.796875 C 191.253906 403.992188 192.207031 404.28125 193.136719 404.667969 C 194.0625 405.050781 194.941406 405.519531 195.777344 406.078125 C 196.613281 406.636719 197.382812 407.269531 198.09375 407.980469 C 198.800781 408.6875 199.4375 409.460938 199.992188 410.296875 C 200.550781 411.128906 201.019531 412.011719 201.40625 412.9375 C 201.789062 413.867188 202.078125 414.820312 202.273438 415.804688 C 202.46875 416.789062 202.570312 417.785156 202.570312 418.789062 Z M 202.570312 418.789062 " fill-opacity="1" fill-rule="nonzero"/><path fill="#f4c3e9" d="M 359.671875 446.941406 C 359.671875 447.945312 359.574219 448.9375 359.378906 449.921875 C 359.183594 450.90625 358.890625 451.863281 358.507812 452.789062 C 358.125 453.71875 357.652344 454.597656 357.097656 455.433594 C 356.539062 456.265625 355.90625 457.039062 355.195312 457.75 C 354.484375 458.457031 353.714844 459.09375 352.878906 459.648438 C 352.046875 460.207031 351.164062 460.679688 350.238281 461.0625 C 349.3125 461.445312 348.355469 461.738281 347.371094 461.933594 C 346.386719 462.128906 345.394531 462.226562 344.390625 462.226562 C 343.386719 462.226562 342.394531 462.128906 341.410156 461.933594 C 340.425781 461.738281 339.46875 461.445312 338.542969 461.0625 C 337.613281 460.679688 336.734375 460.207031 335.898438 459.648438 C 335.066406 459.09375 334.292969 458.457031 333.585938 457.75 C 332.875 457.039062 332.242188 456.265625 331.683594 455.433594 C 331.125 454.597656 330.65625 453.71875 330.273438 452.789062 C 329.886719 451.863281 329.597656 450.90625 329.402344 449.921875 C 329.207031 448.9375 329.109375 447.945312 329.109375 446.941406 C 329.109375 445.9375 329.207031 444.941406 329.402344 443.957031 C 329.597656 442.972656 329.886719 442.019531 330.273438 441.089844 C 330.65625 440.164062 331.125 439.28125 331.683594 438.449219 C 332.242188 437.613281 332.875 436.84375 333.585938 436.132812 C 334.292969 435.421875 335.066406 434.789062 335.898438 434.230469 C 336.734375 433.671875 337.613281 433.203125 338.542969 432.820312 C 339.46875 432.433594 340.425781 432.144531 341.410156 431.949219 C 342.394531 431.753906 343.386719 431.65625 344.390625 431.65625 C 345.394531 431.65625 346.386719 431.753906 347.371094 431.949219 C 348.355469 432.144531 349.3125 432.433594 350.238281 432.820312 C 351.164062 433.203125 352.046875 433.671875 352.878906 434.230469 C 353.714844 434.789062 354.484375 435.421875 355.195312 436.132812 C 355.90625 436.84375 356.539062 437.613281 357.097656 438.449219 C 357.652344 439.28125 358.125 440.164062 358.507812 441.089844 C 358.890625 442.019531 359.183594 442.972656 359.378906 443.957031 C 359.574219 444.941406 359.671875 445.9375 359.671875 446.941406 Z M 359.671875 446.941406 " fill-opacity="1" fill-rule="nonzero"/><path fill="#1a4447" d="M 255.730469 515.230469 C 254.257812 515.230469 252.769531 514.769531 251.503906 513.8125 C 241.199219 506.050781 235.101562 495.933594 233.863281 484.570312 C 232.398438 471.089844 237.972656 455.503906 248.785156 442.878906 C 251.3125 439.929688 255.753906 439.585938 258.703125 442.113281 C 261.65625 444.640625 262 449.082031 259.46875 452.035156 C 251.140625 461.765625 246.796875 473.359375 247.851562 483.046875 C 248.667969 490.558594 252.746094 497.128906 259.972656 502.574219 C 263.074219 504.914062 263.691406 509.324219 261.355469 512.429688 C 259.972656 514.265625 257.863281 515.230469 255.730469 515.230469 Z M 255.730469 515.230469 " fill-opacity="1" fill-rule="nonzero"/><path fill="#1a4447" d="M 244.730469 493.941406 C 181.125 504.144531 100.183594 512.128906 70.667969 483.539062 C 60.429688 473.625 56.6875 459.769531 59.234375 441.179688 C 61.871094 421.882812 72.261719 408.085938 87.734375 403.335938 C 101.21875 399.199219 115.875 402.65625 124.203125 411.941406 C 129.097656 417.394531 132.804688 427.71875 130.425781 436.886719 C 128.652344 443.714844 123.792969 448.539062 115.992188 451.222656 C 109.183594 453.558594 103.519531 453.171875 100.023438 450.132812 C 97.660156 448.078125 96.554688 444.941406 97.136719 441.953125 C 97.550781 439.84375 98.96875 437.007812 103.378906 435.492188 C 107.054688 434.230469 109.011719 430.226562 107.746094 426.550781 C 106.484375 422.875 102.480469 420.917969 98.808594 422.183594 C 90.53125 425.027344 84.890625 431.25 83.328125 439.257812 C 81.78125 447.167969 84.640625 455.402344 90.785156 460.75 C 98.121094 467.136719 108.96875 468.519531 120.5625 464.53125 C 132.753906 460.34375 141.09375 451.78125 144.042969 440.425781 C 147.863281 425.722656 142.089844 410.800781 134.675781 402.539062 C 122.75 389.253906 102.226562 384.164062 83.605469 389.882812 C 62.671875 396.308594 48.703125 414.3125 45.289062 439.273438 C 42.144531 462.289062 47.386719 480.582031 60.878906 493.652344 C 79.210938 511.40625 110.722656 517.59375 147.730469 517.59375 C 180.070312 517.59375 216.597656 512.847656 252.164062 506.976562 C 248.777344 503.1875 246.3125 498.730469 244.730469 493.941406 Z M 244.730469 493.941406 " fill-opacity="1" fill-rule="nonzero"/><path fill="#1a4447" d="M 125.328125 450.914062 C 123.808594 455.78125 120.050781 459.804688 114.074219 460.742188 C 127.589844 469.480469 155.910156 472.234375 184.414062 472.234375 C 206.605469 472.234375 228.851562 470.574219 244.253906 468.804688 C 245.871094 463.179688 248.699219 457.929688 252.648438 453.511719 C 219.296875 458.632812 149.53125 461.730469 125.328125 450.914062 Z M 125.328125 450.914062 " fill-opacity="1" fill-rule="nonzero"/><path fill="#1a4447" d="M 480.417969 209.496094 C 459.453125 210.976562 437.253906 206.390625 419.238281 198.695312 C 394.8125 188.269531 379.210938 172.777344 377.503906 157.25 C 375.347656 137.644531 472.292969 18.175781 491.0625 4.570312 C 492.730469 3.367188 497.15625 0.167969 501.847656 2.296875 C 507.230469 4.738281 515.355469 8.433594 521.828125 100.996094 C 524.890625 144.832031 526.066406 188.367188 526.082031 188.800781 C 526.140625 191.054688 525.117188 193.199219 523.332031 194.570312 C 511.269531 203.828125 496.195312 208.382812 480.417969 209.496094 Z M 391.53125 156.046875 C 392.890625 166.066406 405.871094 177.691406 424.757812 185.75 C 450.609375 196.785156 488.207031 201.0625 511.910156 185.4375 C 509.871094 113.660156 503.882812 36.214844 496.804688 17.757812 C 474.464844 36.269531 393.894531 141.277344 391.53125 156.046875 Z M 391.53125 156.046875 " fill-opacity="1" fill-rule="nonzero"/><path fill="#1a4447" d="M 507.128906 196.875 C 509.339844 195.785156 511.3125 194.355469 513.285156 192.914062 C 512.738281 192.632812 512.164062 192.390625 511.53125 192.257812 C 488.886719 187.441406 437.171875 157.871094 409.738281 109.699219 C 408.800781 110.957031 407.902344 112.238281 407.082031 113.578125 C 405.125 116.777344 403.359375 119.992188 401.234375 122.964844 C 426.910156 163.914062 467.75 190.886719 494.761719 201.609375 C 498.992188 200.089844 503.378906 198.71875 507.128906 196.875 Z M 507.128906 196.875 " fill-opacity="1" fill-rule="nonzero"/><path fill="#1a4447" d="M 519.78125 158.234375 C 519.796875 156.371094 519.757812 154.527344 519.734375 152.679688 C 493.480469 139.527344 458.148438 112.605469 438.042969 74.703125 C 434.90625 78.542969 431.59375 82.226562 428.082031 85.742188 C 451.820312 127.390625 491.625 155.714844 519.871094 168.320312 C 519.699219 164.851562 519.761719 161.386719 519.78125 158.234375 Z M 519.78125 158.234375 " fill-opacity="1" fill-rule="nonzero"/><path fill="#1a4447" d="M 515.738281 96.496094 C 496.980469 82.019531 478.207031 62.4375 465.503906 38.492188 C 462.277344 42.285156 458.933594 45.953125 455.460938 49.496094 C 471.582031 77.8125 495.15625 99.921875 517.496094 115.164062 C 516.925781 108.960938 516.316406 102.75 515.738281 96.496094 Z M 515.738281 96.496094 " fill-opacity="1" fill-rule="nonzero"/><path fill="#1a4447" d="M 345.414062 656.496094 L 302.367188 722.816406 L 301.554688 724.03125 C 294 735.25 293 736.117188 288.046875 735.597656 L 245.242188 731.0625 C 241.390625 730.53125 240.273438 728.773438 239.910156 728.195312 C 238.320312 725.691406 238.289062 721.261719 239.820312 716.351562 C 240.578125 713.925781 243.617188 705.730469 250.832031 702.160156 C 255.671875 699.773438 261.683594 699.855469 268.6875 702.40625 C 271.710938 703.511719 275.082031 702.425781 276.894531 699.785156 L 311.214844 649.863281 C 306.273438 648.867188 301.425781 647.660156 296.796875 646 L 268.222656 687.558594 C 259.542969 685.410156 251.617188 686.074219 244.597656 689.546875 C 232.707031 695.425781 227.90625 707.3125 226.390625 712.148438 C 223.554688 721.226562 224.136719 729.605469 228.027344 735.738281 C 230.296875 739.320312 234.796875 743.832031 243.542969 745.03125 L 286.574219 749.597656 C 287.648438 749.707031 288.667969 749.761719 289.644531 749.761719 C 301.195312 749.761719 306.328125 742.136719 313.226562 731.890625 L 361.015625 658.296875 C 356.292969 658.503906 351.179688 657.894531 345.414062 656.496094 Z M 345.414062 656.496094 " fill-opacity="1" fill-rule="nonzero"/><path fill="#1a4447" d="M 166.753906 624.597656 L 131.011719 679.667969 L 130.199219 680.882812 C 122.644531 692.101562 121.640625 692.96875 116.6875 692.449219 L 73.882812 687.914062 C 70.035156 687.382812 68.917969 685.628906 68.550781 685.050781 C 66.960938 682.542969 66.929688 678.113281 68.464844 673.203125 C 69.222656 670.777344 72.261719 662.582031 79.476562 659.011719 C 84.316406 656.628906 90.324219 656.699219 97.332031 659.257812 C 100.355469 660.363281 103.722656 659.277344 105.539062 656.636719 L 134.34375 614.734375 C 129.460938 613.886719 124.664062 612.765625 120.089844 610.628906 L 96.863281 644.410156 C 88.183594 642.269531 80.265625 642.925781 73.242188 646.398438 C 61.351562 652.273438 56.546875 664.164062 55.035156 669 C 52.195312 678.078125 52.777344 686.457031 56.671875 692.589844 C 58.941406 696.171875 63.4375 700.683594 72.183594 701.882812 L 115.21875 706.449219 C 116.289062 706.558594 117.3125 706.613281 118.289062 706.613281 C 129.839844 706.613281 134.972656 698.988281 141.871094 688.742188 L 180.753906 628.859375 C 175.96875 628.3125 171.332031 626.621094 166.753906 624.597656 Z M 166.753906 624.597656 " fill-opacity="1" fill-rule="nonzero"/><path fill="#1a4447" d="M 306.226562 382.972656 C 299.511719 382.972656 292.792969 382.136719 286.332031 380.457031 C 252.675781 371.722656 227.019531 338.910156 226.644531 304.132812 C 226.273438 269.355469 251.226562 236 284.683594 226.542969 C 314.472656 218.117188 344.410156 226.859375 364.757812 249.914062 C 385.554688 273.488281 390.867188 306.136719 378.613281 335.117188 C 369.84375 355.855469 351.8125 372.351562 330.382812 379.238281 C 322.65625 381.722656 314.445312 382.972656 306.226562 382.972656 Z M 288.507812 240.085938 C 260.957031 247.875 240.410156 275.34375 240.71875 303.980469 C 241.023438 332.621094 262.152344 359.640625 289.867188 366.835938 C 301.671875 369.898438 314.53125 369.550781 326.078125 365.839844 C 343.664062 360.1875 358.457031 346.652344 365.652344 329.632812 C 375.777344 305.683594 371.390625 278.707031 354.203125 259.226562 C 337.53125 240.328125 312.964844 233.171875 288.507812 240.085938 Z M 288.507812 240.085938 " fill-opacity="1" fill-rule="nonzero"/><path fill="#1a4447" d="M 306.074219 332.566406 C 303.605469 332.566406 301.132812 332.253906 298.710938 331.625 C 286.304688 328.402344 276.847656 316.304688 276.710938 303.488281 C 276.574219 290.664062 285.769531 278.367188 298.105469 274.882812 C 308.945312 271.808594 320.296875 275.132812 327.710938 283.535156 C 335.355469 292.207031 337.308594 304.207031 332.804688 314.859375 C 329.5625 322.53125 322.898438 328.628906 314.976562 331.171875 C 312.082031 332.101562 309.082031 332.566406 306.074219 332.566406 Z M 306.1875 287.828125 C 304.789062 287.828125 303.359375 288.023438 301.933594 288.425781 C 295.609375 290.214844 290.710938 296.765625 290.78125 303.335938 C 290.851562 309.910156 295.890625 316.347656 302.25 318.003906 C 305.003906 318.714844 307.992188 318.632812 310.671875 317.769531 C 314.6875 316.480469 318.203125 313.265625 319.847656 309.378906 C 322.6875 302.660156 320.320312 296.433594 317.160156 292.851562 C 314.273438 289.578125 310.355469 287.828125 306.1875 287.828125 Z M 306.1875 287.828125 " fill-opacity="1" fill-rule="nonzero"/><path fill="#1a4447" d="M 320.96875 257.351562 C 320.96875 257.78125 320.929688 258.203125 320.84375 258.625 C 320.761719 259.046875 320.636719 259.453125 320.472656 259.851562 C 320.308594 260.246094 320.109375 260.621094 319.871094 260.980469 C 319.632812 261.335938 319.363281 261.664062 319.058594 261.96875 C 318.753906 262.269531 318.425781 262.542969 318.070312 262.78125 C 317.714844 263.019531 317.335938 263.21875 316.941406 263.382812 C 316.546875 263.546875 316.136719 263.671875 315.714844 263.753906 C 315.296875 263.839844 314.871094 263.878906 314.445312 263.878906 C 314.015625 263.878906 313.589844 263.839844 313.171875 263.753906 C 312.75 263.671875 312.339844 263.546875 311.945312 263.382812 C 311.550781 263.21875 311.171875 263.019531 310.816406 262.78125 C 310.460938 262.542969 310.132812 262.269531 309.828125 261.96875 C 309.523438 261.664062 309.253906 261.335938 309.015625 260.980469 C 308.777344 260.621094 308.578125 260.246094 308.414062 259.851562 C 308.25 259.453125 308.125 259.046875 308.042969 258.625 C 307.957031 258.203125 307.917969 257.78125 307.917969 257.351562 C 307.917969 256.921875 307.957031 256.5 308.042969 256.078125 C 308.125 255.65625 308.25 255.25 308.414062 254.851562 C 308.578125 254.457031 308.777344 254.082031 309.015625 253.722656 C 309.253906 253.367188 309.523438 253.039062 309.828125 252.734375 C 310.132812 252.433594 310.460938 252.160156 310.816406 251.921875 C 311.171875 251.683594 311.550781 251.484375 311.945312 251.320312 C 312.339844 251.15625 312.75 251.03125 313.171875 250.949219 C 313.589844 250.863281 314.015625 250.824219 314.445312 250.824219 C 314.871094 250.824219 315.296875 250.863281 315.714844 250.949219 C 316.136719 251.03125 316.546875 251.15625 316.941406 251.320312 C 317.335938 251.484375 317.714844 251.683594 318.070312 251.921875 C 318.425781 252.160156 318.753906 252.433594 319.058594 252.734375 C 319.363281 253.039062 319.632812 253.367188 319.871094 253.722656 C 320.109375 254.082031 320.308594 254.457031 320.472656 254.851562 C 320.636719 255.25 320.761719 255.65625 320.84375 256.078125 C 320.929688 256.5 320.96875 256.921875 320.96875 257.351562 Z M 320.96875 257.351562 " fill-opacity="1" fill-rule="nonzero"/><path fill="#1a4447" d="M 304.050781 348.855469 C 304.050781 349.285156 304.011719 349.710938 303.925781 350.128906 C 303.84375 350.550781 303.71875 350.960938 303.554688 351.355469 C 303.390625 351.75 303.191406 352.128906 302.953125 352.484375 C 302.714844 352.839844 302.445312 353.171875 302.140625 353.472656 C 301.835938 353.777344 301.507812 354.046875 301.152344 354.285156 C 300.796875 354.523438 300.417969 354.726562 300.023438 354.886719 C 299.628906 355.050781 299.21875 355.175781 298.796875 355.261719 C 298.378906 355.34375 297.953125 355.386719 297.527344 355.386719 C 297.097656 355.386719 296.671875 355.34375 296.253906 355.261719 C 295.832031 355.175781 295.421875 355.050781 295.027344 354.886719 C 294.632812 354.726562 294.253906 354.523438 293.898438 354.285156 C 293.542969 354.046875 293.214844 353.777344 292.910156 353.472656 C 292.605469 353.171875 292.335938 352.839844 292.097656 352.484375 C 291.859375 352.128906 291.660156 351.75 291.496094 351.355469 C 291.332031 350.960938 291.207031 350.550781 291.125 350.128906 C 291.039062 349.710938 291 349.285156 291 348.855469 C 291 348.429688 291.039062 348.003906 291.125 347.582031 C 291.207031 347.164062 291.332031 346.753906 291.496094 346.359375 C 291.660156 345.960938 291.859375 345.585938 292.097656 345.230469 C 292.335938 344.875 292.605469 344.542969 292.910156 344.242188 C 293.214844 343.9375 293.542969 343.667969 293.898438 343.429688 C 294.253906 343.191406 294.632812 342.988281 295.027344 342.824219 C 295.421875 342.660156 295.832031 342.539062 296.253906 342.453125 C 296.671875 342.371094 297.097656 342.328125 297.527344 342.328125 C 297.953125 342.328125 298.378906 342.371094 298.796875 342.453125 C 299.21875 342.539062 299.628906 342.660156 300.023438 342.824219 C 300.417969 342.988281 300.796875 343.191406 301.152344 343.429688 C 301.507812 343.667969 301.835938 343.9375 302.140625 344.242188 C 302.445312 344.542969 302.714844 344.875 302.953125 345.230469 C 303.191406 345.585938 303.390625 345.960938 303.554688 346.359375 C 303.71875 346.753906 303.84375 347.164062 303.925781 347.582031 C 304.011719 348.003906 304.050781 348.429688 304.050781 348.855469 Z M 304.050781 348.855469 " fill-opacity="1" fill-rule="nonzero"/><path fill="#1a4447" d="M 358.253906 311.566406 C 358.253906 311.992188 358.210938 312.417969 358.128906 312.839844 C 358.042969 313.257812 357.921875 313.667969 357.757812 314.0625 C 357.59375 314.460938 357.390625 314.835938 357.152344 315.191406 C 356.914062 315.546875 356.644531 315.878906 356.339844 316.179688 C 356.039062 316.484375 355.707031 316.753906 355.351562 316.992188 C 354.996094 317.230469 354.621094 317.433594 354.222656 317.597656 C 353.828125 317.761719 353.417969 317.882812 353 317.96875 C 352.578125 318.050781 352.15625 318.09375 351.726562 318.09375 C 351.296875 318.09375 350.875 318.050781 350.453125 317.96875 C 350.03125 317.882812 349.625 317.761719 349.226562 317.597656 C 348.832031 317.433594 348.457031 317.230469 348.101562 316.992188 C 347.742188 316.753906 347.414062 316.484375 347.109375 316.179688 C 346.808594 315.878906 346.539062 315.546875 346.300781 315.191406 C 346.0625 314.835938 345.859375 314.460938 345.695312 314.0625 C 345.53125 313.667969 345.40625 313.257812 345.324219 312.839844 C 345.242188 312.417969 345.199219 311.992188 345.199219 311.566406 C 345.199219 311.136719 345.242188 310.710938 345.324219 310.292969 C 345.40625 309.871094 345.53125 309.460938 345.695312 309.066406 C 345.859375 308.671875 346.0625 308.292969 346.300781 307.9375 C 346.539062 307.582031 346.808594 307.25 347.109375 306.949219 C 347.414062 306.644531 347.742188 306.375 348.101562 306.136719 C 348.457031 305.898438 348.832031 305.695312 349.226562 305.53125 C 349.625 305.367188 350.03125 305.246094 350.453125 305.160156 C 350.875 305.078125 351.296875 305.035156 351.726562 305.035156 C 352.15625 305.035156 352.578125 305.078125 353 305.160156 C 353.417969 305.246094 353.828125 305.367188 354.222656 305.53125 C 354.621094 305.695312 354.996094 305.898438 355.351562 306.136719 C 355.707031 306.375 356.039062 306.644531 356.339844 306.949219 C 356.644531 307.25 356.914062 307.582031 357.152344 307.9375 C 357.390625 308.292969 357.59375 308.671875 357.757812 309.066406 C 357.921875 309.460938 358.042969 309.871094 358.128906 310.292969 C 358.210938 310.710938 358.253906 311.136719 358.253906 311.566406 Z M 358.253906 311.566406 " fill-opacity="1" fill-rule="nonzero"/><path fill="#1a4447" d="M 266.769531 294.640625 C 266.769531 295.070312 266.730469 295.496094 266.644531 295.917969 C 266.5625 296.335938 266.4375 296.746094 266.273438 297.140625 C 266.109375 297.535156 265.910156 297.914062 265.671875 298.269531 C 265.433594 298.625 265.164062 298.957031 264.859375 299.257812 C 264.554688 299.5625 264.226562 299.832031 263.871094 300.070312 C 263.515625 300.308594 263.136719 300.511719 262.742188 300.675781 C 262.347656 300.839844 261.9375 300.960938 261.519531 301.046875 C 261.097656 301.128906 260.671875 301.171875 260.246094 301.171875 C 259.816406 301.171875 259.390625 301.128906 258.972656 301.046875 C 258.550781 300.960938 258.140625 300.839844 257.746094 300.675781 C 257.351562 300.511719 256.972656 300.308594 256.617188 300.070312 C 256.261719 299.832031 255.933594 299.5625 255.628906 299.257812 C 255.324219 298.957031 255.054688 298.625 254.816406 298.269531 C 254.578125 297.914062 254.378906 297.535156 254.214844 297.140625 C 254.050781 296.746094 253.925781 296.335938 253.84375 295.917969 C 253.757812 295.496094 253.71875 295.070312 253.71875 294.640625 C 253.71875 294.214844 253.757812 293.789062 253.84375 293.367188 C 253.925781 292.949219 254.050781 292.539062 254.214844 292.144531 C 254.378906 291.746094 254.578125 291.371094 254.816406 291.015625 C 255.054688 290.660156 255.324219 290.328125 255.628906 290.027344 C 255.933594 289.722656 256.261719 289.453125 256.617188 289.214844 C 256.972656 288.976562 257.351562 288.773438 257.746094 288.609375 C 258.140625 288.445312 258.550781 288.324219 258.972656 288.238281 C 259.390625 288.15625 259.816406 288.113281 260.246094 288.113281 C 260.671875 288.113281 261.097656 288.15625 261.519531 288.238281 C 261.9375 288.324219 262.347656 288.445312 262.742188 288.609375 C 263.136719 288.773438 263.515625 288.976562 263.871094 289.214844 C 264.226562 289.453125 264.554688 289.722656 264.859375 290.027344 C 265.164062 290.328125 265.433594 290.660156 265.671875 291.015625 C 265.910156 291.371094 266.109375 291.746094 266.273438 292.144531 C 266.4375 292.539062 266.5625 292.949219 266.644531 293.367188 C 266.730469 293.789062 266.769531 294.214844 266.769531 294.640625 Z M 266.769531 294.640625 " fill-opacity="1" fill-rule="nonzero"/><path fill="#1a4447" d="M 350.835938 276.734375 C 350.835938 277.164062 350.792969 277.589844 350.710938 278.007812 C 350.625 278.429688 350.503906 278.835938 350.339844 279.234375 C 350.175781 279.628906 349.972656 280.007812 349.734375 280.363281 C 349.496094 280.71875 349.226562 281.046875 348.925781 281.351562 C 348.621094 281.65625 348.292969 281.925781 347.933594 282.164062 C 347.578125 282.402344 347.203125 282.601562 346.808594 282.765625 C 346.410156 282.929688 346.003906 283.054688 345.582031 283.136719 C 345.160156 283.222656 344.738281 283.265625 344.308594 283.265625 C 343.878906 283.265625 343.457031 283.222656 343.035156 283.136719 C 342.617188 283.054688 342.207031 282.929688 341.8125 282.765625 C 341.414062 282.601562 341.039062 282.402344 340.683594 282.164062 C 340.328125 281.925781 339.996094 281.65625 339.695312 281.351562 C 339.390625 281.046875 339.121094 280.71875 338.882812 280.363281 C 338.644531 280.007812 338.441406 279.628906 338.277344 279.234375 C 338.113281 278.835938 337.992188 278.429688 337.90625 278.007812 C 337.824219 277.589844 337.78125 277.164062 337.78125 276.734375 C 337.78125 276.308594 337.824219 275.882812 337.90625 275.460938 C 337.992188 275.042969 338.113281 274.632812 338.277344 274.238281 C 338.441406 273.839844 338.644531 273.464844 338.882812 273.109375 C 339.121094 272.75 339.390625 272.421875 339.695312 272.117188 C 339.996094 271.816406 340.328125 271.546875 340.683594 271.308594 C 341.039062 271.070312 341.414062 270.867188 341.8125 270.703125 C 342.207031 270.539062 342.617188 270.414062 343.035156 270.332031 C 343.457031 270.25 343.878906 270.207031 344.308594 270.207031 C 344.738281 270.207031 345.160156 270.25 345.582031 270.332031 C 346.003906 270.414062 346.410156 270.539062 346.808594 270.703125 C 347.203125 270.867188 347.578125 271.070312 347.933594 271.308594 C 348.292969 271.546875 348.621094 271.816406 348.925781 272.117188 C 349.226562 272.421875 349.496094 272.75 349.734375 273.109375 C 349.972656 273.464844 350.175781 273.839844 350.339844 274.238281 C 350.503906 274.632812 350.625 275.042969 350.710938 275.460938 C 350.792969 275.882812 350.835938 276.308594 350.835938 276.734375 Z M 350.835938 276.734375 " fill-opacity="1" fill-rule="nonzero"/><path fill="#1a4447" d="M 274.1875 329.472656 C 274.1875 329.902344 274.144531 330.328125 274.0625 330.746094 C 273.976562 331.167969 273.855469 331.574219 273.691406 331.972656 C 273.527344 332.367188 273.324219 332.742188 273.085938 333.101562 C 272.847656 333.457031 272.578125 333.785156 272.273438 334.089844 C 271.972656 334.394531 271.640625 334.664062 271.285156 334.902344 C 270.929688 335.140625 270.554688 335.339844 270.15625 335.503906 C 269.761719 335.667969 269.351562 335.792969 268.933594 335.875 C 268.511719 335.960938 268.089844 336 267.660156 336 C 267.230469 336 266.808594 335.960938 266.386719 335.875 C 265.964844 335.792969 265.558594 335.667969 265.160156 335.503906 C 264.765625 335.339844 264.390625 335.140625 264.035156 334.902344 C 263.675781 334.664062 263.347656 334.394531 263.042969 334.089844 C 262.742188 333.785156 262.472656 333.457031 262.234375 333.101562 C 261.996094 332.742188 261.792969 332.367188 261.628906 331.972656 C 261.464844 331.574219 261.34375 331.167969 261.257812 330.746094 C 261.175781 330.328125 261.132812 329.902344 261.132812 329.472656 C 261.132812 329.042969 261.175781 328.621094 261.257812 328.199219 C 261.34375 327.777344 261.464844 327.371094 261.628906 326.976562 C 261.792969 326.578125 261.996094 326.203125 262.234375 325.847656 C 262.472656 325.488281 262.742188 325.160156 263.042969 324.855469 C 263.347656 324.554688 263.675781 324.28125 264.035156 324.042969 C 264.390625 323.808594 264.765625 323.605469 265.160156 323.441406 C 265.558594 323.277344 265.964844 323.152344 266.386719 323.070312 C 266.808594 322.988281 267.230469 322.945312 267.660156 322.945312 C 268.089844 322.945312 268.511719 322.988281 268.933594 323.070312 C 269.351562 323.152344 269.761719 323.277344 270.15625 323.441406 C 270.554688 323.605469 270.929688 323.808594 271.285156 324.042969 C 271.640625 324.28125 271.972656 324.554688 272.273438 324.855469 C 272.578125 325.160156 272.847656 325.488281 273.085938 325.847656 C 273.324219 326.203125 273.527344 326.578125 273.691406 326.976562 C 273.855469 327.371094 273.976562 327.777344 274.0625 328.199219 C 274.144531 328.621094 274.1875 329.042969 274.1875 329.472656 Z M 274.1875 329.472656 " fill-opacity="1" fill-rule="nonzero"/><path fill="#1a4447" d="M 286.148438 264.769531 C 286.148438 265.199219 286.109375 265.621094 286.023438 266.042969 C 285.941406 266.464844 285.816406 266.871094 285.652344 267.265625 C 285.488281 267.664062 285.289062 268.039062 285.050781 268.394531 C 284.8125 268.753906 284.542969 269.082031 284.238281 269.386719 C 283.933594 269.6875 283.605469 269.960938 283.25 270.199219 C 282.894531 270.4375 282.515625 270.636719 282.121094 270.800781 C 281.726562 270.964844 281.316406 271.089844 280.898438 271.171875 C 280.476562 271.257812 280.050781 271.296875 279.625 271.296875 C 279.195312 271.296875 278.769531 271.257812 278.351562 271.171875 C 277.929688 271.089844 277.519531 270.964844 277.125 270.800781 C 276.730469 270.636719 276.351562 270.4375 275.996094 270.199219 C 275.640625 269.960938 275.3125 269.6875 275.007812 269.386719 C 274.703125 269.082031 274.433594 268.753906 274.195312 268.394531 C 273.957031 268.039062 273.757812 267.664062 273.59375 267.265625 C 273.429688 266.871094 273.304688 266.464844 273.222656 266.042969 C 273.136719 265.621094 273.097656 265.199219 273.097656 264.769531 C 273.097656 264.339844 273.136719 263.914062 273.222656 263.496094 C 273.304688 263.074219 273.429688 262.667969 273.59375 262.269531 C 273.757812 261.875 273.957031 261.5 274.195312 261.140625 C 274.433594 260.785156 274.703125 260.457031 275.007812 260.152344 C 275.3125 259.847656 275.640625 259.578125 275.996094 259.339844 C 276.351562 259.101562 276.730469 258.902344 277.125 258.738281 C 277.519531 258.574219 277.929688 258.449219 278.351562 258.367188 C 278.769531 258.28125 279.195312 258.242188 279.625 258.242188 C 280.050781 258.242188 280.476562 258.28125 280.898438 258.367188 C 281.316406 258.449219 281.726562 258.574219 282.121094 258.738281 C 282.515625 258.902344 282.894531 259.101562 283.25 259.339844 C 283.605469 259.578125 283.933594 259.847656 284.238281 260.152344 C 284.542969 260.457031 284.8125 260.785156 285.050781 261.140625 C 285.289062 261.5 285.488281 261.875 285.652344 262.269531 C 285.816406 262.667969 285.941406 263.074219 286.023438 263.496094 C 286.109375 263.914062 286.148438 264.339844 286.148438 264.769531 Z M 286.148438 264.769531 " fill-opacity="1" fill-rule="nonzero"/><path fill="#1a4447" d="M 338.875 341.441406 C 338.875 341.867188 338.832031 342.292969 338.75 342.714844 C 338.664062 343.132812 338.542969 343.542969 338.378906 343.9375 C 338.214844 344.335938 338.011719 344.710938 337.773438 345.066406 C 337.535156 345.421875 337.265625 345.753906 336.960938 346.054688 C 336.660156 346.359375 336.328125 346.628906 335.972656 346.867188 C 335.617188 347.105469 335.242188 347.308594 334.84375 347.472656 C 334.449219 347.636719 334.039062 347.757812 333.621094 347.84375 C 333.199219 347.925781 332.777344 347.96875 332.347656 347.96875 C 331.917969 347.96875 331.496094 347.925781 331.074219 347.84375 C 330.652344 347.757812 330.246094 347.636719 329.847656 347.472656 C 329.453125 347.308594 329.078125 347.105469 328.722656 346.867188 C 328.363281 346.628906 328.035156 346.359375 327.730469 346.054688 C 327.429688 345.753906 327.160156 345.421875 326.921875 345.066406 C 326.683594 344.710938 326.480469 344.335938 326.316406 343.9375 C 326.152344 343.542969 326.03125 343.132812 325.945312 342.714844 C 325.863281 342.292969 325.820312 341.867188 325.820312 341.441406 C 325.820312 341.011719 325.863281 340.585938 325.945312 340.164062 C 326.03125 339.746094 326.152344 339.335938 326.316406 338.941406 C 326.480469 338.546875 326.683594 338.167969 326.921875 337.8125 C 327.160156 337.457031 327.429688 337.125 327.730469 336.824219 C 328.035156 336.519531 328.363281 336.25 328.722656 336.011719 C 329.078125 335.773438 329.453125 335.570312 329.847656 335.40625 C 330.246094 335.242188 330.652344 335.121094 331.074219 335.035156 C 331.496094 334.953125 331.917969 334.910156 332.347656 334.910156 C 332.777344 334.910156 333.199219 334.953125 333.621094 335.035156 C 334.039062 335.121094 334.449219 335.242188 334.84375 335.40625 C 335.242188 335.570312 335.617188 335.773438 335.972656 336.011719 C 336.328125 336.25 336.660156 336.519531 336.960938 336.824219 C 337.265625 337.125 337.535156 337.457031 337.773438 337.8125 C 338.011719 338.167969 338.214844 338.546875 338.378906 338.941406 C 338.542969 339.335938 338.664062 339.746094 338.75 340.164062 C 338.832031 340.585938 338.875 341.011719 338.875 341.441406 Z M 338.875 341.441406 " fill-opacity="1" fill-rule="nonzero"/><path fill="#1a4447" d="M 642.6875 274.015625 C 632.84375 253.457031 567.355469 206.640625 556.335938 202.40625 C 545.261719 198.148438 533.386719 194.015625 520.90625 190.003906 C 520.0625 191.066406 519.109375 192.085938 517.910156 192.996094 C 513.363281 196.4375 508.578125 198.371094 503.648438 199.351562 C 520.679688 204.519531 536.675781 209.929688 551.289062 215.546875 C 559.820312 218.824219 622.152344 263.714844 629.996094 280.09375 C 640.496094 302.917969 586.671875 594.089844 568.699219 611.746094 C 538.503906 636.394531 495.621094 663.566406 482.707031 663.390625 C 373.121094 661.195312 168.691406 622.4375 67.601562 591.035156 C 68.664062 558.179688 70.742188 525.839844 73.78125 493.652344 C 72.328125 491.957031 70.984375 490.253906 69.707031 488.539062 C 66.011719 485.59375 63.121094 481.796875 61.257812 477.492188 C 57.179688 516.609375 54.539062 555.882812 53.371094 595.941406 C 53.28125 599.078125 55.277344 601.898438 58.265625 602.851562 C 158.335938 634.800781 369.847656 675.207031 482.421875 677.460938 C 482.546875 677.464844 482.675781 677.464844 482.804688 677.464844 C 505.476562 677.464844 558.875 637.933594 577.640625 622.613281 C 593.46875 609.6875 616.960938 488.550781 623.785156 451.730469 C 628.632812 425.585938 652.316406 294.125 642.6875 274.015625 Z M 642.6875 274.015625 " fill-opacity="1" fill-rule="nonzero"/><path fill="#1a4447" d="M 146.660156 143.785156 C 226.121094 145.851562 314.765625 156.472656 394.988281 172.527344 C 391.980469 169.398438 389.425781 165.753906 387.515625 161.480469 C 386.753906 159.78125 386.390625 158.121094 386.210938 156.492188 C 306.421875 141.183594 219.429688 131.246094 141.675781 129.589844 C 138.507812 129.4375 135.75 131.53125 134.816406 134.519531 C 104.535156 231.085938 83.433594 319.785156 70.175781 407.507812 C 74.542969 403.792969 79.882812 401.640625 85.617188 399.386719 C 98.605469 317.222656 118.617188 233.929688 146.664062 143.785156 Z M 146.660156 143.785156 " fill-opacity="1" fill-rule="nonzero"/><path fill="#1a4447" d="M 477.070312 670.664062 C 477.625 670.628906 477.933594 670.613281 478.128906 670.609375 C 479.476562 670.394531 480.824219 670.1875 482.183594 670.035156 C 483.683594 669.863281 485.144531 669.769531 486.65625 669.734375 C 487.773438 669.710938 488.835938 669.78125 489.917969 669.8125 L 492.023438 660.558594 C 525.382812 513.820312 559.804688 362.148438 560.769531 214.015625 C 558.382812 213.863281 555.992188 213.277344 554.246094 212.0625 C 552.257812 210.675781 550.464844 209.117188 548.65625 207.570312 C 548.632812 207.558594 548.605469 207.542969 548.582031 207.527344 C 548.082031 207.355469 547.617188 207.082031 547.140625 206.839844 C 546.925781 207.515625 546.777344 208.21875 546.777344 208.964844 C 546.574219 357.121094 511.867188 509.792969 478.300781 657.4375 L 475.703125 668.867188 C 475.546875 669.542969 475.53125 670.214844 475.574219 670.878906 C 476.074219 670.804688 476.566406 670.691406 477.070312 670.667969 Z M 477.070312 670.664062 " fill-opacity="1" fill-rule="nonzero"/><path fill="#1a4447" d="M 469.355469 370.230469 C 461.9375 414.441406 452.757812 459.660156 443.925781 498.789062 C 444.953125 498.929688 445.980469 499.046875 447 499.214844 C 450.355469 499.769531 453.363281 500.789062 456.464844 502.238281 C 456.808594 502.402344 457.125 502.613281 457.460938 502.792969 C 466.699219 461.847656 476.121094 414.769531 483.636719 369.382812 C 479.230469 369.96875 474.847656 369.804688 470.410156 370.265625 C 470.046875 370.300781 469.710938 370.226562 469.355469 370.230469 Z M 469.355469 370.230469 " fill-opacity="1" fill-rule="nonzero"/><path fill="#1a4447" d="M 493.878906 234.808594 C 389.851562 197.507812 289.386719 180.746094 186.707031 183.484375 C 183.5625 183.566406 180.855469 185.734375 180.078125 188.785156 C 161.722656 261.125 145.546875 337.054688 131.699219 415.722656 C 132.230469 416.265625 132.773438 416.789062 133.257812 417.4375 C 138.753906 424.851562 140.8125 433.183594 141.550781 441.820312 C 155.886719 356.953125 172.859375 275.089844 192.40625 197.425781 C 289.902344 195.4375 385.429688 211.46875 484.253906 246.324219 C 483.101562 270.664062 480.023438 299.0625 475.757812 329.066406 C 480.507812 329.34375 485.257812 330.238281 489.417969 332.050781 C 494.238281 298.449219 497.597656 267.136719 498.535156 241.691406 C 498.644531 238.625 496.761719 235.84375 493.878906 234.808594 Z M 493.878906 234.808594 " fill-opacity="1" fill-rule="nonzero"/><path fill="#1a4447" d="M 436.878906 541.5625 C 435.855469 541.554688 434.867188 541.4375 433.914062 541.242188 C 425.820312 573.976562 418.855469 598.148438 415.050781 606.925781 C 308.808594 599.5 213.445312 583.292969 123.886719 557.441406 C 126.003906 541.851562 128.214844 526.347656 130.507812 510.929688 C 125.789062 511.074219 120.949219 510.367188 116.613281 508.828125 C 114.011719 526.304688 111.503906 543.875 109.132812 561.566406 C 108.671875 565.011719 110.789062 568.277344 114.121094 569.257812 C 207.589844 596.746094 307.152344 613.761719 418.503906 621.269531 C 418.660156 621.28125 418.820312 621.285156 418.976562 621.285156 C 420.792969 621.285156 422.542969 620.582031 423.859375 619.316406 C 428.359375 614.980469 437.746094 584.40625 448.402344 541.242188 C 444.578125 541.660156 440.765625 541.585938 436.878906 541.5625 Z M 436.878906 541.5625 " fill-opacity="1" fill-rule="nonzero"/><path fill="#1a4447" d="M 502.304688 383.085938 C 501.914062 383.085938 501.519531 383.050781 501.128906 382.984375 C 492.6875 381.554688 484.261719 380.304688 475.84375 379.050781 C 464.796875 377.410156 453.371094 375.710938 442.085938 373.621094 C 438.496094 372.957031 436.007812 369.65625 436.363281 366.019531 C 437.902344 350.246094 439.472656 341.859375 443.730469 323.027344 C 444.5 319.613281 447.644531 317.300781 451.140625 317.558594 C 471.261719 319.140625 489.503906 322.226562 510.292969 327.578125 C 513.742188 328.464844 515.984375 331.792969 515.515625 335.324219 C 514.507812 342.859375 513.4375 349.589844 512.371094 356.320312 C 511.320312 362.945312 510.269531 369.566406 509.277344 376.980469 C 509.023438 378.871094 508.011719 380.582031 506.476562 381.710938 C 505.261719 382.609375 503.792969 383.085938 502.304688 383.085938 Z M 451.050781 360.925781 C 460.027344 362.472656 469.089844 363.816406 477.914062 365.128906 C 484.050781 366.042969 490.191406 366.953125 496.335938 367.933594 C 497.039062 363.167969 497.753906 358.640625 498.472656 354.117188 C 499.222656 349.402344 499.96875 344.6875 500.695312 339.6875 C 485.265625 335.972656 471.105469 333.570312 456.113281 332.125 C 453.535156 343.835938 452.175781 351.222656 451.050781 360.925781 Z M 451.050781 360.925781 " fill-opacity="1" fill-rule="nonzero"/><path fill="#1a4447" d="M 470.675781 554.152344 C 470.285156 554.152344 469.890625 554.121094 469.503906 554.054688 C 461.042969 552.621094 452.597656 551.363281 444.164062 550.113281 C 433.132812 548.472656 421.726562 546.773438 410.457031 544.691406 C 406.867188 544.027344 404.382812 540.722656 404.734375 537.089844 C 406.273438 521.332031 407.84375 512.945312 412.101562 494.09375 C 412.871094 490.683594 416 488.371094 419.515625 488.628906 C 439.636719 490.207031 457.875 493.296875 478.664062 498.644531 C 482.117188 499.53125 484.359375 502.859375 483.886719 506.394531 C 482.878906 513.925781 481.8125 520.660156 480.746094 527.390625 C 479.695312 534.011719 478.644531 540.632812 477.652344 548.046875 C 477.398438 549.941406 476.386719 551.648438 474.851562 552.78125 C 473.632812 553.679688 472.167969 554.152344 470.675781 554.152344 Z M 419.425781 531.992188 C 428.382812 533.535156 437.425781 534.878906 446.234375 536.1875 C 452.386719 537.105469 458.546875 538.019531 464.710938 539.003906 C 465.410156 534.234375 466.128906 529.710938 466.84375 525.183594 C 467.59375 520.46875 468.34375 515.757812 469.070312 510.757812 C 453.636719 507.039062 439.476562 504.636719 424.488281 503.191406 C 421.90625 514.914062 420.546875 522.304688 419.425781 531.992188 Z M 419.425781 531.992188 " fill-opacity="1" fill-rule="nonzero"/><path fill="#1a4447" d="M 54.472656 239.464844 C 53.296875 239.464844 52.113281 239.402344 50.933594 239.273438 C 41.226562 238.203125 27.914062 232.316406 19.609375 210.3125 C 12.695312 191.992188 20.300781 172.09375 36.5625 165.949219 C 45.566406 162.558594 54.46875 163.378906 61.003906 168.195312 C 65.777344 171.71875 71.175781 178.792969 71.660156 192.839844 C 76.546875 194.636719 80.972656 198.3125 83.742188 203.164062 C 87.847656 210.355469 87.558594 218.519531 82.945312 225.5625 C 78.222656 232.769531 66.671875 239.464844 54.472656 239.464844 Z M 47.394531 177.960938 C 44.988281 177.960938 42.734375 178.664062 41.53125 179.117188 C 32.527344 182.519531 28.601562 194.28125 32.777344 205.339844 C 37.421875 217.644531 44.046875 224.355469 52.46875 225.28125 C 60.996094 226.203125 69.152344 220.9375 71.175781 217.847656 C 72.859375 215.28125 72.976562 212.6875 71.523438 210.144531 C 69.867188 207.242188 66.960938 205.636719 64.871094 205.695312 C 62.886719 205.773438 60.933594 205.03125 59.53125 203.609375 C 58.128906 202.183594 57.394531 200.230469 57.519531 198.234375 C 58.09375 188.90625 56.363281 182.261719 52.652344 179.523438 C 51.0625 178.351562 49.183594 177.960938 47.394531 177.960938 Z M 47.394531 177.960938 " fill-opacity="1" fill-rule="nonzero"/><path fill="#1a4447" d="M 54.703125 269.808594 C 45.421875 258.417969 42.34375 244.394531 45.476562 228.066406 C 38.890625 227.097656 34.988281 222.40625 33.753906 216.953125 C 33.667969 217.167969 33.5625 217.367188 33.5 217.589844 C 25.085938 247.328125 34.453125 267.238281 43.792969 278.699219 C 56.996094 294.90625 77.277344 303.308594 94.996094 305.714844 C 95.933594 301.046875 97.179688 296.480469 98.714844 291.996094 C 83.355469 290.335938 65.535156 283.105469 54.703125 269.808594 Z M 54.703125 269.808594 " fill-opacity="1" fill-rule="nonzero"/><path fill="#1a4447" d="M 694.316406 355.863281 C 690.382812 355.863281 686.898438 355.125 683.957031 354.101562 C 671.175781 349.660156 662.214844 337.328125 660.933594 327.96875 C 659.792969 319.628906 663.035156 312.132812 669.828125 307.402344 C 674.410156 304.210938 679.984375 302.789062 685.171875 303.265625 C 691.640625 290.785156 699.554688 286.71875 705.378906 285.585938 C 713.351562 284.054688 721.753906 287.128906 728.417969 294.0625 C 734.394531 300.273438 737.207031 308.730469 736.34375 317.863281 C 735.515625 326.601562 731.371094 334.960938 724.679688 341.402344 C 713.136719 352.503906 702.707031 355.863281 694.316406 355.863281 Z M 683.207031 317.246094 C 681.542969 317.246094 679.570312 317.765625 677.871094 318.949219 C 675.464844 320.625 674.460938 323.015625 674.875 326.058594 C 675.375 329.71875 680.523438 338.007812 688.574219 340.804688 C 696.582031 343.589844 705.441406 340.375 714.921875 331.257812 C 719.191406 327.152344 721.824219 321.921875 722.332031 316.535156 C 722.808594 311.546875 721.363281 307.03125 718.273438 303.816406 C 716.71875 302.195312 712.609375 298.515625 708.058594 299.40625 C 703.53125 300.28125 699.117188 305.542969 695.628906 314.214844 C 694.882812 316.066406 693.382812 317.515625 691.507812 318.199219 C 689.625 318.882812 687.546875 318.734375 685.785156 317.792969 C 685.128906 317.441406 684.222656 317.246094 683.207031 317.246094 Z M 683.207031 317.246094 " fill-opacity="1" fill-rule="nonzero"/><path fill="#1a4447" d="M 696.636719 347.671875 C 695.519531 347.519531 694.460938 347.253906 693.382812 347.023438 C 689.125 362.699219 680.492188 373.867188 667.441406 380.058594 C 654.933594 386 639.96875 386.441406 626.988281 383.710938 C 626.648438 388.417969 626.097656 393.097656 625.304688 397.742188 C 630.75 398.8125 636.496094 399.425781 642.339844 399.425781 C 652.796875 399.425781 663.566406 397.480469 673.476562 392.777344 C 686.136719 386.765625 702.027344 373.847656 708.058594 346.578125 C 704.402344 347.769531 700.570312 348.199219 696.636719 347.671875 Z M 696.636719 347.671875 " fill-opacity="1" fill-rule="nonzero"/><path fill="#1a4447" d="M 338.371094 446.941406 C 338.011719 446.941406 337.644531 446.914062 337.273438 446.855469 C 333.4375 446.253906 330.8125 442.652344 331.414062 438.8125 C 332.679688 430.707031 328.273438 423.257812 321.585938 422.210938 C 314.882812 421.164062 308.425781 426.910156 307.15625 435.019531 C 306.558594 438.859375 302.960938 441.488281 299.121094 440.882812 C 295.28125 440.28125 292.65625 436.679688 293.257812 432.84375 C 295.726562 417.066406 309.429688 406.066406 323.757812 408.304688 C 338.113281 410.550781 347.78125 425.214844 345.3125 440.992188 C 344.769531 444.460938 341.777344 446.941406 338.371094 446.941406 Z M 338.371094 446.941406 " fill-opacity="1" fill-rule="nonzero"/><path fill="#1a4447" d="M 233.601562 426.71875 C 233.242188 426.71875 232.875 426.691406 232.507812 426.636719 C 228.667969 426.035156 226.042969 422.433594 226.644531 418.59375 C 227.28125 414.503906 226.511719 410.484375 224.46875 407.277344 C 222.601562 404.347656 219.886719 402.472656 216.816406 401.992188 C 213.742188 401.507812 210.582031 402.46875 207.917969 404.683594 C 204.992188 407.117188 203.03125 410.707031 202.390625 414.800781 C 201.789062 418.636719 198.1875 421.261719 194.351562 420.664062 C 190.511719 420.0625 187.886719 416.460938 188.488281 412.621094 C 189.65625 405.144531 193.363281 398.480469 198.925781 393.859375 C 204.746094 389.019531 211.867188 386.972656 218.992188 388.085938 C 226.109375 389.199219 232.269531 393.328125 236.335938 399.714844 C 240.21875 405.8125 241.714844 413.292969 240.546875 420.769531 C 240.003906 424.242188 237.007812 426.71875 233.601562 426.71875 Z M 233.601562 426.71875 " fill-opacity="1" fill-rule="nonzero"/></svg>