<svg xmlns="http://www.w3.org/2000/svg" xmlns:xlink="http://www.w3.org/1999/xlink" width="1000" zoomAndPan="magnify" viewBox="0 0 750 749.999995" height="1000" preserveAspectRatio="xMidYMid meet" version="1.0"><defs><clipPath id="520034b8af"><path d="M 59.21875 193 L 573 193 L 573 670 L 59.21875 670 Z M 59.21875 193 " clip-rule="nonzero"/></clipPath><clipPath id="4d4dce4aa1"><path d="M 621 256 L 690.71875 256 L 690.71875 366 L 621 366 Z M 621 256 " clip-rule="nonzero"/></clipPath></defs><path fill="#f4c3e9" d="M 335.050781 217.761719 C 309.113281 217.761719 291.703125 204.960938 285.421875 199.453125 L 283.105469 197.421875 L 276.414062 135.4375 C 274.488281 135.632812 272.609375 135.726562 270.796875 135.726562 C 261.789062 135.726562 254.113281 133.390625 247.984375 128.78125 C 234.914062 118.976562 233.472656 102.429688 233.457031 95.773438 C 233.414062 72.820312 251.855469 54.117188 274.558594 54.074219 C 281.828125 54.074219 288.847656 56 295.117188 59.679688 C 293.785156 55.566406 293.109375 51.300781 293.101562 46.953125 C 293.058594 24.011719 311.5 5.3125 334.210938 5.269531 C 356.949219 5.269531 375.421875 23.898438 375.46875 46.804688 C 375.476562 51.53125 374.636719 56.21875 372.964844 60.796875 C 379.699219 56.25 387.359375 53.871094 395.390625 53.859375 C 406.4375 53.859375 416.761719 58.171875 424.53125 65.996094 C 432.320312 73.835938 436.621094 84.28125 436.640625 95.394531 C 436.65625 101.871094 435.179688 118.070312 421.210938 128.722656 C 414.066406 134.167969 404.894531 137.046875 393.929688 137.292969 L 387.269531 199.625 L 385.269531 201.605469 C 380.363281 206.464844 365.644531 217.761719 335.050781 217.761719 Z M 335.050781 217.761719 " fill-opacity="1" fill-rule="nonzero"/><path fill="#79afae" d="M 139.316406 644.101562 C 121.773438 633.261719 94.058594 605.28125 75.75 583.238281 L 75.519531 582.957031 L 75.3125 582.660156 C 64.726562 567.21875 65.0625 454.457031 65.417969 420.265625 C 65.773438 386.066406 67.78125 273.3125 78.695312 258.164062 C 89.09375 244.191406 139.289062 220.710938 156.40625 213.726562 L 165.78125 209.902344 C 167.492188 209.207031 169.296875 210.671875 168.96875 212.488281 L 167.160156 222.449219 C 142.832031 356.433594 147.160156 498.824219 151.34375 636.515625 L 151.6875 647.613281 C 151.742188 649.417969 149.769531 650.558594 148.230469 649.609375 Z M 139.316406 644.101562 " fill-opacity="1" fill-rule="nonzero"/><path fill="#b2d7d8" d="M 261.453125 744.734375 C 256.417969 744.734375 252.328125 740.644531 252.328125 735.613281 L 252.328125 657.246094 L 260.6875 657.738281 C 270.1875 658.292969 279.839844 658.796875 289.617188 659.222656 L 297.171875 659.550781 L 297.171875 704.6875 C 300.242188 704.074219 303.257812 703.757812 305.984375 703.757812 C 312.457031 703.757812 317.664062 705.523438 321.457031 709.003906 C 329.425781 716.316406 329.070312 729.574219 328.152344 736.820312 C 327.578125 741.332031 323.6875 744.734375 319.105469 744.734375 Z M 261.453125 744.734375 " fill-opacity="1" fill-rule="nonzero"/><path fill="#b2d7d8" d="M 392.894531 744.734375 C 387.859375 744.734375 383.769531 740.644531 383.769531 735.613281 L 383.769531 661.261719 L 391.648438 661.246094 C 401.402344 661.226562 411.078125 661.144531 420.601562 661.003906 L 428.613281 660.882812 L 428.613281 704.6875 C 431.683594 704.078125 434.695312 703.761719 437.417969 703.761719 C 443.898438 703.761719 449.105469 705.523438 452.898438 709 C 460.867188 716.316406 460.511719 729.570312 459.59375 736.820312 C 459.019531 741.332031 455.128906 744.734375 450.546875 744.734375 Z M 392.894531 744.734375 " fill-opacity="1" fill-rule="nonzero"/><path fill="#b2d7d8" d="M 386.164062 663.921875 C 294.542969 663.921875 210.464844 658.738281 155.496094 649.707031 L 149.082031 648.652344 L 148.710938 636.59375 C 144.449219 496.332031 140.042969 351.292969 165.710938 215.46875 L 166.734375 210.050781 L 172.171875 209.144531 C 204.78125 203.710938 243.0625 200.289062 285.953125 198.964844 L 288.714844 198.878906 L 290.929688 200.539062 C 298.207031 205.988281 313.621094 215.132812 335.050781 215.132812 C 361.066406 215.132812 375.257812 206.582031 381.398438 201.488281 L 383.738281 199.546875 L 386.773438 199.675781 C 445.152344 202.144531 503.117188 208.023438 554.410156 216.671875 L 560.519531 217.703125 L 560.972656 223.882812 C 572.804688 384.769531 566.234375 570.566406 553.359375 650.441406 L 552.402344 656.386719 L 546.414062 657.035156 C 505.460938 661.476562 448.546875 663.921875 386.164062 663.921875 Z M 386.164062 663.921875 " fill-opacity="1" fill-rule="nonzero"/><path fill="#79afae" d="M 230.296875 377.003906 C 221.992188 376.820312 213.640625 376.441406 205.5 376.074219 L 204.707031 376.035156 C 198.933594 375.773438 193.160156 375.507812 187.363281 375.300781 L 179.375 375.019531 L 179.753906 367.03125 C 179.964844 362.570312 180.117188 358.316406 180.273438 354.066406 C 180.429688 349.570312 180.59375 345.070312 180.824219 340.320312 L 181.175781 333.125 L 188.371094 332.816406 C 193.347656 332.597656 198.054688 332.496094 202.765625 332.496094 C 212.488281 332.496094 221.976562 332.957031 231.757812 333.90625 L 238.722656 334.582031 L 238.890625 341.578125 C 239.179688 353.691406 239.042969 360.792969 238.347656 369.71875 L 237.765625 377.167969 Z M 230.296875 377.003906 " fill-opacity="1" fill-rule="nonzero"/><path fill="#79afae" d="M 228.613281 539.695312 C 220.316406 539.511719 211.972656 539.136719 203.839844 538.765625 L 203.027344 538.730469 C 197.253906 538.46875 191.476562 538.203125 185.683594 537.996094 L 177.691406 537.714844 L 178.074219 529.726562 C 178.285156 525.261719 178.4375 521.007812 178.589844 516.753906 L 178.609375 516.238281 C 178.761719 511.917969 178.917969 507.582031 179.140625 503.011719 L 179.492188 495.824219 L 186.683594 495.511719 C 191.6875 495.289062 196.421875 495.179688 201.152344 495.179688 C 210.859375 495.179688 220.320312 495.648438 230.082031 496.601562 L 237.042969 497.28125 L 237.210938 504.273438 C 237.496094 516.394531 237.359375 523.496094 236.664062 532.414062 L 236.082031 539.859375 L 228.613281 539.699219 Z M 228.613281 539.695312 " fill-opacity="1" fill-rule="nonzero"/><path fill="#f4c3e9" d="M 412.140625 627.953125 C 376.132812 627.925781 357.921875 608.820312 348.984375 592.792969 L 346.121094 587.660156 L 350.214844 583.441406 C 352.132812 581.46875 353.671875 579.253906 354.785156 576.855469 L 357.304688 571.441406 L 363.203125 572.390625 C 378.65625 574.886719 397.871094 575.777344 410.695312 575.777344 L 411.277344 575.777344 C 439.707031 575.722656 465.542969 572.898438 472.15625 569.714844 C 478.765625 566.527344 482.410156 562.394531 482.410156 562.394531 L 485.695312 562.394531 L 482.238281 579.363281 C 477.09375 597.511719 461.148438 627.953125 412.191406 627.953125 Z M 412.140625 627.953125 " fill-opacity="1" fill-rule="nonzero"/><path fill="#1a4447" d="M 411.234375 578.40625 C 393.664062 578.367188 377.230469 577.207031 363.71875 575.0625 L 356.90625 573.980469 L 357.058594 567.085938 C 357.109375 564.859375 356.863281 562.683594 356.332031 560.617188 L 354.253906 552.535156 L 362.4375 550.902344 C 372.089844 548.980469 388.628906 546.640625 412.589844 546.398438 L 416.21875 546.382812 C 449.492188 546.382812 472.328125 550.820312 480.199219 555.222656 L 482.433594 556.472656 C 486.640625 558.824219 486.8125 564.816406 482.746094 567.402344 L 480.585938 568.78125 C 470.664062 575.097656 447.34375 578.339844 411.269531 578.40625 Z M 411.234375 578.40625 " fill-opacity="1" fill-rule="nonzero"/><path fill="#b2d7d8" d="M 332.867188 593.445312 C 329.855469 593.445312 326.875 592.9375 324 591.941406 C 317.21875 589.566406 311.773438 584.703125 308.660156 578.238281 C 305.554688 571.789062 305.140625 564.5 307.503906 557.730469 C 309.871094 550.949219 314.734375 545.507812 321.199219 542.398438 C 324.871094 540.621094 328.789062 539.722656 332.835938 539.722656 C 335.835938 539.722656 338.820312 540.230469 341.699219 541.230469 C 348.488281 543.605469 353.933594 548.46875 357.042969 554.933594 C 360.152344 561.382812 360.566406 568.671875 358.203125 575.441406 C 355.832031 582.222656 350.96875 587.664062 344.503906 590.773438 C 340.835938 592.542969 336.917969 593.445312 332.867188 593.445312 Z M 332.867188 593.445312 " fill-opacity="1" fill-rule="nonzero"/><path fill="#d1f2f0" d="M 356.742188 619.886719 C 311.394531 618.554688 264.84375 614.960938 218.382812 609.199219 L 212.839844 608.515625 L 211.636719 603.058594 C 209.074219 591.378906 207.1875 561.605469 206.292969 544.898438 L 205.828125 536.230469 L 214.5 536.582031 C 220.5625 536.832031 227.050781 537.070312 233.613281 537.15625 C 234.851562 523.894531 234.921875 516.09375 234.457031 499.699219 C 226.804688 498.847656 219.382812 498.300781 211.796875 498.023438 L 204.378906 497.757812 L 204.1875 490.339844 C 203.234375 453.46875 203.152344 415.808594 203.945312 381.429688 L 204.128906 373.367188 L 212.183594 373.722656 C 219.183594 374.023438 227.269531 374.359375 235.296875 374.460938 C 236.535156 361.195312 236.605469 353.398438 236.136719 337.007812 C 228.574219 336.164062 221.214844 335.617188 213.691406 335.339844 L 205.632812 335.042969 L 206.097656 326.988281 C 207.675781 299.757812 209.917969 276.148438 212.757812 256.8125 L 213.613281 250.996094 L 219.429688 250.144531 C 261.011719 244.050781 302.597656 240.960938 343.027344 240.960938 C 397.8125 240.960938 451.742188 246.621094 503.320312 257.78125 L 509.214844 259.058594 L 509.535156 265.082031 C 515.34375 373.601562 514.753906 489.214844 507.789062 608.703125 L 507.394531 615.515625 L 500.597656 616.113281 C 492.367188 616.835938 483.445312 617.46875 471.675781 618.164062 L 452.308594 619.308594 L 441.792969 620.464844 L 451.203125 615.007812 L 465.371094 604.960938 C 468.574219 601.445312 471.367188 597.523438 473.671875 593.3125 C 482.355469 577.453125 482.457031 561.332031 482.457031 561.167969 C 482.421875 557.984375 466.507812 549.015625 415.570312 549.015625 L 412.597656 549.03125 C 393.503906 549.222656 375.496094 550.867188 361.914062 553.667969 L 354.800781 555.28125 L 351.714844 551.425781 C 348.882812 547.882812 345.121094 545.214844 340.84375 543.722656 C 338.242188 542.8125 335.546875 542.351562 332.835938 542.351562 C 329.203125 542.351562 325.667969 543.164062 322.332031 544.769531 C 316.507812 547.582031 312.125 552.488281 309.992188 558.589844 C 307.855469 564.695312 308.226562 571.269531 311.039062 577.101562 C 313.847656 582.933594 318.753906 587.316406 324.859375 589.449219 C 327.476562 590.363281 330.175781 590.824219 332.875 590.824219 C 335.949219 590.824219 339.050781 590.183594 342.105469 588.914062 L 348.539062 586.242188 L 351.992188 592.292969 C 355.042969 597.636719 358.613281 602.398438 362.601562 606.453125 L 373.828125 613.84375 L 383.882812 620.464844 L 376.394531 620.464844 Z M 356.742188 619.886719 " fill-opacity="1" fill-rule="nonzero"/><path fill="#b2d7d8" d="M 626.019531 465.753906 C 615.316406 465.753906 605.640625 459.421875 601.375 449.621094 C 595.460938 436.058594 601.6875 420.203125 615.257812 414.28125 C 618.695312 412.792969 622.300781 412.039062 625.984375 412.039062 C 629.367188 412.039062 632.679688 412.671875 635.835938 413.921875 C 642.488281 416.535156 647.742188 421.601562 650.609375 428.179688 C 653.472656 434.75 653.605469 442.046875 650.980469 448.722656 C 648.359375 455.398438 643.296875 460.65625 636.722656 463.523438 C 633.316406 465.003906 629.714844 465.753906 626.019531 465.753906 Z M 626.019531 465.753906 " fill-opacity="1" fill-rule="nonzero"/><path fill="#f4c3e9" d="M 627.949219 359.296875 C 621.636719 359.289062 616.105469 353.769531 611.953125 343.347656 C 609.398438 336.9375 606.363281 326.015625 606.390625 310.371094 C 606.414062 297.679688 608.644531 285.234375 612.511719 276.226562 C 616.585938 266.742188 622.125 261.523438 628.105469 261.523438 C 634.429688 261.53125 639.960938 267.050781 644.113281 277.46875 C 646.667969 283.882812 649.707031 294.804688 649.675781 310.449219 C 649.652344 323.148438 647.421875 335.597656 643.554688 344.59375 C 639.480469 354.078125 633.945312 359.296875 627.964844 359.296875 Z M 627.949219 359.296875 " fill-opacity="1" fill-rule="nonzero"/><path fill="#f4c3e9" d="M 639.488281 346.992188 C 640.066406 345.910156 640.617188 344.761719 641.140625 343.550781 C 644.925781 334.738281 647.019531 322.976562 647.046875 310.449219 C 647.070312 296.917969 644.605469 284.035156 640.28125 275.101562 L 636.714844 270.195312 C 634.835938 267.601562 632.308594 265.546875 629.390625 264.234375 L 628.035156 263.625 L 628.105469 261.523438 L 634.035156 261.523438 C 635.523438 261.523438 637.007812 261.664062 638.46875 261.949219 L 649.867188 264.160156 C 657.273438 266.613281 664.078125 270.523438 669.535156 275.480469 C 676.707031 282.003906 685.246094 293.472656 685.238281 311.109375 C 685.234375 325.082031 678.351562 339.152344 666.832031 348.753906 C 661.359375 353.316406 655.191406 356.550781 648.5 358.359375 L 636.644531 359.296875 L 627.964844 359.296875 L 627.964844 357.265625 L 629.941406 356.203125 C 633.003906 354.566406 635.652344 352.257812 637.695312 349.453125 Z M 639.488281 346.992188 " fill-opacity="1" fill-rule="nonzero"/><path fill="#f4c3e9" d="M 378.164062 411.496094 C 366.488281 411.496094 354.984375 408.554688 344.886719 402.984375 C 327.777344 393.539062 315.160156 376.480469 311.148438 357.351562 C 305.519531 330.554688 315.511719 303.558594 337.21875 286.902344 C 349.28125 277.636719 363.4375 272.738281 378.152344 272.738281 C 388.863281 272.738281 399.351562 275.296875 409.332031 280.339844 C 436.304688 293.996094 452.027344 326.621094 445.90625 356.222656 C 439.785156 385.824219 412.417969 409.535156 382.246094 411.375 C 380.886719 411.453125 379.527344 411.496094 378.164062 411.496094 Z M 378.164062 411.496094 " fill-opacity="1" fill-rule="nonzero"/><path fill="#1a4447" d="M 378.3125 364.367188 C 374.648438 364.367188 370.867188 363.394531 367.671875 361.636719 C 362.175781 358.613281 358.125 353.136719 356.835938 346.992188 C 354.675781 336.710938 359.742188 328.585938 365.199219 324.410156 C 369.050781 321.449219 373.601562 319.882812 378.351562 319.882812 C 381.789062 319.882812 385.140625 320.695312 388.320312 322.296875 C 396.984375 326.695312 402.023438 337.15625 400.0625 346.640625 C 398.09375 356.144531 389.316406 363.742188 379.644531 364.324219 C 379.230469 364.347656 378.769531 364.367188 378.3125 364.367188 Z M 378.3125 364.367188 " fill-opacity="1" fill-rule="nonzero"/><path fill="#1a4447" d="M 407.363281 517.488281 C 403.957031 517.488281 400.890625 517.230469 398.253906 516.730469 C 382.066406 513.636719 375.328125 508.210938 371.660156 504.800781 C 367.992188 508.210938 361.25 513.632812 345.070312 516.726562 C 342.429688 517.230469 339.359375 517.488281 335.953125 517.488281 C 324.128906 517.488281 306.976562 514.230469 294.316406 505.089844 C 287.449219 500.136719 282.394531 493.890625 279.296875 486.515625 L 276.546875 479.972656 C 275.296875 477 277.847656 473.824219 281.019531 474.40625 L 288 475.6875 C 293.363281 476.667969 298.21875 477.148438 302.851562 477.148438 C 313.214844 477.148438 320.515625 474.644531 327.582031 472.230469 C 334.660156 469.804688 341.351562 467.511719 350.75 467.511719 C 356.675781 467.511719 362.472656 469.058594 366.65625 471.753906 C 368.09375 472.679688 369.820312 473.167969 371.644531 473.167969 C 373.453125 473.167969 375.242188 472.664062 376.675781 471.742188 C 380.859375 469.050781 386.648438 467.511719 392.566406 467.511719 C 401.964844 467.511719 408.65625 469.804688 415.738281 472.230469 C 422.796875 474.644531 430.101562 477.148438 440.46875 477.148438 C 445.097656 477.148438 449.957031 476.667969 455.316406 475.6875 L 462.296875 474.40625 C 465.46875 473.824219 468.023438 477 466.769531 479.972656 L 464.019531 486.515625 C 460.921875 493.890625 455.867188 500.140625 448.996094 505.089844 C 436.34375 514.230469 419.191406 517.488281 407.363281 517.488281 Z M 407.363281 517.488281 " fill-opacity="1" fill-rule="nonzero"/><path fill="#f4c3e9" d="M 315.164062 449.527344 C 315.164062 450.464844 315.070312 451.394531 314.886719 452.316406 C 314.707031 453.234375 314.433594 454.128906 314.074219 454.996094 C 313.714844 455.863281 313.277344 456.6875 312.753906 457.46875 C 312.234375 458.25 311.640625 458.96875 310.976562 459.632812 C 310.3125 460.296875 309.589844 460.890625 308.8125 461.410156 C 308.03125 461.933594 307.207031 462.375 306.339844 462.734375 C 305.472656 463.09375 304.578125 463.363281 303.65625 463.546875 C 302.738281 463.730469 301.808594 463.820312 300.871094 463.820312 C 299.929688 463.820312 299 463.730469 298.082031 463.546875 C 297.160156 463.363281 296.265625 463.09375 295.398438 462.734375 C 294.53125 462.375 293.707031 461.933594 292.929688 461.410156 C 292.148438 460.890625 291.425781 460.296875 290.761719 459.632812 C 290.097656 458.96875 289.507812 458.25 288.984375 457.46875 C 288.464844 456.6875 288.023438 455.863281 287.664062 454.996094 C 287.304688 454.128906 287.035156 453.234375 286.851562 452.316406 C 286.667969 451.394531 286.574219 450.464844 286.574219 449.527344 C 286.574219 448.585938 286.667969 447.65625 286.851562 446.738281 C 287.035156 445.816406 287.304688 444.921875 287.664062 444.054688 C 288.023438 443.1875 288.464844 442.363281 288.984375 441.585938 C 289.507812 440.804688 290.097656 440.082031 290.761719 439.417969 C 291.425781 438.753906 292.148438 438.160156 292.929688 437.640625 C 293.707031 437.117188 294.53125 436.679688 295.398438 436.320312 C 296.265625 435.960938 297.160156 435.6875 298.082031 435.503906 C 299 435.324219 299.929688 435.230469 300.871094 435.230469 C 301.808594 435.230469 302.738281 435.324219 303.65625 435.503906 C 304.578125 435.6875 305.472656 435.960938 306.339844 436.320312 C 307.207031 436.679688 308.03125 437.117188 308.8125 437.640625 C 309.589844 438.160156 310.3125 438.753906 310.976562 439.417969 C 311.640625 440.082031 312.234375 440.804688 312.753906 441.585938 C 313.277344 442.363281 313.714844 443.1875 314.074219 444.054688 C 314.433594 444.921875 314.707031 445.816406 314.886719 446.738281 C 315.070312 447.65625 315.164062 448.585938 315.164062 449.527344 Z M 315.164062 449.527344 " fill-opacity="1" fill-rule="nonzero"/><path fill="#f4c3e9" d="M 456.613281 449.527344 C 456.613281 450.464844 456.523438 451.394531 456.339844 452.316406 C 456.15625 453.234375 455.882812 454.128906 455.527344 454.996094 C 455.167969 455.863281 454.726562 456.6875 454.203125 457.46875 C 453.683594 458.25 453.089844 458.96875 452.425781 459.632812 C 451.761719 460.296875 451.042969 460.890625 450.261719 461.410156 C 449.480469 461.933594 448.65625 462.375 447.789062 462.734375 C 446.921875 463.09375 446.027344 463.363281 445.109375 463.546875 C 444.1875 463.730469 443.257812 463.820312 442.320312 463.820312 C 441.382812 463.820312 440.453125 463.730469 439.53125 463.546875 C 438.609375 463.363281 437.71875 463.09375 436.851562 462.734375 C 435.984375 462.375 435.160156 461.933594 434.378906 461.410156 C 433.597656 460.890625 432.875 460.296875 432.210938 459.632812 C 431.550781 458.96875 430.957031 458.25 430.433594 457.46875 C 429.914062 456.6875 429.472656 455.863281 429.113281 454.996094 C 428.753906 454.128906 428.484375 453.234375 428.300781 452.316406 C 428.117188 451.394531 428.027344 450.464844 428.027344 449.527344 C 428.027344 448.585938 428.117188 447.65625 428.300781 446.738281 C 428.484375 445.816406 428.753906 444.921875 429.113281 444.054688 C 429.472656 443.1875 429.914062 442.363281 430.433594 441.585938 C 430.957031 440.804688 431.550781 440.082031 432.210938 439.417969 C 432.875 438.753906 433.597656 438.160156 434.378906 437.640625 C 435.160156 437.117188 435.984375 436.679688 436.851562 436.320312 C 437.71875 435.960938 438.609375 435.6875 439.53125 435.503906 C 440.453125 435.324219 441.382812 435.230469 442.320312 435.230469 C 443.257812 435.230469 444.1875 435.324219 445.109375 435.503906 C 446.027344 435.6875 446.921875 435.960938 447.789062 436.320312 C 448.65625 436.679688 449.480469 437.117188 450.261719 437.640625 C 451.042969 438.160156 451.761719 438.753906 452.425781 439.417969 C 453.089844 440.082031 453.683594 440.804688 454.203125 441.585938 C 454.726562 442.363281 455.167969 443.1875 455.527344 444.054688 C 455.882812 444.921875 456.15625 445.816406 456.339844 446.738281 C 456.523438 447.65625 456.613281 448.585938 456.613281 449.527344 Z M 456.613281 449.527344 " fill-opacity="1" fill-rule="nonzero"/><path fill="#1a4447" d="M 378.191406 416.757812 C 365.738281 416.757812 353.160156 413.5625 342.34375 407.597656 C 323.910156 397.417969 310.320312 379.039062 305.996094 358.433594 C 299.953125 329.632812 310.6875 300.621094 334.015625 282.722656 C 356.828125 265.210938 385.875 262.570312 411.714844 275.652344 C 440.734375 290.339844 457.648438 325.433594 451.0625 357.289062 C 444.476562 389.144531 415.027344 414.652344 382.566406 416.625 C 381.113281 416.714844 379.652344 416.757812 378.191406 416.757812 Z M 378.152344 280.636719 C 365.390625 280.636719 352.851562 284.855469 342.027344 293.164062 C 322.75 307.957031 313.878906 331.925781 318.875 355.730469 C 322.425781 372.640625 333.574219 387.71875 348.703125 396.070312 C 358.628906 401.546875 370.355469 404.179688 381.765625 403.488281 C 408.5 401.863281 432.75 380.859375 438.171875 354.625 C 443.59375 328.390625 429.667969 299.488281 405.769531 287.394531 C 396.835938 282.871094 387.433594 280.636719 378.152344 280.636719 Z M 378.152344 280.636719 " fill-opacity="1" fill-rule="nonzero"/><path fill="#1a4447" d="M 378.300781 369.628906 C 373.6875 369.628906 369.164062 368.472656 365.125 366.246094 C 358.304688 362.480469 353.28125 355.6875 351.683594 348.070312 C 349.460938 337.484375 353.410156 326.816406 361.984375 320.234375 C 370.304688 313.855469 381.316406 312.84375 390.710938 317.609375 L 390.714844 317.609375 C 401.410156 323.027344 407.644531 335.964844 405.21875 347.703125 C 402.789062 359.449219 391.933594 368.851562 379.96875 369.578125 C 379.410156 369.613281 378.855469 369.632812 378.300781 369.632812 Z M 378.351562 327.785156 C 375.398438 327.785156 372.5 328.757812 370 330.675781 C 366.449219 333.398438 363.164062 338.6875 364.5625 345.363281 C 365.375 349.230469 368.027344 352.8125 371.480469 354.71875 C 373.785156 355.988281 376.550781 356.609375 379.167969 356.441406 C 385.304688 356.070312 391.082031 351.058594 392.332031 345.039062 C 393.574219 339.023438 390.253906 332.132812 384.769531 329.351562 C 382.691406 328.300781 380.507812 327.785156 378.351562 327.785156 Z M 378.351562 327.785156 " fill-opacity="1" fill-rule="nonzero"/><path fill="#1a4447" d="M 384.96875 298.585938 C 384.96875 298.984375 384.929688 299.382812 384.851562 299.773438 C 384.773438 300.167969 384.65625 300.550781 384.503906 300.921875 C 384.351562 301.289062 384.164062 301.640625 383.941406 301.976562 C 383.71875 302.308594 383.464844 302.617188 383.179688 302.902344 C 382.898438 303.183594 382.589844 303.4375 382.253906 303.660156 C 381.921875 303.882812 381.570312 304.070312 381.199219 304.222656 C 380.828125 304.378906 380.449219 304.492188 380.054688 304.570312 C 379.660156 304.648438 379.265625 304.6875 378.863281 304.6875 C 378.464844 304.6875 378.066406 304.648438 377.671875 304.570312 C 377.28125 304.492188 376.898438 304.378906 376.527344 304.222656 C 376.15625 304.070312 375.804688 303.882812 375.472656 303.660156 C 375.140625 303.4375 374.832031 303.183594 374.546875 302.902344 C 374.265625 302.617188 374.011719 302.308594 373.789062 301.976562 C 373.566406 301.640625 373.378906 301.289062 373.222656 300.921875 C 373.070312 300.550781 372.953125 300.167969 372.875 299.773438 C 372.796875 299.382812 372.757812 298.984375 372.757812 298.585938 C 372.757812 298.183594 372.796875 297.785156 372.875 297.394531 C 372.953125 297 373.070312 296.617188 373.222656 296.246094 C 373.378906 295.878906 373.566406 295.527344 373.789062 295.191406 C 374.011719 294.859375 374.265625 294.550781 374.546875 294.265625 C 374.832031 293.984375 375.140625 293.730469 375.472656 293.507812 C 375.804688 293.285156 376.15625 293.097656 376.527344 292.945312 C 376.898438 292.789062 377.28125 292.675781 377.671875 292.597656 C 378.066406 292.519531 378.464844 292.480469 378.863281 292.480469 C 379.265625 292.480469 379.660156 292.519531 380.054688 292.597656 C 380.449219 292.675781 380.828125 292.789062 381.199219 292.945312 C 381.570312 293.097656 381.921875 293.285156 382.253906 293.507812 C 382.589844 293.730469 382.898438 293.984375 383.179688 294.265625 C 383.464844 294.550781 383.71875 294.859375 383.941406 295.191406 C 384.164062 295.527344 384.351562 295.878906 384.503906 296.246094 C 384.65625 296.617188 384.773438 297 384.851562 297.394531 C 384.929688 297.785156 384.96875 298.183594 384.96875 298.585938 Z M 384.96875 298.585938 " fill-opacity="1" fill-rule="nonzero"/><path fill="#1a4447" d="M 384.070312 385.609375 C 384.070312 386.011719 384.027344 386.40625 383.949219 386.800781 C 383.871094 387.195312 383.757812 387.574219 383.605469 387.945312 C 383.449219 388.316406 383.261719 388.667969 383.039062 389 C 382.816406 389.335938 382.5625 389.644531 382.28125 389.925781 C 381.996094 390.210938 381.6875 390.460938 381.355469 390.683594 C 381.023438 390.910156 380.671875 391.097656 380.300781 391.25 C 379.929688 391.402344 379.546875 391.519531 379.15625 391.597656 C 378.761719 391.675781 378.363281 391.714844 377.964844 391.714844 C 377.5625 391.714844 377.167969 391.675781 376.773438 391.597656 C 376.378906 391.519531 376 391.402344 375.628906 391.25 C 375.257812 391.097656 374.90625 390.910156 374.574219 390.6875 C 374.238281 390.460938 373.929688 390.210938 373.648438 389.925781 C 373.363281 389.644531 373.109375 389.335938 372.886719 389 C 372.664062 388.667969 372.476562 388.316406 372.324219 387.945312 C 372.171875 387.574219 372.054688 387.195312 371.976562 386.800781 C 371.898438 386.40625 371.859375 386.011719 371.859375 385.609375 C 371.859375 385.207031 371.898438 384.8125 371.976562 384.417969 C 372.054688 384.023438 372.171875 383.644531 372.324219 383.273438 C 372.476562 382.902344 372.664062 382.550781 372.886719 382.21875 C 373.109375 381.882812 373.363281 381.574219 373.648438 381.292969 C 373.929688 381.007812 374.238281 380.757812 374.574219 380.535156 C 374.90625 380.3125 375.257812 380.121094 375.628906 379.96875 C 376 379.816406 376.378906 379.699219 376.773438 379.621094 C 377.167969 379.542969 377.5625 379.503906 377.964844 379.503906 C 378.363281 379.503906 378.761719 379.542969 379.15625 379.621094 C 379.546875 379.699219 379.929688 379.816406 380.300781 379.96875 C 380.671875 380.121094 381.023438 380.3125 381.355469 380.535156 C 381.6875 380.757812 381.996094 381.007812 382.28125 381.292969 C 382.5625 381.574219 382.816406 381.882812 383.039062 382.21875 C 383.261719 382.550781 383.449219 382.902344 383.605469 383.273438 C 383.757812 383.644531 383.871094 384.023438 383.949219 384.417969 C 384.027344 384.8125 384.070312 385.207031 384.070312 385.609375 Z M 384.070312 385.609375 " fill-opacity="1" fill-rule="nonzero"/><path fill="#1a4447" d="M 341.007812 341.644531 C 341.007812 342.046875 340.96875 342.445312 340.890625 342.835938 C 340.8125 343.230469 340.699219 343.613281 340.542969 343.980469 C 340.390625 344.351562 340.203125 344.703125 339.980469 345.039062 C 339.757812 345.371094 339.503906 345.679688 339.222656 345.960938 C 338.9375 346.246094 338.628906 346.5 338.296875 346.722656 C 337.960938 346.945312 337.609375 347.132812 337.242188 347.285156 C 336.871094 347.441406 336.488281 347.554688 336.09375 347.632812 C 335.703125 347.710938 335.304688 347.75 334.90625 347.75 C 334.503906 347.75 334.105469 347.710938 333.714844 347.632812 C 333.320312 347.554688 332.9375 347.441406 332.566406 347.285156 C 332.199219 347.132812 331.847656 346.945312 331.511719 346.722656 C 331.179688 346.5 330.871094 346.246094 330.589844 345.960938 C 330.304688 345.679688 330.050781 345.371094 329.828125 345.039062 C 329.605469 344.703125 329.417969 344.351562 329.265625 343.980469 C 329.109375 343.613281 328.996094 343.230469 328.917969 342.835938 C 328.839844 342.445312 328.800781 342.046875 328.800781 341.644531 C 328.800781 341.246094 328.839844 340.847656 328.917969 340.453125 C 328.996094 340.0625 329.109375 339.679688 329.265625 339.308594 C 329.417969 338.9375 329.605469 338.585938 329.828125 338.253906 C 330.050781 337.921875 330.304688 337.613281 330.589844 337.328125 C 330.871094 337.046875 331.179688 336.792969 331.511719 336.570312 C 331.847656 336.347656 332.199219 336.160156 332.566406 336.003906 C 332.9375 335.851562 333.320312 335.738281 333.714844 335.660156 C 334.105469 335.582031 334.503906 335.539062 334.90625 335.539062 C 335.304688 335.539062 335.703125 335.582031 336.09375 335.660156 C 336.488281 335.738281 336.871094 335.851562 337.242188 336.003906 C 337.609375 336.160156 337.960938 336.347656 338.296875 336.570312 C 338.628906 336.792969 338.9375 337.046875 339.222656 337.328125 C 339.503906 337.613281 339.757812 337.921875 339.980469 338.253906 C 340.203125 338.585938 340.390625 338.9375 340.542969 339.308594 C 340.699219 339.679688 340.8125 340.0625 340.890625 340.453125 C 340.96875 340.847656 341.007812 341.246094 341.007812 341.644531 Z M 341.007812 341.644531 " fill-opacity="1" fill-rule="nonzero"/><path fill="#1a4447" d="M 428.027344 342.546875 C 428.027344 342.945312 427.988281 343.34375 427.910156 343.738281 C 427.832031 344.128906 427.714844 344.511719 427.5625 344.882812 C 427.410156 345.253906 427.21875 345.605469 426.996094 345.9375 C 426.773438 346.269531 426.523438 346.578125 426.238281 346.863281 C 425.953125 347.144531 425.648438 347.398438 425.3125 347.621094 C 424.980469 347.84375 424.628906 348.03125 424.257812 348.1875 C 423.886719 348.339844 423.503906 348.457031 423.113281 348.535156 C 422.71875 348.613281 422.324219 348.652344 421.921875 348.652344 C 421.519531 348.652344 421.125 348.613281 420.730469 348.535156 C 420.335938 348.457031 419.957031 348.339844 419.585938 348.1875 C 419.214844 348.03125 418.863281 347.84375 418.53125 347.621094 C 418.195312 347.398438 417.890625 347.144531 417.605469 346.863281 C 417.320312 346.578125 417.070312 346.269531 416.847656 345.9375 C 416.625 345.605469 416.433594 345.253906 416.28125 344.882812 C 416.128906 344.511719 416.011719 344.128906 415.933594 343.738281 C 415.855469 343.34375 415.816406 342.945312 415.816406 342.546875 C 415.816406 342.144531 415.855469 341.75 415.933594 341.355469 C 416.011719 340.960938 416.128906 340.578125 416.28125 340.210938 C 416.433594 339.839844 416.625 339.488281 416.847656 339.152344 C 417.070312 338.820312 417.320312 338.511719 417.605469 338.230469 C 417.890625 337.945312 418.195312 337.691406 418.53125 337.46875 C 418.863281 337.246094 419.214844 337.058594 419.585938 336.90625 C 419.957031 336.753906 420.335938 336.636719 420.730469 336.558594 C 421.125 336.480469 421.519531 336.441406 421.921875 336.441406 C 422.324219 336.441406 422.71875 336.480469 423.113281 336.558594 C 423.503906 336.636719 423.886719 336.753906 424.257812 336.90625 C 424.628906 337.058594 424.980469 337.246094 425.3125 337.46875 C 425.648438 337.691406 425.953125 337.945312 426.238281 338.230469 C 426.523438 338.511719 426.773438 338.820312 426.996094 339.152344 C 427.21875 339.488281 427.410156 339.839844 427.5625 340.210938 C 427.714844 340.578125 427.832031 340.960938 427.910156 341.355469 C 427.988281 341.75 428.027344 342.144531 428.027344 342.546875 Z M 428.027344 342.546875 " fill-opacity="1" fill-rule="nonzero"/><path fill="#1a4447" d="M 354.070312 311.011719 C 354.070312 311.410156 354.03125 311.808594 353.953125 312.199219 C 353.875 312.59375 353.761719 312.976562 353.605469 313.347656 C 353.453125 313.714844 353.265625 314.070312 353.042969 314.402344 C 352.820312 314.734375 352.566406 315.042969 352.28125 315.328125 C 352 315.609375 351.691406 315.863281 351.359375 316.085938 C 351.023438 316.308594 350.671875 316.496094 350.304688 316.648438 C 349.933594 316.804688 349.550781 316.917969 349.15625 316.996094 C 348.765625 317.074219 348.367188 317.113281 347.964844 317.113281 C 347.566406 317.113281 347.167969 317.074219 346.777344 316.996094 C 346.382812 316.917969 346 316.804688 345.628906 316.648438 C 345.261719 316.496094 344.910156 316.308594 344.574219 316.085938 C 344.242188 315.863281 343.933594 315.609375 343.648438 315.328125 C 343.367188 315.042969 343.113281 314.734375 342.890625 314.402344 C 342.667969 314.070312 342.480469 313.714844 342.328125 313.347656 C 342.171875 312.976562 342.058594 312.59375 341.980469 312.199219 C 341.902344 311.808594 341.863281 311.410156 341.863281 311.011719 C 341.863281 310.609375 341.902344 310.210938 341.980469 309.820312 C 342.058594 309.425781 342.171875 309.042969 342.328125 308.671875 C 342.480469 308.304688 342.667969 307.953125 342.890625 307.617188 C 343.113281 307.285156 343.367188 306.976562 343.648438 306.691406 C 343.933594 306.410156 344.242188 306.15625 344.574219 305.933594 C 344.910156 305.710938 345.261719 305.523438 345.628906 305.371094 C 346 305.214844 346.382812 305.101562 346.777344 305.023438 C 347.167969 304.945312 347.566406 304.90625 347.964844 304.90625 C 348.367188 304.90625 348.765625 304.945312 349.15625 305.023438 C 349.550781 305.101562 349.933594 305.214844 350.304688 305.371094 C 350.671875 305.523438 351.023438 305.710938 351.359375 305.933594 C 351.691406 306.15625 352 306.410156 352.28125 306.691406 C 352.566406 306.976562 352.820312 307.285156 353.042969 307.617188 C 353.265625 307.953125 353.453125 308.304688 353.605469 308.671875 C 353.761719 309.042969 353.875 309.425781 353.953125 309.820312 C 354.03125 310.210938 354.070312 310.609375 354.070312 311.011719 Z M 354.070312 311.011719 " fill-opacity="1" fill-rule="nonzero"/><path fill="#1a4447" d="M 414.964844 373.183594 C 414.964844 373.582031 414.925781 373.980469 414.847656 374.371094 C 414.769531 374.765625 414.652344 375.148438 414.5 375.519531 C 414.347656 375.886719 414.160156 376.242188 413.9375 376.574219 C 413.714844 376.90625 413.460938 377.214844 413.175781 377.5 C 412.894531 377.78125 412.585938 378.035156 412.253906 378.257812 C 411.917969 378.480469 411.566406 378.667969 411.195312 378.820312 C 410.828125 378.976562 410.445312 379.089844 410.050781 379.167969 C 409.660156 379.246094 409.261719 379.285156 408.859375 379.285156 C 408.460938 379.285156 408.0625 379.246094 407.671875 379.167969 C 407.277344 379.089844 406.894531 378.976562 406.523438 378.820312 C 406.15625 378.667969 405.804688 378.480469 405.46875 378.257812 C 405.136719 378.035156 404.828125 377.78125 404.542969 377.5 C 404.261719 377.214844 404.007812 376.90625 403.785156 376.574219 C 403.5625 376.242188 403.375 375.886719 403.222656 375.519531 C 403.066406 375.148438 402.953125 374.765625 402.875 374.371094 C 402.796875 373.980469 402.757812 373.582031 402.757812 373.183594 C 402.757812 372.78125 402.796875 372.382812 402.875 371.992188 C 402.953125 371.597656 403.066406 371.214844 403.222656 370.84375 C 403.375 370.476562 403.5625 370.125 403.785156 369.789062 C 404.007812 369.457031 404.261719 369.148438 404.542969 368.863281 C 404.828125 368.582031 405.136719 368.328125 405.46875 368.105469 C 405.804688 367.882812 406.15625 367.695312 406.523438 367.542969 C 406.894531 367.386719 407.277344 367.273438 407.671875 367.195312 C 408.0625 367.117188 408.460938 367.078125 408.859375 367.078125 C 409.261719 367.078125 409.660156 367.117188 410.050781 367.195312 C 410.445312 367.273438 410.828125 367.386719 411.195312 367.542969 C 411.566406 367.695312 411.917969 367.882812 412.253906 368.105469 C 412.585938 368.328125 412.894531 368.582031 413.175781 368.863281 C 413.460938 369.148438 413.714844 369.457031 413.9375 369.789062 C 414.160156 370.125 414.347656 370.476562 414.5 370.84375 C 414.652344 371.214844 414.769531 371.597656 414.847656 371.992188 C 414.925781 372.382812 414.964844 372.78125 414.964844 373.183594 Z M 414.964844 373.183594 " fill-opacity="1" fill-rule="nonzero"/><path fill="#1a4447" d="M 415.601562 311.644531 C 415.601562 312.046875 415.5625 312.445312 415.484375 312.835938 C 415.40625 313.230469 415.289062 313.613281 415.136719 313.980469 C 414.984375 314.351562 414.796875 314.703125 414.574219 315.039062 C 414.351562 315.371094 414.097656 315.679688 413.8125 315.960938 C 413.53125 316.246094 413.222656 316.5 412.886719 316.722656 C 412.554688 316.945312 412.203125 317.132812 411.832031 317.285156 C 411.460938 317.441406 411.082031 317.554688 410.6875 317.632812 C 410.292969 317.710938 409.898438 317.75 409.496094 317.75 C 409.097656 317.75 408.699219 317.710938 408.304688 317.632812 C 407.914062 317.554688 407.53125 317.441406 407.160156 317.285156 C 406.789062 317.132812 406.4375 316.945312 406.105469 316.722656 C 405.773438 316.5 405.464844 316.246094 405.179688 315.964844 C 404.898438 315.679688 404.644531 315.371094 404.421875 315.039062 C 404.199219 314.703125 404.011719 314.351562 403.855469 313.980469 C 403.703125 313.613281 403.589844 313.230469 403.511719 312.835938 C 403.429688 312.445312 403.390625 312.046875 403.390625 311.644531 C 403.390625 311.246094 403.429688 310.847656 403.511719 310.453125 C 403.589844 310.0625 403.703125 309.679688 403.855469 309.308594 C 404.011719 308.9375 404.199219 308.585938 404.421875 308.253906 C 404.644531 307.921875 404.898438 307.613281 405.179688 307.328125 C 405.464844 307.046875 405.773438 306.792969 406.105469 306.570312 C 406.4375 306.347656 406.789062 306.160156 407.160156 306.003906 C 407.53125 305.851562 407.914062 305.738281 408.304688 305.660156 C 408.699219 305.582031 409.097656 305.539062 409.496094 305.539062 C 409.898438 305.539062 410.292969 305.582031 410.6875 305.660156 C 411.082031 305.738281 411.460938 305.851562 411.832031 306.003906 C 412.203125 306.160156 412.554688 306.347656 412.886719 306.570312 C 413.222656 306.792969 413.53125 307.046875 413.8125 307.328125 C 414.097656 307.613281 414.351562 307.921875 414.574219 308.253906 C 414.796875 308.585938 414.984375 308.9375 415.136719 309.308594 C 415.289062 309.679688 415.40625 310.0625 415.484375 310.453125 C 415.5625 310.847656 415.601562 311.246094 415.601562 311.644531 Z M 415.601562 311.644531 " fill-opacity="1" fill-rule="nonzero"/><path fill="#1a4447" d="M 353.433594 372.546875 C 353.433594 372.945312 353.394531 373.34375 353.316406 373.738281 C 353.238281 374.128906 353.125 374.511719 352.96875 374.882812 C 352.816406 375.253906 352.628906 375.605469 352.40625 375.9375 C 352.183594 376.269531 351.929688 376.578125 351.648438 376.863281 C 351.363281 377.144531 351.054688 377.398438 350.722656 377.621094 C 350.390625 377.84375 350.039062 378.03125 349.667969 378.1875 C 349.296875 378.339844 348.914062 378.457031 348.523438 378.535156 C 348.128906 378.613281 347.730469 378.652344 347.332031 378.652344 C 346.929688 378.652344 346.53125 378.613281 346.140625 378.535156 C 345.746094 378.457031 345.363281 378.339844 344.996094 378.1875 C 344.625 378.03125 344.273438 377.84375 343.9375 377.621094 C 343.605469 377.398438 343.296875 377.144531 343.015625 376.863281 C 342.730469 376.578125 342.476562 376.269531 342.253906 375.9375 C 342.03125 375.605469 341.84375 375.253906 341.691406 374.882812 C 341.539062 374.511719 341.421875 374.128906 341.34375 373.738281 C 341.265625 373.34375 341.226562 372.945312 341.226562 372.546875 C 341.226562 372.144531 341.265625 371.75 341.34375 371.355469 C 341.421875 370.960938 341.539062 370.578125 341.691406 370.210938 C 341.84375 369.839844 342.03125 369.488281 342.253906 369.152344 C 342.476562 368.820312 342.730469 368.511719 343.015625 368.230469 C 343.296875 367.945312 343.605469 367.691406 343.9375 367.46875 C 344.273438 367.246094 344.625 367.058594 344.996094 366.90625 C 345.363281 366.753906 345.746094 366.636719 346.140625 366.558594 C 346.53125 366.480469 346.929688 366.441406 347.332031 366.441406 C 347.730469 366.441406 348.128906 366.480469 348.523438 366.558594 C 348.914062 366.636719 349.296875 366.753906 349.667969 366.90625 C 350.035156 367.058594 350.390625 367.246094 350.722656 367.46875 C 351.054688 367.691406 351.363281 367.945312 351.648438 368.230469 C 351.929688 368.511719 352.183594 368.820312 352.40625 369.152344 C 352.628906 369.488281 352.816406 369.839844 352.96875 370.210938 C 353.125 370.578125 353.238281 370.960938 353.316406 371.355469 C 353.394531 371.75 353.433594 372.144531 353.433594 372.546875 Z M 353.433594 372.546875 " fill-opacity="1" fill-rule="nonzero"/><g clip-path="url(#520034b8af)"><path fill="#1a4447" d="M 565.839844 218.335938 C 565.609375 215.332031 563.371094 212.867188 560.402344 212.351562 C 506.441406 202.980469 446.828125 196.984375 388.230469 194.464844 C 389.121094 199.113281 387.710938 204.027344 383.046875 207.410156 C 440.703125 209.714844 499.554688 215.429688 553.097656 224.457031 C 564.671875 381.898438 558.664062 567.890625 545.5625 649.1875 C 447.121094 659.855469 252.480469 658.707031 151.496094 641.039062 C 139.445312 638.933594 105.121094 606.234375 81.824219 578.1875 C 68.496094 558.753906 71.367188 281.84375 85.105469 262.78125 C 95.246094 249.15625 160.527344 219.148438 168.949219 217.671875 C 203.339844 211.640625 244.550781 208.027344 289 206.757812 C 284.855469 203.671875 283.597656 198.585938 284.515625 193.753906 C 240.957031 195.144531 200.554688 198.761719 166.675781 204.703125 C 155.800781 206.617188 87.269531 237.828125 74.546875 254.921875 C 62.097656 271.648438 60.234375 396.5625 59.988281 421.433594 C 59.640625 456.449219 59.453125 571.855469 71.667969 586.554688 C 86.222656 604.089844 128.535156 650.386719 149.230469 654.007812 C 208.761719 664.421875 300.464844 669.160156 386.257812 669.160156 C 449.957031 669.160156 510.40625 666.542969 551.996094 661.710938 C 554.890625 661.371094 557.21875 659.171875 557.71875 656.300781 C 573.367188 566.335938 577.082031 365.773438 565.839844 218.335938 Z M 565.839844 218.335938 " fill-opacity="1" fill-rule="nonzero"/></g><path fill="#1a4447" d="M 143.78125 647.71875 C 143.789062 647.863281 143.824219 648 143.835938 648.140625 C 148.09375 648.382812 152.332031 648.976562 156.546875 649.742188 C 156.816406 648.988281 156.964844 648.175781 156.941406 647.328125 L 156.605469 636.351562 C 152.304688 494.8125 147.859375 348.457031 174.273438 212.441406 C 174.359375 212 174.324219 211.566406 174.320312 211.132812 C 170.027344 212.75 165.363281 213.355469 160.683594 213.667969 C 134.785156 350.054688 139.167969 495.777344 143.449219 636.753906 L 143.78125 647.722656 Z M 143.78125 647.71875 " fill-opacity="1" fill-rule="nonzero"/><path fill="#1a4447" d="M 208.398438 496.902344 C 209.757812 497.082031 211.042969 497.4375 212.285156 497.871094 C 211.183594 460.242188 210.863281 416.824219 211.992188 374.660156 C 207.5 374.496094 203.140625 373.890625 199.011719 372.59375 C 197.828125 414.5625 197.996094 458.257812 199.074219 496.664062 C 202.179688 496.558594 205.222656 496.472656 208.398438 496.902344 Z M 208.398438 496.902344 " fill-opacity="1" fill-rule="nonzero"/><path fill="#1a4447" d="M 370.667969 612.351562 C 321.683594 611.402344 271.15625 607.78125 219.351562 601.363281 C 217.40625 592.492188 215.320312 568.488281 213.757812 536.257812 C 213.265625 536.320312 212.78125 536.421875 212.289062 536.429688 C 208.390625 536.472656 204.484375 536.738281 200.605469 536.644531 C 202.640625 577.367188 205.734375 606.421875 209.042969 611.152344 C 210.105469 612.675781 211.765625 613.675781 213.605469 613.910156 C 275.585938 621.753906 335.84375 625.714844 393.8125 625.816406 C 385.820312 622.289062 378.679688 616.894531 370.667969 612.351562 Z M 370.667969 612.351562 " fill-opacity="1" fill-rule="nonzero"/><path fill="#1a4447" d="M 514.519531 259.789062 C 514.359375 256.847656 512.261719 254.371094 509.386719 253.730469 C 415.765625 232.78125 316.320312 230.066406 213.808594 245.660156 C 210.972656 246.09375 208.742188 248.3125 208.292969 251.144531 C 204.722656 273.804688 202.242188 301.886719 200.628906 332.257812 C 204.988281 331.613281 209.390625 331.882812 213.667969 332.894531 C 215.140625 305.554688 217.359375 279.828125 220.570312 257.964844 C 318 243.679688 412.507812 246.210938 501.648438 265.503906 C 507.441406 373.769531 506.855469 489.019531 499.90625 608.242188 C 486.019531 609.464844 471.898438 610.339844 457.675781 611.054688 C 449 616.335938 440.675781 621.683594 431.640625 625.28125 C 457.171875 624.5625 482.253906 623.125 506.753906 620.839844 C 509.984375 620.539062 512.519531 617.925781 512.714844 614.683594 C 520.113281 491.113281 520.722656 371.710938 514.519531 259.789062 Z M 514.519531 259.789062 " fill-opacity="1" fill-rule="nonzero"/><path fill="#1a4447" d="M 236.492188 382.375 L 236.421875 382.375 C 225.691406 382.261719 214.902344 381.769531 204.464844 381.292969 C 196.511719 380.929688 188.550781 380.566406 180.542969 380.363281 C 178.757812 380.316406 177.066406 379.550781 175.863281 378.234375 C 174.652344 376.917969 174.03125 375.167969 174.140625 373.390625 C 174.5625 366.402344 174.785156 360.140625 175.011719 353.871094 C 175.238281 347.5 175.46875 341.132812 175.894531 334.035156 C 176.09375 330.707031 178.75 328.054688 182.078125 327.859375 C 202.105469 326.675781 219.40625 327.125 238.175781 329.292969 C 241.421875 329.667969 243.902344 332.367188 244 335.636719 C 244.527344 353.703125 244.464844 361.6875 243.042969 376.421875 C 242.71875 379.804688 239.878906 382.375 236.492188 382.375 Z M 187.640625 367.410156 C 193.464844 367.613281 199.269531 367.878906 205.066406 368.144531 C 213.398438 368.523438 221.960938 368.914062 230.472656 369.109375 C 231.183594 360.011719 231.265625 352.988281 230.996094 341.765625 C 216.972656 340.402344 203.539062 340.058594 188.714844 340.703125 C 188.484375 345.421875 188.324219 349.882812 188.164062 354.34375 C 188.011719 358.621094 187.855469 362.90625 187.640625 367.410156 Z M 187.640625 367.410156 " fill-opacity="1" fill-rule="nonzero"/><path fill="#1a4447" d="M 234.8125 545.070312 L 234.742188 545.070312 C 224.011719 544.957031 213.21875 544.464844 202.785156 543.988281 C 194.828125 543.625 186.871094 543.261719 178.859375 543.058594 C 177.078125 543.011719 175.386719 542.246094 174.179688 540.929688 C 172.972656 539.613281 172.351562 537.859375 172.460938 536.082031 C 172.878906 529.097656 173.101562 522.832031 173.328125 516.566406 C 173.554688 510.195312 173.785156 503.824219 174.210938 496.730469 C 174.410156 493.398438 177.066406 490.746094 180.394531 490.554688 C 200.453125 489.371094 217.753906 489.820312 236.496094 491.984375 C 239.742188 492.363281 242.222656 495.066406 242.320312 498.332031 C 242.84375 516.398438 242.777344 524.378906 241.359375 539.117188 C 241.035156 542.496094 238.195312 545.070312 234.8125 545.070312 Z M 185.960938 530.105469 C 191.785156 530.304688 197.585938 530.570312 203.382812 530.839844 C 211.714844 531.21875 220.277344 531.609375 228.789062 531.800781 C 229.5 522.703125 229.582031 515.683594 229.316406 504.460938 C 215.296875 503.089844 201.871094 502.75 187.03125 503.398438 C 186.800781 508.113281 186.640625 512.574219 186.480469 517.035156 C 186.328125 521.316406 186.175781 525.601562 185.960938 530.105469 Z M 185.960938 530.105469 " fill-opacity="1" fill-rule="nonzero"/><path fill="#1a4447" d="M 484.335938 558.675781 C 482.105469 558.214844 479.703125 558.894531 478.082031 560.714844 C 476.058594 562.988281 465.261719 570.40625 411.253906 570.511719 C 385.875 570.445312 367.835938 568.117188 357.070312 565.839844 C 358.027344 570.3125 357.089844 575.242188 354.222656 578.757812 C 371.304688 582.484375 395.417969 583.675781 410.695312 583.675781 L 411.277344 583.675781 C 459.625 583.582031 477.058594 577.867188 484.578125 572.453125 C 484.394531 567.835938 484.222656 563.269531 484.335938 558.675781 Z M 484.335938 558.675781 " fill-opacity="1" fill-rule="nonzero"/><path fill="#1a4447" d="M 412.535156 541.128906 C 392.925781 541.328125 374.382812 543.03125 360.320312 545.929688 C 356.320312 546.753906 352.894531 547.660156 349.839844 548.632812 C 351.507812 550.316406 352.796875 552.339844 353.339844 554.632812 C 353.84375 556.738281 354.199219 558.847656 354.472656 560.949219 C 364.796875 557.875 384.542969 554.574219 412.667969 554.292969 C 450.527344 553.945312 472.464844 559.25 477.144531 562.597656 C 476.6875 571.660156 471.449219 620.050781 412.191406 620.050781 L 412.140625 620.050781 C 374.785156 620.03125 358.707031 597.589844 351.878906 580.609375 C 350.984375 582.472656 349.9375 584.300781 348.5625 586.035156 C 346.8125 588.234375 344.417969 589.429688 341.835938 589.898438 C 351.09375 609.660156 370.78125 633.191406 412.132812 633.214844 L 412.191406 633.214844 C 452.390625 633.214844 471.585938 613.582031 480.601562 597.105469 C 490.25 579.476562 490.351562 561.96875 490.351562 561.171875 C 490.15625 541.859375 430.761719 540.988281 412.535156 541.128906 Z M 412.535156 541.128906 " fill-opacity="1" fill-rule="nonzero"/><path fill="#1a4447" d="M 332.875 598.722656 C 329.308594 598.722656 325.726562 598.117188 322.253906 596.90625 C 314.15625 594.078125 307.648438 588.257812 303.921875 580.53125 C 300.199219 572.800781 299.703125 564.085938 302.535156 555.988281 C 305.367188 547.886719 311.179688 541.378906 318.910156 537.652344 C 326.636719 533.933594 335.351562 533.433594 343.449219 536.265625 C 351.550781 539.09375 358.058594 544.914062 361.78125 552.640625 C 365.507812 560.371094 366 569.085938 363.167969 577.183594 C 360.339844 585.285156 354.523438 591.792969 346.796875 595.519531 C 342.378906 597.644531 337.640625 598.722656 332.875 598.722656 Z M 332.839844 547.621094 C 330.027344 547.621094 327.230469 548.253906 324.625 549.511719 C 320.0625 551.710938 316.632812 555.550781 314.960938 560.332031 C 313.292969 565.109375 313.582031 570.257812 315.777344 574.816406 C 317.976562 579.378906 321.820312 582.808594 326.597656 584.476562 C 331.371094 586.144531 336.519531 585.863281 341.082031 583.660156 C 345.640625 581.460938 349.074219 577.621094 350.746094 572.839844 C 352.414062 568.0625 352.125 562.914062 349.925781 558.355469 C 347.730469 553.792969 343.886719 550.363281 339.105469 548.695312 C 337.058594 547.976562 334.945312 547.621094 332.839844 547.621094 Z M 332.839844 547.621094 " fill-opacity="1" fill-rule="nonzero"/><path fill="#1a4447" d="M 307.601562 563.988281 C 298.148438 563.894531 290.070312 561.089844 283.507812 555.578125 C 273.042969 546.796875 268.277344 532.507812 268.277344 522.953125 C 268.277344 519.320312 265.332031 516.371094 261.695312 516.371094 C 258.058594 516.371094 255.113281 519.320312 255.113281 522.953125 C 255.113281 535.882812 261.277344 554.101562 275.042969 565.664062 C 284.101562 573.265625 295.410156 577.152344 308.214844 577.152344 C 308.53125 577.152344 308.859375 577.109375 309.175781 577.105469 C 306.761719 573.296875 306.222656 568.320312 307.601562 563.988281 Z M 307.601562 563.988281 " fill-opacity="1" fill-rule="nonzero"/><path fill="#1a4447" d="M 626.039062 471.019531 C 613.640625 471.019531 601.808594 463.796875 596.550781 451.730469 C 589.472656 435.496094 596.925781 416.53125 613.164062 409.457031 C 621.023438 406.027344 629.757812 405.871094 637.738281 409.007812 C 645.722656 412.148438 652.007812 418.207031 655.433594 426.070312 C 662.507812 442.304688 655.054688 461.269531 638.820312 468.34375 C 634.65625 470.15625 630.316406 471.015625 626.039062 471.019531 Z M 625.984375 419.933594 C 623.414062 419.933594 620.847656 420.464844 618.417969 421.523438 C 608.839844 425.699219 604.441406 436.894531 608.617188 446.46875 C 612.789062 456.054688 623.980469 460.453125 633.566406 456.277344 C 638.203125 454.257812 641.777344 450.546875 643.628906 445.832031 C 645.484375 441.121094 645.390625 435.972656 643.367188 431.332031 C 641.34375 426.6875 637.636719 423.113281 632.921875 421.261719 C 630.675781 420.375 628.328125 419.933594 625.984375 419.933594 Z M 625.984375 419.933594 " fill-opacity="1" fill-rule="nonzero"/><path fill="#1a4447" d="M 614.085938 459.8125 C 613.441406 459.058594 612.910156 458.292969 612.402344 457.527344 C 608.949219 462.617188 604.679688 467.105469 599.679688 470.707031 C 588.820312 478.519531 576.085938 481.433594 562.574219 479.476562 C 563.160156 483.707031 563.164062 488.273438 562.660156 492.707031 C 565.316406 493.011719 567.953125 493.183594 570.566406 493.183594 C 583.847656 493.183594 596.457031 489.238281 607.363281 481.394531 C 613.953125 476.652344 619.515625 470.6875 623.929688 463.921875 C 620.21875 463.96875 616.542969 462.695312 614.085938 459.8125 Z M 614.085938 459.8125 " fill-opacity="1" fill-rule="nonzero"/><path fill="#1a4447" d="M 627.964844 364.566406 L 627.933594 364.566406 C 610.269531 364.53125 601.074219 337.269531 601.125 310.359375 C 601.148438 296.785156 603.476562 283.925781 607.675781 274.148438 C 612.628906 262.613281 619.886719 256.257812 628.105469 256.257812 L 628.132812 256.257812 C 645.800781 256.292969 654.992188 283.554688 654.941406 310.464844 C 654.917969 324.039062 652.589844 336.898438 648.390625 346.675781 C 643.4375 358.210938 636.179688 364.566406 627.964844 364.566406 Z M 628.105469 269.421875 C 626.074219 269.421875 622.714844 272.488281 619.769531 279.34375 C 616.308594 287.40625 614.308594 298.71875 614.289062 310.386719 C 614.242188 335.8125 623.113281 351.394531 627.960938 351.402344 L 627.964844 351.402344 C 629.992188 351.402344 633.351562 348.335938 636.300781 341.476562 C 639.761719 333.417969 641.757812 322.105469 641.777344 310.4375 C 641.828125 285.011719 632.953125 269.429688 628.109375 269.421875 Z M 628.105469 269.421875 " fill-opacity="1" fill-rule="nonzero"/><path fill="#1a4447" d="M 626.390625 358.300781 C 624.277344 358.300781 622.4375 357.886719 620.8125 357.21875 L 621 416.8125 C 622.5625 416.203125 624.242188 415.800781 626.015625 415.722656 C 628.992188 415.589844 631.816406 416.621094 634.167969 418.347656 L 633.96875 356.144531 C 631.933594 357.457031 629.441406 358.300781 626.390625 358.300781 Z M 626.390625 358.300781 " fill-opacity="1" fill-rule="nonzero"/><path fill="#1a4447" d="M 621.144531 461.738281 L 621.363281 531.039062 C 621.375 534.667969 624.320312 537.601562 627.945312 537.601562 L 627.96875 537.601562 C 631.601562 537.585938 634.539062 534.628906 634.527344 530.996094 L 634.304688 461.296875 C 630.214844 463.925781 625.269531 463.742188 621.144531 461.738281 Z M 621.144531 461.738281 " fill-opacity="1" fill-rule="nonzero"/><g clip-path="url(#4d4dce4aa1)"><path fill="#1a4447" d="M 673.078125 271.589844 C 660.796875 260.441406 643.757812 254.722656 627.488281 256.289062 C 624.238281 256.601562 621.789062 259.234375 621.574219 262.390625 C 627.605469 262.597656 633.546875 265.167969 637.832031 269.507812 C 647.472656 270.621094 657.058594 274.820312 664.226562 281.332031 C 670.214844 286.769531 677.347656 296.351562 677.339844 311.105469 C 677.335938 322.761719 671.515625 334.566406 661.777344 342.6875 C 654.136719 349.054688 645.027344 352.253906 635.617188 352.097656 C 633.597656 356.367188 629.558594 359.605469 623.402344 359.605469 C 622.734375 359.605469 622.140625 359.492188 621.523438 359.417969 C 622.082031 361.917969 624.082031 363.96875 626.761719 364.457031 C 629.972656 365.046875 633.171875 365.335938 636.347656 365.335938 C 648.566406 365.335938 660.324219 361.03125 670.203125 352.800781 C 682.90625 342.210938 690.496094 326.625 690.503906 311.113281 C 690.511719 295.84375 684.320312 281.804688 673.078125 271.589844 Z M 673.078125 271.589844 " fill-opacity="1" fill-rule="nonzero"/></g><path fill="#1a4447" d="M 407.402344 522.726562 C 403.441406 522.726562 399.976562 522.414062 397.269531 521.898438 C 384.476562 519.457031 377.011719 515.703125 371.660156 511.648438 C 366.300781 515.703125 358.835938 519.457031 346.050781 521.898438 C 334.601562 524.070312 309.589844 522.609375 291.238281 509.363281 C 279.644531 500.996094 272.816406 489.597656 270.941406 475.488281 C 270.652344 473.308594 271.472656 471.121094 273.128906 469.667969 C 274.789062 468.222656 277.066406 467.714844 279.1875 468.269531 C 303.585938 474.878906 314.414062 471.171875 325.875 467.25 C 333.058594 464.789062 340.484375 462.246094 350.753906 462.246094 C 357.65625 462.246094 364.488281 464.09375 369.496094 467.316406 C 370.75 468.121094 372.570312 468.121094 373.824219 467.316406 C 378.824219 464.09375 385.660156 462.246094 392.566406 462.246094 C 402.828125 462.246094 410.257812 464.789062 417.441406 467.25 C 428.902344 471.171875 439.730469 474.882812 464.132812 468.269531 C 466.253906 467.707031 468.527344 468.214844 470.1875 469.667969 C 471.84375 471.121094 472.667969 473.308594 472.375 475.488281 C 470.5 489.597656 463.671875 500.996094 452.082031 509.363281 C 438.070312 519.476562 420.175781 522.726562 407.402344 522.726562 Z M 371.660156 496.40625 C 373.292969 496.40625 374.929688 497.011719 376.199219 498.222656 C 379.265625 501.148438 384.398438 506.039062 399.734375 508.96875 C 409.429688 510.824219 430.328125 508.828125 444.378906 498.6875 C 450.074219 494.578125 454.207031 489.480469 456.742188 483.457031 C 435.519531 487.347656 423.742188 483.320312 413.175781 479.703125 C 406.449219 477.398438 400.640625 475.410156 392.566406 475.410156 C 388.183594 475.410156 383.839844 476.523438 380.945312 478.386719 C 375.386719 481.953125 367.925781 481.960938 362.375 478.390625 C 359.476562 476.523438 355.132812 475.410156 350.753906 475.410156 C 342.675781 475.410156 336.867188 477.398438 330.140625 479.703125 C 319.574219 483.320312 307.792969 487.347656 286.578125 483.457031 C 289.109375 489.480469 293.242188 494.578125 298.9375 498.6875 C 312.992188 508.828125 333.882812 510.816406 343.585938 508.96875 C 358.914062 506.039062 364.050781 501.148438 367.121094 498.222656 C 368.390625 497.011719 370.023438 496.40625 371.660156 496.40625 Z M 371.660156 496.40625 " fill-opacity="1" fill-rule="nonzero"/><path fill="#1a4447" d="M 328.875 434.585938 C 328.875 435.242188 328.855469 435.898438 328.8125 436.554688 C 328.769531 437.207031 328.703125 437.859375 328.617188 438.503906 C 328.53125 439.148438 328.425781 439.785156 328.296875 440.414062 C 328.167969 441.042969 328.019531 441.664062 327.851562 442.269531 C 327.683594 442.878906 327.496094 443.472656 327.289062 444.050781 C 327.078125 444.632812 326.851562 445.195312 326.609375 445.742188 C 326.363281 446.289062 326.101562 446.816406 325.820312 447.328125 C 325.542969 447.835938 325.246094 448.320312 324.933594 448.785156 C 324.625 449.25 324.296875 449.691406 323.957031 450.109375 C 323.617188 450.527344 323.261719 450.917969 322.894531 451.285156 C 322.53125 451.648438 322.152344 451.988281 321.761719 452.296875 C 321.375 452.609375 320.976562 452.890625 320.570312 453.140625 C 320.164062 453.390625 319.746094 453.613281 319.324219 453.804688 C 318.902344 453.996094 318.476562 454.15625 318.046875 454.285156 C 317.613281 454.410156 317.175781 454.507812 316.738281 454.574219 C 316.300781 454.636719 315.859375 454.667969 315.417969 454.667969 C 314.980469 454.667969 314.539062 454.636719 314.101562 454.574219 C 313.664062 454.507812 313.226562 454.410156 312.792969 454.285156 C 312.363281 454.15625 311.933594 453.996094 311.511719 453.804688 C 311.089844 453.613281 310.675781 453.390625 310.269531 453.140625 C 309.863281 452.890625 309.464844 452.609375 309.078125 452.296875 C 308.6875 451.988281 308.308594 451.648438 307.945312 451.285156 C 307.578125 450.917969 307.222656 450.527344 306.882812 450.109375 C 306.542969 449.691406 306.214844 449.25 305.90625 448.785156 C 305.59375 448.320312 305.296875 447.835938 305.015625 447.328125 C 304.738281 446.816406 304.476562 446.289062 304.230469 445.742188 C 303.984375 445.195312 303.757812 444.632812 303.550781 444.050781 C 303.34375 443.472656 303.15625 442.878906 302.988281 442.269531 C 302.820312 441.664062 302.671875 441.042969 302.542969 440.414062 C 302.414062 439.785156 302.308594 439.148438 302.222656 438.503906 C 302.136719 437.859375 302.070312 437.207031 302.027344 436.554688 C 301.984375 435.898438 301.964844 435.242188 301.964844 434.585938 C 301.964844 433.925781 301.984375 433.269531 302.027344 432.617188 C 302.070312 431.960938 302.136719 431.3125 302.222656 430.667969 C 302.308594 430.019531 302.414062 429.382812 302.542969 428.753906 C 302.671875 428.125 302.820312 427.507812 302.988281 426.898438 C 303.15625 426.289062 303.34375 425.695312 303.550781 425.117188 C 303.757812 424.535156 303.984375 423.972656 304.230469 423.425781 C 304.476562 422.878906 304.738281 422.351562 305.015625 421.84375 C 305.296875 421.335938 305.59375 420.847656 305.90625 420.382812 C 306.214844 419.917969 306.542969 419.476562 306.882812 419.058594 C 307.222656 418.640625 307.578125 418.25 307.945312 417.882812 C 308.308594 417.519531 308.6875 417.179688 309.078125 416.871094 C 309.464844 416.5625 309.863281 416.28125 310.269531 416.027344 C 310.675781 415.777344 311.089844 415.554688 311.511719 415.363281 C 311.933594 415.171875 312.363281 415.015625 312.792969 414.886719 C 313.226562 414.757812 313.664062 414.660156 314.101562 414.597656 C 314.539062 414.53125 314.980469 414.5 315.417969 414.5 C 315.859375 414.5 316.300781 414.53125 316.738281 414.597656 C 317.175781 414.660156 317.613281 414.757812 318.046875 414.886719 C 318.476562 415.011719 318.90625 415.171875 319.324219 415.363281 C 319.746094 415.554688 320.164062 415.777344 320.570312 416.027344 C 320.976562 416.28125 321.375 416.5625 321.761719 416.871094 C 322.152344 417.179688 322.53125 417.519531 322.894531 417.882812 C 323.261719 418.25 323.617188 418.640625 323.957031 419.058594 C 324.296875 419.476562 324.625 419.917969 324.933594 420.382812 C 325.246094 420.847656 325.542969 421.335938 325.820312 421.84375 C 326.101562 422.351562 326.363281 422.878906 326.609375 423.425781 C 326.851562 423.972656 327.078125 424.535156 327.289062 425.117188 C 327.496094 425.695312 327.683594 426.289062 327.851562 426.898438 C 328.019531 427.507812 328.167969 428.125 328.296875 428.753906 C 328.425781 429.382812 328.53125 430.019531 328.617188 430.664062 C 328.703125 431.3125 328.769531 431.960938 328.8125 432.617188 C 328.855469 433.269531 328.875 433.925781 328.875 434.585938 Z M 328.875 434.585938 " fill-opacity="1" fill-rule="nonzero"/><path fill="#1a4447" d="M 441.355469 434.585938 C 441.355469 435.242188 441.332031 435.898438 441.289062 436.554688 C 441.246094 437.207031 441.179688 437.859375 441.09375 438.503906 C 441.007812 439.148438 440.902344 439.785156 440.773438 440.414062 C 440.648438 441.042969 440.5 441.664062 440.328125 442.269531 C 440.160156 442.878906 439.972656 443.472656 439.765625 444.050781 C 439.558594 444.632812 439.332031 445.195312 439.085938 445.742188 C 438.839844 446.289062 438.578125 446.816406 438.300781 447.328125 C 438.019531 447.835938 437.722656 448.320312 437.414062 448.785156 C 437.101562 449.25 436.773438 449.691406 436.433594 450.109375 C 436.09375 450.527344 435.738281 450.917969 435.375 451.285156 C 435.007812 451.648438 434.628906 451.988281 434.242188 452.296875 C 433.851562 452.609375 433.453125 452.890625 433.046875 453.140625 C 432.640625 453.390625 432.226562 453.613281 431.804688 453.804688 C 431.382812 453.996094 430.953125 454.15625 430.523438 454.285156 C 430.089844 454.410156 429.65625 454.507812 429.214844 454.574219 C 428.777344 454.636719 428.339844 454.667969 427.898438 454.667969 C 427.457031 454.667969 427.015625 454.636719 426.578125 454.574219 C 426.140625 454.507812 425.703125 454.410156 425.273438 454.285156 C 424.839844 454.15625 424.414062 453.996094 423.992188 453.804688 C 423.570312 453.613281 423.15625 453.390625 422.746094 453.140625 C 422.339844 452.890625 421.941406 452.609375 421.554688 452.296875 C 421.164062 451.988281 420.789062 451.648438 420.421875 451.285156 C 420.054688 450.917969 419.699219 450.527344 419.359375 450.109375 C 419.019531 449.691406 418.695312 449.25 418.382812 448.785156 C 418.070312 448.320312 417.773438 447.835938 417.496094 447.328125 C 417.214844 446.816406 416.953125 446.289062 416.707031 445.742188 C 416.464844 445.195312 416.238281 444.632812 416.03125 444.050781 C 415.820312 443.472656 415.632812 442.878906 415.464844 442.269531 C 415.296875 441.664062 415.148438 441.042969 415.019531 440.414062 C 414.890625 439.785156 414.785156 439.148438 414.699219 438.503906 C 414.613281 437.859375 414.546875 437.207031 414.503906 436.554688 C 414.460938 435.898438 414.441406 435.242188 414.441406 434.585938 C 414.441406 433.925781 414.460938 433.269531 414.503906 432.617188 C 414.546875 431.960938 414.613281 431.3125 414.699219 430.667969 C 414.785156 430.019531 414.890625 429.382812 415.019531 428.753906 C 415.148438 428.125 415.296875 427.507812 415.464844 426.898438 C 415.632812 426.289062 415.820312 425.695312 416.03125 425.117188 C 416.238281 424.535156 416.464844 423.972656 416.707031 423.425781 C 416.953125 422.878906 417.214844 422.351562 417.496094 421.84375 C 417.773438 421.335938 418.070312 420.847656 418.382812 420.382812 C 418.695312 419.917969 419.019531 419.476562 419.359375 419.058594 C 419.699219 418.640625 420.054688 418.25 420.421875 417.882812 C 420.789062 417.519531 421.164062 417.179688 421.554688 416.871094 C 421.941406 416.5625 422.339844 416.28125 422.746094 416.027344 C 423.15625 415.777344 423.570312 415.554688 423.992188 415.363281 C 424.414062 415.171875 424.839844 415.015625 425.273438 414.886719 C 425.703125 414.757812 426.140625 414.660156 426.578125 414.597656 C 427.015625 414.53125 427.457031 414.5 427.898438 414.5 C 428.339844 414.5 428.777344 414.53125 429.214844 414.597656 C 429.65625 414.660156 430.089844 414.757812 430.523438 414.886719 C 430.953125 415.011719 431.382812 415.171875 431.804688 415.363281 C 432.226562 415.554688 432.640625 415.777344 433.046875 416.027344 C 433.453125 416.28125 433.851562 416.5625 434.242188 416.871094 C 434.628906 417.179688 435.007812 417.519531 435.375 417.882812 C 435.738281 418.25 436.09375 418.640625 436.433594 419.058594 C 436.773438 419.476562 437.101562 419.917969 437.414062 420.382812 C 437.722656 420.847656 438.019531 421.335938 438.300781 421.84375 C 438.578125 422.351562 438.839844 422.878906 439.085938 423.425781 C 439.332031 423.972656 439.558594 424.535156 439.765625 425.117188 C 439.972656 425.695312 440.160156 426.289062 440.328125 426.898438 C 440.5 427.507812 440.648438 428.125 440.773438 428.753906 C 440.902344 429.382812 441.007812 430.019531 441.09375 430.664062 C 441.179688 431.3125 441.246094 431.960938 441.289062 432.617188 C 441.332031 433.269531 441.355469 433.925781 441.355469 434.585938 Z M 441.355469 434.585938 " fill-opacity="1" fill-rule="nonzero"/><path fill="#1a4447" d="M 456.457031 705.121094 C 450.964844 700.082031 443.394531 697.902344 433.878906 698.652344 L 433.878906 662.246094 C 429.480469 663.550781 425.136719 662.964844 420.71875 662.410156 L 420.71875 706.28125 C 420.71875 708.269531 421.617188 710.152344 423.167969 711.402344 C 424.710938 712.652344 426.742188 713.148438 428.6875 712.710938 C 437.589844 710.792969 443.941406 711.503906 447.5625 714.824219 C 453.109375 719.910156 452.34375 731.207031 451.757812 735.828125 C 451.683594 736.402344 451.164062 736.835938 450.546875 736.835938 L 392.894531 736.835938 C 392.214844 736.835938 391.664062 736.289062 391.664062 735.609375 L 391.664062 663.574219 C 387.683594 663.832031 383.671875 663.886719 379.570312 663.394531 C 379.210938 663.351562 378.859375 663.261719 378.503906 663.191406 L 378.503906 735.609375 C 378.503906 743.546875 384.957031 750 392.894531 750 L 450.546875 750 C 457.78125 750 463.914062 744.617188 464.816406 737.484375 C 466.097656 727.390625 465.683594 713.585938 456.457031 705.121094 Z M 456.457031 705.121094 " fill-opacity="1" fill-rule="nonzero"/><path fill="#1a4447" d="M 325.015625 705.121094 C 319.515625 700.078125 311.945312 697.902344 302.4375 698.652344 L 302.4375 661.738281 C 301.53125 661.976562 300.601562 662.15625 299.664062 662.277344 C 296.15625 662.726562 292.703125 662.632812 289.273438 662.253906 L 289.273438 706.28125 C 289.273438 708.269531 290.171875 710.152344 291.722656 711.402344 C 293.269531 712.652344 295.292969 713.148438 297.242188 712.710938 C 306.148438 710.789062 312.496094 711.5 316.121094 714.824219 C 321.664062 719.910156 320.902344 731.207031 320.316406 735.828125 C 320.242188 736.402344 319.722656 736.835938 319.105469 736.835938 L 261.453125 736.835938 C 260.773438 736.835938 260.222656 736.289062 260.222656 735.609375 L 260.222656 658.65625 C 257.851562 658.882812 255.433594 659.113281 252.777344 659.003906 C 250.777344 658.925781 248.859375 658.519531 247.0625 657.886719 L 247.0625 735.609375 C 247.0625 743.546875 253.515625 750 261.453125 750 L 319.105469 750 C 326.332031 750 332.46875 744.617188 333.375 737.484375 C 334.652344 727.386719 334.238281 713.582031 325.015625 705.121094 Z M 325.015625 705.121094 " fill-opacity="1" fill-rule="nonzero"/><path fill="#1a4447" d="M 388.53125 136.570312 C 387.6875 136.574219 386.882812 136.46875 386.089844 136.328125 L 379.714844 195.988281 C 376.085938 199.582031 363.25 209.863281 335.050781 209.863281 C 311.335938 209.863281 295.410156 197.703125 290.628906 193.511719 L 284.085938 132.910156 C 281.097656 133.324219 278.101562 133.667969 275.085938 133.78125 C 273.738281 133.835938 272.339844 133.804688 270.933594 133.714844 L 277.804688 197.351562 C 277.957031 198.78125 278.578125 200.128906 279.570312 201.171875 C 280.417969 202.066406 300.683594 223.027344 335.050781 223.027344 C 375.578125 223.027344 390.667969 203.59375 391.292969 202.765625 C 392.003906 201.816406 392.449219 200.6875 392.578125 199.507812 L 399.414062 135.535156 C 395.8125 136.140625 392.179688 136.554688 388.53125 136.570312 Z M 388.53125 136.570312 " fill-opacity="1" fill-rule="nonzero"/><path fill="#1a4447" d="M 392.304688 142.5625 C 384.683594 142.5625 375.785156 141.40625 365.441406 138.542969 C 361.9375 137.574219 359.882812 133.949219 360.851562 130.449219 C 361.824219 126.945312 365.445312 124.890625 368.949219 125.859375 C 389.589844 131.566406 406.007812 130.378906 416.425781 122.441406 C 427.574219 113.9375 428.753906 100.707031 428.746094 95.410156 C 428.726562 86.390625 425.242188 77.917969 418.925781 71.558594 C 412.648438 65.234375 404.320312 61.753906 395.464844 61.753906 L 395.398438 61.753906 C 387.609375 61.769531 380.230469 64.578125 374.058594 69.882812 C 371.6875 71.929688 368.199219 72.011719 365.726562 70.085938 C 363.253906 68.160156 362.480469 64.765625 363.878906 61.957031 C 366.335938 57.019531 367.578125 51.925781 367.570312 46.824219 C 367.535156 28.25 352.605469 13.164062 334.285156 13.164062 L 334.222656 13.164062 C 315.867188 13.199219 300.964844 28.351562 301 46.941406 C 301.007812 51.5625 301.953125 56.082031 303.808594 60.371094 C 304.984375 63.09375 304.199219 66.265625 301.886719 68.117188 C 299.574219 69.980469 296.308594 70.054688 293.90625 68.316406 C 288.179688 64.167969 281.511719 61.972656 274.621094 61.972656 L 274.574219 61.972656 C 256.222656 62.007812 241.320312 77.164062 241.355469 95.753906 C 241.367188 101.226562 242.492188 114.789062 252.726562 122.46875 C 260.9375 128.640625 273.003906 129.484375 288.59375 124.988281 C 292.101562 123.984375 295.738281 125.996094 296.742188 129.488281 C 297.75 132.980469 295.734375 136.632812 292.242188 137.640625 C 267.617188 144.742188 252.859375 139.03125 244.824219 133 C 234.28125 125.085938 228.21875 111.519531 228.191406 95.777344 C 228.144531 69.933594 248.941406 48.863281 274.550781 48.8125 C 278.984375 48.726562 283.664062 49.484375 288 50.820312 C 287.894531 49.542969 287.839844 48.257812 287.835938 46.96875 C 287.789062 21.117188 308.585938 0.046875 334.199219 0 C 359.792969 0.0664062 380.683594 20.945312 380.734375 46.796875 C 380.734375 48.246094 380.667969 49.683594 380.53125 51.125 C 385.265625 49.457031 390.25 48.601562 395.375 48.59375 L 395.46875 48.59375 C 407.851562 48.59375 419.496094 53.453125 428.265625 62.289062 C 437.039062 71.121094 441.882812 82.875 441.90625 95.386719 C 441.933594 110.730469 435.554688 124.40625 424.40625 132.910156 C 417.957031 137.828125 407.738281 142.5625 392.304688 142.5625 Z M 392.304688 142.5625 " fill-opacity="1" fill-rule="nonzero"/></svg>