<svg xmlns="http://www.w3.org/2000/svg" xmlns:xlink="http://www.w3.org/1999/xlink" width="1000" zoomAndPan="magnify" viewBox="0 0 750 749.999995" height="1000" preserveAspectRatio="xMidYMid meet" version="1.0"><defs><clipPath id="902033e236"><path d="M 386 590 L 485 590 L 485 687.40625 L 386 687.40625 Z M 386 590 " clip-rule="nonzero"/></clipPath><clipPath id="84323b4e2d"><path d="M 240 590 L 339 590 L 339 687.40625 L 240 687.40625 Z M 240 590 " clip-rule="nonzero"/></clipPath></defs><path fill="#d1f2f0" d="M 667.101562 291.417969 C 663.8125 291.417969 660.53125 290.925781 657.355469 289.945312 C 648.925781 287.355469 642.003906 281.625 637.867188 273.8125 C 633.738281 266.003906 632.886719 257.0625 635.476562 248.632812 C 639.777344 234.667969 652.476562 225.292969 667.085938 225.292969 C 670.363281 225.292969 673.625 225.78125 676.785156 226.75 C 685.226562 229.351562 692.144531 235.078125 696.28125 242.882812 C 700.414062 250.679688 701.257812 259.628906 698.660156 268.074219 C 696.058594 276.511719 690.332031 283.4375 682.535156 287.5625 C 677.777344 290.085938 672.4375 291.417969 667.101562 291.417969 Z M 667.101562 291.417969 " fill-opacity="1" fill-rule="nonzero"/><path fill="#f4c3e9" d="M 627.664062 259.757812 C 626.492188 259.601562 624.894531 259.390625 623.140625 258.855469 C 615.863281 256.613281 609.914062 251.691406 606.367188 244.988281 C 602.820312 238.277344 602.097656 230.589844 604.328125 223.34375 C 606.5625 216.089844 611.484375 210.140625 618.183594 206.597656 C 622.265625 204.433594 626.851562 203.285156 631.449219 203.285156 C 634.28125 203.285156 637.09375 203.710938 639.8125 204.546875 C 644.667969 206.039062 649.058594 208.871094 652.527344 212.726562 L 654.449219 214.859375 L 654.75 217.71875 C 654.914062 219.25 655.230469 220.804688 655.691406 222.335938 L 657.703125 228.980469 L 651.734375 232.515625 C 645.257812 236.355469 640.488281 242.386719 638.300781 249.5 C 637.972656 250.550781 637.71875 251.605469 637.519531 252.660156 L 635.933594 260.847656 Z M 627.664062 259.757812 " fill-opacity="1" fill-rule="nonzero"/><path fill="#f4c3e9" d="M 630.6875 312.445312 C 627.863281 312.445312 625.042969 312.019531 622.316406 311.183594 C 615.050781 308.941406 609.101562 304.015625 605.558594 297.3125 C 602.011719 290.613281 601.289062 282.925781 603.519531 275.671875 C 605.757812 268.421875 610.671875 262.476562 617.371094 258.925781 C 618.988281 258.070312 620.714844 257.371094 622.519531 256.835938 L 624.589844 256.222656 L 626.71875 256.632812 C 627.660156 256.8125 628.601562 256.921875 629.546875 256.996094 L 636.238281 257.523438 L 637.539062 264.113281 C 639.273438 272.898438 644.730469 280.398438 652.511719 284.699219 L 659.824219 288.734375 L 656.21875 296.269531 C 653.554688 301.84375 649.3125 306.292969 643.957031 309.132812 C 639.875 311.296875 635.285156 312.445312 630.6875 312.445312 Z M 630.6875 312.445312 " fill-opacity="1" fill-rule="nonzero"/><path fill="#f4c3e9" d="M 682.167969 328.285156 C 679.335938 328.285156 676.515625 327.855469 673.785156 327.015625 C 660.316406 322.875 652.046875 309.710938 654.117188 295.714844 L 655.363281 287.273438 L 663.84375 288.210938 C 665.0625 288.34375 666.09375 288.476562 667.117188 288.476562 C 671.949219 288.476562 676.800781 287.257812 681.148438 284.953125 C 683.769531 283.570312 686.160156 281.820312 688.25 279.761719 L 693.023438 275.046875 L 698.855469 278.378906 C 699.515625 278.75 700.1875 279.097656 700.878906 279.414062 L 702.714844 280.261719 L 704 281.828125 C 710.117188 289.246094 712.089844 299.117188 709.28125 308.226562 C 707.046875 315.484375 702.128906 321.429688 695.429688 324.972656 C 691.335938 327.140625 686.75 328.285156 682.167969 328.285156 Z M 682.167969 328.285156 " fill-opacity="1" fill-rule="nonzero"/><path fill="#f4c3e9" d="M 711.515625 284.734375 C 708.683594 284.734375 705.871094 284.308594 703.140625 283.46875 C 701.460938 282.953125 700.046875 282.269531 698.855469 281.671875 L 691.398438 277.921875 L 694.699219 270.257812 C 695.125 269.273438 695.511719 268.261719 695.828125 267.222656 C 698.203125 259.519531 697.433594 251.375 693.667969 244.269531 L 689.550781 236.898438 L 696.636719 232.300781 C 701.242188 229.429688 706.382812 227.914062 711.496094 227.914062 C 714.324219 227.914062 717.128906 228.335938 719.839844 229.171875 C 734.796875 233.769531 743.230469 249.695312 738.636719 264.667969 C 736.40625 271.925781 731.480469 277.875 724.773438 281.421875 C 720.695312 283.585938 716.105469 284.734375 711.515625 284.734375 Z M 711.515625 284.734375 " fill-opacity="1" fill-rule="nonzero"/><path fill="#f4c3e9" d="M 686.222656 235.101562 C 683.195312 232.605469 679.726562 230.746094 675.921875 229.574219 C 673.117188 228.710938 670.191406 228.273438 667.230469 228.273438 C 665.664062 228.273438 664.070312 228.398438 662.496094 228.640625 L 654.558594 229.882812 L 652.554688 222.097656 C 651.246094 217.023438 651.363281 211.734375 652.875 206.804688 C 656.570312 194.8125 667.484375 186.757812 680.039062 186.757812 C 682.855469 186.757812 685.65625 187.179688 688.367188 188.011719 C 695.617188 190.238281 701.566406 195.164062 705.121094 201.875 C 708.671875 208.589844 709.402344 216.273438 707.171875 223.519531 C 706.457031 225.847656 705.398438 228.082031 703.949219 230.347656 L 702.609375 232.433594 L 700.382812 233.523438 C 699.074219 234.160156 697.9375 234.816406 696.925781 235.527344 L 691.410156 239.378906 Z M 686.222656 235.101562 " fill-opacity="1" fill-rule="nonzero"/><path fill="#b2d7d8" d="M 644.453125 410.457031 C 637.550781 410.457031 630.792969 408.066406 625.417969 403.730469 C 619.109375 398.632812 615.167969 391.394531 614.316406 383.339844 C 613.460938 375.285156 615.792969 367.378906 620.882812 361.074219 C 625.96875 354.773438 633.203125 350.828125 641.261719 349.964844 C 642.367188 349.851562 643.441406 349.796875 644.515625 349.796875 C 651.496094 349.796875 658.074219 352.125 663.53125 356.535156 C 669.839844 361.632812 673.777344 368.871094 674.632812 376.925781 C 675.488281 384.992188 673.15625 392.902344 668.0625 399.195312 C 662.292969 406.347656 653.6875 410.457031 644.457031 410.457031 Z M 644.453125 410.457031 " fill-opacity="1" fill-rule="nonzero"/><path fill="#79afae" d="M 91.960938 577.730469 C 72.757812 566.597656 40.324219 534.234375 19.554688 509.433594 L 19.296875 509.121094 L 19.066406 508.789062 C 7.167969 491.613281 6.253906 365.171875 6.253906 326.828125 C 6.253906 288.484375 7.183594 162.035156 19.09375 144.933594 C 30.757812 128.710938 87.738281 101.242188 106.070312 93.589844 L 116.179688 89.371094 C 118.238281 88.511719 120.4375 90.261719 120.058594 92.460938 L 118.210938 103.257812 C 92.382812 253.871094 98.894531 413.695312 105.1875 568.257812 L 105.6875 579.914062 C 105.796875 582.480469 103.03125 584.152344 100.8125 582.863281 Z M 91.960938 577.730469 " fill-opacity="1" fill-rule="nonzero"/><path fill="#b2d7d8" d="M 256.957031 681.539062 C 251.316406 681.539062 246.726562 676.949219 246.726562 671.304688 L 246.726562 591.789062 L 255.882812 592.101562 C 266.59375 592.460938 277.425781 592.753906 288.328125 592.96875 L 297.007812 593.140625 L 297.007812 636.636719 C 300.433594 635.957031 303.824219 635.597656 306.882812 635.597656 C 314.148438 635.597656 319.984375 637.578125 324.238281 641.480469 C 333.1875 649.679688 332.777344 664.546875 331.734375 672.675781 C 331.144531 677.695312 326.777344 681.539062 321.597656 681.539062 Z M 256.957031 681.539062 " fill-opacity="1" fill-rule="nonzero"/><path fill="#b2d7d8" d="M 337.433594 596.433594 C 246.230469 596.433594 165.464844 591.75 110.011719 583.253906 L 102.800781 582.148438 L 102.238281 568.378906 C 95.832031 411.054688 89.203125 248.378906 116.464844 95.746094 L 117.550781 89.65625 L 123.640625 88.582031 C 174.25 79.644531 238.03125 74.917969 308.101562 74.917969 C 388.625 74.917969 472.878906 81.308594 545.347656 92.910156 L 551.957031 93.96875 L 552.746094 100.617188 C 573.441406 276.199219 572.292969 423.8125 549.019531 579.25 L 548.019531 585.925781 L 541.316406 586.730469 C 490.023438 592.898438 415.710938 596.433594 337.433594 596.433594 Z M 337.433594 596.433594 " fill-opacity="1" fill-rule="nonzero"/><path fill="#b2d7d8" d="M 403.066406 681.539062 C 397.425781 681.539062 392.839844 676.949219 392.839844 671.304688 L 392.839844 592.855469 L 401.464844 592.632812 C 412.480469 592.351562 423.308594 592 433.910156 591.574219 L 443.117188 591.207031 L 443.117188 636.636719 C 446.542969 635.957031 449.929688 635.597656 452.988281 635.597656 C 460.257812 635.597656 466.09375 637.578125 470.347656 641.480469 C 479.296875 649.679688 478.886719 664.546875 477.847656 672.675781 C 477.253906 677.695312 472.886719 681.539062 467.710938 681.539062 Z M 403.066406 681.539062 " fill-opacity="1" fill-rule="nonzero"/><path fill="#79afae" d="M 195.613281 276.367188 C 186.234375 276.25 176.808594 275.921875 167.621094 275.601562 L 166.917969 275.574219 C 160.429688 275.34375 153.957031 275.117188 147.472656 274.953125 L 138.523438 274.730469 L 138.84375 265.78125 C 139.027344 260.769531 139.152344 256.003906 139.269531 251.238281 C 139.402344 246.183594 139.527344 241.140625 139.726562 235.8125 L 140.035156 227.742188 L 148.097656 227.308594 C 154.921875 226.9375 161.359375 226.757812 167.777344 226.757812 C 177.453125 226.757812 186.9375 227.175781 196.761719 228.027344 L 204.574219 228.707031 L 204.839844 236.546875 C 205.308594 250.117188 205.234375 258.085938 204.558594 268.113281 L 203.992188 276.472656 Z M 195.613281 276.367188 " fill-opacity="1" fill-rule="nonzero"/><path fill="#79afae" d="M 195.613281 458.800781 C 186.242188 458.679688 176.820312 458.351562 167.628906 458.03125 L 166.917969 458.007812 C 160.4375 457.777344 153.960938 457.546875 147.472656 457.382812 L 138.523438 457.160156 L 138.84375 448.210938 C 139.027344 443.199219 139.152344 438.433594 139.269531 433.667969 C 139.402344 428.613281 139.527344 423.570312 139.726562 418.238281 L 140.035156 410.164062 L 148.105469 409.730469 C 154.941406 409.367188 161.378906 409.191406 167.785156 409.191406 C 177.488281 409.191406 186.964844 409.605469 196.757812 410.453125 L 204.574219 411.132812 L 204.839844 418.972656 C 205.308594 432.550781 205.234375 440.515625 204.558594 450.542969 L 203.992188 458.90625 Z M 195.613281 458.800781 " fill-opacity="1" fill-rule="nonzero"/><path fill="#d1f2f0" d="M 366.71875 547.625 C 308.300781 547.625 248.847656 544.097656 184.953125 536.84375 L 178.730469 536.136719 L 177.324219 530.035156 C 174.3125 516.984375 171.855469 483.613281 170.660156 464.882812 L 170.035156 455.171875 L 179.765625 455.46875 C 186.5625 455.675781 193.835938 455.867188 201.195312 455.890625 C 202.429688 441.054688 202.414062 432.304688 201.703125 413.886719 C 193.164062 413.019531 184.835938 412.488281 176.285156 412.269531 L 167.972656 412.054688 L 167.667969 403.734375 C 166.1875 362.71875 165.664062 320.492188 166.164062 281.628906 L 166.28125 272.585938 L 175.316406 272.894531 C 183.132812 273.15625 192.164062 273.433594 201.195312 273.460938 C 202.429688 258.625 202.414062 249.875 201.703125 231.460938 C 193.210938 230.597656 184.960938 230.070312 176.515625 229.847656 L 167.476562 229.609375 L 167.910156 220.574219 C 169.359375 190.035156 171.597656 163.535156 174.566406 141.808594 L 175.457031 135.285156 L 181.960938 134.257812 C 231.476562 126.46875 280.394531 122.515625 327.363281 122.515625 C 384.691406 122.515625 439.664062 128.097656 495.429688 139.578125 L 502.046875 140.945312 L 502.476562 147.691406 C 510.246094 269.351562 510.925781 398.980469 504.503906 532.980469 L 504.136719 540.625 L 496.523438 541.371094 C 454.359375 545.519531 410.683594 547.625 366.71875 547.625 Z M 366.71875 547.625 " fill-opacity="1" fill-rule="nonzero"/><path fill="#b2d7d8" d="M 318.273438 470.089844 C 315.890625 470.089844 313.5 469.769531 311.175781 469.136719 C 299.179688 465.890625 290.828125 454.757812 289.417969 447.96875 C 288.078125 441.597656 290.160156 435.632812 295.132812 431.621094 C 298.425781 428.972656 302.640625 427.464844 306.722656 427.464844 C 308.230469 427.464844 309.660156 427.667969 310.992188 428.070312 C 316.074219 413.476562 323.3125 408.707031 328.578125 407.304688 C 329.964844 406.929688 331.417969 406.742188 332.890625 406.742188 C 339.707031 406.742188 345.164062 410.765625 347.808594 413.167969 C 353.21875 418.0625 356.097656 425.09375 355.894531 432.964844 C 355.695312 440.765625 352.507812 448.457031 346.925781 454.621094 C 337.65625 464.882812 328.011719 470.089844 318.273438 470.089844 Z M 318.273438 470.089844 " fill-opacity="1" fill-rule="nonzero"/><path fill="#f4c3e9" d="M 356.128906 313.375 C 343.292969 313.375 330.621094 310.210938 319.480469 304.21875 C 300.1875 293.832031 285.847656 274.851562 281.121094 253.449219 C 274.5 223.464844 285.386719 193.078125 309.535156 174.148438 C 323.175781 163.453125 339.253906 157.796875 356.023438 157.796875 C 367.777344 157.796875 379.308594 160.546875 390.3125 165.972656 C 420.707031 180.964844 438.707031 217.355469 432.191406 250.617188 C 425.675781 283.875 395.269531 310.777344 361.457031 313.1875 C 359.6875 313.3125 357.910156 313.375 356.128906 313.375 Z M 356.128906 313.375 " fill-opacity="1" fill-rule="nonzero"/><path fill="#1a4447" d="M 356.265625 260.53125 C 352.15625 260.53125 348.097656 259.515625 344.535156 257.589844 C 338.339844 254.257812 333.738281 248.164062 332.226562 241.292969 C 329.683594 229.8125 335.261719 220.636719 341.328125 215.882812 C 345.691406 212.464844 350.867188 210.65625 356.285156 210.65625 C 360.058594 210.65625 363.753906 211.535156 367.257812 213.261719 C 377 218.066406 382.773438 229.734375 380.683594 240.402344 C 378.589844 251.070312 368.835938 259.695312 358 260.46875 C 357.417969 260.507812 356.839844 260.53125 356.265625 260.53125 Z M 356.265625 260.53125 " fill-opacity="1" fill-rule="nonzero"/><path fill="#f4c3e9" d="M 354.507812 379.707031 C 354.507812 380.234375 354.484375 380.757812 354.433594 381.277344 C 354.378906 381.800781 354.304688 382.320312 354.199219 382.835938 C 354.097656 383.351562 353.972656 383.859375 353.820312 384.359375 C 353.667969 384.863281 353.488281 385.355469 353.289062 385.84375 C 353.089844 386.328125 352.863281 386.800781 352.617188 387.265625 C 352.367188 387.726562 352.097656 388.175781 351.808594 388.613281 C 351.515625 389.050781 351.203125 389.46875 350.871094 389.875 C 350.539062 390.28125 350.1875 390.671875 349.816406 391.042969 C 349.445312 391.414062 349.054688 391.765625 348.648438 392.097656 C 348.242188 392.429688 347.824219 392.742188 347.386719 393.035156 C 346.949219 393.328125 346.5 393.597656 346.039062 393.84375 C 345.574219 394.089844 345.101562 394.316406 344.617188 394.515625 C 344.128906 394.71875 343.636719 394.894531 343.132812 395.046875 C 342.632812 395.199219 342.125 395.324219 341.609375 395.429688 C 341.09375 395.53125 340.574219 395.609375 340.054688 395.660156 C 339.53125 395.710938 339.007812 395.738281 338.484375 395.738281 C 337.957031 395.738281 337.433594 395.710938 336.910156 395.660156 C 336.390625 395.609375 335.871094 395.53125 335.355469 395.429688 C 334.839844 395.324219 334.332031 395.199219 333.832031 395.046875 C 333.328125 394.894531 332.835938 394.71875 332.347656 394.515625 C 331.863281 394.316406 331.390625 394.089844 330.925781 393.84375 C 330.464844 393.597656 330.015625 393.328125 329.578125 393.035156 C 329.140625 392.742188 328.722656 392.429688 328.316406 392.097656 C 327.910156 391.765625 327.519531 391.414062 327.148438 391.042969 C 326.777344 390.671875 326.425781 390.28125 326.09375 389.875 C 325.761719 389.46875 325.449219 389.050781 325.15625 388.613281 C 324.867188 388.175781 324.597656 387.726562 324.347656 387.265625 C 324.101562 386.800781 323.878906 386.328125 323.675781 385.84375 C 323.476562 385.355469 323.296875 384.863281 323.144531 384.359375 C 322.992188 383.859375 322.867188 383.351562 322.765625 382.835938 C 322.660156 382.320312 322.585938 381.800781 322.535156 381.28125 C 322.480469 380.757812 322.457031 380.234375 322.457031 379.707031 C 322.457031 379.183594 322.480469 378.660156 322.535156 378.136719 C 322.585938 377.613281 322.660156 377.097656 322.765625 376.582031 C 322.867188 376.066406 322.992188 375.558594 323.144531 375.054688 C 323.296875 374.554688 323.476562 374.058594 323.675781 373.574219 C 323.878906 373.089844 324.101562 372.617188 324.347656 372.152344 C 324.597656 371.691406 324.867188 371.238281 325.15625 370.804688 C 325.449219 370.367188 325.761719 369.945312 326.09375 369.539062 C 326.425781 369.132812 326.777344 368.746094 327.148438 368.375 C 327.519531 368.003906 327.910156 367.652344 328.316406 367.316406 C 328.722656 366.984375 329.140625 366.671875 329.578125 366.382812 C 330.015625 366.089844 330.464844 365.820312 330.925781 365.574219 C 331.390625 365.324219 331.863281 365.101562 332.347656 364.898438 C 332.835938 364.699219 333.328125 364.523438 333.832031 364.371094 C 334.332031 364.21875 334.839844 364.089844 335.355469 363.988281 C 335.871094 363.886719 336.390625 363.808594 336.910156 363.757812 C 337.433594 363.707031 337.957031 363.679688 338.484375 363.679688 C 339.007812 363.679688 339.53125 363.707031 340.054688 363.757812 C 340.574219 363.808594 341.09375 363.886719 341.609375 363.988281 C 342.125 364.089844 342.632812 364.21875 343.132812 364.371094 C 343.636719 364.523438 344.128906 364.699219 344.617188 364.898438 C 345.101562 365.101562 345.574219 365.324219 346.039062 365.574219 C 346.5 365.820312 346.949219 366.089844 347.386719 366.382812 C 347.824219 366.671875 348.242188 366.984375 348.648438 367.316406 C 349.054688 367.652344 349.445312 368.003906 349.816406 368.375 C 350.1875 368.746094 350.539062 369.132812 350.871094 369.539062 C 351.203125 369.945312 351.515625 370.367188 351.808594 370.804688 C 352.097656 371.238281 352.367188 371.691406 352.617188 372.152344 C 352.863281 372.617188 353.089844 373.089844 353.289062 373.574219 C 353.488281 374.058594 353.667969 374.554688 353.820312 375.054688 C 353.972656 375.558594 354.097656 376.066406 354.199219 376.582031 C 354.304688 377.097656 354.378906 377.613281 354.433594 378.136719 C 354.484375 378.660156 354.507812 379.183594 354.507812 379.707031 Z M 354.507812 379.707031 " fill-opacity="1" fill-rule="nonzero"/><path fill="#f4c3e9" d="M 494.503906 379.707031 C 494.503906 380.234375 494.476562 380.757812 494.425781 381.277344 C 494.375 381.800781 494.296875 382.320312 494.195312 382.835938 C 494.09375 383.351562 493.964844 383.859375 493.8125 384.359375 C 493.660156 384.863281 493.484375 385.355469 493.285156 385.84375 C 493.082031 386.328125 492.859375 386.800781 492.609375 387.265625 C 492.363281 387.726562 492.09375 388.175781 491.800781 388.613281 C 491.511719 389.050781 491.199219 389.46875 490.867188 389.875 C 490.53125 390.28125 490.179688 390.671875 489.808594 391.042969 C 489.4375 391.414062 489.050781 391.765625 488.644531 392.097656 C 488.238281 392.429688 487.816406 392.742188 487.378906 393.035156 C 486.945312 393.328125 486.496094 393.597656 486.03125 393.84375 C 485.570312 394.089844 485.09375 394.316406 484.609375 394.515625 C 484.125 394.71875 483.632812 394.894531 483.128906 395.046875 C 482.625 395.199219 482.117188 395.324219 481.601562 395.429688 C 481.089844 395.53125 480.570312 395.609375 480.046875 395.660156 C 479.527344 395.710938 479 395.738281 478.476562 395.738281 C 477.953125 395.738281 477.429688 395.710938 476.90625 395.660156 C 476.382812 395.609375 475.863281 395.53125 475.351562 395.429688 C 474.835938 395.324219 474.328125 395.199219 473.824219 395.046875 C 473.324219 394.894531 472.828125 394.71875 472.34375 394.515625 C 471.859375 394.316406 471.386719 394.089844 470.921875 393.84375 C 470.460938 393.597656 470.007812 393.328125 469.574219 393.035156 C 469.136719 392.742188 468.714844 392.429688 468.308594 392.097656 C 467.902344 391.765625 467.515625 391.414062 467.144531 391.042969 C 466.773438 390.671875 466.421875 390.28125 466.089844 389.875 C 465.753906 389.46875 465.441406 389.050781 465.152344 388.613281 C 464.859375 388.175781 464.589844 387.726562 464.34375 387.265625 C 464.09375 386.800781 463.871094 386.328125 463.671875 385.84375 C 463.46875 385.355469 463.292969 384.863281 463.140625 384.359375 C 462.988281 383.859375 462.859375 383.351562 462.757812 382.835938 C 462.65625 382.320312 462.578125 381.800781 462.527344 381.28125 C 462.476562 380.757812 462.449219 380.234375 462.449219 379.707031 C 462.449219 379.183594 462.476562 378.660156 462.527344 378.136719 C 462.578125 377.613281 462.65625 377.097656 462.757812 376.582031 C 462.859375 376.066406 462.988281 375.558594 463.140625 375.054688 C 463.292969 374.554688 463.46875 374.058594 463.671875 373.574219 C 463.871094 373.089844 464.09375 372.617188 464.34375 372.152344 C 464.589844 371.691406 464.859375 371.238281 465.152344 370.804688 C 465.441406 370.367188 465.753906 369.945312 466.089844 369.539062 C 466.421875 369.132812 466.773438 368.746094 467.144531 368.375 C 467.515625 368.003906 467.902344 367.652344 468.308594 367.316406 C 468.714844 366.984375 469.136719 366.671875 469.574219 366.382812 C 470.007812 366.089844 470.460938 365.820312 470.921875 365.574219 C 471.386719 365.324219 471.859375 365.101562 472.34375 364.898438 C 472.828125 364.699219 473.324219 364.523438 473.824219 364.371094 C 474.328125 364.21875 474.835938 364.089844 475.351562 363.988281 C 475.863281 363.886719 476.382812 363.808594 476.90625 363.757812 C 477.429688 363.707031 477.953125 363.679688 478.476562 363.679688 C 479 363.679688 479.527344 363.707031 480.046875 363.757812 C 480.570312 363.808594 481.089844 363.886719 481.601562 363.988281 C 482.117188 364.089844 482.625 364.21875 483.128906 364.371094 C 483.632812 364.523438 484.125 364.699219 484.609375 364.898438 C 485.09375 365.101562 485.570312 365.324219 486.03125 365.574219 C 486.496094 365.820312 486.945312 366.089844 487.378906 366.382812 C 487.816406 366.671875 488.238281 366.984375 488.644531 367.316406 C 489.050781 367.652344 489.4375 368.003906 489.808594 368.375 C 490.179688 368.746094 490.53125 369.132812 490.867188 369.539062 C 491.199219 369.945312 491.511719 370.367188 491.800781 370.804688 C 492.09375 371.238281 492.363281 371.691406 492.609375 372.152344 C 492.859375 372.617188 493.082031 373.089844 493.285156 373.574219 C 493.484375 374.058594 493.660156 374.554688 493.8125 375.054688 C 493.964844 375.558594 494.09375 376.066406 494.195312 376.582031 C 494.296875 377.097656 494.375 377.613281 494.425781 378.136719 C 494.476562 378.660156 494.503906 379.183594 494.503906 379.707031 Z M 494.503906 379.707031 " fill-opacity="1" fill-rule="nonzero"/><path fill="#1a4447" d="M 398.796875 427.667969 C 397.5625 427.667969 396.304688 427.566406 395.046875 427.355469 C 386.738281 425.957031 379.984375 419.800781 377.84375 411.667969 C 376.242188 405.605469 377.203125 399.40625 380.539062 394.21875 C 382.738281 390.785156 387.316406 389.792969 390.738281 392 C 394.160156 394.203125 395.15625 398.769531 392.953125 402.199219 C 392.191406 403.378906 391.433594 405.324219 392.109375 407.90625 C 392.757812 410.359375 394.972656 412.375 397.492188 412.796875 C 401.367188 413.4375 404.273438 411.03125 405.273438 408.5 C 406.339844 405.78125 408.910156 403.949219 411.832031 403.828125 C 414.808594 403.675781 417.460938 405.316406 418.753906 407.933594 C 419.964844 410.378906 423.035156 412.558594 426.878906 411.574219 C 429.347656 410.945312 431.382812 408.753906 431.820312 406.253906 C 432.1875 404.199219 431.71875 402.210938 430.519531 400.644531 C 428.03125 397.414062 428.636719 392.78125 431.863281 390.292969 C 435.09375 387.8125 439.734375 388.410156 442.210938 391.644531 C 445.976562 396.535156 447.449219 402.632812 446.359375 408.816406 C 444.898438 417.097656 438.679688 423.796875 430.519531 425.875 C 424.105469 427.503906 417.664062 426.230469 412.621094 422.734375 C 408.800781 425.882812 403.949219 427.667969 398.796875 427.667969 Z M 398.796875 427.667969 " fill-opacity="1" fill-rule="nonzero"/><g clip-path="url(#902033e236)"><path fill="#1a4447" d="M 474.332031 637.125 C 468.171875 631.476562 459.699219 629.046875 449.019531 629.871094 L 449.019531 590.617188 C 444.742188 591.472656 440.183594 591.507812 436.054688 591.101562 C 435.4375 591.039062 434.859375 591.015625 434.261719 590.96875 L 434.261719 638.425781 C 434.261719 640.65625 435.269531 642.765625 437.003906 644.164062 C 438.742188 645.570312 441.03125 646.101562 443.195312 645.636719 C 453.183594 643.480469 460.300781 644.28125 464.359375 648.003906 C 470.578125 653.707031 469.726562 666.371094 469.066406 671.550781 C 468.984375 672.199219 468.398438 672.6875 467.707031 672.6875 L 403.070312 672.6875 C 402.308594 672.6875 401.691406 672.070312 401.691406 671.308594 L 401.691406 593.71875 C 396.722656 594.378906 391.773438 594.710938 386.933594 594.28125 L 386.933594 671.308594 C 386.933594 680.207031 394.171875 687.445312 403.070312 687.445312 L 467.707031 687.445312 C 475.8125 687.445312 482.691406 681.410156 483.710938 673.410156 C 485.140625 662.09375 484.679688 646.613281 474.332031 637.125 Z M 474.332031 637.125 " fill-opacity="1" fill-rule="nonzero"/></g><g clip-path="url(#84323b4e2d)"><path fill="#1a4447" d="M 328.222656 637.125 C 322.0625 631.476562 313.59375 629.046875 302.910156 629.871094 L 302.910156 591.949219 C 298.050781 593.945312 293.144531 593.828125 288.152344 593.289062 L 288.152344 638.425781 C 288.152344 640.65625 289.160156 642.765625 290.894531 644.164062 C 292.632812 645.570312 294.914062 646.101562 297.085938 645.636719 C 307.078125 643.480469 314.1875 644.28125 318.25 648.003906 C 324.46875 653.707031 323.613281 666.371094 322.957031 671.550781 C 322.875 672.199219 322.289062 672.6875 321.597656 672.6875 L 256.953125 672.6875 C 256.195312 672.6875 255.578125 672.070312 255.578125 671.308594 L 255.578125 592.1875 C 250.53125 592.070312 245.519531 591.671875 240.820312 590.617188 L 240.820312 671.308594 C 240.820312 680.207031 248.054688 687.445312 256.953125 687.445312 L 321.597656 687.445312 C 329.703125 687.445312 336.582031 681.410156 337.597656 673.410156 C 339.03125 662.09375 338.570312 646.613281 328.222656 637.125 Z M 328.222656 637.125 " fill-opacity="1" fill-rule="nonzero"/></g><path fill="#1a4447" d="M 370.773438 361.113281 C 370.773438 361.851562 370.75 362.585938 370.703125 363.320312 C 370.652344 364.054688 370.582031 364.785156 370.484375 365.507812 C 370.390625 366.230469 370.269531 366.945312 370.125 367.652344 C 369.980469 368.355469 369.816406 369.050781 369.625 369.730469 C 369.4375 370.414062 369.226562 371.078125 368.992188 371.730469 C 368.761719 372.378906 368.507812 373.011719 368.230469 373.625 C 367.957031 374.238281 367.664062 374.828125 367.351562 375.398438 C 367.035156 375.96875 366.707031 376.515625 366.355469 377.039062 C 366.007812 377.558594 365.640625 378.054688 365.257812 378.523438 C 364.875 378.988281 364.480469 379.429688 364.070312 379.839844 C 363.660156 380.25 363.234375 380.625 362.800781 380.972656 C 362.363281 381.320312 361.917969 381.636719 361.460938 381.917969 C 361.003906 382.203125 360.539062 382.449219 360.066406 382.664062 C 359.59375 382.878906 359.113281 383.058594 358.628906 383.199219 C 358.144531 383.34375 357.65625 383.453125 357.164062 383.523438 C 356.675781 383.597656 356.179688 383.632812 355.6875 383.632812 C 355.191406 383.632812 354.699219 383.597656 354.207031 383.523438 C 353.714844 383.453125 353.226562 383.34375 352.742188 383.199219 C 352.257812 383.058594 351.78125 382.878906 351.308594 382.664062 C 350.835938 382.449219 350.371094 382.203125 349.914062 381.917969 C 349.457031 381.636719 349.011719 381.320312 348.574219 380.972656 C 348.136719 380.625 347.714844 380.25 347.304688 379.839844 C 346.894531 379.429688 346.496094 378.988281 346.113281 378.523438 C 345.734375 378.054688 345.367188 377.558594 345.019531 377.039062 C 344.667969 376.515625 344.335938 375.96875 344.023438 375.398438 C 343.710938 374.828125 343.414062 374.238281 343.140625 373.625 C 342.867188 373.011719 342.613281 372.378906 342.378906 371.730469 C 342.148438 371.078125 341.9375 370.414062 341.746094 369.730469 C 341.558594 369.050781 341.390625 368.355469 341.25 367.652344 C 341.105469 366.945312 340.984375 366.230469 340.886719 365.507812 C 340.792969 364.785156 340.71875 364.054688 340.671875 363.320312 C 340.621094 362.585938 340.597656 361.851562 340.597656 361.113281 C 340.597656 360.375 340.621094 359.640625 340.671875 358.90625 C 340.71875 358.171875 340.792969 357.445312 340.886719 356.71875 C 340.984375 355.996094 341.105469 355.28125 341.25 354.574219 C 341.390625 353.871094 341.558594 353.175781 341.746094 352.496094 C 341.9375 351.8125 342.148438 351.148438 342.378906 350.496094 C 342.613281 349.847656 342.867188 349.214844 343.140625 348.601562 C 343.414062 347.988281 343.710938 347.398438 344.023438 346.828125 C 344.335938 346.257812 344.667969 345.710938 345.019531 345.1875 C 345.367188 344.667969 345.734375 344.171875 346.113281 343.707031 C 346.496094 343.238281 346.894531 342.796875 347.304688 342.386719 C 347.714844 341.980469 348.136719 341.601562 348.574219 341.253906 C 349.011719 340.90625 349.457031 340.589844 349.914062 340.308594 C 350.371094 340.023438 350.835938 339.777344 351.308594 339.5625 C 351.78125 339.347656 352.257812 339.167969 352.742188 339.027344 C 353.226562 338.882812 353.714844 338.773438 354.207031 338.703125 C 354.699219 338.628906 355.191406 338.59375 355.6875 338.59375 C 356.179688 338.59375 356.675781 338.628906 357.164062 338.703125 C 357.65625 338.773438 358.144531 338.882812 358.628906 339.027344 C 359.113281 339.167969 359.59375 339.347656 360.066406 339.5625 C 360.539062 339.777344 361.003906 340.023438 361.460938 340.308594 C 361.917969 340.589844 362.363281 340.90625 362.800781 341.253906 C 363.234375 341.601562 363.660156 341.980469 364.070312 342.386719 C 364.480469 342.796875 364.875 343.238281 365.257812 343.703125 C 365.640625 344.171875 366.007812 344.667969 366.355469 345.1875 C 366.707031 345.710938 367.035156 346.257812 367.351562 346.828125 C 367.664062 347.398438 367.957031 347.988281 368.230469 348.601562 C 368.507812 349.214844 368.761719 349.847656 368.992188 350.496094 C 369.226562 351.148438 369.4375 351.8125 369.625 352.496094 C 369.816406 353.175781 369.980469 353.871094 370.125 354.574219 C 370.269531 355.28125 370.390625 355.996094 370.484375 356.71875 C 370.582031 357.445312 370.652344 358.171875 370.703125 358.90625 C 370.75 359.640625 370.773438 360.375 370.773438 361.113281 Z M 370.773438 361.113281 " fill-opacity="1" fill-rule="nonzero"/><path fill="#1a4447" d="M 477.539062 361.113281 C 477.539062 361.851562 477.515625 362.585938 477.464844 363.320312 C 477.417969 364.054688 477.34375 364.785156 477.25 365.507812 C 477.152344 366.230469 477.03125 366.945312 476.890625 367.652344 C 476.746094 368.355469 476.578125 369.050781 476.390625 369.730469 C 476.203125 370.414062 475.992188 371.078125 475.757812 371.730469 C 475.523438 372.378906 475.269531 373.011719 474.996094 373.625 C 474.722656 374.238281 474.425781 374.828125 474.113281 375.398438 C 473.800781 375.96875 473.46875 376.515625 473.121094 377.039062 C 472.769531 377.558594 472.40625 378.054688 472.023438 378.523438 C 471.640625 378.988281 471.242188 379.429688 470.832031 379.839844 C 470.421875 380.25 470 380.625 469.5625 380.972656 C 469.128906 381.320312 468.679688 381.636719 468.226562 381.917969 C 467.769531 382.203125 467.304688 382.449219 466.832031 382.664062 C 466.359375 382.878906 465.878906 383.058594 465.394531 383.199219 C 464.910156 383.34375 464.421875 383.453125 463.929688 383.523438 C 463.4375 383.597656 462.945312 383.632812 462.449219 383.632812 C 461.957031 383.632812 461.464844 383.597656 460.972656 383.523438 C 460.480469 383.453125 459.992188 383.34375 459.507812 383.199219 C 459.023438 383.058594 458.542969 382.878906 458.070312 382.664062 C 457.597656 382.449219 457.132812 382.203125 456.675781 381.917969 C 456.21875 381.636719 455.773438 381.320312 455.339844 380.972656 C 454.902344 380.625 454.480469 380.25 454.066406 379.839844 C 453.65625 379.429688 453.261719 378.988281 452.878906 378.523438 C 452.496094 378.054688 452.132812 377.558594 451.78125 377.039062 C 451.433594 376.515625 451.101562 375.96875 450.789062 375.398438 C 450.472656 374.828125 450.179688 374.238281 449.90625 373.625 C 449.628906 373.011719 449.375 372.378906 449.144531 371.730469 C 448.910156 371.078125 448.699219 370.414062 448.511719 369.730469 C 448.320312 369.050781 448.15625 368.355469 448.011719 367.652344 C 447.867188 366.945312 447.75 366.230469 447.652344 365.507812 C 447.554688 364.785156 447.484375 364.054688 447.433594 363.320312 C 447.386719 362.585938 447.363281 361.851562 447.363281 361.113281 C 447.363281 360.375 447.386719 359.640625 447.433594 358.90625 C 447.484375 358.171875 447.554688 357.445312 447.652344 356.71875 C 447.75 355.996094 447.867188 355.28125 448.011719 354.574219 C 448.15625 353.871094 448.320312 353.175781 448.511719 352.496094 C 448.699219 351.8125 448.910156 351.148438 449.144531 350.496094 C 449.375 349.847656 449.628906 349.214844 449.90625 348.601562 C 450.179688 347.988281 450.472656 347.398438 450.789062 346.828125 C 451.101562 346.257812 451.433594 345.710938 451.78125 345.1875 C 452.132812 344.667969 452.496094 344.171875 452.878906 343.707031 C 453.261719 343.238281 453.65625 342.796875 454.066406 342.386719 C 454.480469 341.980469 454.902344 341.601562 455.339844 341.253906 C 455.773438 340.90625 456.21875 340.589844 456.675781 340.308594 C 457.132812 340.023438 457.597656 339.777344 458.070312 339.5625 C 458.542969 339.347656 459.023438 339.167969 459.507812 339.027344 C 459.992188 338.882812 460.480469 338.773438 460.972656 338.703125 C 461.464844 338.628906 461.957031 338.59375 462.449219 338.59375 C 462.945312 338.59375 463.4375 338.628906 463.929688 338.703125 C 464.421875 338.773438 464.910156 338.882812 465.394531 339.027344 C 465.878906 339.167969 466.359375 339.347656 466.832031 339.5625 C 467.304688 339.777344 467.769531 340.023438 468.226562 340.308594 C 468.679688 340.589844 469.128906 340.90625 469.5625 341.253906 C 470 341.601562 470.421875 341.980469 470.832031 342.386719 C 471.242188 342.796875 471.640625 343.238281 472.023438 343.703125 C 472.40625 344.171875 472.769531 344.667969 473.121094 345.1875 C 473.46875 345.710938 473.800781 346.257812 474.113281 346.828125 C 474.425781 347.398438 474.722656 347.988281 474.996094 348.601562 C 475.269531 349.214844 475.523438 349.847656 475.757812 350.496094 C 475.992188 351.148438 476.203125 351.8125 476.390625 352.496094 C 476.578125 353.175781 476.746094 353.871094 476.890625 354.574219 C 477.03125 355.28125 477.152344 355.996094 477.25 356.71875 C 477.34375 357.445312 477.417969 358.171875 477.464844 358.90625 C 477.515625 359.640625 477.539062 360.375 477.539062 361.113281 Z M 477.539062 361.113281 " fill-opacity="1" fill-rule="nonzero"/><path fill="#1a4447" d="M 690.113281 182.371094 C 672.042969 176.8125 652.796875 186.988281 647.234375 205.074219 C 644.300781 214.613281 645.785156 224.453125 650.460938 232.457031 C 652.421875 230.480469 654.816406 228.898438 657.464844 228.007812 C 659.777344 227.226562 662.109375 226.914062 664.429688 226.84375 C 660.820312 222.007812 659.4375 215.605469 661.339844 209.414062 C 663.921875 201.015625 671.675781 195.613281 680.035156 195.613281 C 681.933594 195.613281 683.863281 195.890625 685.773438 196.476562 C 696.078125 199.644531 701.878906 210.605469 698.710938 220.914062 C 697.464844 224.953125 695 228.261719 691.871094 230.648438 C 697.765625 230.015625 703.824219 230.765625 709.597656 232.351562 C 710.886719 230.132812 712.027344 227.804688 712.8125 225.253906 L 712.8125 225.25 C 718.378906 207.167969 708.191406 187.929688 690.113281 182.371094 Z M 690.113281 182.371094 " fill-opacity="1" fill-rule="nonzero"/><path fill="#1a4447" d="M 648.777344 222.628906 C 650.4375 217.816406 652.128906 212.992188 654.625 208.542969 C 654.890625 208.070312 655.238281 207.683594 655.546875 207.253906 C 651.667969 203.425781 646.914062 200.554688 641.5625 198.90625 C 632.804688 196.210938 623.523438 197.089844 615.421875 201.378906 C 607.324219 205.664062 601.378906 212.851562 598.683594 221.609375 C 595.988281 230.367188 596.863281 239.652344 601.152344 247.753906 C 605.4375 255.851562 612.625 261.796875 621.382812 264.492188 C 624.71875 265.515625 628.128906 266.027344 631.515625 266.027344 C 632.378906 266.027344 633.234375 265.933594 634.09375 265.867188 C 633.570312 264.21875 633.234375 262.480469 632.980469 260.5625 C 632.554688 257.378906 632.945312 254.171875 633.847656 251.066406 C 631.148438 251.398438 628.394531 251.207031 625.726562 250.382812 C 620.734375 248.847656 616.636719 245.460938 614.195312 240.847656 C 611.75 236.234375 611.253906 230.941406 612.789062 225.949219 C 614.328125 220.957031 617.714844 216.867188 622.324219 214.421875 C 625.183594 212.90625 628.300781 212.140625 631.449219 212.140625 C 633.378906 212.140625 635.320312 212.429688 637.21875 213.011719 C 642.210938 214.550781 646.308594 217.9375 648.746094 222.550781 C 648.761719 222.574219 648.765625 222.601562 648.777344 222.628906 Z M 648.777344 222.628906 " fill-opacity="1" fill-rule="nonzero"/><path fill="#1a4447" d="M 721.578125 223.527344 C 709.332031 219.757812 696.582031 223.226562 687.886719 231.457031 C 692.007812 234.597656 694.65625 239.085938 696.417969 243.964844 C 700.109375 239.472656 705.632812 236.769531 711.496094 236.769531 C 713.398438 236.769531 715.328125 237.046875 717.234375 237.632812 C 727.539062 240.804688 733.335938 251.765625 730.171875 262.070312 C 728.632812 267.0625 725.246094 271.15625 720.636719 273.597656 C 716.019531 276.042969 710.730469 276.539062 705.742188 275.003906 C 703.125 274.199219 700.773438 272.859375 698.757812 271.125 C 697.503906 275.683594 694.9375 279.804688 690.082031 283.125 C 693.402344 285.777344 697.214844 287.824219 701.398438 289.113281 C 704.734375 290.136719 708.140625 290.648438 711.53125 290.648438 C 717.050781 290.648438 722.523438 289.300781 727.539062 286.640625 C 735.636719 282.355469 741.582031 275.167969 744.277344 266.410156 C 749.839844 248.328125 739.65625 229.089844 721.578125 223.527344 Z M 721.578125 223.527344 " fill-opacity="1" fill-rule="nonzero"/><path fill="#1a4447" d="M 708.28125 277.707031 C 708.152344 277.859375 708.074219 278.042969 707.941406 278.1875 C 706.816406 279.925781 705.324219 281.296875 703.460938 282.300781 C 702.015625 283.023438 700.527344 283.6875 698.996094 284.195312 C 698.847656 284.246094 698.703125 284.277344 698.546875 284.300781 C 697.824219 284.402344 697.101562 284.5 696.378906 284.59375 C 695.792969 284.691406 695.203125 284.761719 694.617188 284.828125 C 700.5 289.726562 703.210938 297.855469 700.824219 305.617188 C 699.285156 310.609375 695.898438 314.703125 691.289062 317.148438 C 686.671875 319.589844 681.382812 320.089844 676.390625 318.554688 C 666.089844 315.382812 660.285156 304.421875 663.453125 294.121094 C 663.777344 293.066406 664.183594 292.058594 664.664062 291.101562 C 659.570312 291.75 654.425781 289.828125 650.8125 286.046875 C 650.277344 287.257812 649.746094 288.480469 649.347656 289.78125 C 643.785156 307.859375 653.96875 327.09375 672.046875 332.660156 C 675.382812 333.6875 678.792969 334.195312 682.179688 334.195312 C 687.699219 334.195312 693.175781 332.847656 698.191406 330.191406 C 706.289062 325.902344 712.234375 318.714844 714.929688 309.957031 C 718.492188 298.375 715.570312 286.339844 708.28125 277.707031 Z M 708.28125 277.707031 " fill-opacity="1" fill-rule="nonzero"/><path fill="#1a4447" d="M 658.148438 290.96875 C 654.703125 290.96875 651.890625 290.019531 649.601562 288.53125 C 649.503906 288.945312 649.476562 289.367188 649.347656 289.777344 L 649.347656 289.78125 C 647.8125 294.769531 644.425781 298.863281 639.8125 301.304688 C 635.199219 303.753906 629.90625 304.25 624.917969 302.714844 C 619.929688 301.179688 615.832031 297.792969 613.390625 293.175781 C 610.945312 288.5625 610.445312 283.273438 611.980469 278.277344 C 613.519531 273.289062 616.90625 269.195312 621.519531 266.75 C 623.847656 265.519531 626.351562 264.808594 628.898438 264.574219 C 627.878906 263.617188 626.949219 262.578125 625.964844 261.300781 C 625.628906 260.871094 625.3125 260.429688 624.988281 259.996094 C 622.464844 258.570312 620.328125 256.285156 618.828125 253.964844 C 618.464844 253.398438 618.238281 252.773438 617.972656 252.164062 C 616.835938 252.621094 615.714844 253.125 614.613281 253.707031 C 606.515625 257.996094 600.574219 265.179688 597.878906 273.9375 C 595.183594 282.699219 596.058594 291.984375 600.347656 300.082031 C 604.632812 308.179688 611.820312 314.128906 620.578125 316.824219 C 623.910156 317.847656 627.316406 318.355469 630.707031 318.355469 C 636.226562 318.355469 641.699219 317.007812 646.714844 314.351562 C 654.816406 310.0625 660.757812 302.878906 663.453125 294.117188 C 663.898438 292.667969 664.210938 291.203125 664.460938 289.734375 C 662.625 290.5 660.539062 290.96875 658.148438 290.96875 Z M 658.148438 290.96875 " fill-opacity="1" fill-rule="nonzero"/><path fill="#1a4447" d="M 667.117188 297.332031 C 663.265625 297.332031 659.398438 296.753906 655.613281 295.589844 C 635.085938 289.273438 623.515625 267.429688 629.835938 246.894531 C 636.15625 226.363281 657.980469 214.792969 678.527344 221.113281 C 688.472656 224.171875 696.628906 230.921875 701.496094 240.121094 C 706.367188 249.316406 707.363281 259.863281 704.300781 269.808594 C 701.242188 279.753906 694.492188 287.914062 685.296875 292.78125 C 679.597656 295.800781 673.382812 297.332031 667.117188 297.332031 Z M 667.085938 234.148438 C 656.738281 234.148438 647.136719 240.839844 643.9375 251.234375 C 640.019531 263.988281 647.199219 277.558594 659.957031 281.480469 C 666.132812 283.382812 672.679688 282.761719 678.394531 279.738281 C 684.105469 276.714844 688.292969 271.644531 690.195312 265.46875 L 690.195312 265.464844 C 692.097656 259.289062 691.480469 252.742188 688.453125 247.027344 C 685.429688 241.3125 680.363281 237.117188 674.183594 235.21875 C 671.824219 234.492188 669.433594 234.148438 667.085938 234.148438 Z M 667.085938 234.148438 " fill-opacity="1" fill-rule="nonzero"/><path fill="#1a4447" d="M 650.832031 307.40625 C 648.859375 306.5 647.15625 305.222656 645.476562 303.886719 C 640.535156 320.039062 637.84375 336.617188 637.582031 352.984375 C 639.671875 351.949219 642.003906 351.28125 644.539062 351.167969 C 647.289062 351.042969 649.945312 351.878906 652.308594 353.265625 C 652.542969 338.882812 654.851562 324.308594 659.039062 310.042969 C 656.28125 309.347656 653.535156 308.648438 650.832031 307.40625 Z M 650.832031 307.40625 " fill-opacity="1" fill-rule="nonzero"/><path fill="#1a4447" d="M 687.183594 448.652344 C 681.03125 442.035156 675.574219 434.75 670.953125 426.996094 C 666.386719 419.34375 662.683594 411.152344 659.785156 402.597656 C 657.792969 404.679688 655.308594 406.328125 652.550781 407.21875 C 650.320312 407.941406 648.078125 408.027344 645.9375 407.660156 C 649.144531 417.074219 653.238281 426.105469 658.273438 434.550781 C 663.425781 443.199219 669.515625 451.324219 676.375 458.703125 C 677.832031 460.265625 679.800781 461.054688 681.78125 461.054688 C 683.582031 461.054688 685.382812 460.402344 686.804688 459.082031 C 689.789062 456.304688 689.957031 451.632812 687.183594 448.652344 Z M 687.183594 448.652344 " fill-opacity="1" fill-rule="nonzero"/><path fill="#1a4447" d="M 633.601562 406.382812 C 632.371094 406.179688 631.230469 405.667969 630.136719 405.039062 C 624.964844 414.25 616.058594 422.070312 604.53125 426.992188 C 590.753906 432.867188 576.089844 433.566406 563.988281 429.390625 C 563.941406 434.464844 563.683594 439.550781 563.414062 444.652344 C 568.824219 446.074219 574.511719 446.824219 580.339844 446.824219 C 590.242188 446.824219 600.515625 444.75 610.324219 440.566406 C 627.078125 433.417969 639.59375 421.164062 645.707031 406.679688 C 641.527344 407.261719 638.046875 407.117188 633.601562 406.382812 Z M 633.601562 406.382812 " fill-opacity="1" fill-rule="nonzero"/><path fill="#1a4447" d="M 644.4375 416.351562 C 636.445312 416.351562 628.402344 413.726562 621.710938 408.324219 C 614.183594 402.242188 609.46875 393.59375 608.445312 383.964844 C 607.421875 374.34375 610.203125 364.894531 616.285156 357.367188 C 622.367188 349.835938 631.015625 345.125 640.636719 344.097656 C 650.28125 343.078125 659.714844 345.859375 667.238281 351.9375 C 674.769531 358.023438 679.480469 366.671875 680.507812 376.296875 C 681.53125 385.921875 678.742188 395.371094 672.664062 402.902344 C 665.515625 411.753906 655.023438 416.351562 644.4375 416.351562 Z M 644.515625 358.652344 C 643.75 358.652344 642.976562 358.691406 642.203125 358.773438 C 636.496094 359.382812 631.371094 362.175781 627.769531 366.640625 C 624.164062 371.101562 622.511719 376.703125 623.121094 382.40625 C 623.726562 388.109375 626.519531 393.238281 630.980469 396.839844 C 640.199219 404.289062 653.75 402.835938 661.179688 393.625 C 664.789062 389.164062 666.4375 383.5625 665.832031 377.859375 C 665.21875 372.15625 662.429688 367.027344 657.964844 363.421875 C 654.109375 360.304688 649.40625 358.652344 644.515625 358.652344 Z M 644.515625 358.652344 " fill-opacity="1" fill-rule="nonzero"/><path fill="#1a4447" d="M 356.136719 319.28125 C 342.453125 319.28125 328.636719 315.847656 316.683594 309.414062 C 295.894531 298.226562 280.445312 277.78125 275.351562 254.71875 C 268.242188 222.496094 279.945312 189.84375 305.890625 169.503906 C 331.277344 149.609375 363.800781 146.316406 392.925781 160.679688 C 425.628906 176.808594 445.003906 215.964844 437.984375 251.753906 C 430.96875 287.539062 398.25 316.484375 361.878906 319.074219 C 359.972656 319.210938 358.054688 319.28125 356.136719 319.28125 Z M 356.023438 166.652344 C 341.484375 166.652344 327.222656 171.535156 314.996094 181.121094 C 293.554688 197.929688 283.890625 224.910156 289.765625 251.539062 C 293.945312 270.460938 306.617188 287.238281 323.675781 296.417969 C 334.875 302.445312 348.078125 305.257812 360.832031 304.355469 C 390.785156 302.21875 417.726562 278.386719 423.503906 248.914062 C 429.28125 219.441406 413.332031 187.199219 386.398438 173.914062 L 386.394531 173.914062 C 376.539062 169.050781 366.210938 166.652344 356.023438 166.652344 Z M 356.023438 166.652344 " fill-opacity="1" fill-rule="nonzero"/><path fill="#1a4447" d="M 356.230469 266.4375 C 351.164062 266.4375 346.199219 265.191406 341.734375 262.789062 C 334.050781 258.652344 328.339844 251.09375 326.457031 242.570312 C 323.84375 230.722656 328.144531 218.71875 337.6875 211.242188 C 346.933594 203.992188 359.265625 202.734375 369.867188 207.964844 L 369.863281 207.964844 C 381.921875 213.914062 389.066406 228.347656 386.476562 241.539062 C 383.890625 254.734375 371.828125 265.402344 358.417969 266.359375 C 357.691406 266.410156 356.953125 266.4375 356.230469 266.4375 Z M 356.28125 219.511719 C 352.914062 219.511719 349.613281 220.640625 346.789062 222.855469 C 342.84375 225.949219 339.222656 231.914062 340.871094 239.390625 C 341.820312 243.707031 344.835938 247.695312 348.730469 249.792969 C 351.328125 251.191406 354.382812 251.84375 357.371094 251.636719 C 364.246094 251.144531 370.671875 245.460938 371.996094 238.699219 C 373.320312 231.9375 369.515625 224.25 363.339844 221.203125 L 363.335938 221.203125 C 361.046875 220.074219 358.644531 219.511719 356.28125 219.511719 Z M 356.28125 219.511719 " fill-opacity="1" fill-rule="nonzero"/><path fill="#1a4447" d="M 363.203125 186.769531 C 363.203125 187.21875 363.160156 187.664062 363.074219 188.105469 C 362.984375 188.546875 362.855469 188.972656 362.683594 189.390625 C 362.511719 189.804688 362.300781 190.199219 362.050781 190.574219 C 361.800781 190.945312 361.515625 191.292969 361.199219 191.609375 C 360.882812 191.929688 360.535156 192.210938 360.164062 192.460938 C 359.789062 192.710938 359.394531 192.921875 358.980469 193.09375 C 358.5625 193.265625 358.136719 193.394531 357.695312 193.484375 C 357.253906 193.570312 356.808594 193.613281 356.359375 193.613281 C 355.910156 193.613281 355.464844 193.570312 355.023438 193.484375 C 354.582031 193.394531 354.15625 193.265625 353.738281 193.09375 C 353.324219 192.921875 352.929688 192.710938 352.558594 192.460938 C 352.183594 192.210938 351.835938 191.929688 351.519531 191.609375 C 351.203125 191.292969 350.917969 190.945312 350.667969 190.574219 C 350.417969 190.199219 350.207031 189.804688 350.035156 189.390625 C 349.863281 188.972656 349.734375 188.546875 349.644531 188.105469 C 349.558594 187.664062 349.515625 187.21875 349.515625 186.769531 C 349.515625 186.320312 349.558594 185.875 349.644531 185.433594 C 349.734375 184.992188 349.863281 184.566406 350.035156 184.148438 C 350.207031 183.734375 350.417969 183.339844 350.667969 182.964844 C 350.917969 182.59375 351.203125 182.246094 351.519531 181.929688 C 351.835938 181.609375 352.183594 181.328125 352.558594 181.078125 C 352.929688 180.828125 353.324219 180.617188 353.738281 180.445312 C 354.15625 180.273438 354.582031 180.144531 355.023438 180.054688 C 355.464844 179.96875 355.910156 179.925781 356.359375 179.925781 C 356.808594 179.925781 357.253906 179.96875 357.695312 180.054688 C 358.136719 180.144531 358.5625 180.273438 358.980469 180.445312 C 359.394531 180.617188 359.789062 180.828125 360.164062 181.078125 C 360.535156 181.328125 360.882812 181.609375 361.199219 181.929688 C 361.515625 182.246094 361.800781 182.59375 362.050781 182.964844 C 362.300781 183.339844 362.511719 183.734375 362.683594 184.148438 C 362.855469 184.566406 362.984375 184.992188 363.074219 185.433594 C 363.160156 185.875 363.203125 186.320312 363.203125 186.769531 Z M 363.203125 186.769531 " fill-opacity="1" fill-rule="nonzero"/><path fill="#1a4447" d="M 363.203125 284.351562 C 363.203125 284.800781 363.160156 285.246094 363.074219 285.6875 C 362.984375 286.128906 362.855469 286.558594 362.683594 286.972656 C 362.511719 287.386719 362.300781 287.78125 362.050781 288.15625 C 361.800781 288.527344 361.515625 288.875 361.199219 289.191406 C 360.882812 289.511719 360.535156 289.792969 360.164062 290.042969 C 359.789062 290.292969 359.394531 290.503906 358.980469 290.675781 C 358.5625 290.847656 358.136719 290.980469 357.695312 291.066406 C 357.253906 291.152344 356.808594 291.199219 356.359375 291.199219 C 355.910156 291.199219 355.464844 291.152344 355.023438 291.066406 C 354.582031 290.980469 354.15625 290.847656 353.738281 290.675781 C 353.324219 290.503906 352.929688 290.292969 352.558594 290.042969 C 352.183594 289.792969 351.835938 289.511719 351.519531 289.191406 C 351.203125 288.875 350.917969 288.527344 350.667969 288.15625 C 350.417969 287.78125 350.207031 287.386719 350.035156 286.972656 C 349.863281 286.558594 349.734375 286.128906 349.644531 285.6875 C 349.558594 285.246094 349.515625 284.800781 349.515625 284.351562 C 349.515625 283.902344 349.558594 283.457031 349.644531 283.015625 C 349.734375 282.574219 349.863281 282.148438 350.035156 281.734375 C 350.207031 281.316406 350.417969 280.921875 350.667969 280.550781 C 350.917969 280.175781 351.203125 279.828125 351.519531 279.511719 C 351.835938 279.195312 352.183594 278.910156 352.558594 278.660156 C 352.929688 278.410156 353.324219 278.199219 353.738281 278.027344 C 354.15625 277.855469 354.582031 277.726562 355.023438 277.636719 C 355.464844 277.550781 355.910156 277.507812 356.359375 277.507812 C 356.808594 277.507812 357.253906 277.550781 357.695312 277.636719 C 358.136719 277.726562 358.5625 277.855469 358.980469 278.027344 C 359.394531 278.199219 359.789062 278.410156 360.164062 278.660156 C 360.535156 278.910156 360.882812 279.195312 361.199219 279.511719 C 361.515625 279.828125 361.800781 280.175781 362.050781 280.550781 C 362.300781 280.921875 362.511719 281.316406 362.683594 281.734375 C 362.855469 282.148438 362.984375 282.574219 363.074219 283.015625 C 363.160156 283.457031 363.203125 283.902344 363.203125 284.351562 Z M 363.203125 284.351562 " fill-opacity="1" fill-rule="nonzero"/><path fill="#1a4447" d="M 314.417969 235.5625 C 314.417969 236.011719 314.375 236.457031 314.289062 236.894531 C 314.199219 237.335938 314.070312 237.765625 313.898438 238.179688 C 313.726562 238.597656 313.515625 238.992188 313.265625 239.363281 C 313.015625 239.738281 312.734375 240.082031 312.414062 240.402344 C 312.097656 240.71875 311.75 241.003906 311.378906 241.253906 C 311.003906 241.503906 310.609375 241.714844 310.195312 241.886719 C 309.777344 242.058594 309.351562 242.1875 308.910156 242.273438 C 308.46875 242.363281 308.023438 242.40625 307.574219 242.40625 C 307.125 242.40625 306.679688 242.363281 306.238281 242.273438 C 305.800781 242.1875 305.371094 242.058594 304.957031 241.886719 C 304.539062 241.714844 304.144531 241.503906 303.773438 241.253906 C 303.398438 241.003906 303.054688 240.71875 302.734375 240.402344 C 302.417969 240.082031 302.132812 239.738281 301.882812 239.363281 C 301.632812 238.992188 301.421875 238.597656 301.25 238.179688 C 301.078125 237.765625 300.949219 237.335938 300.863281 236.894531 C 300.773438 236.457031 300.730469 236.011719 300.730469 235.5625 C 300.730469 235.113281 300.773438 234.667969 300.863281 234.226562 C 300.949219 233.785156 301.078125 233.355469 301.25 232.941406 C 301.421875 232.527344 301.632812 232.132812 301.882812 231.757812 C 302.132812 231.382812 302.417969 231.039062 302.734375 230.71875 C 303.054688 230.402344 303.398438 230.117188 303.773438 229.867188 C 304.144531 229.621094 304.539062 229.410156 304.957031 229.238281 C 305.371094 229.0625 305.800781 228.933594 306.238281 228.847656 C 306.679688 228.757812 307.125 228.714844 307.574219 228.714844 C 308.023438 228.714844 308.46875 228.757812 308.910156 228.847656 C 309.351562 228.933594 309.777344 229.0625 310.195312 229.238281 C 310.609375 229.410156 311.003906 229.621094 311.378906 229.867188 C 311.75 230.117188 312.097656 230.402344 312.414062 230.71875 C 312.734375 231.039062 313.015625 231.382812 313.265625 231.757812 C 313.515625 232.132812 313.726562 232.527344 313.898438 232.941406 C 314.070312 233.355469 314.199219 233.785156 314.289062 234.226562 C 314.375 234.667969 314.417969 235.113281 314.417969 235.5625 Z M 314.417969 235.5625 " fill-opacity="1" fill-rule="nonzero"/><path fill="#1a4447" d="M 411.988281 235.5625 C 411.988281 236.011719 411.945312 236.457031 411.859375 236.894531 C 411.769531 237.335938 411.640625 237.765625 411.46875 238.179688 C 411.296875 238.597656 411.085938 238.992188 410.835938 239.363281 C 410.585938 239.738281 410.304688 240.082031 409.984375 240.402344 C 409.667969 240.71875 409.320312 241.003906 408.949219 241.253906 C 408.574219 241.503906 408.179688 241.714844 407.765625 241.886719 C 407.347656 242.058594 406.921875 242.1875 406.480469 242.273438 C 406.039062 242.363281 405.59375 242.40625 405.144531 242.40625 C 404.695312 242.40625 404.25 242.363281 403.808594 242.273438 C 403.367188 242.1875 402.941406 242.058594 402.527344 241.886719 C 402.109375 241.714844 401.714844 241.503906 401.34375 241.253906 C 400.96875 241.003906 400.625 240.71875 400.304688 240.402344 C 399.988281 240.082031 399.703125 239.738281 399.453125 239.363281 C 399.203125 238.992188 398.992188 238.597656 398.820312 238.179688 C 398.648438 237.765625 398.519531 237.335938 398.433594 236.894531 C 398.34375 236.457031 398.300781 236.011719 398.300781 235.5625 C 398.300781 235.113281 398.34375 234.667969 398.433594 234.226562 C 398.519531 233.785156 398.648438 233.355469 398.820312 232.941406 C 398.992188 232.527344 399.203125 232.132812 399.453125 231.757812 C 399.703125 231.382812 399.988281 231.039062 400.304688 230.71875 C 400.625 230.402344 400.96875 230.117188 401.34375 229.867188 C 401.714844 229.621094 402.109375 229.410156 402.527344 229.238281 C 402.941406 229.0625 403.367188 228.933594 403.808594 228.847656 C 404.25 228.757812 404.695312 228.714844 405.144531 228.714844 C 405.59375 228.714844 406.039062 228.757812 406.480469 228.847656 C 406.921875 228.933594 407.347656 229.0625 407.765625 229.238281 C 408.179688 229.410156 408.574219 229.621094 408.949219 229.867188 C 409.320312 230.117188 409.667969 230.402344 409.984375 230.71875 C 410.304688 231.039062 410.585938 231.382812 410.835938 231.757812 C 411.085938 232.132812 411.296875 232.527344 411.46875 232.941406 C 411.640625 233.355469 411.769531 233.785156 411.859375 234.226562 C 411.945312 234.667969 411.988281 235.113281 411.988281 235.5625 Z M 411.988281 235.5625 " fill-opacity="1" fill-rule="nonzero"/><path fill="#1a4447" d="M 328.707031 201.058594 C 328.707031 201.507812 328.664062 201.953125 328.578125 202.394531 C 328.488281 202.835938 328.359375 203.265625 328.1875 203.679688 C 328.015625 204.09375 327.804688 204.488281 327.554688 204.863281 C 327.304688 205.238281 327.023438 205.582031 326.703125 205.902344 C 326.386719 206.21875 326.039062 206.503906 325.667969 206.753906 C 325.292969 207 324.898438 207.210938 324.484375 207.382812 C 324.066406 207.558594 323.640625 207.6875 323.199219 207.773438 C 322.757812 207.863281 322.3125 207.90625 321.863281 207.90625 C 321.414062 207.90625 320.96875 207.863281 320.527344 207.773438 C 320.089844 207.6875 319.660156 207.558594 319.246094 207.382812 C 318.828125 207.210938 318.433594 207 318.0625 206.753906 C 317.6875 206.503906 317.34375 206.21875 317.023438 205.902344 C 316.707031 205.582031 316.421875 205.238281 316.171875 204.863281 C 315.921875 204.488281 315.710938 204.09375 315.539062 203.679688 C 315.367188 203.265625 315.238281 202.835938 315.152344 202.394531 C 315.0625 201.953125 315.019531 201.507812 315.019531 201.058594 C 315.019531 200.609375 315.0625 200.164062 315.152344 199.726562 C 315.238281 199.285156 315.367188 198.855469 315.539062 198.441406 C 315.710938 198.023438 315.921875 197.628906 316.171875 197.257812 C 316.421875 196.882812 316.707031 196.539062 317.023438 196.21875 C 317.34375 195.902344 317.6875 195.617188 318.0625 195.367188 C 318.433594 195.117188 318.828125 194.90625 319.246094 194.734375 C 319.660156 194.5625 320.089844 194.433594 320.527344 194.347656 C 320.96875 194.257812 321.414062 194.214844 321.863281 194.214844 C 322.3125 194.214844 322.757812 194.257812 323.199219 194.347656 C 323.640625 194.433594 324.066406 194.5625 324.484375 194.734375 C 324.898438 194.90625 325.292969 195.117188 325.667969 195.367188 C 326.039062 195.617188 326.386719 195.902344 326.703125 196.21875 C 327.023438 196.539062 327.304688 196.882812 327.554688 197.257812 C 327.804688 197.628906 328.015625 198.023438 328.1875 198.441406 C 328.359375 198.855469 328.488281 199.285156 328.578125 199.726562 C 328.664062 200.164062 328.707031 200.609375 328.707031 201.058594 Z M 328.707031 201.058594 " fill-opacity="1" fill-rule="nonzero"/><path fill="#1a4447" d="M 397.699219 270.0625 C 397.699219 270.511719 397.65625 270.957031 397.570312 271.398438 C 397.480469 271.839844 397.351562 272.265625 397.179688 272.679688 C 397.007812 273.097656 396.796875 273.492188 396.546875 273.863281 C 396.296875 274.238281 396.015625 274.585938 395.695312 274.902344 C 395.378906 275.21875 395.03125 275.503906 394.660156 275.753906 C 394.285156 276.003906 393.890625 276.214844 393.476562 276.386719 C 393.058594 276.558594 392.632812 276.6875 392.191406 276.777344 C 391.75 276.863281 391.304688 276.90625 390.855469 276.90625 C 390.40625 276.90625 389.960938 276.863281 389.519531 276.777344 C 389.082031 276.6875 388.652344 276.558594 388.238281 276.386719 C 387.820312 276.214844 387.425781 276.003906 387.054688 275.753906 C 386.679688 275.503906 386.335938 275.21875 386.015625 274.902344 C 385.699219 274.585938 385.414062 274.238281 385.164062 273.863281 C 384.914062 273.492188 384.703125 273.097656 384.53125 272.679688 C 384.359375 272.265625 384.230469 271.839844 384.144531 271.398438 C 384.054688 270.957031 384.011719 270.511719 384.011719 270.0625 C 384.011719 269.613281 384.054688 269.167969 384.144531 268.726562 C 384.230469 268.285156 384.359375 267.855469 384.53125 267.441406 C 384.703125 267.027344 384.914062 266.632812 385.164062 266.257812 C 385.414062 265.882812 385.699219 265.539062 386.015625 265.222656 C 386.335938 264.902344 386.679688 264.621094 387.054688 264.371094 C 387.425781 264.121094 387.820312 263.910156 388.238281 263.738281 C 388.652344 263.566406 389.082031 263.433594 389.519531 263.347656 C 389.960938 263.261719 390.40625 263.214844 390.855469 263.214844 C 391.304688 263.214844 391.75 263.261719 392.191406 263.347656 C 392.632812 263.433594 393.058594 263.566406 393.476562 263.738281 C 393.890625 263.910156 394.285156 264.121094 394.660156 264.371094 C 395.03125 264.621094 395.378906 264.902344 395.695312 265.222656 C 396.015625 265.539062 396.296875 265.882812 396.546875 266.257812 C 396.796875 266.632812 397.007812 267.027344 397.179688 267.441406 C 397.351562 267.855469 397.480469 268.285156 397.570312 268.726562 C 397.65625 269.167969 397.699219 269.613281 397.699219 270.0625 Z M 397.699219 270.0625 " fill-opacity="1" fill-rule="nonzero"/><path fill="#1a4447" d="M 397.699219 201.058594 C 397.699219 201.507812 397.65625 201.953125 397.570312 202.394531 C 397.480469 202.835938 397.351562 203.265625 397.179688 203.679688 C 397.007812 204.09375 396.796875 204.488281 396.546875 204.863281 C 396.296875 205.238281 396.015625 205.582031 395.695312 205.902344 C 395.378906 206.21875 395.03125 206.503906 394.660156 206.753906 C 394.285156 207 393.890625 207.210938 393.476562 207.382812 C 393.058594 207.558594 392.632812 207.6875 392.191406 207.773438 C 391.75 207.863281 391.304688 207.90625 390.855469 207.90625 C 390.40625 207.90625 389.960938 207.863281 389.519531 207.773438 C 389.082031 207.6875 388.652344 207.558594 388.238281 207.382812 C 387.820312 207.210938 387.425781 207 387.054688 206.753906 C 386.679688 206.503906 386.335938 206.21875 386.015625 205.902344 C 385.699219 205.582031 385.414062 205.238281 385.164062 204.863281 C 384.914062 204.488281 384.703125 204.09375 384.53125 203.679688 C 384.359375 203.265625 384.230469 202.835938 384.144531 202.394531 C 384.054688 201.953125 384.011719 201.507812 384.011719 201.058594 C 384.011719 200.609375 384.054688 200.164062 384.144531 199.726562 C 384.230469 199.285156 384.359375 198.855469 384.53125 198.441406 C 384.703125 198.023438 384.914062 197.628906 385.164062 197.257812 C 385.414062 196.882812 385.699219 196.539062 386.015625 196.21875 C 386.335938 195.902344 386.679688 195.617188 387.054688 195.367188 C 387.425781 195.117188 387.820312 194.90625 388.238281 194.734375 C 388.652344 194.5625 389.082031 194.433594 389.519531 194.347656 C 389.960938 194.257812 390.40625 194.214844 390.855469 194.214844 C 391.304688 194.214844 391.75 194.257812 392.191406 194.347656 C 392.632812 194.433594 393.058594 194.5625 393.476562 194.734375 C 393.890625 194.90625 394.285156 195.117188 394.660156 195.367188 C 395.03125 195.617188 395.378906 195.902344 395.695312 196.21875 C 396.015625 196.539062 396.296875 196.882812 396.546875 197.257812 C 396.796875 197.628906 397.007812 198.023438 397.179688 198.441406 C 397.351562 198.855469 397.480469 199.285156 397.570312 199.726562 C 397.65625 200.164062 397.699219 200.609375 397.699219 201.058594 Z M 397.699219 201.058594 " fill-opacity="1" fill-rule="nonzero"/><path fill="#1a4447" d="M 328.707031 270.0625 C 328.707031 270.511719 328.664062 270.957031 328.578125 271.398438 C 328.488281 271.839844 328.359375 272.265625 328.1875 272.679688 C 328.015625 273.097656 327.804688 273.492188 327.554688 273.863281 C 327.304688 274.238281 327.023438 274.585938 326.703125 274.902344 C 326.386719 275.21875 326.039062 275.503906 325.667969 275.753906 C 325.292969 276.003906 324.898438 276.214844 324.484375 276.386719 C 324.066406 276.558594 323.640625 276.6875 323.199219 276.777344 C 322.757812 276.863281 322.3125 276.90625 321.863281 276.90625 C 321.414062 276.90625 320.96875 276.863281 320.527344 276.777344 C 320.089844 276.6875 319.660156 276.558594 319.246094 276.386719 C 318.828125 276.214844 318.433594 276.003906 318.0625 275.753906 C 317.6875 275.503906 317.34375 275.21875 317.023438 274.902344 C 316.707031 274.585938 316.421875 274.238281 316.171875 273.863281 C 315.921875 273.492188 315.710938 273.097656 315.539062 272.679688 C 315.367188 272.265625 315.238281 271.839844 315.152344 271.398438 C 315.0625 270.957031 315.019531 270.511719 315.019531 270.0625 C 315.019531 269.613281 315.0625 269.167969 315.152344 268.726562 C 315.238281 268.285156 315.367188 267.855469 315.539062 267.441406 C 315.710938 267.027344 315.921875 266.632812 316.171875 266.257812 C 316.421875 265.882812 316.707031 265.539062 317.023438 265.222656 C 317.34375 264.902344 317.6875 264.621094 318.0625 264.371094 C 318.433594 264.121094 318.828125 263.910156 319.246094 263.738281 C 319.660156 263.566406 320.089844 263.433594 320.527344 263.347656 C 320.96875 263.261719 321.414062 263.214844 321.863281 263.214844 C 322.3125 263.214844 322.757812 263.261719 323.199219 263.347656 C 323.640625 263.433594 324.066406 263.566406 324.484375 263.738281 C 324.898438 263.910156 325.292969 264.121094 325.667969 264.371094 C 326.039062 264.621094 326.386719 264.902344 326.703125 265.222656 C 327.023438 265.539062 327.304688 265.882812 327.554688 266.257812 C 327.804688 266.632812 328.015625 267.027344 328.1875 267.441406 C 328.359375 267.855469 328.488281 268.285156 328.578125 268.726562 C 328.664062 269.167969 328.707031 269.613281 328.707031 270.0625 Z M 328.707031 270.0625 " fill-opacity="1" fill-rule="nonzero"/><path fill="#1a4447" d="M 337.464844 602.304688 C 250.589844 602.308594 161.535156 597.886719 101.683594 587.921875 C 78.695312 584.097656 31.308594 532.664062 14.984375 513.171875 C 1.304688 496.832031 0.191406 367.460938 0.175781 328.203125 C 0.164062 300.320312 0.796875 160.265625 14.378906 141.378906 C 28.277344 122.046875 103.828125 86.242188 115.855469 83.976562 C 229.042969 62.648438 408.316406 64.289062 551.820312 87.980469 C 555.058594 88.515625 557.558594 91.125 557.945312 94.382812 C 579.609375 274.769531 578.390625 426.292969 554.007812 585.691406 C 553.511719 588.945312 550.917969 591.472656 547.65625 591.894531 C 495.878906 598.542969 417.597656 602.304688 337.464844 602.304688 Z M 26.339844 503.746094 C 52.4375 534.90625 90.773438 571.144531 104.101562 573.367188 C 216.050781 591.992188 431.398438 591.023438 540.257812 577.941406 C 563.375 423.554688 564.519531 276.164062 543.949219 101.65625 C 402.914062 79.074219 228.839844 77.707031 118.582031 98.484375 C 109.285156 100.234375 37.421875 134.609375 26.359375 149.996094 C 11.367188 171.53125 11.355469 482.101562 26.339844 503.746094 Z M 26.359375 503.769531 L 26.40625 503.769531 Z M 26.359375 503.769531 " fill-opacity="1" fill-rule="nonzero"/><path fill="#1a4447" d="M 96.839844 580.945312 C 96.84375 581.019531 96.863281 581.085938 96.871094 581.160156 C 101.46875 582.128906 106.042969 583.167969 110.578125 584.347656 C 111.265625 583.171875 111.648438 581.804688 111.589844 580.34375 L 111.082031 568.019531 C 104.628906 409.386719 97.945312 245.355469 125.980469 92.5625 C 126.242188 91.148438 125.964844 89.804688 125.464844 88.5625 C 122.082031 89.136719 118.707031 89.738281 115.335938 90.351562 C 113.921875 90.988281 112.511719 91.632812 111.074219 92.207031 C 83.230469 245.953125 89.878906 409.96875 96.339844 568.617188 Z M 96.839844 580.945312 " fill-opacity="1" fill-rule="nonzero"/><path fill="#1a4447" d="M 175.109375 274.089844 C 170.171875 273.851562 165.292969 273.578125 160.492188 272.761719 C 159.667969 320.054688 160.375 369.199219 162.054688 412.289062 C 166.699219 412.238281 171.917969 412 176.855469 412.6875 C 175.171875 370.402344 174.328125 321.558594 175.109375 274.089844 Z M 175.109375 274.089844 " fill-opacity="1" fill-rule="nonzero"/><path fill="#1a4447" d="M 508.007812 141.699219 C 507.792969 138.402344 505.410156 135.652344 502.179688 134.964844 C 396.820312 112.527344 290.003906 110.675781 175.605469 129.296875 C 172.4375 129.8125 169.960938 132.328125 169.492188 135.507812 C 165.589844 162.054688 163.074219 195.167969 161.644531 230.933594 C 166.527344 230.460938 171.417969 230.128906 176.335938 230.164062 C 177.652344 198.351562 179.878906 168.375 183.335938 143.007812 C 291.898438 125.921875 393.519531 127.636719 493.644531 148.257812 C 501.386719 269.589844 502.070312 398.816406 495.660156 532.558594 C 398.375 542.128906 296.9375 540.644531 185.949219 528.042969 C 183.699219 518.277344 181.132812 492.035156 179.027344 456.78125 L 164.257812 456.78125 C 167.003906 501.816406 170.773438 533.917969 174.507812 539.140625 C 175.71875 540.832031 177.585938 541.9375 179.65625 542.179688 C 244.910156 549.75 306.886719 553.527344 366.691406 553.527344 C 413.449219 553.527344 458.886719 551.214844 503.484375 546.605469 C 507.105469 546.230469 509.914062 543.265625 510.09375 539.628906 C 516.957031 401.007812 516.257812 267.125 508.007812 141.699219 Z M 508.007812 141.699219 " fill-opacity="1" fill-rule="nonzero"/><path fill="#1a4447" d="M 202.550781 282.316406 C 190.515625 282.316406 178.40625 281.886719 166.699219 281.476562 C 157.785156 281.160156 148.851562 280.84375 139.878906 280.707031 C 137.875 280.675781 135.972656 279.835938 134.605469 278.375 C 133.234375 276.914062 132.519531 274.960938 132.621094 272.960938 C 133.007812 265.128906 133.1875 258.101562 133.363281 251.070312 C 133.546875 243.925781 133.730469 236.78125 134.128906 228.820312 C 134.316406 225.089844 137.261719 222.085938 140.988281 221.824219 C 163.4375 220.273438 182.839844 220.570312 203.898438 222.78125 C 207.542969 223.164062 210.359375 226.167969 210.503906 229.832031 C 211.300781 250.070312 211.324219 259.019531 209.902344 275.566406 C 209.574219 279.382812 206.382812 282.316406 202.550781 282.316406 Z M 147.691406 266.101562 C 154.214844 266.265625 160.71875 266.496094 167.222656 266.726562 C 176.574219 267.054688 186.175781 267.394531 195.726562 267.511719 C 196.414062 257.300781 196.421875 249.421875 195.996094 236.851562 C 180.253906 235.480469 165.191406 235.253906 148.578125 236.148438 C 148.371094 241.441406 148.246094 246.441406 148.121094 251.445312 C 147.996094 256.25 147.878906 261.054688 147.691406 266.101562 Z M 147.691406 266.101562 " fill-opacity="1" fill-rule="nonzero"/><path fill="#1a4447" d="M 202.550781 464.746094 C 190.515625 464.746094 178.40625 464.316406 166.699219 463.90625 C 157.785156 463.589844 148.851562 463.273438 139.878906 463.140625 C 137.875 463.109375 135.972656 462.265625 134.605469 460.804688 C 133.234375 459.34375 132.519531 457.390625 132.621094 455.390625 C 133.007812 447.558594 133.1875 440.527344 133.363281 433.5 C 133.546875 426.355469 133.730469 419.210938 134.128906 411.25 C 134.316406 407.515625 137.261719 404.511719 140.988281 404.253906 C 163.457031 402.703125 182.859375 403.003906 203.902344 405.210938 C 207.542969 405.59375 210.359375 408.597656 210.503906 412.261719 C 211.300781 432.5 211.324219 441.449219 209.902344 457.996094 C 209.578125 461.8125 206.382812 464.746094 202.550781 464.746094 Z M 147.691406 448.53125 C 154.214844 448.695312 160.71875 448.925781 167.222656 449.15625 C 176.574219 449.484375 186.175781 449.824219 195.726562 449.941406 C 196.414062 439.730469 196.421875 431.855469 195.996094 419.277344 C 180.261719 417.914062 165.191406 417.691406 148.578125 418.578125 C 148.371094 423.867188 148.246094 428.871094 148.121094 433.875 C 147.996094 438.679688 147.878906 443.480469 147.691406 448.53125 Z M 147.691406 448.53125 " fill-opacity="1" fill-rule="nonzero"/><path fill="#1a4447" d="M 318.3125 476 C 315.105469 476 312.191406 475.53125 309.636719 474.839844 C 295.941406 471.128906 285.664062 458.882812 283.636719 449.183594 C 281.832031 440.542969 284.679688 432.460938 291.441406 427.015625 C 295.996094 423.34375 301.789062 421.484375 307.195312 421.566406 C 313.050781 408.042969 321.035156 403.207031 327.042969 401.601562 C 335.265625 399.398438 344.28125 402.011719 351.761719 408.78125 C 358.46875 414.84375 362.03125 423.484375 361.796875 433.105469 C 361.566406 442.304688 357.84375 451.351562 351.308594 458.578125 C 339.050781 472.136719 327.496094 476 318.3125 476 Z M 298.085938 446.167969 C 298.878906 449.960938 304.871094 458.253906 313.496094 460.59375 C 322.058594 462.921875 331.109375 458.914062 340.367188 448.675781 C 344.53125 444.070312 346.898438 438.410156 347.039062 432.742188 C 347.171875 427.488281 345.332031 422.863281 341.863281 419.730469 C 340.113281 418.144531 335.519531 414.605469 330.859375 415.859375 C 326.183594 417.109375 321.949219 422.933594 318.929688 432.257812 C 318.285156 434.25 316.828125 435.875 314.910156 436.726562 C 313.003906 437.578125 310.8125 437.574219 308.894531 436.722656 C 307.011719 435.875 303.429688 436.3125 300.695312 438.511719 C 298.308594 440.4375 297.429688 443.015625 298.085938 446.167969 Z M 298.085938 446.167969 " fill-opacity="1" fill-rule="nonzero"/><path fill="#1a4447" d="M 315.902344 465.445312 C 305.671875 476 292.601562 480.582031 279.332031 477.597656 C 258.617188 472.929688 244.550781 452.300781 243.503906 425.042969 C 243.347656 420.972656 239.980469 417.902344 235.84375 417.953125 C 231.769531 418.109375 228.59375 421.539062 228.753906 425.609375 C 230.070312 459.757812 248.648438 485.8125 276.089844 491.996094 C 279.949219 492.863281 283.792969 493.289062 287.578125 493.289062 C 306.21875 493.289062 323.503906 482.945312 335.320312 464.542969 C 328.984375 466.082031 322.527344 466.359375 315.902344 465.445312 Z M 315.902344 465.445312 " fill-opacity="1" fill-rule="nonzero"/></svg>