<svg xmlns="http://www.w3.org/2000/svg" xmlns:xlink="http://www.w3.org/1999/xlink" width="1000" zoomAndPan="magnify" viewBox="0 0 750 749.999995" height="1000" preserveAspectRatio="xMidYMid meet" version="1.0"><path fill="#b2d7d8" d="M 114.976562 356.375 C 107.15625 356.375 95.15625 353.109375 87.082031 343.910156 C 80.515625 336.417969 74.640625 322.589844 83.957031 299.25 C 87.542969 290.273438 93.929688 283.03125 101.941406 278.851562 C 106.59375 276.429688 111.441406 275.203125 116.347656 275.203125 C 119.914062 275.203125 123.382812 275.859375 126.660156 277.164062 C 135.347656 280.632812 141.152344 286.851562 142.59375 294.234375 C 143.820312 300.40625 142.554688 310.378906 129.9375 323.136719 C 134.035156 327.574219 135.835938 334.808594 134.34375 341.445312 C 132.695312 348.691406 127.550781 353.90625 120.226562 355.78125 C 118.617188 356.179688 116.871094 356.375 114.976562 356.375 Z M 114.976562 356.375 " fill-opacity="1" fill-rule="nonzero"/><path fill="#b2d7d8" d="M 126.03125 705.605469 C 123.527344 705.605469 121.378906 705.0625 119.421875 704.476562 L 69.265625 689.390625 C 64.824219 687.910156 59.375 684.9375 56.9375 678.652344 C 54.457031 672.433594 55.53125 664.328125 60.007812 655.925781 C 62.480469 651.265625 69.648438 640.03125 82.660156 636.386719 C 85.292969 635.648438 88.039062 635.277344 90.824219 635.277344 C 97.242188 635.277344 103.964844 637.238281 110.808594 641.101562 L 163.871094 588.382812 L 169.144531 589.347656 C 184.277344 592.105469 199.925781 594.816406 215.660156 597.394531 L 234.863281 600.542969 L 149.792969 689.6875 L 148.453125 691.050781 C 139.191406 700.445312 134.09375 705.605469 126.03125 705.605469 Z M 126.03125 705.605469 " fill-opacity="1" fill-rule="nonzero"/><path fill="#b2d7d8" d="M 307.5625 743.15625 C 303.269531 743.15625 297.238281 742.09375 292.890625 737.03125 C 288.441406 731.765625 286.898438 723.738281 288.476562 714.359375 C 289.351562 709.148438 292.59375 696.207031 303.746094 688.632812 C 309.058594 685.039062 315.378906 683.214844 322.554688 683.214844 C 325.523438 683.214844 328.671875 683.535156 331.9375 684.164062 L 365.21875 617.9375 L 372.296875 618.695312 C 386.300781 620.199219 400.152344 621.570312 413.746094 622.785156 L 428.371094 624.097656 L 384.335938 717.855469 L 383.476562 719.605469 C 376.464844 733.914062 372.941406 741.105469 360.238281 741.527344 L 307.726562 743.15625 Z M 307.5625 743.15625 " fill-opacity="1" fill-rule="nonzero"/><path fill="#b2d7d8" d="M 535.675781 632.539062 C 398.976562 632.539062 166.222656 597.933594 49.4375 567 L 41.585938 564.917969 L 41.800781 556.800781 C 43.054688 509 63.074219 460.5 82.441406 413.601562 C 90.007812 395.3125 97.289062 377.472656 103.554688 359.726562 L 106.085938 352.558594 C 106.085938 352.558594 114.828125 352.949219 114.917969 352.949219 C 116.664062 352.949219 118.148438 352.777344 119.367188 352.464844 C 125.519531 350.890625 129.640625 346.71875 131 340.699219 C 131.929688 336.5625 131.394531 332.117188 129.523438 328.5 L 126.347656 322.363281 L 130.832031 317.109375 C 137.628906 309.144531 140.53125 301.464844 139.234375 294.898438 C 138.007812 288.667969 132.972656 283.375 125.414062 280.359375 L 124.355469 280.019531 L 118.882812 278.113281 L 117.683594 272.445312 C 114.125 255.613281 105.785156 238.789062 98.425781 223.945312 C 85.527344 197.914062 72.191406 170.996094 78.347656 141.378906 C 80.574219 130.695312 82.625 117.738281 84.804688 104.011719 C 95.660156 35.5 102.480469 14.632812 115.1875 11.003906 L 116.449219 10.644531 L 117.757812 10.609375 C 134.949219 10.191406 152.722656 9.980469 170.582031 9.980469 C 253.863281 9.980469 463.320312 15.050781 609.207031 62.050781 L 616.054688 64.25 L 616.320312 71.441406 C 623.035156 251.195312 589.21875 437.015625 556.515625 616.71875 L 553.660156 632.371094 L 545.203125 632.476562 C 542.089844 632.515625 538.902344 632.539062 535.675781 632.539062 Z M 535.675781 632.539062 " fill-opacity="1" fill-rule="nonzero"/><path fill="#b2d7d8" d="M 665.59375 381.761719 C 656.59375 381.761719 646.914062 378.429688 642.039062 373.660156 C 636.640625 368.359375 634.804688 361.269531 637 354.203125 C 639.039062 347.683594 644.222656 342.328125 649.988281 340.546875 C 645.464844 323.1875 649.363281 313.925781 653.527344 309.183594 C 657.609375 304.523438 663.648438 302.054688 670.992188 302.054688 C 672.953125 302.054688 674.667969 302.238281 675.855469 302.417969 C 693.015625 304.925781 704.636719 323.097656 701.75 342.929688 C 698.105469 367.800781 686.105469 376.820312 676.679688 380.007812 C 673.199219 381.175781 669.476562 381.761719 665.59375 381.761719 Z M 665.59375 381.761719 " fill-opacity="1" fill-rule="nonzero"/><path fill="#79afae" d="M 553.144531 616.117188 C 585.367188 439.078125 618.683594 256.019531 613.085938 78.511719 L 612.566406 62.128906 L 627.53125 68.808594 C 637.976562 73.476562 689.855469 97.96875 685.617188 122.308594 C 677.070312 171.289062 690.625 198.957031 700.519531 219.160156 C 707.632812 233.699219 713.25 245.175781 706.746094 257.8125 C 702.691406 265.710938 696.910156 280.222656 690.035156 299.769531 L 686.902344 308.652344 L 677.789062 306.308594 C 676.996094 306.105469 676.195312 305.921875 675.363281 305.804688 C 673.871094 305.585938 672.402344 305.476562 670.992188 305.476562 C 664.757812 305.476562 659.46875 307.59375 656.105469 311.441406 C 651.683594 316.484375 650.351562 324.585938 652.238281 334.875 L 653.488281 341.667969 L 647.664062 345.386719 C 644.234375 347.582031 641.542969 351.160156 640.273438 355.21875 C 638.445312 361.058594 639.78125 366.484375 644.148438 370.929688 L 644.445312 371.21875 C 646.71875 373.441406 650.535156 375.46875 654.925781 376.773438 L 664.578125 379.648438 L 661.886719 389.363281 C 655.234375 413.382812 654.265625 420.355469 654.128906 421.921875 C 652.4375 441.121094 659.375 462.875 666.082031 483.914062 C 674.714844 510.933594 682.851562 536.429688 670.484375 552.140625 C 646.589844 582.507812 591.917969 619.191406 566.71875 629.105469 L 556.339844 633.191406 C 553.390625 634.351562 550.308594 631.824219 550.871094 628.703125 Z M 553.144531 616.117188 " fill-opacity="1" fill-rule="nonzero"/><path fill="#79afae" d="M 551.855469 272.292969 C 544.363281 271.429688 536.882812 270.648438 529.410156 269.871094 L 528.429688 269.769531 C 517.871094 268.660156 507.050781 267.527344 496.328125 266.152344 L 486.695312 264.921875 L 487.390625 255.226562 C 488.214844 243.648438 489.417969 234.492188 492.136719 218.925781 L 493.710938 209.964844 L 502.789062 210.4375 C 521.558594 211.421875 539.359375 213.652344 558.804688 217.453125 L 568 219.253906 L 567.050781 228.578125 C 566.417969 234.730469 565.757812 240.539062 565.09375 246.34375 C 564.453125 251.921875 563.828125 257.378906 563.25 263.125 L 562.203125 273.484375 Z M 551.855469 272.292969 " fill-opacity="1" fill-rule="nonzero"/><path fill="#d1f2f0" d="M 466.628906 567.09375 C 351.136719 564.167969 249.3125 556.199219 127.785156 526.800781 L 118.9375 524.660156 L 119.996094 515.621094 C 125.316406 470.160156 139.78125 442.082031 155.097656 412.359375 C 170.054688 383.316406 185.496094 353.339844 190.324219 305.996094 C 193.085938 278.992188 181.535156 236.863281 169.308594 192.273438 C 157.453125 148.992188 145.183594 104.238281 147.746094 75.714844 L 148.53125 66.953125 L 157.3125 66.386719 C 182.902344 64.726562 208.925781 63.890625 234.648438 63.890625 C 341.574219 63.890625 445.394531 78.144531 534.878906 105.113281 L 542.21875 107.328125 L 542.183594 114.988281 C 542.085938 140.59375 540.394531 171.40625 537.160156 206.578125 L 536.203125 217.03125 L 525.777344 215.84375 C 515.664062 214.695312 506.09375 213.953125 496.566406 213.585938 C 492.796875 234.558594 491.375 244.59375 490.390625 261.917969 C 500.433594 263.292969 510.664062 264.425781 520.25 265.4375 L 530.679688 266.542969 L 529.355469 276.953125 C 523.695312 321.410156 516.273438 369.847656 507.90625 417.019531 L 506.21875 426.519531 L 496.628906 425.429688 C 486.398438 424.261719 476.75 423.515625 467.183594 423.148438 C 463.414062 444.09375 461.992188 454.125 461.007812 471.480469 C 469.6875 472.667969 478.316406 473.640625 485.679688 474.445312 L 496.90625 475.664062 L 494.628906 486.726562 C 490.238281 508.039062 482.042969 545.964844 476.476562 560.496094 L 473.882812 567.277344 Z M 466.628906 567.09375 " fill-opacity="1" fill-rule="nonzero"/><path fill="#79afae" d="M 522.460938 481.855469 C 515.433594 481.050781 508.410156 480.308594 501.390625 479.570312 L 499.953125 479.421875 C 488.8125 478.257812 477.824219 477.109375 466.949219 475.714844 L 457.3125 474.488281 L 458.003906 464.796875 C 458.832031 453.1875 460.035156 444.027344 462.753906 428.488281 L 464.328125 419.527344 L 473.40625 420 C 492.171875 420.988281 509.960938 423.210938 529.40625 427.011719 L 538.589844 428.804688 L 537.65625 438.117188 C 537.035156 444.277344 536.375 450.085938 535.714844 455.886719 C 535.082031 461.402344 534.453125 466.910156 533.851562 472.707031 L 532.785156 483.050781 Z M 522.460938 481.855469 " fill-opacity="1" fill-rule="nonzero"/><path fill="#1a4447" d="M 253.027344 445.59375 C 247.34375 435.890625 246.769531 424.292969 251.449219 413.773438 C 260.128906 394.308594 284.101562 383.148438 317.222656 383.148438 L 324.351562 383.300781 C 351.347656 384.527344 371.371094 392.375 382.480469 406 L 387.691406 414.15625 C 391.226562 420.253906 391.171875 432.765625 391.171875 432.765625 L 371.257812 422.234375 C 363.074219 419.488281 354.082031 418.09375 344.539062 418.09375 C 337.921875 418.09375 330.96875 418.769531 323.871094 420.101562 L 315.363281 421.972656 C 296.449219 426.765625 280.855469 435.375 269.316406 447.488281 L 262.308594 454.84375 Z M 253.027344 445.59375 " fill-opacity="1" fill-rule="nonzero"/><path fill="#f4c3e9" d="M 354.703125 464.664062 C 348.613281 464.664062 342.238281 463.421875 335.765625 460.96875 C 330.03125 458.796875 323.992188 457.691406 317.816406 457.691406 C 312.4375 457.691406 307.140625 458.53125 302.070312 460.1875 C 296.230469 462.082031 290.519531 463.042969 285.078125 463.042969 C 280.359375 463.042969 275.867188 462.324219 271.730469 460.894531 L 264.417969 458.378906 C 260.671875 457.089844 259.550781 452.335938 262.324219 449.507812 L 267.742188 443.988281 C 279.421875 432.082031 295.179688 423.550781 314.570312 418.640625 L 323.175781 416.746094 C 330.972656 415.28125 338.234375 414.570312 345.070312 414.570312 C 360.394531 414.570312 374.09375 418.082031 385.792969 425.015625 L 391.882812 428.621094 L 390.6875 435.59375 C 389.464844 442.671875 386.210938 449.054688 381.269531 454.046875 C 374.40625 460.992188 365.21875 464.664062 354.703125 464.664062 Z M 354.703125 464.664062 " fill-opacity="1" fill-rule="nonzero"/><path fill="#f4c3e9" d="M 325.910156 293.160156 C 318.632812 293.160156 311.4375 292.289062 304.511719 290.578125 C 266.351562 281.167969 236.898438 244.425781 235.988281 205.121094 C 235.097656 165.8125 262.84375 127.757812 300.527344 116.613281 C 309.144531 114.058594 317.921875 112.773438 326.613281 112.773438 C 351.308594 112.773438 374.261719 123.105469 391.238281 141.875 C 415.09375 168.273438 421.550781 205.152344 408.089844 238.117188 C 398.476562 261.652344 378.347656 280.523438 354.246094 288.59375 C 345.21875 291.621094 335.679688 293.160156 325.910156 293.160156 Z M 325.910156 293.160156 " fill-opacity="1" fill-rule="nonzero"/><path fill="#1a4447" d="M 325.726562 231.820312 C 323.40625 231.820312 321.105469 231.546875 318.882812 231.007812 C 306.601562 227.980469 297.15625 216.199219 296.871094 203.585938 C 296.578125 190.984375 305.472656 178.78125 317.570312 175.207031 C 320.292969 174.398438 323.089844 173.992188 325.871094 173.992188 C 333.847656 173.992188 341.234375 177.304688 346.679688 183.316406 C 352.667969 189.949219 357.238281 201.53125 352.082031 214.160156 C 348.996094 221.71875 342.539062 227.769531 334.808594 230.367188 C 331.898438 231.335938 328.851562 231.820312 325.726562 231.820312 Z M 325.726562 231.820312 " fill-opacity="1" fill-rule="nonzero"/><path fill="#f4c3e9" d="M 245.101562 348.085938 C 245.101562 348.695312 245.070312 349.304688 245.011719 349.910156 C 244.949219 350.515625 244.859375 351.117188 244.742188 351.714844 C 244.625 352.3125 244.476562 352.902344 244.300781 353.484375 C 244.121094 354.066406 243.917969 354.640625 243.683594 355.203125 C 243.453125 355.765625 243.191406 356.316406 242.90625 356.851562 C 242.617188 357.390625 242.304688 357.910156 241.96875 358.417969 C 241.628906 358.921875 241.265625 359.410156 240.878906 359.882812 C 240.496094 360.351562 240.085938 360.804688 239.65625 361.234375 C 239.226562 361.664062 238.773438 362.074219 238.304688 362.460938 C 237.832031 362.847656 237.34375 363.207031 236.839844 363.546875 C 236.332031 363.886719 235.8125 364.199219 235.273438 364.484375 C 234.738281 364.773438 234.1875 365.03125 233.625 365.265625 C 233.0625 365.496094 232.492188 365.703125 231.910156 365.878906 C 231.328125 366.054688 230.738281 366.203125 230.140625 366.324219 C 229.542969 366.441406 228.941406 366.53125 228.335938 366.589844 C 227.730469 366.648438 227.121094 366.679688 226.515625 366.679688 C 225.90625 366.679688 225.296875 366.648438 224.691406 366.589844 C 224.085938 366.53125 223.484375 366.441406 222.886719 366.324219 C 222.289062 366.203125 221.699219 366.054688 221.117188 365.878906 C 220.535156 365.703125 219.964844 365.496094 219.402344 365.265625 C 218.839844 365.03125 218.289062 364.773438 217.753906 364.484375 C 217.214844 364.199219 216.695312 363.886719 216.1875 363.546875 C 215.683594 363.207031 215.195312 362.847656 214.722656 362.460938 C 214.253906 362.074219 213.800781 361.664062 213.371094 361.234375 C 212.941406 360.804688 212.53125 360.351562 212.148438 359.882812 C 211.761719 359.410156 211.398438 358.921875 211.058594 358.417969 C 210.722656 357.910156 210.410156 357.390625 210.121094 356.851562 C 209.835938 356.316406 209.574219 355.765625 209.34375 355.203125 C 209.109375 354.640625 208.90625 354.066406 208.726562 353.484375 C 208.550781 352.902344 208.402344 352.3125 208.285156 351.714844 C 208.167969 351.117188 208.078125 350.515625 208.015625 349.910156 C 207.957031 349.304688 207.929688 348.695312 207.929688 348.085938 C 207.929688 347.480469 207.957031 346.871094 208.015625 346.265625 C 208.078125 345.660156 208.167969 345.058594 208.285156 344.460938 C 208.402344 343.863281 208.550781 343.273438 208.726562 342.691406 C 208.90625 342.109375 209.109375 341.535156 209.34375 340.972656 C 209.574219 340.410156 209.835938 339.859375 210.121094 339.324219 C 210.410156 338.785156 210.722656 338.265625 211.058594 337.757812 C 211.398438 337.25 211.761719 336.761719 212.148438 336.292969 C 212.53125 335.820312 212.941406 335.371094 213.371094 334.941406 C 213.800781 334.511719 214.253906 334.101562 214.722656 333.714844 C 215.195312 333.328125 215.683594 332.964844 216.1875 332.628906 C 216.695312 332.289062 217.214844 331.976562 217.753906 331.691406 C 218.289062 331.402344 218.839844 331.144531 219.402344 330.910156 C 219.964844 330.675781 220.535156 330.472656 221.117188 330.296875 C 221.699219 330.117188 222.289062 329.972656 222.886719 329.851562 C 223.484375 329.734375 224.085938 329.644531 224.691406 329.585938 C 225.296875 329.523438 225.90625 329.496094 226.515625 329.496094 C 227.121094 329.496094 227.730469 329.523438 228.335938 329.585938 C 228.941406 329.644531 229.542969 329.734375 230.140625 329.851562 C 230.738281 329.972656 231.328125 330.117188 231.910156 330.296875 C 232.492188 330.472656 233.0625 330.675781 233.625 330.910156 C 234.1875 331.144531 234.738281 331.402344 235.273438 331.691406 C 235.8125 331.976562 236.332031 332.289062 236.839844 332.628906 C 237.34375 332.964844 237.832031 333.328125 238.304688 333.714844 C 238.773438 334.101562 239.226562 334.511719 239.65625 334.941406 C 240.085938 335.371094 240.496094 335.820312 240.878906 336.292969 C 241.265625 336.761719 241.628906 337.25 241.96875 337.757812 C 242.304688 338.265625 242.617188 338.785156 242.90625 339.324219 C 243.191406 339.859375 243.453125 340.410156 243.683594 340.972656 C 243.917969 341.535156 244.121094 342.109375 244.300781 342.691406 C 244.476562 343.273438 244.625 343.863281 244.742188 344.460938 C 244.859375 345.058594 244.949219 345.660156 245.011719 346.265625 C 245.070312 346.871094 245.101562 347.480469 245.101562 348.085938 Z M 245.101562 348.085938 " fill-opacity="1" fill-rule="nonzero"/><path fill="#f4c3e9" d="M 442.480469 354.730469 C 442.480469 355.339844 442.449219 355.949219 442.390625 356.554688 C 442.332031 357.160156 442.242188 357.761719 442.121094 358.359375 C 442.003906 358.957031 441.855469 359.546875 441.679688 360.128906 C 441.503906 360.710938 441.296875 361.285156 441.066406 361.847656 C 440.832031 362.410156 440.570312 362.957031 440.285156 363.496094 C 439.996094 364.03125 439.683594 364.554688 439.347656 365.0625 C 439.007812 365.566406 438.648438 366.054688 438.261719 366.527344 C 437.875 366.996094 437.464844 367.449219 437.035156 367.878906 C 436.605469 368.308594 436.15625 368.71875 435.683594 369.105469 C 435.214844 369.488281 434.726562 369.851562 434.21875 370.191406 C 433.714844 370.527344 433.191406 370.839844 432.65625 371.128906 C 432.117188 371.414062 431.570312 371.675781 431.007812 371.910156 C 430.445312 372.140625 429.871094 372.347656 429.289062 372.523438 C 428.707031 372.699219 428.117188 372.847656 427.519531 372.964844 C 426.921875 373.085938 426.320312 373.175781 425.714844 373.234375 C 425.109375 373.292969 424.503906 373.324219 423.894531 373.324219 C 423.285156 373.324219 422.679688 373.292969 422.070312 373.234375 C 421.464844 373.175781 420.863281 373.085938 420.269531 372.964844 C 419.671875 372.847656 419.082031 372.699219 418.5 372.523438 C 417.914062 372.347656 417.34375 372.140625 416.78125 371.910156 C 416.21875 371.675781 415.667969 371.414062 415.132812 371.128906 C 414.59375 370.839844 414.074219 370.527344 413.566406 370.191406 C 413.0625 369.851562 412.574219 369.488281 412.101562 369.105469 C 411.632812 368.71875 411.183594 368.308594 410.75 367.878906 C 410.320312 367.449219 409.914062 366.996094 409.527344 366.527344 C 409.140625 366.054688 408.777344 365.566406 408.441406 365.0625 C 408.101562 364.554688 407.789062 364.03125 407.503906 363.496094 C 407.214844 362.957031 406.957031 362.410156 406.722656 361.847656 C 406.488281 361.285156 406.285156 360.710938 406.109375 360.128906 C 405.929688 359.546875 405.785156 358.957031 405.664062 358.359375 C 405.546875 357.761719 405.457031 357.160156 405.398438 356.554688 C 405.335938 355.949219 405.308594 355.339844 405.308594 354.730469 C 405.308594 354.121094 405.335938 353.515625 405.398438 352.910156 C 405.457031 352.304688 405.546875 351.703125 405.664062 351.105469 C 405.785156 350.507812 405.929688 349.917969 406.109375 349.335938 C 406.285156 348.75 406.488281 348.179688 406.722656 347.617188 C 406.957031 347.054688 407.214844 346.503906 407.503906 345.96875 C 407.789062 345.429688 408.101562 344.910156 408.441406 344.402344 C 408.777344 343.894531 409.140625 343.40625 409.527344 342.9375 C 409.914062 342.464844 410.320312 342.015625 410.75 341.585938 C 411.183594 341.152344 411.632812 340.746094 412.101562 340.359375 C 412.574219 339.972656 413.0625 339.609375 413.566406 339.273438 C 414.074219 338.933594 414.59375 338.621094 415.132812 338.335938 C 415.667969 338.046875 416.21875 337.789062 416.78125 337.554688 C 417.34375 337.320312 417.914062 337.117188 418.5 336.941406 C 419.082031 336.761719 419.671875 336.617188 420.269531 336.496094 C 420.863281 336.378906 421.464844 336.289062 422.070312 336.230469 C 422.679688 336.167969 423.285156 336.140625 423.894531 336.140625 C 424.503906 336.140625 425.109375 336.167969 425.714844 336.230469 C 426.320312 336.289062 426.921875 336.378906 427.519531 336.496094 C 428.117188 336.617188 428.707031 336.761719 429.289062 336.941406 C 429.871094 337.117188 430.445312 337.320312 431.007812 337.554688 C 431.570312 337.789062 432.117188 338.046875 432.65625 338.335938 C 433.191406 338.621094 433.714844 338.933594 434.21875 339.273438 C 434.726562 339.609375 435.214844 339.972656 435.683594 340.359375 C 436.15625 340.746094 436.605469 341.152344 437.035156 341.585938 C 437.464844 342.015625 437.875 342.464844 438.261719 342.9375 C 438.648438 343.40625 439.007812 343.894531 439.347656 344.402344 C 439.683594 344.910156 439.996094 345.429688 440.285156 345.96875 C 440.570312 346.503906 440.832031 347.054688 441.066406 347.617188 C 441.296875 348.179688 441.503906 348.75 441.679688 349.335938 C 441.855469 349.917969 442.003906 350.507812 442.121094 351.105469 C 442.242188 351.703125 442.332031 352.304688 442.390625 352.910156 C 442.449219 353.515625 442.480469 354.121094 442.480469 354.730469 Z M 442.480469 354.730469 " fill-opacity="1" fill-rule="nonzero"/><path fill="#1a4447" d="M 421.292969 623.285156 C 420.058594 623.136719 418.832031 623.007812 417.597656 622.867188 L 375.046875 713.484375 L 374.265625 715.074219 C 367.015625 729.851562 365.941406 731.0625 359.902344 731.261719 L 307.566406 732.882812 C 302.84375 732.882812 301.210938 730.957031 300.667969 730.320312 C 298.339844 727.5625 297.566406 722.230469 298.601562 716.058594 C 299.113281 713.003906 301.414062 702.632812 309.515625 697.132812 C 314.949219 693.449219 322.183594 692.550781 331.078125 694.46875 C 334.886719 695.316406 338.78125 693.425781 340.527344 689.949219 L 376.503906 618.355469 C 370.625 617.535156 364.765625 616.527344 358.910156 615.25 L 328.050781 676.65625 C 317.226562 675.519531 307.800781 677.621094 299.917969 682.964844 C 286.5625 692.015625 282.746094 707.136719 281.722656 713.222656 C 279.808594 724.628906 281.898438 734.628906 287.605469 741.378906 C 290.9375 745.3125 297.09375 750 307.816406 750 L 307.828125 750 L 360.441406 748.371094 C 377.269531 747.828125 382.453125 737.25 389.628906 722.613281 L 435.570312 624.847656 C 430.707031 624.503906 425.855469 623.847656 421.292969 623.285156 Z M 421.292969 623.285156 " fill-opacity="1" fill-rule="nonzero"/><path fill="#1a4447" d="M 222.671875 598.449219 L 142.367188 682.59375 L 141.125 683.851562 C 129.558594 695.570312 128.15625 696.367188 122.367188 694.636719 L 72.226562 679.554688 C 67.746094 678.054688 66.8125 675.710938 66.503906 674.933594 C 65.167969 671.578125 66.125 666.28125 69.074219 660.75 C 70.523438 658.027344 76 648.917969 85.425781 646.277344 C 91.75 644.511719 98.90625 645.960938 106.71875 650.601562 C 110.054688 652.582031 114.34375 652.0625 117.113281 649.316406 L 175.429688 591.378906 C 169.554688 589.550781 163.550781 586.664062 157.628906 584.9375 L 109.503906 632.746094 C 99.609375 628.21875 89.988281 627.222656 80.816406 629.792969 C 65.277344 634.140625 56.859375 647.265625 53.964844 652.703125 C 48.527344 662.914062 47.335938 673.0625 50.605469 681.269531 C 52.515625 686.0625 56.871094 692.46875 67.050781 695.875 L 117.453125 711.039062 C 120.640625 711.992188 123.515625 712.425781 126.171875 712.425781 C 136.976562 712.425781 144.117188 705.1875 153.304688 695.878906 L 241.847656 603.152344 C 242.097656 602.894531 242.191406 602.558594 242.398438 602.277344 C 235.828125 601 229.277344 599.597656 222.671875 598.449219 Z M 222.671875 598.449219 " fill-opacity="1" fill-rule="nonzero"/><path fill="#1a4447" d="M 354.660156 471.472656 C 347.8125 471.472656 340.609375 470.125 333.339844 467.367188 C 324.03125 463.84375 313.683594 463.609375 304.183594 466.699219 C 283.648438 473.40625 264.15625 469.332031 252.027344 455.863281 C 241.128906 443.765625 238.449219 426.148438 245.203125 410.988281 C 249.847656 400.554688 266.183594 376.300781 317.40625 376.300781 L 317.515625 376.300781 L 324.710938 376.460938 C 375.917969 378.796875 391.035156 403.640625 395.164062 414.214844 C 401.207031 429.6875 397.664062 447.214844 386.136719 458.867188 C 377.914062 467.183594 366.855469 471.472656 354.660156 471.472656 Z M 317.8125 447.417969 C 325.148438 447.417969 332.480469 448.734375 339.398438 451.359375 C 353.316406 456.625 365.914062 454.972656 373.96875 446.824219 C 380.746094 439.972656 382.804688 429.617188 379.222656 420.445312 C 373.066406 404.683594 352.984375 394.886719 324.125 393.570312 L 317.316406 393.421875 L 317.226562 393.421875 C 288.402344 393.421875 267.78125 402.359375 260.835938 417.953125 C 256.769531 427.082031 258.265625 437.214844 264.742188 444.40625 C 272.328125 452.824219 284.761719 455.011719 298.878906 450.425781 C 305.019531 448.417969 311.417969 447.421875 317.8125 447.421875 Z M 317.8125 447.417969 " fill-opacity="1" fill-rule="nonzero"/><path fill="#1a4447" d="M 321.980469 410 L 313.160156 411.941406 C 288.101562 418.285156 268.515625 430.652344 255.648438 447.632812 C 258.398438 449.621094 261.15625 451.675781 264.03125 453.855469 C 265.804688 455.199219 267.574219 456.476562 269.328125 457.738281 C 278.257812 445.902344 292.921875 434.722656 317.09375 428.597656 L 325.382812 426.777344 C 355.019531 421.234375 374.316406 428.394531 386.605469 437.886719 C 387.765625 431.957031 389.425781 426.179688 391.832031 420.636719 C 373.207031 408.699219 349.160156 404.910156 321.980469 410 Z M 321.980469 410 " fill-opacity="1" fill-rule="nonzero"/><path fill="#1a4447" d="M 280.074219 353.46875 C 279.945312 353.46875 279.808594 353.460938 279.675781 353.457031 C 274.957031 353.242188 271.304688 349.238281 271.519531 344.515625 C 271.9375 335.332031 266.15625 327.578125 258.628906 327.234375 C 250.992188 327.023438 244.632812 334.082031 244.203125 343.273438 C 243.988281 347.992188 240.039062 351.71875 235.261719 351.425781 C 230.542969 351.210938 226.894531 347.207031 227.113281 342.480469 C 227.960938 323.867188 242.234375 309.15625 259.410156 310.136719 C 276.363281 310.910156 289.464844 326.6875 288.613281 345.296875 C 288.40625 349.890625 284.617188 353.46875 280.074219 353.46875 Z M 280.074219 353.46875 " fill-opacity="1" fill-rule="nonzero"/><path fill="#1a4447" d="M 415.3125 354.730469 C 415.1875 354.730469 415.050781 354.726562 414.917969 354.722656 C 410.199219 354.507812 406.542969 350.503906 406.761719 345.78125 C 407.179688 336.597656 401.390625 328.84375 393.863281 328.5 C 390.316406 328.359375 387.046875 329.785156 384.371094 332.5625 C 381.40625 335.632812 379.65625 339.886719 379.445312 344.53125 C 379.234375 349.257812 375.414062 352.988281 370.511719 352.691406 C 365.792969 352.480469 362.136719 348.472656 362.355469 343.753906 C 362.753906 334.9375 366.203125 326.738281 372.058594 320.667969 C 378.203125 314.304688 386.230469 310.945312 394.644531 311.402344 C 411.605469 312.175781 424.707031 327.953125 423.855469 346.5625 C 423.648438 351.152344 419.859375 354.730469 415.3125 354.730469 Z M 415.3125 354.730469 " fill-opacity="1" fill-rule="nonzero"/><path fill="#1a4447" d="M 114.808594 363.238281 C 104.105469 363.238281 90.695312 358.410156 81.9375 348.421875 C 74.105469 339.496094 66.996094 323.269531 77.601562 296.703125 C 81.792969 286.214844 89.308594 277.714844 98.773438 272.785156 C 108.671875 267.621094 119.476562 266.925781 129.21875 270.816406 C 140.078125 275.152344 147.40625 283.207031 149.308594 292.902344 C 150.707031 299.988281 149.746094 310.769531 138.648438 323.777344 C 141.554688 329.402344 142.511719 336.335938 141.019531 342.960938 C 138.800781 352.785156 131.839844 359.882812 121.917969 362.410156 C 119.765625 362.964844 117.363281 363.238281 114.808594 363.238281 Z M 116.351562 285.472656 C 113.152344 285.472656 109.859375 286.308594 106.683594 287.964844 C 100.851562 291.007812 96.167969 296.363281 93.492188 303.058594 C 87.5625 317.914062 88 329.378906 94.800781 337.132812 C 101.632812 344.917969 113.296875 346.917969 117.683594 345.824219 C 121.304688 344.902344 123.539062 342.667969 124.324219 339.1875 C 125.214844 335.226562 123.84375 331.273438 122.003906 329.742188 C 120.132812 328.1875 119.015625 325.90625 118.925781 323.476562 C 118.835938 321.046875 119.78125 318.695312 121.527344 317.007812 C 129.699219 309.105469 133.605469 301.714844 132.519531 296.207031 C 131.433594 290.683594 125.410156 287.726562 122.867188 286.710938 C 120.796875 285.886719 118.597656 285.472656 116.351562 285.472656 Z M 116.351562 285.472656 " fill-opacity="1" fill-rule="nonzero"/><path fill="#1a4447" d="M 85.816406 415.035156 C 65.992188 411.261719 51.84375 397.921875 48.648438 383.890625 C 44.335938 364.921875 58.703125 347.558594 87.308594 336.441406 C 83.46875 331.9375 82.164062 325.515625 83.316406 319.65625 C 38.089844 336.433594 26.886719 365.390625 31.964844 387.691406 C 36.347656 406.964844 53.640625 424.882812 78.308594 431.007812 C 80.003906 425.351562 82.492188 420.113281 85.816406 415.035156 Z M 85.816406 415.035156 " fill-opacity="1" fill-rule="nonzero"/><path fill="#1a4447" d="M 665.457031 388.628906 C 654.023438 388.628906 643.160156 384.335938 637.253906 378.558594 C 637.253906 378.558594 637.25 378.558594 637.25 378.550781 C 629.941406 371.390625 627.464844 361.765625 630.46875 352.144531 C 632.496094 345.664062 636.796875 340.140625 642.136719 336.730469 C 639.050781 319.917969 643.621094 310.101562 648.375 304.671875 C 654.886719 297.238281 665.25 293.957031 676.828125 295.632812 C 697.746094 298.695312 711.960938 320.355469 708.523438 343.921875 C 704.386719 372.226562 690.113281 382.691406 678.859375 386.492188 C 674.480469 387.976562 669.925781 388.628906 665.457031 388.628906 Z M 649.226562 366.320312 C 652.429688 369.460938 663.566406 373.570312 673.390625 370.277344 C 683.152344 366.976562 689.273438 357.277344 691.585938 341.445312 C 693.664062 327.21875 685.929688 314.269531 674.355469 312.578125 C 671.644531 312.175781 664.957031 311.71875 661.25 315.953125 C 657.550781 320.171875 657.226562 328.519531 660.335938 339.457031 C 661.003906 341.792969 660.644531 344.304688 659.351562 346.359375 C 658.050781 348.417969 655.945312 349.828125 653.550781 350.234375 C 651.1875 350.636719 648.019531 353.371094 646.804688 357.25 C 645.746094 360.65625 646.558594 363.703125 649.226562 366.320312 Z M 649.226562 366.320312 " fill-opacity="1" fill-rule="nonzero"/><path fill="#1a4447" d="M 692.632812 361.570312 C 691.539062 367.558594 687.820312 372.910156 681.550781 375.128906 C 699.5625 398.445312 702.820312 419.960938 689.890625 433.878906 C 681.292969 443.121094 665.671875 447.636719 649.105469 444.109375 C 652.140625 449.878906 654.414062 456.070312 655.855469 462.410156 C 657.285156 462.5 658.714844 462.589844 660.125 462.589844 C 677.21875 462.589844 692.609375 456.09375 702.425781 445.53125 C 717.902344 428.878906 722.777344 398.46875 692.632812 361.570312 Z M 692.632812 361.570312 " fill-opacity="1" fill-rule="nonzero"/><path fill="#1a4447" d="M 325.902344 299.996094 C 318.128906 299.996094 310.363281 299.078125 302.871094 297.226562 C 261.808594 287.101562 230.113281 247.570312 229.144531 205.277344 C 228.183594 162.984375 258.03125 122.039062 298.578125 110.039062 C 334.703125 99.363281 371.234375 109.539062 396.308594 137.28125 C 421.953125 165.648438 428.898438 205.28125 414.429688 240.710938 C 404.070312 266.0625 382.386719 286.394531 356.425781 295.09375 C 346.6875 298.355469 336.292969 299.996094 325.902344 299.996094 Z M 303.4375 126.460938 C 270.042969 136.339844 245.464844 170.058594 246.261719 204.886719 C 247.058594 239.710938 273.152344 272.265625 306.96875 280.609375 C 321.367188 284.164062 337.015625 283.539062 350.988281 278.851562 C 372.292969 271.71875 390.085938 255.039062 398.582031 234.234375 C 410.546875 204.953125 404.804688 172.203125 383.621094 148.769531 C 363.054688 126.023438 333.09375 117.691406 303.4375 126.460938 Z M 303.4375 126.460938 " fill-opacity="1" fill-rule="nonzero"/><path fill="#1a4447" d="M 325.746094 238.6875 C 322.886719 238.6875 320.023438 238.339844 317.203125 237.644531 C 302.074219 233.917969 290.382812 219.347656 290.023438 203.75 C 289.671875 188.15625 300.679688 173.0625 315.628906 168.644531 C 328.769531 164.742188 342.613281 168.613281 351.75 178.726562 C 361.183594 189.152344 363.734375 203.726562 358.414062 216.75 C 354.59375 226.125 346.574219 233.636719 336.976562 236.859375 C 333.339844 238.074219 329.550781 238.6875 325.746094 238.6875 Z M 325.867188 184.265625 C 324.089844 184.265625 322.285156 184.527344 320.480469 185.0625 L 320.476562 185.0625 C 312.816406 187.324219 306.953125 195.367188 307.136719 203.359375 C 307.320312 211.351562 313.542969 219.113281 321.300781 221.027344 C 324.660156 221.839844 328.300781 221.707031 331.539062 220.625 C 336.410156 218.992188 340.632812 215.027344 342.570312 210.28125 C 345.929688 202.058594 342.960938 194.523438 339.0625 190.210938 C 335.550781 186.332031 330.855469 184.265625 325.867188 184.265625 Z M 325.867188 184.265625 " fill-opacity="1" fill-rule="nonzero"/><path fill="#1a4447" d="M 343.171875 147.074219 C 343.167969 147.597656 343.117188 148.113281 343.015625 148.625 C 342.914062 149.136719 342.765625 149.632812 342.566406 150.113281 C 342.367188 150.597656 342.121094 151.054688 341.832031 151.488281 C 341.542969 151.921875 341.214844 152.320312 340.84375 152.691406 C 340.476562 153.058594 340.074219 153.386719 339.640625 153.675781 C 339.207031 153.96875 338.75 154.210938 338.269531 154.410156 C 337.789062 154.609375 337.292969 154.761719 336.78125 154.863281 C 336.269531 154.964844 335.753906 155.015625 335.230469 155.015625 C 334.710938 155.015625 334.195312 154.964844 333.683594 154.863281 C 333.171875 154.761719 332.675781 154.609375 332.195312 154.410156 C 331.710938 154.210938 331.253906 153.96875 330.820312 153.675781 C 330.386719 153.386719 329.988281 153.058594 329.621094 152.691406 C 329.25 152.320312 328.921875 151.921875 328.632812 151.488281 C 328.34375 151.054688 328.097656 150.597656 327.898438 150.113281 C 327.699219 149.632812 327.546875 149.136719 327.445312 148.625 C 327.34375 148.113281 327.292969 147.597656 327.292969 147.074219 C 327.292969 146.554688 327.34375 146.039062 327.445312 145.527344 C 327.546875 145.015625 327.699219 144.519531 327.898438 144.035156 C 328.097656 143.554688 328.34375 143.097656 328.632812 142.664062 C 328.921875 142.230469 329.25 141.828125 329.617188 141.460938 C 329.988281 141.089844 330.386719 140.761719 330.820312 140.472656 C 331.253906 140.183594 331.710938 139.9375 332.195312 139.738281 C 332.675781 139.539062 333.171875 139.390625 333.683594 139.289062 C 334.195312 139.183594 334.710938 139.132812 335.230469 139.132812 C 335.753906 139.132812 336.269531 139.183594 336.78125 139.289062 C 337.292969 139.390625 337.789062 139.539062 338.269531 139.738281 C 338.75 139.9375 339.207031 140.183594 339.640625 140.472656 C 340.074219 140.761719 340.476562 141.089844 340.84375 141.460938 C 341.214844 141.828125 341.542969 142.230469 341.832031 142.664062 C 342.121094 143.097656 342.367188 143.554688 342.566406 144.035156 C 342.765625 144.519531 342.914062 145.015625 343.015625 145.527344 C 343.117188 146.039062 343.167969 146.554688 343.171875 147.074219 Z M 343.171875 147.074219 " fill-opacity="1" fill-rule="nonzero"/><path fill="#1a4447" d="M 323.953125 258.625 C 323.953125 259.144531 323.902344 259.660156 323.800781 260.171875 C 323.699219 260.683594 323.550781 261.179688 323.351562 261.664062 C 323.148438 262.144531 322.90625 262.601562 322.617188 263.035156 C 322.328125 263.46875 321.996094 263.871094 321.628906 264.238281 C 321.261719 264.605469 320.859375 264.9375 320.425781 265.226562 C 319.992188 265.515625 319.535156 265.761719 319.054688 265.960938 C 318.570312 266.160156 318.074219 266.308594 317.566406 266.410156 C 317.054688 266.511719 316.539062 266.5625 316.015625 266.5625 C 315.496094 266.5625 314.980469 266.511719 314.46875 266.410156 C 313.957031 266.308594 313.460938 266.160156 312.976562 265.960938 C 312.496094 265.761719 312.039062 265.515625 311.605469 265.226562 C 311.171875 264.9375 310.773438 264.605469 310.402344 264.238281 C 310.035156 263.871094 309.707031 263.46875 309.414062 263.035156 C 309.125 262.601562 308.882812 262.144531 308.683594 261.664062 C 308.484375 261.179688 308.332031 260.683594 308.230469 260.171875 C 308.128906 259.660156 308.078125 259.144531 308.078125 258.625 C 308.078125 258.101562 308.128906 257.585938 308.230469 257.074219 C 308.332031 256.5625 308.484375 256.066406 308.683594 255.585938 C 308.882812 255.101562 309.125 254.644531 309.414062 254.210938 C 309.707031 253.777344 310.035156 253.378906 310.402344 253.007812 C 310.773438 252.640625 311.171875 252.3125 311.605469 252.019531 C 312.039062 251.730469 312.496094 251.488281 312.976562 251.289062 C 313.460938 251.089844 313.957031 250.9375 314.46875 250.835938 C 314.980469 250.734375 315.496094 250.683594 316.015625 250.683594 C 316.539062 250.683594 317.054688 250.734375 317.566406 250.835938 C 318.074219 250.9375 318.570312 251.089844 319.054688 251.289062 C 319.535156 251.488281 319.992188 251.730469 320.425781 252.019531 C 320.859375 252.3125 321.261719 252.640625 321.628906 253.007812 C 321.996094 253.378906 322.328125 253.777344 322.617188 254.210938 C 322.90625 254.644531 323.148438 255.101562 323.351562 255.585938 C 323.550781 256.066406 323.699219 256.5625 323.800781 257.074219 C 323.902344 257.585938 323.953125 258.101562 323.953125 258.625 Z M 323.953125 258.625 " fill-opacity="1" fill-rule="nonzero"/><path fill="#1a4447" d="M 389.316406 212.460938 C 389.316406 212.984375 389.265625 213.5 389.164062 214.011719 C 389.0625 214.523438 388.914062 215.019531 388.714844 215.5 C 388.511719 215.980469 388.269531 216.441406 387.980469 216.875 C 387.691406 217.308594 387.359375 217.707031 386.992188 218.078125 C 386.625 218.445312 386.222656 218.773438 385.789062 219.0625 C 385.355469 219.355469 384.898438 219.597656 384.417969 219.796875 C 383.933594 219.996094 383.4375 220.148438 382.929688 220.25 C 382.417969 220.351562 381.902344 220.402344 381.378906 220.402344 C 380.859375 220.402344 380.34375 220.351562 379.832031 220.25 C 379.320312 220.148438 378.824219 219.996094 378.339844 219.796875 C 377.859375 219.597656 377.402344 219.355469 376.96875 219.0625 C 376.535156 218.773438 376.136719 218.445312 375.765625 218.078125 C 375.398438 217.707031 375.070312 217.308594 374.777344 216.875 C 374.488281 216.441406 374.246094 215.980469 374.046875 215.5 C 373.847656 215.019531 373.695312 214.523438 373.59375 214.011719 C 373.492188 213.5 373.441406 212.984375 373.441406 212.460938 C 373.441406 211.941406 373.492188 211.425781 373.59375 210.914062 C 373.695312 210.402344 373.847656 209.90625 374.046875 209.421875 C 374.246094 208.941406 374.488281 208.484375 374.777344 208.050781 C 375.070312 207.617188 375.398438 207.214844 375.765625 206.847656 C 376.136719 206.476562 376.535156 206.148438 376.96875 205.859375 C 377.402344 205.570312 377.859375 205.324219 378.339844 205.125 C 378.824219 204.925781 379.320312 204.773438 379.832031 204.671875 C 380.34375 204.570312 380.859375 204.519531 381.378906 204.519531 C 381.902344 204.519531 382.417969 204.570312 382.929688 204.671875 C 383.4375 204.773438 383.933594 204.925781 384.417969 205.125 C 384.898438 205.324219 385.355469 205.570312 385.789062 205.859375 C 386.222656 206.148438 386.625 206.476562 386.992188 206.847656 C 387.359375 207.214844 387.691406 207.617188 387.980469 208.050781 C 388.269531 208.484375 388.511719 208.941406 388.714844 209.421875 C 388.914062 209.90625 389.0625 210.402344 389.164062 210.914062 C 389.265625 211.425781 389.316406 211.941406 389.316406 212.460938 Z M 389.316406 212.460938 " fill-opacity="1" fill-rule="nonzero"/><path fill="#1a4447" d="M 277.808594 193.238281 C 277.804688 193.761719 277.753906 194.277344 277.652344 194.789062 C 277.550781 195.300781 277.402344 195.796875 277.203125 196.277344 C 277.003906 196.757812 276.757812 197.21875 276.46875 197.652344 C 276.179688 198.085938 275.851562 198.484375 275.480469 198.855469 C 275.113281 199.222656 274.710938 199.550781 274.277344 199.839844 C 273.84375 200.132812 273.386719 200.375 272.90625 200.574219 C 272.425781 200.773438 271.929688 200.925781 271.417969 201.027344 C 270.90625 201.128906 270.390625 201.179688 269.867188 201.179688 C 269.347656 201.179688 268.832031 201.128906 268.320312 201.027344 C 267.808594 200.925781 267.3125 200.773438 266.832031 200.574219 C 266.347656 200.375 265.890625 200.132812 265.457031 199.839844 C 265.023438 199.550781 264.625 199.222656 264.257812 198.855469 C 263.886719 198.484375 263.558594 198.085938 263.269531 197.652344 C 262.980469 197.21875 262.734375 196.757812 262.535156 196.277344 C 262.335938 195.796875 262.183594 195.300781 262.082031 194.789062 C 261.980469 194.277344 261.929688 193.761719 261.929688 193.238281 C 261.929688 192.71875 261.980469 192.199219 262.082031 191.691406 C 262.183594 191.179688 262.335938 190.683594 262.535156 190.199219 C 262.734375 189.71875 262.980469 189.261719 263.269531 188.828125 C 263.558594 188.394531 263.886719 187.992188 264.257812 187.625 C 264.625 187.253906 265.023438 186.925781 265.457031 186.636719 C 265.890625 186.347656 266.347656 186.101562 266.832031 185.902344 C 267.3125 185.703125 267.808594 185.550781 268.320312 185.449219 C 268.832031 185.347656 269.347656 185.296875 269.867188 185.296875 C 270.390625 185.296875 270.90625 185.347656 271.417969 185.449219 C 271.929688 185.550781 272.425781 185.703125 272.90625 185.902344 C 273.386719 186.101562 273.84375 186.347656 274.277344 186.636719 C 274.710938 186.925781 275.113281 187.253906 275.480469 187.625 C 275.851562 187.992188 276.179688 188.394531 276.46875 188.828125 C 276.757812 189.261719 277.003906 189.71875 277.203125 190.199219 C 277.402344 190.683594 277.550781 191.179688 277.652344 191.691406 C 277.753906 192.199219 277.804688 192.71875 277.808594 193.238281 Z M 277.808594 193.238281 " fill-opacity="1" fill-rule="nonzero"/><path fill="#1a4447" d="M 379.78125 170.207031 C 379.78125 170.730469 379.730469 171.246094 379.628906 171.757812 C 379.527344 172.269531 379.375 172.765625 379.175781 173.246094 C 378.976562 173.730469 378.730469 174.1875 378.441406 174.621094 C 378.152344 175.054688 377.824219 175.453125 377.457031 175.824219 C 377.085938 176.191406 376.6875 176.519531 376.253906 176.8125 C 375.820312 177.101562 375.363281 177.34375 374.878906 177.542969 C 374.398438 177.746094 373.902344 177.894531 373.390625 177.996094 C 372.878906 178.097656 372.363281 178.148438 371.84375 178.148438 C 371.320312 178.148438 370.804688 178.097656 370.292969 177.996094 C 369.78125 177.894531 369.285156 177.746094 368.804688 177.542969 C 368.324219 177.34375 367.867188 177.101562 367.433594 176.8125 C 367 176.519531 366.597656 176.191406 366.230469 175.824219 C 365.859375 175.453125 365.53125 175.054688 365.242188 174.621094 C 364.953125 174.1875 364.707031 173.730469 364.507812 173.246094 C 364.308594 172.765625 364.160156 172.269531 364.058594 171.757812 C 363.957031 171.246094 363.90625 170.730469 363.90625 170.207031 C 363.90625 169.6875 363.957031 169.171875 364.058594 168.660156 C 364.160156 168.148438 364.308594 167.652344 364.507812 167.167969 C 364.707031 166.6875 364.953125 166.230469 365.242188 165.796875 C 365.53125 165.363281 365.859375 164.960938 366.230469 164.59375 C 366.597656 164.226562 367 163.894531 367.433594 163.605469 C 367.867188 163.316406 368.324219 163.070312 368.804688 162.871094 C 369.285156 162.671875 369.78125 162.523438 370.292969 162.421875 C 370.804688 162.320312 371.320312 162.269531 371.84375 162.269531 C 372.363281 162.269531 372.878906 162.320312 373.390625 162.421875 C 373.902344 162.523438 374.398438 162.671875 374.878906 162.871094 C 375.363281 163.070312 375.820312 163.316406 376.253906 163.605469 C 376.6875 163.894531 377.085938 164.226562 377.457031 164.59375 C 377.824219 164.960938 378.152344 165.363281 378.441406 165.796875 C 378.730469 166.230469 378.976562 166.6875 379.175781 167.167969 C 379.375 167.652344 379.527344 168.148438 379.628906 168.660156 C 379.730469 169.171875 379.78125 169.6875 379.78125 170.207031 Z M 379.78125 170.207031 " fill-opacity="1" fill-rule="nonzero"/><path fill="#1a4447" d="M 287.34375 235.492188 C 287.34375 236.011719 287.292969 236.53125 287.191406 237.042969 C 287.089844 237.550781 286.9375 238.050781 286.738281 238.53125 C 286.539062 239.011719 286.296875 239.46875 286.007812 239.902344 C 285.714844 240.335938 285.386719 240.738281 285.019531 241.105469 C 284.648438 241.476562 284.25 241.804688 283.816406 242.09375 C 283.382812 242.382812 282.925781 242.628906 282.445312 242.828125 C 281.960938 243.027344 281.464844 243.179688 280.953125 243.28125 C 280.441406 243.382812 279.925781 243.433594 279.40625 243.433594 C 278.882812 243.433594 278.367188 243.382812 277.855469 243.28125 C 277.347656 243.179688 276.851562 243.027344 276.367188 242.828125 C 275.886719 242.628906 275.429688 242.382812 274.996094 242.09375 C 274.5625 241.804688 274.160156 241.476562 273.792969 241.105469 C 273.425781 240.738281 273.09375 240.335938 272.804688 239.902344 C 272.515625 239.46875 272.273438 239.011719 272.070312 238.53125 C 271.871094 238.050781 271.722656 237.550781 271.621094 237.042969 C 271.519531 236.53125 271.46875 236.011719 271.46875 235.492188 C 271.46875 234.96875 271.519531 234.453125 271.621094 233.941406 C 271.722656 233.429688 271.871094 232.933594 272.070312 232.453125 C 272.273438 231.972656 272.515625 231.515625 272.804688 231.082031 C 273.09375 230.648438 273.425781 230.246094 273.792969 229.878906 C 274.160156 229.507812 274.5625 229.179688 274.996094 228.890625 C 275.429688 228.601562 275.886719 228.355469 276.367188 228.15625 C 276.851562 227.957031 277.347656 227.804688 277.855469 227.703125 C 278.367188 227.601562 278.882812 227.550781 279.40625 227.550781 C 279.925781 227.550781 280.441406 227.601562 280.953125 227.703125 C 281.464844 227.804688 281.960938 227.957031 282.445312 228.15625 C 282.925781 228.355469 283.382812 228.601562 283.816406 228.890625 C 284.25 229.179688 284.648438 229.507812 285.019531 229.878906 C 285.386719 230.246094 285.714844 230.648438 286.007812 231.082031 C 286.296875 231.515625 286.539062 231.972656 286.738281 232.453125 C 286.9375 232.933594 287.089844 233.429688 287.191406 233.941406 C 287.292969 234.453125 287.34375 234.96875 287.34375 235.492188 Z M 287.34375 235.492188 " fill-opacity="1" fill-rule="nonzero"/><path fill="#1a4447" d="M 300.933594 156.617188 C 300.933594 157.136719 300.882812 157.652344 300.777344 158.164062 C 300.675781 158.675781 300.527344 159.171875 300.328125 159.65625 C 300.128906 160.136719 299.882812 160.59375 299.59375 161.027344 C 299.304688 161.460938 298.976562 161.863281 298.605469 162.230469 C 298.238281 162.597656 297.835938 162.929688 297.402344 163.21875 C 296.96875 163.507812 296.511719 163.753906 296.03125 163.953125 C 295.550781 164.152344 295.054688 164.300781 294.542969 164.402344 C 294.03125 164.503906 293.515625 164.554688 292.992188 164.554688 C 292.472656 164.554688 291.957031 164.503906 291.445312 164.402344 C 290.933594 164.300781 290.4375 164.152344 289.957031 163.953125 C 289.476562 163.753906 289.015625 163.507812 288.582031 163.21875 C 288.152344 162.929688 287.75 162.597656 287.382812 162.230469 C 287.011719 161.863281 286.683594 161.460938 286.394531 161.027344 C 286.105469 160.59375 285.859375 160.136719 285.660156 159.65625 C 285.460938 159.171875 285.308594 158.675781 285.207031 158.164062 C 285.105469 157.652344 285.054688 157.136719 285.054688 156.617188 C 285.054688 156.09375 285.105469 155.578125 285.207031 155.066406 C 285.308594 154.554688 285.460938 154.058594 285.660156 153.578125 C 285.859375 153.09375 286.105469 152.636719 286.394531 152.203125 C 286.683594 151.769531 287.011719 151.371094 287.382812 151 C 287.75 150.632812 288.152344 150.304688 288.582031 150.011719 C 289.015625 149.722656 289.476562 149.480469 289.957031 149.28125 C 290.4375 149.078125 290.933594 148.929688 291.445312 148.828125 C 291.957031 148.726562 292.472656 148.675781 292.992188 148.675781 C 293.515625 148.675781 294.03125 148.726562 294.542969 148.828125 C 295.054688 148.929688 295.550781 149.078125 296.03125 149.28125 C 296.511719 149.480469 296.96875 149.722656 297.402344 150.011719 C 297.835938 150.304688 298.238281 150.632812 298.605469 151 C 298.976562 151.371094 299.304688 151.769531 299.59375 152.203125 C 299.882812 152.636719 300.128906 153.09375 300.328125 153.578125 C 300.527344 154.058594 300.675781 154.554688 300.777344 155.066406 C 300.882812 155.578125 300.933594 156.09375 300.933594 156.617188 Z M 300.933594 156.617188 " fill-opacity="1" fill-rule="nonzero"/><path fill="#1a4447" d="M 366.191406 249.085938 C 366.191406 249.605469 366.140625 250.121094 366.039062 250.632812 C 365.9375 251.144531 365.789062 251.640625 365.585938 252.125 C 365.386719 252.605469 365.144531 253.0625 364.855469 253.496094 C 364.566406 253.929688 364.234375 254.332031 363.867188 254.699219 C 363.5 255.070312 363.097656 255.398438 362.664062 255.6875 C 362.230469 255.976562 361.773438 256.222656 361.292969 256.421875 C 360.808594 256.621094 360.3125 256.769531 359.804688 256.871094 C 359.292969 256.976562 358.773438 257.027344 358.253906 257.027344 C 357.734375 257.027344 357.214844 256.976562 356.707031 256.871094 C 356.195312 256.769531 355.699219 256.621094 355.214844 256.421875 C 354.734375 256.222656 354.277344 255.976562 353.84375 255.6875 C 353.410156 255.398438 353.011719 255.070312 352.640625 254.699219 C 352.273438 254.332031 351.945312 253.929688 351.652344 253.496094 C 351.363281 253.0625 351.121094 252.605469 350.921875 252.125 C 350.722656 251.640625 350.570312 251.144531 350.46875 250.632812 C 350.367188 250.121094 350.316406 249.605469 350.316406 249.085938 C 350.316406 248.5625 350.367188 248.046875 350.46875 247.535156 C 350.570312 247.023438 350.722656 246.527344 350.921875 246.046875 C 351.121094 245.5625 351.363281 245.105469 351.652344 244.671875 C 351.945312 244.238281 352.273438 243.839844 352.640625 243.46875 C 353.011719 243.101562 353.410156 242.773438 353.84375 242.484375 C 354.277344 242.191406 354.734375 241.949219 355.214844 241.75 C 355.699219 241.550781 356.195312 241.398438 356.707031 241.296875 C 357.214844 241.195312 357.734375 241.144531 358.253906 241.144531 C 358.773438 241.144531 359.292969 241.195312 359.804688 241.296875 C 360.3125 241.398438 360.808594 241.550781 361.292969 241.75 C 361.773438 241.949219 362.230469 242.191406 362.664062 242.484375 C 363.097656 242.773438 363.5 243.101562 363.867188 243.46875 C 364.234375 243.839844 364.566406 244.238281 364.855469 244.671875 C 365.144531 245.105469 365.386719 245.5625 365.585938 246.046875 C 365.789062 246.527344 365.9375 247.023438 366.039062 247.535156 C 366.140625 248.046875 366.191406 248.5625 366.191406 249.085938 Z M 366.191406 249.085938 " fill-opacity="1" fill-rule="nonzero"/><path fill="#1a4447" d="M 660.949219 422.511719 C 661.414062 417.195312 665.917969 399.675781 672.265625 377.804688 C 666.695312 381.296875 659.90625 381.988281 654.070312 379.242188 C 648.382812 399.207031 644.417969 415.117188 643.902344 421.015625 C 642.03125 442.285156 649.292969 465.054688 656.3125 487.0625 C 664.074219 511.390625 671.40625 534.363281 662.414062 545.785156 C 636.457031 578.773438 569.625 621.660156 553.585938 622.074219 C 422 625.398438 175.003906 589.636719 52.070312 557.066406 C 53.269531 511.144531 72.921875 463.558594 91.960938 417.46875 C 100.847656 395.949219 109.4375 375.058594 116.265625 354.527344 C 115.65625 354.765625 115.066406 355.023438 114.410156 355.207031 C 109.398438 356.582031 103.511719 355.40625 98.929688 352.449219 C 92.449219 371.425781 84.414062 390.902344 76.144531 410.933594 C 55.558594 460.773438 34.269531 512.3125 34.910156 563.722656 C 34.960938 567.539062 37.527344 570.867188 41.210938 571.875 C 157.644531 603.75 396.902344 639.40625 535.8125 639.40625 C 542.085938 639.40625 548.175781 639.332031 554.019531 639.183594 C 577.804688 638.574219 649.546875 589.820312 675.863281 556.375 C 690.476562 537.8125 681.800781 510.632812 672.621094 481.855469 C 666.113281 461.457031 659.378906 440.363281 660.949219 422.511719 Z M 660.949219 422.511719 " fill-opacity="1" fill-rule="nonzero"/><path fill="#1a4447" d="M 706.667969 216.148438 C 696.65625 195.699219 684.203125 170.246094 692.355469 123.484375 C 698.554688 87.960938 619.734375 58.269531 618.925781 58.003906 C 483.691406 12.332031 271.28125 0.0273438 118.050781 3.765625 C 117.855469 3.761719 117.664062 3.753906 117.46875 3.753906 C 95.378906 3.753906 87.816406 41.328125 78.042969 102.941406 C 75.875 116.582031 73.832031 129.472656 71.648438 139.980469 C 65.011719 171.921875 78.878906 199.914062 92.289062 226.984375 C 101.039062 244.648438 109.421875 261.574219 111.980469 278.898438 C 118.003906 277.375 124.804688 278.53125 129.605469 282.453125 C 127.789062 260.089844 117.570312 239.457031 107.625 219.382812 C 94.945312 193.789062 82.96875 169.613281 88.40625 143.46875 C 90.671875 132.554688 92.746094 119.476562 94.945312 105.621094 C 99.15625 79.054688 107.925781 23.761719 118.003906 20.878906 C 270.21875 17.15625 480.332031 29.261719 613.449219 74.222656 C 633.105469 80.871094 678.046875 105.898438 675.496094 120.539062 C 666.386719 172.785156 681.375 203.414062 691.296875 223.679688 C 698.359375 238.117188 701.582031 245.402344 697.621094 253.117188 C 692.429688 263.21875 685.34375 281.777344 678.019531 303.03125 C 681.4375 303.796875 684.777344 305.453125 687.730469 307.75 C 689.777344 309.347656 691.367188 311.089844 692.636719 312.921875 C 700.085938 290.988281 707.421875 271.488281 712.839844 260.941406 C 720.90625 245.242188 714.304688 231.757812 706.667969 216.148438 Z M 706.667969 216.148438 " fill-opacity="1" fill-rule="nonzero"/><path fill="#1a4447" d="M 611.769531 65.84375 C 609.8125 65.449219 607.917969 64.925781 606.050781 64.351562 C 605.9375 64.960938 605.878906 65.589844 605.90625 66.234375 C 613.492188 246.292969 579.390625 433.671875 546.410156 614.878906 L 543.863281 628.882812 C 543.707031 629.75 543.726562 630.597656 543.824219 631.429688 C 545.988281 631.25 548.160156 631.125 550.347656 631.09375 C 553.539062 631.046875 557.101562 631.363281 560.753906 631.65625 L 563.253906 617.941406 C 596.277344 436.492188 630.394531 248.890625 623.066406 67.554688 C 619.289062 67.074219 615.503906 66.585938 611.769531 65.839844 Z M 611.769531 65.84375 " fill-opacity="1" fill-rule="nonzero"/><path fill="#1a4447" d="M 533.386719 267.730469 C 531.265625 267.710938 529.148438 267.828125 527.027344 267.761719 C 524.8125 267.6875 522.535156 267.425781 520.269531 267.042969 C 513.617188 320.855469 504.90625 375.925781 496.296875 423.679688 C 501.980469 424.898438 507.25 427.214844 512.617188 429.683594 C 521.582031 380.152344 530.46875 323.226562 537.222656 268.199219 C 536.765625 268.078125 536.300781 268 535.855469 267.855469 C 535.195312 267.875 533.613281 267.734375 533.386719 267.730469 Z M 533.386719 267.730469 " fill-opacity="1" fill-rule="nonzero"/><path fill="#1a4447" d="M 542.996094 100.4375 C 427.59375 64.636719 287.960938 50.273438 149.917969 60.019531 C 146.09375 60.289062 142.917969 63.0625 142.140625 66.816406 C 135.96875 96.515625 148.960938 143.910156 162.707031 194.085938 C 174.230469 236.125 186.140625 279.59375 183.515625 305.296875 C 178.816406 351.378906 164.339844 379.472656 149.015625 409.214844 C 133.28125 439.746094 117.011719 471.316406 112.394531 522.585938 C 112.015625 526.792969 114.761719 530.648438 118.863281 531.664062 C 245.023438 562.886719 351.210938 571.195312 471.839844 574.070312 L 472.046875 574.070312 C 474.386719 574.070312 476.632812 573.113281 478.246094 571.40625 C 483.367188 566.019531 492.84375 529.914062 503.234375 478.734375 C 502.683594 478.6875 502.128906 478.648438 501.578125 478.601562 C 497.246094 478.261719 492.851562 477.851562 488.578125 477.0625 C 487.78125 476.914062 487.035156 476.609375 486.253906 476.414062 C 478.179688 516.410156 471.035156 545.992188 466.886719 556.820312 C 351.890625 553.914062 249.847656 545.757812 130.195312 516.8125 C 135.296875 473.203125 149.371094 445.886719 164.222656 417.058594 C 179.605469 387.207031 195.511719 356.335938 200.542969 307.035156 C 203.492188 278.152344 191.703125 235.113281 179.210938 189.554688 C 167.578125 147.101562 155.578125 103.308594 157.980469 76.636719 C 289.347656 68.128906 421.582031 81.695312 531.914062 114.949219 C 531.800781 144.101562 529.640625 178.113281 526.148438 214.121094 C 530.652344 214.589844 535.089844 215.398438 539.199219 217.550781 C 540.453125 218.207031 541.53125 219.039062 542.621094 219.863281 C 546.761719 178.386719 549.226562 139.785156 549.019531 108.558594 C 548.996094 104.824219 546.554688 101.542969 542.996094 100.4375 Z M 542.996094 100.4375 " fill-opacity="1" fill-rule="nonzero"/><path fill="#1a4447" d="M 560.707031 280.191406 C 560.355469 280.191406 560 280.167969 559.648438 280.125 C 549.300781 278.832031 538.988281 277.753906 528.6875 276.679688 C 515.183594 275.269531 501.222656 273.808594 487.40625 271.871094 C 483.003906 271.25 479.804688 267.371094 480.046875 262.9375 C 481.082031 243.71875 482.546875 233.441406 486.726562 210.296875 C 487.484375 206.113281 491.277344 203.085938 495.445312 203.261719 C 519.96875 204.109375 542.304688 206.902344 567.855469 212.304688 C 572.09375 213.199219 574.992188 217.125 574.605469 221.445312 C 573.78125 230.65625 572.839844 238.894531 571.898438 247.128906 C 570.96875 255.234375 570.042969 263.335938 569.230469 272.394531 C 569.023438 274.707031 567.882812 276.835938 566.078125 278.296875 C 564.550781 279.527344 562.652344 280.191406 560.707031 280.191406 Z M 497.628906 255.964844 C 508.609375 257.367188 519.683594 258.523438 530.464844 259.652344 C 537.980469 260.433594 545.496094 261.21875 553.027344 262.089844 C 553.625 256.253906 554.261719 250.71875 554.890625 245.179688 C 555.554688 239.410156 556.210938 233.644531 556.828125 227.535156 C 537.882812 223.828125 520.542969 221.65625 502.257812 220.695312 C 499.742188 235.085938 498.480469 244.136719 497.628906 255.964844 Z M 497.628906 255.964844 " fill-opacity="1" fill-rule="nonzero"/><path fill="#1a4447" d="M 531.316406 489.753906 C 530.96875 489.753906 530.609375 489.730469 530.257812 489.6875 C 519.902344 488.394531 509.574219 487.3125 499.253906 486.238281 C 485.769531 484.828125 471.816406 483.367188 458.023438 481.433594 C 453.621094 480.816406 450.425781 476.9375 450.664062 472.5 C 451.699219 453.242188 453.164062 442.972656 457.335938 419.859375 C 458.09375 415.675781 461.714844 412.429688 466.058594 412.828125 C 490.585938 413.675781 512.921875 416.464844 538.464844 421.867188 C 542.707031 422.765625 545.601562 426.691406 545.21875 431.007812 C 544.394531 440.214844 543.453125 448.445312 542.511719 456.683594 C 541.582031 464.785156 540.65625 472.894531 539.84375 481.957031 C 539.636719 484.269531 538.492188 486.398438 536.6875 487.859375 C 535.164062 489.089844 533.261719 489.753906 531.316406 489.753906 Z M 468.246094 465.527344 C 479.203125 466.925781 490.269531 468.078125 501.03125 469.207031 C 508.558594 469.996094 516.09375 470.78125 523.640625 471.652344 C 524.238281 465.816406 524.871094 460.273438 525.507812 454.730469 C 526.164062 448.96875 526.820312 443.207031 527.441406 437.09375 C 508.492188 433.390625 491.160156 431.21875 472.871094 430.261719 C 470.351562 444.628906 469.097656 453.679688 468.246094 465.527344 Z M 468.246094 465.527344 " fill-opacity="1" fill-rule="nonzero"/></svg>