<svg xmlns="http://www.w3.org/2000/svg" xmlns:xlink="http://www.w3.org/1999/xlink" width="1000" zoomAndPan="magnify" viewBox="0 0 750 749.999995" height="1000" preserveAspectRatio="xMidYMid meet" version="1.0"><defs><clipPath id="316a0dfe1a"><path d="M 469 578 L 563 578 L 563 676.5 L 469 676.5 Z M 469 578 " clip-rule="nonzero"/></clipPath><clipPath id="5f6305c331"><path d="M 249 578 L 343 578 L 343 676.5 L 249 676.5 Z M 249 578 " clip-rule="nonzero"/></clipPath></defs><path fill="#b2d7d8" d="M 265.628906 670.445312 C 260.71875 670.445312 256.554688 666.804688 255.945312 661.972656 C 254.960938 654.226562 254.582031 640.046875 263.109375 632.226562 C 267.160156 628.507812 272.734375 626.621094 279.667969 626.621094 C 282.527344 626.621094 285.691406 626.945312 289.09375 627.59375 L 289.09375 578.148438 L 298.015625 578.648438 C 308.140625 579.210938 318.472656 579.695312 328.957031 580.105469 L 337.074219 580.425781 L 337.074219 660.6875 C 337.074219 666.070312 332.699219 670.445312 327.3125 670.445312 Z M 265.628906 670.445312 " fill-opacity="1" fill-rule="nonzero"/><path fill="#b2d7d8" d="M 484.929688 670.445312 C 479.546875 670.445312 475.167969 666.070312 475.167969 660.683594 L 475.167969 581.179688 L 483.394531 580.964844 C 493.90625 580.6875 504.25 580.347656 514.359375 579.941406 L 523.148438 579.582031 L 523.148438 627.609375 C 526.425781 626.960938 529.65625 626.621094 532.574219 626.621094 C 539.507812 626.621094 545.078125 628.507812 549.136719 632.226562 C 557.660156 640.042969 557.28125 654.226562 556.296875 661.984375 C 555.683594 666.808594 551.523438 670.445312 546.617188 670.445312 Z M 484.929688 670.445312 " fill-opacity="1" fill-rule="nonzero"/><path fill="#b2d7d8" d="M 419.050781 584.660156 C 331.339844 584.660156 250.707031 580 197.835938 571.875 L 190.957031 570.816406 L 190.4375 557.957031 C 184.320312 407.960938 177.992188 252.859375 203.960938 107.28125 L 205 101.472656 L 210.804688 100.445312 C 259.988281 91.734375 322.191406 87.128906 390.6875 87.128906 C 468.546875 87.128906 550 93.230469 620.042969 104.308594 L 626.355469 105.308594 L 627.113281 111.652344 C 647.117188 279.167969 646.003906 419.996094 623.503906 568.273438 L 622.535156 574.632812 L 616.144531 575.394531 C 566.582031 581.28125 494.742188 584.660156 419.050781 584.660156 Z M 419.050781 584.660156 " fill-opacity="1" fill-rule="nonzero"/><path fill="#79afae" d="M 180.464844 566.058594 C 161.566406 554.65625 131.605469 525.03125 111.78125 501.660156 L 111.527344 501.363281 L 111.304688 501.046875 C 99.808594 484.65625 98.917969 364.039062 98.921875 327.457031 C 98.921875 290.875 99.820312 170.25 111.335938 153.925781 C 122.304688 138.867188 175.75 113.195312 193.984375 105.535156 L 204.269531 101.214844 C 205.960938 100.5 207.773438 101.941406 207.464844 103.75 L 205.585938 114.746094 C 181.035156 258.359375 187.246094 410.609375 193.25 557.839844 L 193.675781 568.683594 C 193.765625 571.035156 191.210938 572.542969 189.195312 571.328125 Z M 180.464844 566.058594 " fill-opacity="1" fill-rule="nonzero"/><path fill="#79afae" d="M 279.539062 453.351562 C 270.386719 453.238281 261.1875 452.914062 252.230469 452.597656 C 245.972656 452.378906 239.792969 452.160156 233.589844 452.003906 L 225.039062 451.792969 L 225.355469 443.246094 C 225.535156 438.464844 225.652344 433.914062 225.765625 429.367188 L 225.777344 428.847656 C 225.898438 424.210938 226.019531 419.566406 226.207031 414.664062 L 226.5 406.957031 L 234.199219 406.546875 C 240.726562 406.199219 246.875 406.03125 252.988281 406.03125 C 262.238281 406.03125 271.28125 406.421875 280.632812 407.234375 L 288.09375 407.882812 L 288.347656 415.367188 C 288.789062 428.335938 288.71875 435.933594 288.074219 445.476562 L 287.535156 453.453125 Z M 279.539062 453.351562 " fill-opacity="1" fill-rule="nonzero"/><path fill="#d1f2f0" d="M 442.796875 538.089844 C 387.050781 538.089844 330.324219 534.726562 269.359375 527.808594 L 263.421875 527.132812 L 262.082031 521.3125 C 259.207031 508.84375 256.859375 477.019531 255.714844 459.160156 L 255.121094 449.890625 L 264.40625 450.171875 C 270.53125 450.363281 277.695312 450.554688 284.867188 450.578125 C 286.039062 436.40625 286.027344 428.058594 285.351562 410.511719 C 277.183594 409.683594 269.234375 409.175781 261.085938 408.96875 L 253.144531 408.761719 L 252.859375 400.828125 C 251.433594 361.46875 250.929688 321.183594 251.398438 284.335938 L 251.507812 275.710938 L 260.128906 276 C 267.601562 276.25 276.238281 276.515625 284.867188 276.542969 C 286.039062 262.367188 286.027344 254.023438 285.351562 236.472656 C 277.265625 235.652344 269.390625 235.148438 261.308594 234.933594 L 252.679688 234.707031 L 253.089844 226.085938 C 254.480469 196.960938 256.617188 171.683594 259.449219 150.949219 L 260.296875 144.722656 L 266.507812 143.746094 C 313.757812 136.308594 360.441406 132.542969 405.265625 132.542969 C 459.972656 132.542969 512.433594 137.867188 565.644531 148.824219 L 571.960938 150.125 L 572.371094 156.558594 C 579.785156 272.578125 580.433594 396.242188 574.304688 524.121094 L 573.957031 531.414062 L 566.695312 532.128906 C 526.445312 536.082031 484.761719 538.089844 442.796875 538.089844 Z M 442.796875 538.089844 " fill-opacity="1" fill-rule="nonzero"/><path fill="#79afae" d="M 279.539062 279.316406 C 270.402344 279.203125 261.210938 278.878906 252.265625 278.5625 C 246 278.34375 239.804688 278.121094 233.589844 277.96875 L 225.039062 277.761719 L 225.355469 269.210938 C 225.535156 264.425781 225.652344 259.878906 225.765625 255.332031 L 225.777344 254.824219 C 225.898438 250.183594 226.019531 245.535156 226.207031 240.625 L 226.5 232.921875 L 234.195312 232.507812 C 240.722656 232.160156 246.871094 231.988281 252.996094 231.988281 C 262.234375 231.988281 271.273438 232.382812 280.636719 233.195312 L 288.09375 233.847656 L 288.347656 241.328125 C 288.789062 254.296875 288.71875 261.898438 288.074219 271.441406 L 287.535156 279.417969 Z M 279.539062 279.316406 " fill-opacity="1" fill-rule="nonzero"/><path fill="#b2d7d8" d="M 703.980469 338.695312 C 702.394531 338.695312 700.789062 338.546875 699.214844 338.25 C 687.558594 336.078125 678.765625 326.136719 676.898438 319.792969 C 675.144531 313.816406 676.671875 307.988281 681.09375 303.796875 C 684.328125 300.738281 688.78125 298.914062 693.011719 298.914062 C 694.011719 298.914062 694.980469 299.015625 695.902344 299.214844 C 699.617188 284.945312 706.136719 279.859375 711.027344 278.121094 C 712.746094 277.507812 714.5625 277.199219 716.429688 277.199219 C 722.363281 277.199219 727.339844 280.34375 729.78125 282.21875 C 735.441406 286.5625 738.816406 293.476562 739.035156 301.179688 C 739.238281 308.34375 736.78125 315.632812 732.117188 321.707031 C 723.457031 332.980469 713.992188 338.695312 703.980469 338.695312 Z M 703.980469 338.695312 " fill-opacity="1" fill-rule="nonzero"/><path fill="#b2d7d8" d="M 29.789062 480.511719 C 24.722656 480.511719 20.324219 478.371094 17.523438 476.574219 C 11.664062 472.816406 7.859375 466.648438 6.8125 459.210938 C 5.777344 451.847656 7.570312 444.109375 11.863281 437.421875 C 20.121094 424.554688 29.800781 418.035156 40.636719 418.035156 C 41.503906 418.035156 42.375 418.078125 43.253906 418.164062 C 55.054688 419.347656 64.652344 428.515625 67.046875 434.679688 C 69.300781 440.484375 68.269531 446.425781 64.210938 450.972656 C 60.957031 454.625 56.105469 456.894531 51.550781 456.894531 C 50.972656 456.894531 50.402344 456.855469 49.84375 456.785156 C 47.34375 471.320312 41.277344 476.933594 36.550781 479.078125 C 34.460938 480.027344 32.179688 480.511719 29.789062 480.511719 Z M 29.789062 480.511719 " fill-opacity="1" fill-rule="nonzero"/><path fill="#f4c3e9" d="M 432.710938 314.621094 C 420.453125 314.621094 408.363281 311.597656 397.738281 305.882812 C 379.324219 295.96875 365.640625 277.863281 361.132812 257.445312 C 354.820312 228.84375 365.210938 199.855469 388.25 181.800781 C 401.273438 171.589844 416.613281 166.199219 432.613281 166.199219 C 443.832031 166.199219 454.84375 168.824219 465.339844 174 C 494.34375 188.300781 511.523438 223.015625 505.300781 254.75 C 499.078125 286.480469 470.0625 312.140625 437.800781 314.441406 C 436.105469 314.558594 434.410156 314.621094 432.710938 314.621094 Z M 432.710938 314.621094 " fill-opacity="1" fill-rule="nonzero"/><path fill="#1a4447" d="M 432.8125 264.210938 C 428.917969 264.210938 425.058594 263.238281 421.644531 261.398438 C 415.738281 258.222656 411.347656 252.410156 409.902344 245.855469 C 407.484375 234.90625 412.804688 226.15625 418.589844 221.617188 C 422.753906 218.351562 427.6875 216.628906 432.859375 216.628906 C 436.464844 216.628906 439.984375 217.460938 443.328125 219.105469 C 452.632812 223.695312 458.140625 234.828125 456.148438 245.003906 C 454.15625 255.179688 444.847656 263.410156 434.5 264.148438 C 433.960938 264.1875 433.386719 264.210938 432.8125 264.210938 Z M 432.8125 264.210938 " fill-opacity="1" fill-rule="nonzero"/><path fill="#f4c3e9" d="M 375.78125 380.0625 C 375.78125 381.066406 375.683594 382.058594 375.488281 383.042969 C 375.292969 384.027344 375.003906 384.984375 374.617188 385.914062 C 374.234375 386.839844 373.761719 387.722656 373.203125 388.558594 C 372.648438 389.390625 372.011719 390.164062 371.300781 390.875 C 370.59375 391.582031 369.820312 392.21875 368.984375 392.777344 C 368.148438 393.332031 367.269531 393.804688 366.339844 394.1875 C 365.414062 394.574219 364.457031 394.863281 363.472656 395.058594 C 362.488281 395.253906 361.492188 395.351562 360.488281 395.351562 C 359.484375 395.351562 358.488281 395.253906 357.503906 395.058594 C 356.519531 394.863281 355.5625 394.574219 354.636719 394.1875 C 353.707031 393.804688 352.824219 393.332031 351.992188 392.777344 C 351.15625 392.21875 350.382812 391.585938 349.671875 390.875 C 348.964844 390.164062 348.328125 389.390625 347.769531 388.558594 C 347.214844 387.722656 346.742188 386.839844 346.359375 385.914062 C 345.972656 384.984375 345.683594 384.027344 345.488281 383.042969 C 345.292969 382.058594 345.195312 381.066406 345.195312 380.0625 C 345.195312 379.058594 345.292969 378.0625 345.488281 377.078125 C 345.683594 376.09375 345.972656 375.136719 346.359375 374.210938 C 346.742188 373.28125 347.214844 372.402344 347.769531 371.566406 C 348.328125 370.730469 348.964844 369.957031 349.671875 369.25 C 350.382812 368.539062 351.15625 367.90625 351.992188 367.347656 C 352.824219 366.789062 353.707031 366.316406 354.636719 365.933594 C 355.5625 365.550781 356.519531 365.257812 357.503906 365.0625 C 358.488281 364.867188 359.484375 364.769531 360.488281 364.769531 C 361.492188 364.769531 362.488281 364.867188 363.472656 365.0625 C 364.457031 365.257812 365.414062 365.550781 366.339844 365.933594 C 367.269531 366.316406 368.148438 366.789062 368.984375 367.347656 C 369.820312 367.90625 370.59375 368.539062 371.300781 369.25 C 372.011719 369.957031 372.648438 370.730469 373.203125 371.566406 C 373.761719 372.402344 374.234375 373.28125 374.617188 374.210938 C 375.003906 375.136719 375.292969 376.09375 375.488281 377.078125 C 375.683594 378.0625 375.78125 379.058594 375.78125 380.0625 Z M 375.78125 380.0625 " fill-opacity="1" fill-rule="nonzero"/><path fill="#f4c3e9" d="M 520.230469 380.0625 C 520.230469 381.066406 520.132812 382.058594 519.9375 383.042969 C 519.742188 384.027344 519.453125 384.984375 519.066406 385.914062 C 518.683594 386.839844 518.210938 387.722656 517.652344 388.558594 C 517.097656 389.390625 516.460938 390.164062 515.75 390.875 C 515.042969 391.582031 514.269531 392.21875 513.433594 392.777344 C 512.597656 393.332031 511.71875 393.804688 510.789062 394.1875 C 509.863281 394.574219 508.90625 394.863281 507.921875 395.058594 C 506.9375 395.253906 505.941406 395.351562 504.9375 395.351562 C 503.933594 395.351562 502.9375 395.253906 501.953125 395.058594 C 500.96875 394.863281 500.011719 394.574219 499.085938 394.1875 C 498.15625 393.804688 497.273438 393.332031 496.441406 392.777344 C 495.605469 392.21875 494.832031 391.585938 494.121094 390.875 C 493.414062 390.164062 492.777344 389.390625 492.21875 388.558594 C 491.664062 387.722656 491.191406 386.839844 490.808594 385.914062 C 490.421875 384.984375 490.132812 384.027344 489.9375 383.042969 C 489.742188 382.058594 489.644531 381.066406 489.644531 380.0625 C 489.644531 379.058594 489.742188 378.0625 489.9375 377.078125 C 490.132812 376.09375 490.421875 375.136719 490.808594 374.210938 C 491.191406 373.28125 491.664062 372.402344 492.21875 371.566406 C 492.777344 370.730469 493.414062 369.957031 494.121094 369.25 C 494.832031 368.539062 495.605469 367.90625 496.441406 367.347656 C 497.273438 366.789062 498.15625 366.316406 499.085938 365.933594 C 500.011719 365.550781 500.96875 365.257812 501.953125 365.0625 C 502.9375 364.867188 503.933594 364.769531 504.9375 364.769531 C 505.941406 364.769531 506.9375 364.867188 507.921875 365.0625 C 508.90625 365.257812 509.863281 365.550781 510.789062 365.933594 C 511.71875 366.316406 512.597656 366.789062 513.433594 367.347656 C 514.269531 367.90625 515.042969 368.539062 515.75 369.25 C 516.460938 369.957031 517.09375 370.730469 517.652344 371.566406 C 518.210938 372.402344 518.683594 373.28125 519.066406 374.210938 C 519.453125 375.136719 519.742188 376.09375 519.9375 377.078125 C 520.132812 378.0625 520.230469 379.058594 520.230469 380.0625 Z M 520.230469 380.0625 " fill-opacity="1" fill-rule="nonzero"/><path fill="#1a4447" d="M 389.507812 358.355469 C 389.507812 359.058594 389.484375 359.761719 389.4375 360.460938 C 389.390625 361.160156 389.324219 361.855469 389.230469 362.546875 C 389.136719 363.238281 389.023438 363.917969 388.886719 364.59375 C 388.75 365.265625 388.589844 365.925781 388.410156 366.578125 C 388.230469 367.226562 388.027344 367.863281 387.808594 368.484375 C 387.585938 369.105469 387.34375 369.707031 387.082031 370.292969 C 386.820312 370.875 386.539062 371.441406 386.238281 371.984375 C 385.941406 372.527344 385.625 373.050781 385.289062 373.546875 C 384.957031 374.042969 384.605469 374.515625 384.242188 374.964844 C 383.878906 375.410156 383.5 375.828125 383.109375 376.21875 C 382.714844 376.609375 382.3125 376.972656 381.894531 377.304688 C 381.480469 377.632812 381.054688 377.933594 380.617188 378.203125 C 380.183594 378.472656 379.738281 378.710938 379.289062 378.914062 C 378.835938 379.117188 378.378906 379.289062 377.917969 379.425781 C 377.453125 379.5625 376.988281 379.667969 376.519531 379.738281 C 376.050781 379.804688 375.578125 379.839844 375.109375 379.839844 C 374.636719 379.839844 374.167969 379.804688 373.695312 379.738281 C 373.226562 379.667969 372.761719 379.5625 372.300781 379.425781 C 371.835938 379.289062 371.378906 379.117188 370.929688 378.914062 C 370.476562 378.710938 370.035156 378.472656 369.597656 378.203125 C 369.164062 377.933594 368.738281 377.632812 368.320312 377.304688 C 367.90625 376.972656 367.5 376.609375 367.109375 376.21875 C 366.714844 375.828125 366.339844 375.410156 365.972656 374.964844 C 365.609375 374.515625 365.261719 374.042969 364.925781 373.546875 C 364.59375 373.050781 364.277344 372.527344 363.976562 371.984375 C 363.679688 371.441406 363.398438 370.875 363.136719 370.292969 C 362.875 369.707031 362.632812 369.105469 362.410156 368.484375 C 362.1875 367.863281 361.984375 367.226562 361.804688 366.578125 C 361.625 365.925781 361.464844 365.265625 361.328125 364.59375 C 361.191406 363.917969 361.078125 363.238281 360.984375 362.546875 C 360.894531 361.855469 360.824219 361.160156 360.777344 360.460938 C 360.734375 359.761719 360.710938 359.058594 360.710938 358.355469 C 360.710938 357.652344 360.734375 356.949219 360.777344 356.25 C 360.824219 355.550781 360.894531 354.855469 360.984375 354.164062 C 361.078125 353.472656 361.191406 352.792969 361.328125 352.121094 C 361.464844 351.445312 361.625 350.785156 361.804688 350.132812 C 361.984375 349.484375 362.1875 348.847656 362.410156 348.226562 C 362.632812 347.609375 362.875 347.003906 363.136719 346.417969 C 363.398438 345.835938 363.679688 345.269531 363.976562 344.726562 C 364.277344 344.183594 364.59375 343.660156 364.925781 343.164062 C 365.261719 342.667969 365.609375 342.195312 365.972656 341.75 C 366.339844 341.300781 366.714844 340.882812 367.109375 340.492188 C 367.5 340.101562 367.90625 339.738281 368.320312 339.410156 C 368.738281 339.078125 369.164062 338.777344 369.597656 338.507812 C 370.035156 338.238281 370.476562 338 370.929688 337.796875 C 371.378906 337.59375 371.835938 337.421875 372.300781 337.285156 C 372.761719 337.148438 373.226562 337.042969 373.695312 336.976562 C 374.167969 336.90625 374.636719 336.871094 375.109375 336.871094 C 375.578125 336.871094 376.050781 336.90625 376.519531 336.976562 C 376.988281 337.042969 377.453125 337.148438 377.917969 337.285156 C 378.378906 337.421875 378.835938 337.59375 379.289062 337.796875 C 379.738281 338 380.183594 338.238281 380.617188 338.507812 C 381.054688 338.777344 381.480469 339.078125 381.894531 339.410156 C 382.3125 339.738281 382.714844 340.101562 383.109375 340.492188 C 383.5 340.882812 383.878906 341.300781 384.242188 341.75 C 384.605469 342.195312 384.957031 342.667969 385.289062 343.164062 C 385.625 343.660156 385.941406 344.183594 386.238281 344.726562 C 386.539062 345.269531 386.820312 345.835938 387.082031 346.417969 C 387.34375 347.003906 387.585938 347.609375 387.808594 348.226562 C 388.027344 348.847656 388.230469 349.484375 388.410156 350.132812 C 388.589844 350.785156 388.75 351.445312 388.886719 352.121094 C 389.023438 352.792969 389.136719 353.472656 389.230469 354.164062 C 389.324219 354.855469 389.390625 355.550781 389.4375 356.25 C 389.484375 356.949219 389.507812 357.652344 389.507812 358.355469 Z M 389.507812 358.355469 " fill-opacity="1" fill-rule="nonzero"/><path fill="#1a4447" d="M 505.160156 358.355469 C 505.160156 359.058594 505.136719 359.761719 505.089844 360.460938 C 505.042969 361.160156 504.972656 361.855469 504.882812 362.546875 C 504.789062 363.238281 504.675781 363.917969 504.539062 364.59375 C 504.402344 365.265625 504.242188 365.925781 504.0625 366.578125 C 503.882812 367.226562 503.679688 367.863281 503.457031 368.484375 C 503.234375 369.105469 502.992188 369.707031 502.730469 370.292969 C 502.46875 370.875 502.1875 371.441406 501.890625 371.984375 C 501.589844 372.527344 501.273438 373.050781 500.941406 373.546875 C 500.609375 374.042969 500.257812 374.515625 499.894531 374.964844 C 499.53125 375.410156 499.152344 375.828125 498.757812 376.21875 C 498.367188 376.609375 497.964844 376.972656 497.546875 377.304688 C 497.132812 377.632812 496.707031 377.933594 496.269531 378.203125 C 495.835938 378.472656 495.390625 378.710938 494.941406 378.914062 C 494.488281 379.117188 494.03125 379.289062 493.570312 379.425781 C 493.105469 379.5625 492.640625 379.667969 492.171875 379.738281 C 491.703125 379.804688 491.230469 379.839844 490.761719 379.839844 C 490.289062 379.839844 489.816406 379.804688 489.347656 379.738281 C 488.878906 379.667969 488.414062 379.5625 487.949219 379.425781 C 487.488281 379.289062 487.03125 379.117188 486.582031 378.914062 C 486.128906 378.710938 485.683594 378.472656 485.25 378.203125 C 484.8125 377.933594 484.386719 377.632812 483.972656 377.304688 C 483.554688 376.972656 483.152344 376.609375 482.761719 376.21875 C 482.367188 375.828125 481.988281 375.410156 481.625 374.964844 C 481.261719 374.515625 480.910156 374.042969 480.578125 373.546875 C 480.246094 373.050781 479.929688 372.527344 479.628906 371.984375 C 479.332031 371.441406 479.050781 370.875 478.789062 370.292969 C 478.527344 369.707031 478.285156 369.105469 478.0625 368.484375 C 477.839844 367.863281 477.636719 367.226562 477.457031 366.578125 C 477.277344 365.925781 477.117188 365.265625 476.980469 364.59375 C 476.84375 363.917969 476.730469 363.238281 476.636719 362.546875 C 476.546875 361.855469 476.476562 361.160156 476.429688 360.460938 C 476.382812 359.761719 476.359375 359.058594 476.359375 358.355469 C 476.359375 357.652344 476.382812 356.949219 476.429688 356.25 C 476.476562 355.550781 476.546875 354.855469 476.636719 354.164062 C 476.730469 353.472656 476.84375 352.792969 476.980469 352.121094 C 477.117188 351.445312 477.277344 350.785156 477.457031 350.132812 C 477.636719 349.484375 477.839844 348.847656 478.0625 348.226562 C 478.285156 347.609375 478.527344 347.003906 478.789062 346.417969 C 479.050781 345.835938 479.332031 345.269531 479.628906 344.726562 C 479.929688 344.183594 480.246094 343.660156 480.578125 343.164062 C 480.910156 342.667969 481.261719 342.195312 481.625 341.75 C 481.988281 341.300781 482.367188 340.882812 482.761719 340.492188 C 483.152344 340.101562 483.554688 339.738281 483.972656 339.410156 C 484.386719 339.078125 484.8125 338.777344 485.25 338.507812 C 485.683594 338.238281 486.128906 338 486.582031 337.796875 C 487.03125 337.59375 487.488281 337.421875 487.949219 337.285156 C 488.414062 337.148438 488.878906 337.042969 489.347656 336.976562 C 489.816406 336.90625 490.289062 336.871094 490.761719 336.871094 C 491.230469 336.871094 491.703125 336.90625 492.171875 336.976562 C 492.640625 337.042969 493.105469 337.148438 493.570312 337.285156 C 494.03125 337.421875 494.488281 337.59375 494.941406 337.796875 C 495.390625 338 495.835938 338.238281 496.269531 338.507812 C 496.707031 338.777344 497.132812 339.078125 497.546875 339.410156 C 497.964844 339.738281 498.367188 340.101562 498.757812 340.492188 C 499.152344 340.882812 499.53125 341.300781 499.894531 341.75 C 500.257812 342.195312 500.609375 342.667969 500.941406 343.164062 C 501.273438 343.660156 501.589844 344.183594 501.890625 344.726562 C 502.1875 345.269531 502.46875 345.835938 502.730469 346.417969 C 502.992188 347.003906 503.234375 347.609375 503.457031 348.226562 C 503.679688 348.847656 503.882812 349.484375 504.0625 350.132812 C 504.242188 350.785156 504.402344 351.445312 504.539062 352.121094 C 504.675781 352.792969 504.789062 353.472656 504.882812 354.164062 C 504.972656 354.855469 505.042969 355.550781 505.089844 356.25 C 505.136719 356.949219 505.160156 357.652344 505.160156 358.355469 Z M 505.160156 358.355469 " fill-opacity="1" fill-rule="nonzero"/><path fill="#1a4447" d="M 432.722656 320.253906 C 419.664062 320.253906 406.480469 316.980469 395.070312 310.84375 C 375.230469 300.164062 360.484375 280.65625 355.632812 258.660156 C 348.847656 227.921875 360.015625 196.769531 384.773438 177.367188 C 408.984375 158.386719 440.03125 155.238281 467.832031 168.945312 C 499.039062 184.339844 517.523438 221.691406 510.828125 255.832031 C 504.132812 289.972656 472.914062 317.585938 438.199219 320.058594 C 436.382812 320.1875 434.550781 320.253906 432.722656 320.253906 Z M 432.613281 174.644531 C 418.742188 174.644531 405.132812 179.304688 393.464844 188.449219 C 373.003906 204.484375 363.777344 230.222656 369.382812 255.625 C 373.367188 273.675781 385.464844 289.679688 401.742188 298.445312 C 412.425781 304.191406 425.007812 306.875 437.203125 306.011719 C 465.785156 303.976562 491.496094 281.238281 497.007812 253.125 C 502.519531 225.007812 487.296875 194.246094 461.601562 181.574219 C 452.195312 176.9375 442.339844 174.644531 432.613281 174.644531 Z M 432.613281 174.644531 " fill-opacity="1" fill-rule="nonzero"/><path fill="#1a4447" d="M 432.796875 269.839844 C 427.972656 269.839844 423.234375 268.652344 418.980469 266.359375 C 411.644531 262.414062 406.195312 255.203125 404.398438 247.070312 C 401.90625 235.773438 406.011719 224.320312 415.113281 217.183594 C 423.9375 210.265625 435.714844 209.0625 445.824219 214.058594 C 457.328125 219.734375 464.140625 233.5 461.675781 246.089844 C 459.210938 258.675781 447.699219 268.851562 434.898438 269.765625 C 434.199219 269.816406 433.496094 269.839844 432.796875 269.839844 Z M 432.859375 225.074219 C 429.648438 225.074219 426.5 226.152344 423.804688 228.265625 C 420.039062 231.214844 416.578125 236.90625 418.152344 244.035156 C 419.0625 248.160156 421.9375 251.960938 425.652344 253.960938 C 428.132812 255.296875 431.054688 255.933594 433.898438 255.71875 C 440.460938 255.253906 446.589844 249.832031 447.855469 243.378906 C 449.117188 236.929688 445.492188 229.59375 439.59375 226.6875 C 437.40625 225.609375 435.117188 225.074219 432.859375 225.074219 Z M 432.859375 225.074219 " fill-opacity="1" fill-rule="nonzero"/><path fill="#1a4447" d="M 439.464844 193.839844 C 439.464844 194.265625 439.421875 194.691406 439.339844 195.113281 C 439.257812 195.535156 439.132812 195.941406 438.96875 196.335938 C 438.804688 196.734375 438.601562 197.109375 438.363281 197.464844 C 438.125 197.824219 437.855469 198.152344 437.550781 198.457031 C 437.25 198.757812 436.917969 199.03125 436.5625 199.269531 C 436.207031 199.507812 435.828125 199.707031 435.433594 199.871094 C 435.039062 200.035156 434.628906 200.160156 434.207031 200.242188 C 433.789062 200.328125 433.363281 200.367188 432.933594 200.367188 C 432.503906 200.367188 432.082031 200.328125 431.660156 200.242188 C 431.238281 200.160156 430.832031 200.035156 430.433594 199.871094 C 430.039062 199.707031 429.660156 199.507812 429.304688 199.269531 C 428.949219 199.03125 428.617188 198.757812 428.316406 198.457031 C 428.011719 198.152344 427.742188 197.824219 427.503906 197.464844 C 427.265625 197.109375 427.0625 196.734375 426.898438 196.335938 C 426.734375 195.941406 426.613281 195.535156 426.527344 195.113281 C 426.445312 194.691406 426.402344 194.265625 426.402344 193.839844 C 426.402344 193.410156 426.445312 192.984375 426.527344 192.566406 C 426.613281 192.144531 426.734375 191.734375 426.898438 191.339844 C 427.0625 190.945312 427.265625 190.566406 427.503906 190.210938 C 427.742188 189.855469 428.011719 189.523438 428.316406 189.222656 C 428.617188 188.917969 428.949219 188.648438 429.304688 188.410156 C 429.660156 188.171875 430.039062 187.96875 430.433594 187.804688 C 430.832031 187.640625 431.238281 187.515625 431.660156 187.433594 C 432.082031 187.351562 432.503906 187.308594 432.933594 187.308594 C 433.363281 187.308594 433.789062 187.351562 434.207031 187.433594 C 434.628906 187.515625 435.039062 187.640625 435.433594 187.804688 C 435.828125 187.96875 436.207031 188.171875 436.5625 188.410156 C 436.917969 188.648438 437.25 188.917969 437.550781 189.222656 C 437.855469 189.523438 438.125 189.855469 438.363281 190.210938 C 438.601562 190.566406 438.804688 190.945312 438.96875 191.339844 C 439.132812 191.734375 439.257812 192.144531 439.339844 192.566406 C 439.421875 192.984375 439.464844 193.410156 439.464844 193.839844 Z M 439.464844 193.839844 " fill-opacity="1" fill-rule="nonzero"/><path fill="#1a4447" d="M 439.464844 286.933594 C 439.464844 287.363281 439.421875 287.785156 439.339844 288.207031 C 439.257812 288.628906 439.132812 289.035156 438.96875 289.433594 C 438.804688 289.828125 438.601562 290.203125 438.363281 290.5625 C 438.125 290.917969 437.855469 291.246094 437.550781 291.550781 C 437.25 291.855469 436.917969 292.125 436.5625 292.363281 C 436.207031 292.601562 435.828125 292.800781 435.433594 292.964844 C 435.039062 293.128906 434.628906 293.253906 434.207031 293.335938 C 433.789062 293.421875 433.363281 293.464844 432.933594 293.464844 C 432.503906 293.464844 432.082031 293.421875 431.660156 293.335938 C 431.238281 293.253906 430.832031 293.128906 430.433594 292.964844 C 430.039062 292.800781 429.660156 292.601562 429.304688 292.363281 C 428.949219 292.125 428.617188 291.855469 428.316406 291.550781 C 428.011719 291.246094 427.742188 290.917969 427.503906 290.5625 C 427.265625 290.203125 427.0625 289.828125 426.898438 289.433594 C 426.734375 289.035156 426.613281 288.628906 426.527344 288.207031 C 426.445312 287.785156 426.402344 287.363281 426.402344 286.933594 C 426.402344 286.503906 426.445312 286.078125 426.527344 285.660156 C 426.613281 285.238281 426.734375 284.828125 426.898438 284.433594 C 427.0625 284.039062 427.265625 283.660156 427.503906 283.304688 C 427.742188 282.949219 428.011719 282.617188 428.316406 282.316406 C 428.617188 282.011719 428.949219 281.742188 429.304688 281.503906 C 429.660156 281.265625 430.039062 281.0625 430.433594 280.898438 C 430.832031 280.734375 431.238281 280.613281 431.660156 280.527344 C 432.082031 280.445312 432.503906 280.402344 432.933594 280.402344 C 433.363281 280.402344 433.789062 280.445312 434.207031 280.527344 C 434.628906 280.613281 435.039062 280.734375 435.433594 280.898438 C 435.828125 281.0625 436.207031 281.265625 436.5625 281.503906 C 436.917969 281.742188 437.25 282.011719 437.550781 282.316406 C 437.855469 282.617188 438.125 282.949219 438.363281 283.304688 C 438.601562 283.660156 438.804688 284.039062 438.96875 284.433594 C 439.132812 284.828125 439.257812 285.238281 439.339844 285.660156 C 439.421875 286.078125 439.464844 286.503906 439.464844 286.933594 Z M 439.464844 286.933594 " fill-opacity="1" fill-rule="nonzero"/><path fill="#1a4447" d="M 392.910156 240.386719 C 392.910156 240.816406 392.867188 241.238281 392.785156 241.660156 C 392.703125 242.082031 392.578125 242.488281 392.414062 242.886719 C 392.25 243.28125 392.046875 243.65625 391.808594 244.015625 C 391.570312 244.371094 391.300781 244.699219 390.996094 245.003906 C 390.695312 245.308594 390.363281 245.578125 390.007812 245.816406 C 389.652344 246.054688 389.273438 246.253906 388.878906 246.417969 C 388.480469 246.582031 388.074219 246.707031 387.652344 246.792969 C 387.234375 246.875 386.808594 246.917969 386.378906 246.917969 C 385.949219 246.917969 385.523438 246.875 385.105469 246.792969 C 384.683594 246.707031 384.277344 246.582031 383.878906 246.417969 C 383.484375 246.253906 383.105469 246.054688 382.75 245.816406 C 382.394531 245.578125 382.0625 245.308594 381.761719 245.003906 C 381.457031 244.699219 381.1875 244.371094 380.949219 244.015625 C 380.710938 243.65625 380.507812 243.28125 380.34375 242.886719 C 380.179688 242.488281 380.054688 242.082031 379.972656 241.660156 C 379.890625 241.238281 379.847656 240.816406 379.847656 240.386719 C 379.847656 239.957031 379.890625 239.53125 379.972656 239.113281 C 380.054688 238.691406 380.179688 238.285156 380.34375 237.886719 C 380.507812 237.492188 380.710938 237.113281 380.949219 236.757812 C 381.1875 236.402344 381.457031 236.070312 381.761719 235.769531 C 382.0625 235.464844 382.394531 235.195312 382.75 234.957031 C 383.105469 234.71875 383.484375 234.515625 383.878906 234.351562 C 384.277344 234.1875 384.683594 234.066406 385.105469 233.980469 C 385.523438 233.898438 385.949219 233.855469 386.378906 233.855469 C 386.808594 233.855469 387.234375 233.898438 387.652344 233.980469 C 388.074219 234.066406 388.480469 234.1875 388.878906 234.351562 C 389.273438 234.515625 389.652344 234.71875 390.007812 234.957031 C 390.363281 235.195312 390.695312 235.464844 390.996094 235.769531 C 391.300781 236.070312 391.570312 236.402344 391.808594 236.757812 C 392.046875 237.113281 392.25 237.492188 392.414062 237.886719 C 392.578125 238.285156 392.703125 238.691406 392.785156 239.113281 C 392.867188 239.53125 392.910156 239.957031 392.910156 240.386719 Z M 392.910156 240.386719 " fill-opacity="1" fill-rule="nonzero"/><path fill="#1a4447" d="M 486.019531 240.386719 C 486.019531 240.816406 485.980469 241.238281 485.894531 241.660156 C 485.8125 242.082031 485.6875 242.488281 485.523438 242.886719 C 485.359375 243.28125 485.160156 243.65625 484.921875 244.015625 C 484.683594 244.371094 484.410156 244.699219 484.109375 245.003906 C 483.804688 245.308594 483.472656 245.578125 483.117188 245.816406 C 482.761719 246.054688 482.386719 246.253906 481.988281 246.417969 C 481.59375 246.582031 481.183594 246.707031 480.761719 246.792969 C 480.34375 246.875 479.917969 246.917969 479.488281 246.917969 C 479.058594 246.917969 478.636719 246.875 478.214844 246.792969 C 477.792969 246.707031 477.386719 246.582031 476.988281 246.417969 C 476.59375 246.253906 476.21875 246.054688 475.859375 245.816406 C 475.503906 245.578125 475.175781 245.308594 474.871094 245.003906 C 474.566406 244.699219 474.296875 244.371094 474.058594 244.015625 C 473.820312 243.65625 473.617188 243.28125 473.453125 242.886719 C 473.289062 242.488281 473.167969 242.082031 473.082031 241.660156 C 473 241.238281 472.957031 240.816406 472.957031 240.386719 C 472.957031 239.957031 473 239.53125 473.082031 239.113281 C 473.167969 238.691406 473.289062 238.285156 473.453125 237.886719 C 473.617188 237.492188 473.820312 237.113281 474.058594 236.757812 C 474.296875 236.402344 474.566406 236.070312 474.871094 235.769531 C 475.175781 235.464844 475.503906 235.195312 475.859375 234.957031 C 476.21875 234.71875 476.59375 234.515625 476.988281 234.351562 C 477.386719 234.1875 477.792969 234.066406 478.214844 233.980469 C 478.636719 233.898438 479.058594 233.855469 479.488281 233.855469 C 479.917969 233.855469 480.34375 233.898438 480.761719 233.980469 C 481.183594 234.066406 481.59375 234.1875 481.988281 234.351562 C 482.386719 234.515625 482.761719 234.71875 483.117188 234.957031 C 483.472656 235.195312 483.804688 235.464844 484.109375 235.769531 C 484.410156 236.070312 484.683594 236.402344 484.921875 236.757812 C 485.160156 237.113281 485.359375 237.492188 485.523438 237.886719 C 485.6875 238.285156 485.8125 238.691406 485.894531 239.113281 C 485.980469 239.53125 486.019531 239.957031 486.019531 240.386719 Z M 486.019531 240.386719 " fill-opacity="1" fill-rule="nonzero"/><path fill="#1a4447" d="M 406.546875 207.472656 C 406.546875 207.902344 406.503906 208.324219 406.421875 208.746094 C 406.335938 209.167969 406.214844 209.574219 406.050781 209.972656 C 405.886719 210.367188 405.683594 210.742188 405.445312 211.101562 C 405.207031 211.457031 404.9375 211.785156 404.632812 212.089844 C 404.328125 212.394531 404 212.664062 403.644531 212.902344 C 403.285156 213.140625 402.910156 213.339844 402.515625 213.503906 C 402.117188 213.667969 401.710938 213.792969 401.289062 213.875 C 400.867188 213.960938 400.445312 214.003906 400.015625 214.003906 C 399.585938 214.003906 399.160156 213.960938 398.742188 213.875 C 398.320312 213.792969 397.910156 213.667969 397.515625 213.503906 C 397.117188 213.339844 396.742188 213.140625 396.386719 212.902344 C 396.03125 212.664062 395.699219 212.394531 395.394531 212.089844 C 395.09375 211.785156 394.820312 211.457031 394.582031 211.101562 C 394.34375 210.742188 394.144531 210.367188 393.980469 209.972656 C 393.816406 209.574219 393.691406 209.167969 393.609375 208.746094 C 393.523438 208.324219 393.484375 207.902344 393.484375 207.472656 C 393.484375 207.042969 393.523438 206.617188 393.609375 206.199219 C 393.691406 205.777344 393.816406 205.367188 393.980469 204.972656 C 394.144531 204.578125 394.34375 204.199219 394.582031 203.84375 C 394.820312 203.488281 395.09375 203.15625 395.394531 202.855469 C 395.699219 202.550781 396.03125 202.28125 396.386719 202.042969 C 396.742188 201.804688 397.117188 201.601562 397.515625 201.4375 C 397.910156 201.273438 398.320312 201.152344 398.742188 201.066406 C 399.160156 200.984375 399.585938 200.941406 400.015625 200.941406 C 400.445312 200.941406 400.867188 200.984375 401.289062 201.066406 C 401.710938 201.152344 402.117188 201.273438 402.515625 201.4375 C 402.910156 201.601562 403.285156 201.804688 403.644531 202.042969 C 404 202.28125 404.328125 202.550781 404.632812 202.855469 C 404.9375 203.15625 405.207031 203.488281 405.445312 203.84375 C 405.683594 204.199219 405.886719 204.578125 406.050781 204.972656 C 406.214844 205.367188 406.335938 205.777344 406.421875 206.199219 C 406.503906 206.617188 406.546875 207.042969 406.546875 207.472656 Z M 406.546875 207.472656 " fill-opacity="1" fill-rule="nonzero"/><path fill="#1a4447" d="M 472.386719 273.300781 C 472.386719 273.730469 472.34375 274.152344 472.257812 274.574219 C 472.175781 274.996094 472.050781 275.402344 471.886719 275.796875 C 471.722656 276.195312 471.523438 276.570312 471.285156 276.929688 C 471.046875 277.285156 470.773438 277.613281 470.472656 277.917969 C 470.167969 278.21875 469.839844 278.492188 469.480469 278.730469 C 469.125 278.96875 468.75 279.167969 468.351562 279.332031 C 467.957031 279.496094 467.546875 279.621094 467.128906 279.703125 C 466.707031 279.789062 466.28125 279.828125 465.851562 279.828125 C 465.425781 279.828125 465 279.789062 464.578125 279.703125 C 464.160156 279.621094 463.75 279.496094 463.355469 279.332031 C 462.957031 279.167969 462.582031 278.96875 462.226562 278.730469 C 461.867188 278.492188 461.539062 278.21875 461.234375 277.917969 C 460.933594 277.613281 460.660156 277.285156 460.421875 276.929688 C 460.183594 276.570312 459.984375 276.195312 459.820312 275.796875 C 459.65625 275.402344 459.53125 274.996094 459.449219 274.574219 C 459.363281 274.152344 459.320312 273.730469 459.320312 273.300781 C 459.320312 272.871094 459.363281 272.445312 459.449219 272.027344 C 459.53125 271.605469 459.65625 271.195312 459.820312 270.800781 C 459.984375 270.40625 460.183594 270.027344 460.421875 269.671875 C 460.660156 269.316406 460.933594 268.984375 461.234375 268.683594 C 461.539062 268.378906 461.867188 268.109375 462.226562 267.871094 C 462.582031 267.632812 462.957031 267.429688 463.355469 267.265625 C 463.75 267.101562 464.160156 266.980469 464.578125 266.894531 C 465 266.8125 465.425781 266.769531 465.851562 266.769531 C 466.28125 266.769531 466.707031 266.8125 467.128906 266.894531 C 467.546875 266.980469 467.957031 267.101562 468.351562 267.265625 C 468.75 267.429688 469.125 267.632812 469.480469 267.871094 C 469.839844 268.109375 470.167969 268.378906 470.472656 268.683594 C 470.773438 268.984375 471.046875 269.316406 471.285156 269.671875 C 471.523438 270.027344 471.722656 270.40625 471.886719 270.800781 C 472.050781 271.195312 472.175781 271.605469 472.257812 272.027344 C 472.34375 272.445312 472.386719 272.871094 472.386719 273.300781 Z M 472.386719 273.300781 " fill-opacity="1" fill-rule="nonzero"/><path fill="#1a4447" d="M 472.386719 207.472656 C 472.386719 207.902344 472.34375 208.324219 472.257812 208.746094 C 472.175781 209.167969 472.050781 209.574219 471.886719 209.972656 C 471.722656 210.367188 471.523438 210.742188 471.285156 211.101562 C 471.046875 211.457031 470.773438 211.785156 470.472656 212.089844 C 470.167969 212.394531 469.839844 212.664062 469.480469 212.902344 C 469.125 213.140625 468.75 213.339844 468.351562 213.503906 C 467.957031 213.667969 467.546875 213.792969 467.128906 213.875 C 466.707031 213.960938 466.28125 214.003906 465.851562 214.003906 C 465.425781 214.003906 465 213.960938 464.578125 213.875 C 464.160156 213.792969 463.75 213.667969 463.355469 213.503906 C 462.957031 213.339844 462.582031 213.140625 462.226562 212.902344 C 461.867188 212.664062 461.539062 212.394531 461.234375 212.089844 C 460.933594 211.785156 460.660156 211.457031 460.421875 211.101562 C 460.183594 210.742188 459.984375 210.367188 459.820312 209.972656 C 459.65625 209.574219 459.53125 209.167969 459.449219 208.746094 C 459.363281 208.324219 459.320312 207.902344 459.320312 207.472656 C 459.320312 207.042969 459.363281 206.617188 459.449219 206.199219 C 459.53125 205.777344 459.65625 205.367188 459.820312 204.972656 C 459.984375 204.578125 460.183594 204.199219 460.421875 203.84375 C 460.660156 203.488281 460.933594 203.15625 461.234375 202.855469 C 461.539062 202.550781 461.867188 202.28125 462.226562 202.042969 C 462.582031 201.804688 462.957031 201.601562 463.355469 201.4375 C 463.75 201.273438 464.160156 201.152344 464.578125 201.066406 C 465 200.984375 465.425781 200.941406 465.851562 200.941406 C 466.28125 200.941406 466.707031 200.984375 467.128906 201.066406 C 467.546875 201.152344 467.957031 201.273438 468.351562 201.4375 C 468.75 201.601562 469.125 201.804688 469.480469 202.042969 C 469.839844 202.28125 470.167969 202.550781 470.472656 202.855469 C 470.773438 203.15625 471.046875 203.488281 471.285156 203.84375 C 471.523438 204.199219 471.722656 204.578125 471.886719 204.972656 C 472.050781 205.367188 472.175781 205.777344 472.257812 206.199219 C 472.34375 206.617188 472.386719 207.042969 472.386719 207.472656 Z M 472.386719 207.472656 " fill-opacity="1" fill-rule="nonzero"/><path fill="#1a4447" d="M 406.546875 273.300781 C 406.546875 273.730469 406.503906 274.152344 406.421875 274.574219 C 406.335938 274.996094 406.214844 275.402344 406.050781 275.796875 C 405.886719 276.195312 405.683594 276.570312 405.445312 276.929688 C 405.207031 277.285156 404.9375 277.613281 404.632812 277.917969 C 404.328125 278.21875 404 278.492188 403.644531 278.730469 C 403.285156 278.96875 402.910156 279.167969 402.515625 279.332031 C 402.117188 279.496094 401.710938 279.621094 401.289062 279.703125 C 400.867188 279.789062 400.445312 279.828125 400.015625 279.828125 C 399.585938 279.828125 399.160156 279.789062 398.742188 279.703125 C 398.320312 279.621094 397.910156 279.496094 397.515625 279.332031 C 397.117188 279.167969 396.742188 278.96875 396.386719 278.730469 C 396.03125 278.492188 395.699219 278.21875 395.394531 277.917969 C 395.09375 277.613281 394.820312 277.285156 394.582031 276.929688 C 394.34375 276.570312 394.144531 276.195312 393.980469 275.796875 C 393.816406 275.402344 393.691406 274.996094 393.609375 274.574219 C 393.523438 274.152344 393.484375 273.730469 393.484375 273.300781 C 393.484375 272.871094 393.523438 272.445312 393.609375 272.027344 C 393.691406 271.605469 393.816406 271.195312 393.980469 270.800781 C 394.144531 270.40625 394.34375 270.027344 394.582031 269.671875 C 394.820312 269.316406 395.09375 268.984375 395.394531 268.683594 C 395.699219 268.378906 396.03125 268.109375 396.386719 267.871094 C 396.742188 267.632812 397.117188 267.429688 397.515625 267.265625 C 397.910156 267.101562 398.320312 266.980469 398.742188 266.894531 C 399.160156 266.8125 399.585938 266.769531 400.015625 266.769531 C 400.445312 266.769531 400.867188 266.8125 401.289062 266.894531 C 401.710938 266.980469 402.117188 267.101562 402.515625 267.265625 C 402.910156 267.429688 403.285156 267.632812 403.644531 267.871094 C 404 268.109375 404.328125 268.378906 404.632812 268.683594 C 404.9375 268.984375 405.207031 269.316406 405.445312 269.671875 C 405.683594 270.027344 405.886719 270.40625 406.050781 270.800781 C 406.214844 271.195312 406.335938 271.605469 406.421875 272.027344 C 406.503906 272.445312 406.546875 272.871094 406.546875 273.300781 Z M 406.546875 273.300781 " fill-opacity="1" fill-rule="nonzero"/><path fill="#1a4447" d="M 432.988281 414.488281 C 432.875 414.488281 432.769531 414.484375 432.664062 414.484375 C 419.847656 414.332031 408 405.28125 404.488281 392.957031 C 403.425781 389.21875 405.59375 385.324219 409.335938 384.257812 C 413.0625 383.191406 416.96875 385.359375 418.035156 389.101562 C 419.816406 395.363281 426.316406 400.328125 432.828125 400.40625 C 439.324219 400.363281 445.953125 395.671875 447.882812 389.453125 C 449.035156 385.738281 452.992188 383.671875 456.691406 384.8125 C 460.40625 385.96875 462.484375 389.910156 461.332031 393.625 C 457.566406 405.757812 445.679688 414.488281 432.988281 414.488281 Z M 432.988281 414.488281 " fill-opacity="1" fill-rule="nonzero"/><path fill="#1a4447" d="M 419.03125 590.261719 C 335.066406 590.261719 249.023438 586.042969 191.175781 576.542969 C 168.996094 572.902344 123.214844 523.851562 107.445312 505.257812 C 94.21875 489.664062 93.140625 366.226562 93.125 328.765625 C 93.113281 302.160156 93.726562 168.53125 106.859375 150.503906 C 120.285156 132.066406 193.261719 97.929688 204.875 95.773438 C 314.269531 75.429688 487.535156 77 626.210938 99.59375 C 629.304688 100.097656 631.6875 102.582031 632.070312 105.695312 C 653.007812 277.789062 651.832031 422.351562 628.261719 574.421875 C 627.777344 577.523438 625.300781 579.933594 622.1875 580.328125 C 572.144531 586.667969 496.472656 590.261719 419.03125 590.261719 Z M 118.222656 496.195312 C 143.453125 525.933594 180.542969 560.527344 193.460938 562.648438 C 301.703125 580.429688 509.945312 579.503906 615.148438 567.003906 C 637.496094 419.742188 638.601562 279.113281 618.722656 112.652344 C 482.371094 91.089844 314.058594 89.789062 207.449219 109.613281 C 198.453125 111.289062 128.945312 144.101562 118.242188 158.792969 C 103.753906 179.335938 103.746094 475.558594 118.222656 496.195312 Z M 118.242188 496.21875 L 118.289062 496.21875 Z M 118.242188 496.21875 " fill-opacity="1" fill-rule="nonzero"/><path fill="#1a4447" d="M 185.167969 567.082031 C 189.894531 568.316406 194.445312 570.023438 198.949219 571.929688 C 199.238281 571.109375 199.390625 570.230469 199.351562 569.308594 L 198.878906 557.613281 C 192.707031 406.257812 186.324219 249.75 213.089844 103.964844 C 213.339844 102.601562 213.136719 101.277344 212.648438 100.082031 C 208.636719 102.28125 204.277344 104.269531 199.863281 105.234375 C 199.402344 105.460938 198.9375 105.714844 198.472656 105.9375 C 172.375 251.964844 178.667969 407.605469 184.804688 558.183594 Z M 185.167969 567.082031 " fill-opacity="1" fill-rule="nonzero"/><path fill="#1a4447" d="M 261.667969 410.339844 C 260.058594 370.320312 259.210938 324.015625 259.90625 278.933594 C 255.222656 279.195312 250.546875 278.976562 245.96875 278.117188 C 245.246094 322.347656 245.925781 368.167969 247.488281 408.464844 C 250.285156 408.40625 253.105469 408.6875 255.765625 409.046875 C 257.8125 409.320312 259.765625 409.78125 261.667969 410.339844 Z M 261.667969 410.339844 " fill-opacity="1" fill-rule="nonzero"/><path fill="#1a4447" d="M 577.644531 150.839844 C 577.4375 147.699219 575.167969 145.074219 572.085938 144.417969 C 471.554688 123.019531 369.617188 121.246094 260.445312 139.011719 C 257.417969 139.503906 255.054688 141.902344 254.609375 144.9375 C 250.941406 169.878906 248.558594 200.902344 247.183594 234.433594 C 251.871094 234.078125 256.78125 234.875 261.078125 236.75 C 262.328125 205.835938 264.464844 176.691406 267.820312 152.089844 C 371.421875 135.789062 468.402344 137.425781 563.9375 157.097656 C 571.332031 272.832031 571.980469 396.113281 565.867188 523.71875 C 473.027344 532.847656 376.222656 531.4375 270.316406 519.414062 C 268.167969 510.101562 265.71875 485.132812 263.710938 451.542969 C 262.925781 451.6875 262.136719 451.816406 261.339844 451.835938 C 257.40625 451.933594 253.445312 452.1875 249.632812 451.917969 C 252.25 494.65625 255.839844 525.035156 259.390625 530 C 260.546875 531.613281 262.332031 532.667969 264.308594 532.898438 C 326.570312 540.121094 385.726562 543.726562 442.789062 543.726562 C 487.417969 543.726562 530.769531 541.523438 573.328125 537.121094 C 576.785156 536.761719 579.464844 533.933594 579.636719 530.464844 C 586.1875 398.203125 585.519531 270.480469 577.644531 150.839844 Z M 577.644531 150.839844 " fill-opacity="1" fill-rule="nonzero"/><path fill="#1a4447" d="M 286.160156 284.992188 C 274.6875 284.992188 263.148438 284.582031 251.992188 284.1875 C 243.464844 283.890625 234.929688 283.585938 226.347656 283.457031 C 224.4375 283.429688 222.621094 282.625 221.3125 281.234375 C 220.011719 279.839844 219.324219 277.972656 219.421875 276.066406 C 219.792969 268.59375 219.964844 261.886719 220.136719 255.183594 C 220.308594 248.367188 220.480469 241.550781 220.863281 233.957031 C 221.039062 230.394531 223.851562 227.527344 227.410156 227.28125 C 248.84375 225.804688 267.363281 226.085938 287.445312 228.195312 C 290.925781 228.558594 293.609375 231.421875 293.75 234.917969 C 294.507812 254.246094 294.527344 262.789062 293.175781 278.554688 C 292.859375 282.195312 289.816406 284.992188 286.160156 284.992188 Z M 233.800781 269.523438 C 240.042969 269.675781 246.269531 269.898438 252.488281 270.117188 C 261.394531 270.429688 270.546875 270.753906 279.644531 270.871094 C 280.300781 261.136719 280.3125 253.621094 279.902344 241.613281 C 264.886719 240.308594 250.519531 240.09375 234.648438 240.945312 C 234.457031 245.996094 234.335938 250.769531 234.210938 255.542969 C 234.097656 260.121094 233.980469 264.703125 233.800781 269.523438 Z M 233.800781 269.523438 " fill-opacity="1" fill-rule="nonzero"/><path fill="#1a4447" d="M 286.160156 459.027344 C 274.671875 459.027344 263.121094 458.617188 251.945312 458.226562 C 243.4375 457.925781 234.914062 457.621094 226.347656 457.492188 C 224.4375 457.464844 222.621094 456.660156 221.3125 455.269531 C 220.011719 453.871094 219.324219 452.007812 219.421875 450.101562 C 219.792969 442.632812 219.964844 435.925781 220.136719 429.21875 C 220.308594 422.402344 220.480469 415.589844 220.863281 407.992188 C 221.039062 404.433594 223.851562 401.566406 227.410156 401.320312 C 248.84375 399.84375 267.363281 400.125 287.445312 402.230469 C 290.925781 402.597656 293.609375 405.460938 293.75 408.957031 C 294.507812 428.285156 294.527344 436.828125 293.175781 452.589844 C 292.859375 456.230469 289.816406 459.027344 286.160156 459.027344 Z M 233.800781 443.558594 C 240.03125 443.714844 246.238281 443.933594 252.445312 444.152344 C 261.367188 444.46875 270.53125 444.789062 279.644531 444.90625 C 280.300781 435.175781 280.3125 427.660156 279.902344 415.652344 C 264.890625 414.347656 250.519531 414.136719 234.648438 414.984375 C 234.457031 420.03125 234.335938 424.804688 234.210938 429.578125 C 234.097656 434.160156 233.980469 438.742188 233.800781 443.558594 Z M 233.800781 443.558594 " fill-opacity="1" fill-rule="nonzero"/><path fill="#1a4447" d="M 704.023438 344.332031 C 701.933594 344.332031 699.976562 344.121094 698.1875 343.789062 C 684.878906 341.308594 674.164062 330.449219 671.496094 321.382812 C 669.117188 313.304688 671.203125 305.402344 677.222656 299.703125 C 681.28125 295.867188 686.585938 293.625 691.792969 293.320312 C 696.328125 280.011719 703.546875 274.800781 709.140625 272.8125 C 716.808594 270.097656 725.574219 271.890625 733.207031 277.746094 C 747.003906 288.339844 748.519531 309.597656 736.589844 325.136719 C 724.921875 340.324219 713.171875 344.332031 704.023438 344.332031 Z M 693.011719 307.359375 C 691.152344 307.359375 688.757812 308.179688 686.90625 309.929688 C 684.777344 311.945312 684.140625 314.460938 685.007812 317.410156 C 686.050781 320.953125 692.382812 328.382812 700.769531 329.945312 C 709.09375 331.503906 717.398438 327 725.414062 316.558594 C 732.621094 307.179688 732.265625 294.78125 724.628906 288.917969 C 722.84375 287.542969 718.21875 284.527344 713.859375 286.078125 C 709.511719 287.625 705.929688 293.488281 703.773438 302.585938 C 703.3125 304.53125 702.046875 306.191406 700.289062 307.144531 C 698.53125 308.097656 696.453125 308.265625 694.566406 307.597656 C 694.125 307.441406 693.59375 307.359375 693.011719 307.359375 Z M 693.011719 307.359375 " fill-opacity="1" fill-rule="nonzero"/><path fill="#1a4447" d="M 721.570312 329.847656 C 719.117188 332.804688 715.410156 334.796875 710.410156 334.796875 C 709.585938 334.796875 708.851562 334.671875 708.101562 334.570312 C 709.3125 345.816406 705.683594 355.175781 697.257812 362.445312 C 683.109375 374.660156 657.832031 378.875 639.136719 375.957031 C 639.160156 380.597656 638.78125 385.367188 638.1875 390.023438 C 642.386719 390.617188 646.769531 390.972656 651.300781 390.972656 C 670.792969 390.972656 692.285156 385.339844 706.460938 373.105469 C 719.308594 362.015625 724.421875 347.097656 721.570312 329.847656 Z M 721.570312 329.847656 " fill-opacity="1" fill-rule="nonzero"/><path fill="#1a4447" d="M 29.789062 486.136719 C 24.742188 486.140625 19.460938 484.511719 14.484375 481.3125 C 7.21875 476.65625 2.515625 469.085938 1.234375 459.992188 C 0.0117188 451.300781 2.101562 442.203125 7.121094 434.382812 C 19.824219 414.578125 34.070312 411.59375 43.8125 412.558594 C 57.285156 413.910156 68.871094 423.828125 72.292969 432.636719 C 75.347656 440.488281 73.933594 448.539062 68.417969 454.71875 C 64.699219 458.890625 59.597656 461.570312 54.4375 462.3125 C 51.042969 475.953125 44.285156 481.753906 38.878906 484.207031 C 36.027344 485.5 32.953125 486.136719 29.789062 486.136719 Z M 40.636719 426.480469 C 32.863281 426.480469 25.585938 431.6875 18.976562 441.984375 C 15.773438 446.972656 14.425781 452.671875 15.179688 458.03125 C 15.878906 462.996094 18.332031 467.054688 22.089844 469.464844 C 23.984375 470.679688 28.839844 473.300781 33.058594 471.382812 C 37.261719 469.476562 40.335938 463.332031 41.71875 454.085938 C 42.011719 452.109375 43.136719 450.351562 44.808594 449.25 C 46.472656 448.144531 48.542969 447.808594 50.46875 448.316406 C 52.394531 448.820312 55.683594 447.84375 57.90625 445.347656 C 59.855469 443.164062 60.28125 440.601562 59.167969 437.738281 L 59.167969 437.734375 C 57.832031 434.292969 50.894531 427.421875 42.40625 426.570312 C 41.8125 426.511719 41.222656 426.480469 40.636719 426.480469 Z M 40.636719 426.480469 " fill-opacity="1" fill-rule="nonzero"/><path fill="#1a4447" d="M 102.347656 361.613281 C 79.511719 359.574219 49.878906 366.894531 33.097656 384.046875 C 21.042969 396.367188 17.261719 411.953125 21.890625 429.21875 C 25.5 425.96875 29.964844 423.546875 34.65625 422.167969 C 32.65625 411.242188 35.484375 401.742188 43.164062 393.890625 C 56.699219 380.054688 82.835938 373.75 101.925781 375.699219 C 101.636719 370.964844 101.71875 366.246094 102.347656 361.613281 Z M 102.347656 361.613281 " fill-opacity="1" fill-rule="nonzero"/><g clip-path="url(#316a0dfe1a)"><path fill="#1a4447" d="M 552.945312 628.078125 C 547.0625 622.6875 538.960938 620.378906 528.78125 621.15625 L 528.78125 578.828125 C 524.453125 580.132812 519.585938 580.5625 514.699219 580.730469 L 514.699219 629.316406 C 514.699219 631.445312 515.660156 633.457031 517.320312 634.792969 C 518.972656 636.132812 521.148438 636.644531 523.226562 636.199219 C 532.757812 634.140625 539.546875 634.898438 543.425781 638.453125 C 549.359375 643.894531 548.542969 655.976562 547.914062 660.921875 C 547.835938 661.535156 547.277344 662 546.617188 662 L 484.929688 662 C 484.207031 662 483.617188 661.410156 483.617188 660.683594 L 483.617188 583.105469 C 478.792969 583.398438 474.023438 583.199219 469.679688 581.671875 C 469.628906 581.652344 469.585938 581.625 469.535156 581.609375 L 469.535156 660.683594 C 469.535156 669.175781 476.441406 676.078125 484.929688 676.078125 L 546.617188 676.078125 C 554.355469 676.078125 560.921875 670.320312 561.886719 662.691406 C 563.253906 651.894531 562.816406 637.128906 552.945312 628.078125 Z M 552.945312 628.078125 " fill-opacity="1" fill-rule="nonzero"/></g><g clip-path="url(#5f6305c331)"><path fill="#1a4447" d="M 328.625 579.40625 L 328.625 660.683594 C 328.625 661.410156 328.039062 662 327.3125 662 L 265.628906 662 C 264.964844 662 264.40625 661.535156 264.328125 660.917969 C 263.703125 655.976562 262.882812 643.894531 268.816406 638.453125 C 272.695312 634.898438 279.484375 634.136719 289.015625 636.199219 C 291.097656 636.648438 293.269531 636.132812 294.925781 634.792969 C 296.582031 633.457031 297.542969 631.445312 297.542969 629.316406 L 297.542969 578.34375 C 292.855469 578.335938 287.992188 578.871094 283.460938 578.148438 L 283.460938 621.15625 C 273.28125 620.371094 265.179688 622.683594 259.296875 628.078125 C 249.429688 637.128906 248.988281 651.894531 250.355469 662.6875 C 251.320312 670.324219 257.886719 676.078125 265.628906 676.078125 L 327.3125 676.078125 C 335.804688 676.078125 342.710938 669.175781 342.710938 660.683594 L 342.710938 579.660156 C 338.007812 579.648438 333.316406 579.515625 328.625 579.40625 Z M 328.625 579.40625 " fill-opacity="1" fill-rule="nonzero"/></g></svg>