<svg xmlns="http://www.w3.org/2000/svg" xmlns:xlink="http://www.w3.org/1999/xlink" width="1000" zoomAndPan="magnify" viewBox="0 0 750 749.999995" height="1000" preserveAspectRatio="xMidYMid meet" version="1.0"><defs><clipPath id="a4d9d20ad4"><path d="M 429 546 L 537 546 L 537 639.75 L 429 639.75 Z M 429 546 " clip-rule="nonzero"/></clipPath><clipPath id="88c074c008"><path d="M 299 545 L 410 545 L 410 639.75 L 299 639.75 Z M 299 545 " clip-rule="nonzero"/></clipPath></defs><path fill="#b2d7d8" d="M 336.007812 633.707031 C 333.507812 633.660156 331.234375 632.691406 329.527344 630.984375 C 328.523438 629.941406 327.394531 628.4375 326.976562 626.480469 L 326.742188 625.386719 L 326.820312 624.265625 C 326.875 623.496094 328.125 605.207031 325.996094 584.382812 C 325.082031 575.453125 322.269531 567.261719 317.644531 560.03125 L 309.417969 547.179688 L 324.65625 547.855469 C 336.808594 548.394531 349.140625 548.824219 361.316406 549.125 L 366.601562 549.257812 L 368.5 554.195312 C 375.410156 572.164062 373.890625 587.761719 373.023438 593.195312 C 375.925781 592.660156 378.785156 592.386719 381.382812 592.386719 C 388.136719 592.386719 393.53125 594.226562 397.417969 597.859375 C 405.460938 605.363281 404.984375 618.859375 403.988281 626.234375 C 403.375 630.777344 399.425781 634.203125 394.808594 634.203125 Z M 336.007812 633.707031 " fill-opacity="1" fill-rule="nonzero"/><path fill="#b2d7d8" d="M 462.226562 633.707031 C 459.730469 633.660156 457.457031 632.691406 455.746094 630.984375 C 454.742188 629.9375 453.613281 628.4375 453.199219 626.480469 L 452.960938 625.386719 L 453.039062 624.265625 C 453.09375 623.496094 454.34375 605.207031 452.210938 584.382812 C 451.371094 576.097656 448.859375 568.402344 444.75 561.503906 L 437.746094 549.746094 L 451.421875 549.535156 C 463.441406 549.351562 475.375 549.070312 486.898438 548.703125 L 492.476562 548.523438 L 494.511719 553.722656 C 501.632812 571.890625 500.105469 587.722656 499.242188 593.195312 C 502.15625 592.660156 505.015625 592.382812 507.613281 592.382812 C 514.355469 592.382812 519.75 594.222656 523.636719 597.859375 C 531.667969 605.34375 531.199219 618.84375 530.207031 626.222656 C 529.597656 630.769531 525.648438 634.203125 521.023438 634.203125 Z M 462.226562 633.707031 " fill-opacity="1" fill-rule="nonzero"/><path fill="#79afae" d="M 644.140625 384.984375 C 637.808594 384.984375 631.265625 384.46875 624.6875 383.457031 L 617.710938 382.378906 L 617.988281 375.324219 C 618.960938 350.316406 619.300781 325.007812 619.003906 300.105469 L 618.9375 294.398438 L 624.324219 292.53125 C 631.761719 289.953125 639.648438 288.648438 647.773438 288.648438 C 656.683594 288.648438 665.539062 290.285156 673.484375 293.394531 C 674.28125 289.667969 675.324219 284.96875 676.371094 280.261719 L 678.867188 268.972656 C 676.964844 268.4375 675.167969 267.769531 673.476562 266.976562 C 665.609375 263.257812 660.210938 256.273438 659.707031 249.179688 C 659.34375 244.117188 661.472656 239.078125 665.691406 234.996094 C 670.855469 229.976562 678.742188 226.839844 686.257812 226.839844 C 687.195312 226.839844 688.121094 226.890625 689.035156 226.988281 C 701.28125 228.226562 713.210938 236.234375 721.734375 248.960938 C 743.867188 282.007812 738.523438 332.933594 710.0625 360.164062 C 693.109375 376.402344 670.308594 384.984375 644.140625 384.984375 Z M 644.140625 384.984375 " fill-opacity="1" fill-rule="nonzero"/><path fill="#b2d7d8" d="M 416.390625 552.480469 C 334.914062 552.480469 262.761719 548.296875 213.222656 540.703125 L 206.78125 539.714844 L 206.285156 527.460938 C 200.5625 386.84375 194.636719 241.4375 218.996094 105 L 219.964844 99.558594 L 225.40625 98.597656 C 270.613281 90.609375 327.585938 86.386719 390.167969 86.386719 C 462.097656 86.386719 537.355469 92.09375 602.078125 102.464844 L 607.984375 103.410156 L 608.6875 109.351562 C 627.175781 266.277344 626.148438 398.207031 605.359375 537.125 L 604.464844 543.089844 L 598.480469 543.8125 C 552.671875 549.320312 486.300781 552.480469 416.390625 552.480469 Z M 416.390625 552.480469 " fill-opacity="1" fill-rule="nonzero"/><path fill="#79afae" d="M 197.097656 535.765625 C 179.933594 525.808594 150.964844 496.878906 132.425781 474.714844 L 132.191406 474.4375 L 131.984375 474.136719 C 130.011719 471.28125 125.386719 464.589844 122.519531 404.691406 L 122.316406 400.480469 C 116.167969 401.476562 110.082031 401.984375 104.121094 401.984375 C 83.390625 401.984375 64.296875 395.855469 48.898438 384.269531 C 17.425781 360.570312 6.121094 310.625 24.210938 275.207031 C 31.175781 261.5625 42.078125 252.195312 54.121094 249.523438 C 56.070312 249.089844 58.113281 248.875 60.191406 248.875 C 66.789062 248.875 73.363281 251.015625 78.238281 254.75 C 82.882812 258.28125 85.589844 263.03125 85.828125 268.105469 C 86.160156 275.21875 81.617188 282.789062 74.257812 287.398438 C 72.671875 288.394531 70.960938 289.269531 69.136719 290.023438 L 73.035156 301.214844 C 74.597656 305.675781 76.152344 310.121094 77.363281 313.664062 C 91.707031 306.242188 106.539062 302.324219 120.351562 302.324219 L 120.566406 302.324219 L 120.59375 297.488281 C 120.878906 247.742188 122.738281 162.296875 132.007812 148.964844 C 142.429688 134.472656 193.324219 109.914062 209.699219 103.070312 L 219.050781 99.164062 C 220.75 98.453125 222.566406 99.898438 222.253906 101.71875 L 220.542969 111.714844 C 197.476562 246.324219 203.289062 389.191406 208.921875 527.359375 L 209.324219 537.070312 C 209.429688 539.640625 206.65625 541.316406 204.433594 540.023438 Z M 197.097656 535.765625 " fill-opacity="1" fill-rule="nonzero"/><path fill="#79afae" d="M 289.683594 429.476562 C 281.117188 429.363281 272.507812 429.0625 264.121094 428.769531 C 258.273438 428.558594 252.484375 428.355469 246.683594 428.210938 L 238.679688 428.011719 L 238.976562 420.007812 C 239.128906 415.863281 239.234375 411.914062 239.332031 407.980469 L 239.355469 406.996094 C 239.472656 402.496094 239.585938 397.984375 239.769531 393.210938 L 240.050781 386.003906 L 247.253906 385.617188 C 253.359375 385.292969 259.109375 385.136719 264.828125 385.136719 C 273.492188 385.136719 281.960938 385.503906 290.714844 386.265625 L 297.699219 386.871094 L 297.9375 393.878906 C 298.347656 406.03125 298.285156 413.148438 297.679688 422.097656 L 297.171875 429.574219 Z M 289.683594 429.476562 " fill-opacity="1" fill-rule="nonzero"/><path fill="#d1f2f0" d="M 442.5 508.859375 C 390.316406 508.859375 337.21875 505.707031 280.160156 499.21875 L 274.605469 498.585938 L 273.347656 493.132812 C 270.660156 481.476562 268.464844 451.652344 267.394531 434.914062 L 266.835938 426.238281 L 275.527344 426.5 C 281.59375 426.679688 288.097656 426.851562 294.671875 426.867188 C 295.777344 413.589844 295.769531 405.773438 295.132812 389.332031 C 287.472656 388.558594 280.03125 388.085938 272.425781 387.890625 L 264.992188 387.703125 L 264.722656 380.265625 C 263.382812 343.226562 262.90625 305.488281 263.34375 271.132812 L 263.449219 263.050781 L 271.515625 263.324219 C 278.535156 263.554688 286.640625 263.804688 294.671875 263.824219 C 295.777344 250.546875 295.769531 242.730469 295.132812 226.285156 C 287.542969 225.519531 280.15625 225.046875 272.609375 224.847656 L 264.535156 224.628906 L 264.917969 216.558594 C 266.214844 189.40625 268.21875 165.726562 270.882812 146.171875 L 271.679688 140.339844 L 277.488281 139.421875 C 321.71875 132.457031 365.414062 128.925781 407.367188 128.925781 C 458.574219 128.925781 507.679688 133.914062 557.496094 144.179688 L 563.410156 145.394531 L 563.789062 151.429688 C 570.730469 260.15625 571.339844 376.015625 565.601562 495.769531 L 565.273438 502.597656 L 558.472656 503.265625 C 520.800781 506.976562 481.78125 508.859375 442.5 508.859375 Z M 442.5 508.859375 " fill-opacity="1" fill-rule="nonzero"/><path fill="#79afae" d="M 289.683594 266.429688 C 281.125 266.320312 272.511719 266.019531 264.128906 265.726562 C 258.273438 265.515625 252.484375 265.3125 246.683594 265.167969 L 238.679688 264.96875 L 238.976562 256.964844 C 239.128906 252.820312 239.234375 248.867188 239.332031 244.9375 L 239.355469 243.953125 C 239.472656 239.453125 239.585938 234.9375 239.769531 230.167969 L 240.050781 222.953125 L 247.257812 222.574219 C 253.378906 222.25 259.136719 222.097656 264.851562 222.097656 C 273.527344 222.097656 281.988281 222.460938 290.714844 223.222656 L 297.699219 223.828125 L 297.9375 230.835938 C 298.347656 242.984375 298.285156 250.105469 297.679688 259.054688 L 297.171875 266.53125 Z M 289.683594 266.429688 " fill-opacity="1" fill-rule="nonzero"/><path fill="#f4c3e9" d="M 431.964844 434.34375 C 411.007812 434.34375 394.597656 428.507812 385.761719 417.90625 L 380.105469 411.117188 C 379.386719 410.257812 379.730469 408.945312 380.78125 408.546875 L 389.046875 405.429688 C 396.5625 402.59375 404.875 401.15625 413.753906 401.15625 C 418.335938 401.15625 423.152344 401.542969 428.070312 402.296875 L 434.734375 403.535156 C 446.378906 406.085938 456.1875 410.238281 464.128906 415.933594 L 471.863281 421.476562 C 473.820312 422.878906 473.386719 425.902344 471.113281 426.695312 L 462.132812 429.835938 C 455.011719 432.328125 446.773438 433.792969 437.644531 434.207031 L 432.136719 434.34375 Z M 431.964844 434.34375 " fill-opacity="1" fill-rule="nonzero"/><path fill="#1a4447" d="M 466.886719 421.582031 C 458.433594 414.222656 447.445312 409.019531 434.21875 406.125 L 427.632812 404.898438 C 423.234375 404.226562 418.65625 403.859375 414.25 403.859375 C 405.386719 403.859375 397.082031 405.320312 389.570312 408.199219 L 382.300781 410.984375 C 380.953125 411.5 379.488281 410.566406 379.386719 409.125 L 378.851562 401.355469 C 378.347656 394.105469 380.714844 387.175781 385.519531 381.851562 C 390.789062 375.996094 398.429688 372.777344 407.042969 372.777344 C 411.242188 372.777344 415.652344 373.519531 420.144531 374.988281 C 424.054688 376.265625 428.128906 376.910156 432.269531 376.910156 C 437.03125 376.910156 441.679688 376.0625 446.097656 374.390625 C 451.085938 372.496094 455.992188 371.539062 460.6875 371.539062 C 468.78125 371.539062 475.855469 374.367188 481.152344 379.714844 C 488.566406 387.210938 490.839844 398.503906 486.945312 408.484375 C 484.96875 413.535156 481.652344 417.992188 477.089844 421.734375 L 471.925781 425.96875 Z M 466.886719 421.582031 " fill-opacity="1" fill-rule="nonzero"/><path fill="#f4c3e9" d="M 433.101562 299.496094 C 421.589844 299.496094 410.257812 296.664062 400.328125 291.3125 C 383.09375 282.035156 370.285156 265.074219 366.066406 245.941406 C 360.15625 219.144531 369.882812 191.992188 391.445312 175.070312 C 403.636719 165.507812 418 160.457031 432.972656 160.457031 C 443.46875 160.457031 453.777344 162.910156 463.605469 167.765625 C 490.75 181.167969 506.828125 213.6875 501.011719 243.410156 C 495.1875 273.140625 468.023438 297.175781 437.828125 299.332031 C 436.25 299.441406 434.671875 299.496094 433.101562 299.496094 Z M 433.101562 299.496094 " fill-opacity="1" fill-rule="nonzero"/><path fill="#1a4447" d="M 433.21875 252.269531 C 429.542969 252.269531 425.910156 251.367188 422.722656 249.660156 C 417.167969 246.65625 413.0625 241.210938 411.710938 235.085938 C 409.449219 224.824219 414.433594 216.621094 419.84375 212.375 C 423.757812 209.3125 428.371094 207.699219 433.203125 207.699219 C 436.589844 207.699219 439.890625 208.484375 443.015625 210.035156 C 451.710938 214.320312 456.867188 224.75 455 234.285156 C 453.132812 243.816406 444.417969 251.527344 434.734375 252.21875 C 434.21875 252.253906 433.722656 252.269531 433.21875 252.269531 Z M 433.21875 252.269531 " fill-opacity="1" fill-rule="nonzero"/><path fill="#f4c3e9" d="M 372.390625 353.070312 C 372.390625 354.007812 372.300781 354.941406 372.117188 355.863281 C 371.933594 356.785156 371.664062 357.683594 371.300781 358.550781 C 370.941406 359.421875 370.5 360.246094 369.980469 361.027344 C 369.457031 361.808594 368.863281 362.535156 368.199219 363.199219 C 367.535156 363.863281 366.8125 364.457031 366.03125 364.980469 C 365.25 365.503906 364.421875 365.945312 363.554688 366.304688 C 362.6875 366.664062 361.792969 366.9375 360.871094 367.117188 C 359.949219 367.300781 359.015625 367.394531 358.078125 367.394531 C 357.136719 367.394531 356.207031 367.300781 355.285156 367.117188 C 354.363281 366.9375 353.464844 366.664062 352.597656 366.304688 C 351.730469 365.945312 350.90625 365.503906 350.121094 364.980469 C 349.339844 364.457031 348.617188 363.863281 347.953125 363.199219 C 347.289062 362.535156 346.695312 361.808594 346.171875 361.027344 C 345.652344 360.246094 345.210938 359.421875 344.851562 358.550781 C 344.492188 357.683594 344.21875 356.785156 344.035156 355.863281 C 343.851562 354.941406 343.761719 354.007812 343.761719 353.070312 C 343.761719 352.128906 343.851562 351.195312 344.035156 350.273438 C 344.21875 349.351562 344.492188 348.457031 344.851562 347.585938 C 345.210938 346.71875 345.652344 345.890625 346.171875 345.109375 C 346.695312 344.328125 347.289062 343.605469 347.953125 342.9375 C 348.617188 342.273438 349.339844 341.679688 350.121094 341.15625 C 350.90625 340.636719 351.730469 340.195312 352.597656 339.832031 C 353.464844 339.472656 354.363281 339.203125 355.285156 339.019531 C 356.207031 338.835938 357.136719 338.742188 358.078125 338.742188 C 359.015625 338.742188 359.949219 338.835938 360.871094 339.019531 C 361.792969 339.203125 362.6875 339.472656 363.554688 339.832031 C 364.421875 340.195312 365.25 340.636719 366.03125 341.15625 C 366.8125 341.679688 367.535156 342.273438 368.199219 342.9375 C 368.863281 343.605469 369.457031 344.328125 369.980469 345.109375 C 370.5 345.890625 370.941406 346.71875 371.300781 347.585938 C 371.664062 348.457031 371.933594 349.351562 372.117188 350.273438 C 372.300781 351.195312 372.390625 352.128906 372.390625 353.070312 Z M 372.390625 353.070312 " fill-opacity="1" fill-rule="nonzero"/><path fill="#f4c3e9" d="M 523.902344 353.070312 C 523.902344 354.007812 523.808594 354.941406 523.625 355.863281 C 523.441406 356.785156 523.171875 357.683594 522.8125 358.550781 C 522.453125 359.421875 522.011719 360.246094 521.488281 361.027344 C 520.964844 361.808594 520.371094 362.535156 519.707031 363.199219 C 519.042969 363.863281 518.320312 364.457031 517.539062 364.980469 C 516.757812 365.503906 515.933594 365.945312 515.0625 366.304688 C 514.195312 366.664062 513.300781 366.9375 512.378906 367.117188 C 511.457031 367.300781 510.523438 367.394531 509.585938 367.394531 C 508.644531 367.394531 507.714844 367.300781 506.792969 367.117188 C 505.871094 366.9375 504.976562 366.664062 504.105469 366.304688 C 503.238281 365.945312 502.414062 365.503906 501.632812 364.980469 C 500.851562 364.457031 500.125 363.863281 499.460938 363.199219 C 498.796875 362.535156 498.203125 361.808594 497.679688 361.027344 C 497.160156 360.246094 496.71875 359.421875 496.359375 358.550781 C 496 357.683594 495.726562 356.785156 495.542969 355.863281 C 495.359375 354.941406 495.269531 354.007812 495.269531 353.070312 C 495.269531 352.128906 495.359375 351.195312 495.542969 350.273438 C 495.726562 349.351562 496 348.457031 496.359375 347.585938 C 496.71875 346.71875 497.160156 345.890625 497.679688 345.109375 C 498.203125 344.328125 498.796875 343.605469 499.460938 342.9375 C 500.125 342.273438 500.851562 341.679688 501.632812 341.15625 C 502.414062 340.636719 503.238281 340.195312 504.105469 339.832031 C 504.976562 339.472656 505.871094 339.203125 506.792969 339.019531 C 507.714844 338.835938 508.644531 338.742188 509.585938 338.742188 C 510.523438 338.742188 511.457031 338.835938 512.378906 339.019531 C 513.300781 339.203125 514.195312 339.472656 515.0625 339.832031 C 515.933594 340.195312 516.757812 340.636719 517.539062 341.15625 C 518.320312 341.679688 519.042969 342.273438 519.707031 342.9375 C 520.371094 343.605469 520.964844 344.328125 521.488281 345.109375 C 522.011719 345.890625 522.453125 346.71875 522.8125 347.585938 C 523.171875 348.457031 523.441406 349.351562 523.625 350.273438 C 523.808594 351.195312 523.902344 352.128906 523.902344 353.070312 Z M 523.902344 353.070312 " fill-opacity="1" fill-rule="nonzero"/><path fill="#1a4447" d="M 678.570312 268.320312 C 676.945312 267.632812 675.507812 266.75 674.160156 265.757812 C 673.355469 269.519531 672.296875 274.292969 671.222656 279.121094 C 670.664062 281.625 670.113281 284.128906 669.59375 286.488281 C 653.851562 281.851562 636.128906 282.363281 620.792969 288.136719 C 620.082031 288.402344 619.421875 288.75 618.722656 289.039062 C 619.402344 293.554688 619.804688 298.230469 619.890625 302.921875 C 621.679688 302.023438 623.523438 301.203125 625.429688 300.484375 C 640.160156 294.941406 657.53125 295.253906 671.894531 301.285156 C 673.707031 302.039062 675.757812 301.953125 677.5 301.046875 C 679.242188 300.132812 680.488281 298.492188 680.894531 296.570312 C 681.71875 292.671875 682.902344 287.328125 684.09375 281.980469 C 685.046875 277.683594 685.992188 273.417969 686.765625 269.855469 C 683.996094 269.886719 681.28125 269.464844 678.570312 268.320312 Z M 678.570312 268.320312 " fill-opacity="1" fill-rule="nonzero"/><path fill="#1a4447" d="M 726.117188 246.019531 C 716.710938 231.984375 703.378906 223.132812 689.539062 221.734375 C 679.621094 220.738281 669.066406 224.359375 662.007812 231.21875 C 656.660156 236.414062 653.976562 242.925781 654.449219 249.554688 C 655.097656 258.660156 661.519531 267.164062 671.21875 271.742188 C 678.53125 275.195312 687.410156 276.464844 697.597656 275.558594 C 701.21875 275.230469 703.894531 272.023438 703.570312 268.394531 C 703.238281 264.769531 700.046875 262.105469 696.414062 262.417969 C 688.601562 263.128906 682.003906 262.242188 676.84375 259.8125 C 671.613281 257.34375 667.898438 252.84375 667.597656 248.617188 C 667.351562 245.183594 669.414062 242.410156 671.1875 240.6875 C 675.398438 236.59375 682.222656 234.234375 688.210938 234.855469 C 698.132812 235.859375 707.957031 242.605469 715.164062 253.363281 C 735.289062 283.414062 730.453125 329.703125 704.597656 354.449219 C 683.308594 374.828125 652.050781 381.605469 617.847656 374.167969 C 617.621094 378.59375 616.96875 382.988281 616.621094 387.421875 C 626.007812 389.363281 635.210938 390.347656 644.113281 390.347656 C 671.179688 390.347656 695.472656 381.4375 713.710938 363.980469 C 744.425781 334.582031 749.992188 281.664062 726.117188 246.019531 Z M 726.117188 246.019531 " fill-opacity="1" fill-rule="nonzero"/><path fill="#1a4447" d="M 170.617188 324.835938 C 165.144531 313.246094 155.1875 304.785156 141.804688 300.355469 C 123.824219 294.394531 101.796875 296.609375 80.410156 306.320312 C 79.640625 304.125 78.828125 301.800781 78.015625 299.46875 C 76.28125 294.523438 74.5625 289.597656 73.277344 285.828125 C 69.289062 287.703125 65.308594 289.890625 60.984375 290.628906 C 62.257812 294.355469 63.90625 299.074219 65.570312 303.832031 C 67.347656 308.90625 69.113281 313.960938 70.371094 317.667969 C 70.992188 319.503906 72.394531 320.972656 74.191406 321.679688 C 75.996094 322.398438 78.023438 322.277344 79.722656 321.367188 C 100.039062 310.507812 121.171875 307.429688 137.664062 312.878906 C 147.535156 316.144531 154.808594 322.226562 158.695312 330.46875 C 159.820312 332.851562 162.191406 334.25 164.660156 334.25 C 165.605469 334.25 166.5625 334.046875 167.472656 333.617188 C 170.761719 332.0625 172.171875 328.128906 170.617188 324.835938 Z M 170.617188 324.835938 " fill-opacity="1" fill-rule="nonzero"/><path fill="#1a4447" d="M 104.085938 407.285156 C 82.457031 407.285156 62.382812 401.019531 45.722656 388.476562 C 11.757812 362.902344 0 311.015625 19.511719 272.804688 C 27.195312 257.757812 39.390625 247.394531 52.976562 244.371094 C 62.714844 242.195312 73.617188 244.574219 81.433594 250.550781 C 87.351562 255.074219 90.785156 261.226562 91.09375 267.863281 C 91.523438 276.984375 86.144531 286.183594 77.058594 291.871094 C 70.207031 296.160156 61.550781 298.484375 51.316406 298.773438 C 47.621094 299 44.640625 296.011719 44.539062 292.371094 C 44.4375 288.726562 47.296875 285.691406 50.9375 285.589844 C 58.796875 285.367188 65.230469 283.71875 70.0625 280.691406 C 74.96875 277.621094 78.125 272.714844 77.929688 268.480469 C 77.765625 265.042969 75.390625 262.53125 73.425781 261.03125 C 68.765625 257.464844 61.710938 255.953125 55.835938 257.246094 C 46.101562 259.414062 37.140625 267.273438 31.253906 278.808594 C 14.804688 311.015625 25.0625 356.410156 53.652344 377.941406 C 83.128906 400.136719 125.613281 399.390625 167.292969 375.917969 C 170.460938 374.132812 174.480469 375.257812 176.269531 378.433594 C 178.054688 381.609375 176.929688 385.632812 173.753906 387.417969 C 150.238281 400.65625 126.339844 407.285156 104.085938 407.285156 Z M 104.085938 407.285156 " fill-opacity="1" fill-rule="nonzero"/><path fill="#1a4447" d="M 432.101562 439.621094 C 392.5 439.621094 379.921875 420.933594 376.34375 412.894531 C 371.144531 401.210938 373.207031 387.640625 381.601562 378.316406 C 390.941406 367.933594 405.945312 364.800781 421.773438 369.972656 C 429.089844 372.351562 437.054688 372.171875 444.230469 369.457031 C 459.796875 363.554688 475.011719 366 484.902344 376.007812 C 493.78125 384.988281 496.507812 398.492188 491.851562 410.40625 C 488.671875 418.558594 477.027344 437.695312 437.738281 439.488281 L 432.191406 439.621094 Z M 407.042969 380.691406 C 400.679688 380.691406 395.230469 382.886719 391.394531 387.148438 C 386.410156 392.683594 385.257812 400.492188 388.386719 407.527344 C 393.734375 419.539062 409.617188 426.429688 431.964844 426.429688 L 432.039062 426.429688 L 437.285156 426.304688 C 459.363281 425.300781 474.832031 417.75 479.578125 405.605469 C 482.335938 398.539062 480.746094 390.558594 475.53125 385.28125 C 469.316406 379.003906 459.617188 377.730469 448.898438 381.789062 C 438.9375 385.570312 427.855469 385.832031 417.6875 382.507812 C 413.957031 381.292969 410.371094 380.691406 407.042969 380.691406 Z M 407.042969 380.691406 " fill-opacity="1" fill-rule="nonzero"/><path fill="#1a4447" d="M 464.648438 426.523438 C 468.542969 423.941406 472.566406 421.769531 476.824219 420.144531 C 467.089844 409.660156 453.1875 402.179688 435.910156 398.386719 L 429.078125 397.117188 C 409.996094 394.167969 392.820312 396.757812 378.8125 404.386719 C 380.707031 408.339844 382.433594 412.371094 384.28125 416.367188 C 394.171875 410.6875 407.9375 407.203125 426.863281 410.121094 L 433.289062 411.3125 C 447.839844 414.507812 457.816406 420.140625 464.648438 426.523438 Z M 464.648438 426.523438 " fill-opacity="1" fill-rule="nonzero"/><path fill="#1a4447" d="M 398.8125 353.070312 C 398.714844 353.070312 398.609375 353.066406 398.507812 353.0625 C 394.875 352.898438 392.058594 349.808594 392.226562 346.171875 C 392.546875 339.097656 388.089844 333.121094 382.292969 332.851562 C 376.578125 332.648438 371.511719 338.128906 371.1875 345.207031 C 371.023438 348.84375 368.050781 351.710938 364.304688 351.492188 C 360.667969 351.332031 357.851562 348.242188 358.019531 344.605469 C 358.671875 330.269531 369.71875 319 382.890625 319.679688 C 395.953125 320.277344 406.046875 332.433594 405.390625 346.773438 C 405.230469 350.3125 402.3125 353.070312 398.8125 353.070312 Z M 398.8125 353.070312 " fill-opacity="1" fill-rule="nonzero"/><path fill="#1a4447" d="M 502.976562 354.042969 C 502.871094 354.042969 502.769531 354.039062 502.667969 354.035156 C 499.03125 353.867188 496.222656 350.785156 496.390625 347.144531 C 496.550781 343.5625 495.507812 340.179688 493.453125 337.617188 C 491.589844 335.296875 489.105469 333.953125 486.460938 333.828125 C 480.609375 333.667969 475.675781 339.105469 475.355469 346.183594 C 475.191406 349.824219 472.304688 352.652344 468.472656 352.46875 C 464.835938 352.304688 462.019531 349.21875 462.1875 345.582031 C 462.839844 331.242188 473.898438 319.929688 487.058594 320.652344 C 493.546875 320.949219 499.46875 324.042969 503.730469 329.355469 C 507.800781 334.425781 509.867188 340.960938 509.554688 347.753906 C 509.390625 351.289062 506.476562 354.042969 502.976562 354.042969 Z M 502.976562 354.042969 " fill-opacity="1" fill-rule="nonzero"/><g clip-path="url(#a4d9d20ad4)"><path fill="#1a4447" d="M 527.230469 593.992188 C 521.84375 588.972656 514.492188 586.707031 505.148438 587.1875 C 505.65625 577.980469 504.839844 562.875 497.300781 546.746094 C 497.191406 546.753906 497.097656 546.789062 496.984375 546.796875 C 492.011719 547.113281 487.296875 547.683594 482.753906 547.363281 C 495.871094 570.4375 491.4375 592.167969 491.171875 593.390625 C 490.675781 595.578125 491.324219 597.867188 492.894531 599.46875 C 494.464844 601.0625 496.742188 601.769531 498.9375 601.300781 C 508.042969 599.40625 514.542969 600.191406 518.238281 603.640625 C 523.878906 608.902344 523.003906 620.453125 522.367188 625.167969 C 522.28125 625.808594 521.707031 626.289062 521.023438 626.289062 L 521.011719 626.289062 L 462.296875 625.789062 C 461.832031 625.785156 461.519531 625.566406 461.339844 625.386719 C 461.160156 625.203125 460.945312 624.882812 460.929688 624.824219 C 460.988281 624.03125 462.28125 605.066406 460.082031 583.574219 C 458.515625 568.210938 452.25 557.085938 446 549.535156 C 445.375 549.648438 444.148438 549.847656 443.785156 549.910156 C 442.671875 550.105469 441.558594 550.304688 440.441406 550.476562 C 437.640625 550.90625 434.78125 551.386719 431.941406 551.46875 C 431.074219 551.492188 430.199219 551.410156 429.324219 551.367188 C 435.085938 556.074219 445.109375 566.707031 446.96875 584.914062 C 449.042969 605.230469 447.796875 623.710938 447.765625 624.304688 C 447.730469 628.191406 449.210938 631.863281 451.9375 634.632812 C 454.664062 637.40625 458.304688 638.953125 462.1875 638.980469 L 520.898438 639.480469 L 521.023438 639.480469 C 528.277344 639.480469 534.457031 634.113281 535.429688 626.941406 C 536.816406 616.691406 536.515625 602.660156 527.230469 593.992188 Z M 527.230469 593.992188 " fill-opacity="1" fill-rule="nonzero"/></g><g clip-path="url(#88c074c008)"><path fill="#1a4447" d="M 401.015625 593.992188 C 395.628906 588.972656 388.269531 586.695312 378.925781 587.1875 C 379.40625 578.582031 378.707031 564.816406 372.460938 549.882812 C 367.148438 549.921875 362.105469 549.761719 357.351562 548.824219 C 369.46875 571.347656 365.210938 592.191406 364.949219 593.390625 C 364.457031 595.578125 365.105469 597.867188 366.675781 599.464844 C 368.25 601.0625 370.523438 601.769531 372.71875 601.300781 C 381.820312 599.40625 388.332031 600.199219 392.019531 603.640625 C 397.664062 608.90625 396.785156 620.453125 396.148438 625.175781 C 396.0625 625.8125 395.488281 626.289062 394.808594 626.289062 L 394.796875 626.289062 L 336.074219 625.789062 C 335.613281 625.785156 335.300781 625.566406 335.117188 625.386719 C 334.9375 625.203125 334.722656 624.882812 334.710938 624.824219 C 334.765625 624.03125 336.0625 605.066406 333.867188 583.574219 C 332.011719 565.421875 323.621094 553.199219 316.429688 545.8125 C 311.03125 546.558594 305.265625 548.117188 299.589844 548.789062 C 302.710938 550.75 318.375 561.675781 320.753906 584.914062 C 322.828125 605.230469 321.574219 623.710938 321.546875 624.308594 C 321.515625 628.195312 322.996094 631.863281 325.722656 634.632812 C 328.445312 637.40625 332.085938 638.953125 335.96875 638.980469 L 394.683594 639.480469 L 394.808594 639.480469 C 402.066406 639.480469 408.246094 634.109375 409.210938 626.941406 C 410.597656 616.695312 410.300781 602.664062 401.015625 593.992188 Z M 401.015625 593.992188 " fill-opacity="1" fill-rule="nonzero"/></g><path fill="#1a4447" d="M 433.058594 304.777344 C 420.839844 304.777344 408.5 301.714844 397.828125 295.960938 C 379.261719 285.960938 365.460938 267.6875 360.917969 247.078125 C 354.566406 218.28125 365.019531 189.101562 388.191406 170.921875 C 410.859375 153.136719 439.921875 150.195312 465.933594 163.03125 L 465.9375 163.03125 C 495.148438 177.449219 512.449219 212.445312 506.179688 244.425781 C 499.921875 276.417969 470.695312 302.285156 438.199219 304.59375 C 436.492188 304.71875 434.777344 304.777344 433.058594 304.777344 Z M 432.972656 168.371094 C 419.984375 168.371094 407.25 172.734375 396.324219 181.304688 C 377.175781 196.324219 368.542969 220.4375 373.789062 244.234375 C 377.519531 261.148438 388.839844 276.140625 404.078125 284.34375 C 414.082031 289.738281 425.859375 292.226562 437.265625 291.4375 C 464.023438 289.53125 488.089844 268.234375 493.246094 241.894531 C 498.40625 215.554688 484.160156 186.738281 460.101562 174.863281 L 460.105469 174.863281 C 451.300781 170.519531 442.074219 168.371094 432.972656 168.371094 Z M 432.972656 168.371094 " fill-opacity="1" fill-rule="nonzero"/><path fill="#1a4447" d="M 433.144531 257.550781 C 428.636719 257.554688 424.199219 256.441406 420.210938 254.292969 C 413.34375 250.59375 408.246094 243.839844 406.5625 236.222656 C 404.226562 225.632812 408.074219 214.902344 416.59375 208.214844 C 424.859375 201.734375 435.867188 200.621094 445.335938 205.296875 C 456.105469 210.613281 462.484375 223.511719 460.171875 235.300781 C 457.867188 247.089844 447.09375 256.625 435.109375 257.480469 C 434.453125 257.527344 433.800781 257.550781 433.144531 257.550781 Z M 433.203125 215.613281 C 430.199219 215.613281 427.25 216.625 424.726562 218.597656 C 421.203125 221.363281 417.964844 226.695312 419.4375 233.378906 C 420.285156 237.238281 422.976562 240.800781 426.457031 242.679688 C 428.78125 243.929688 431.546875 244.503906 434.171875 244.324219 C 440.316406 243.886719 446.054688 238.804688 447.238281 232.765625 C 448.421875 226.71875 445.023438 219.847656 439.503906 217.125 L 439.5 217.121094 C 437.457031 216.113281 435.3125 215.613281 433.203125 215.613281 Z M 433.203125 215.613281 " fill-opacity="1" fill-rule="nonzero"/><path fill="#1a4447" d="M 439.386719 186.351562 C 439.386719 186.753906 439.347656 187.152344 439.269531 187.546875 C 439.191406 187.9375 439.074219 188.320312 438.921875 188.691406 C 438.765625 189.0625 438.578125 189.417969 438.355469 189.75 C 438.132812 190.085938 437.878906 190.394531 437.59375 190.679688 C 437.3125 190.960938 437.003906 191.214844 436.667969 191.4375 C 436.335938 191.664062 435.984375 191.851562 435.613281 192.003906 C 435.242188 192.15625 434.859375 192.273438 434.464844 192.351562 C 434.070312 192.429688 433.671875 192.46875 433.273438 192.46875 C 432.871094 192.46875 432.472656 192.429688 432.078125 192.351562 C 431.6875 192.273438 431.304688 192.15625 430.933594 192.003906 C 430.5625 191.851562 430.210938 191.664062 429.875 191.4375 C 429.542969 191.214844 429.234375 190.960938 428.949219 190.679688 C 428.664062 190.394531 428.410156 190.085938 428.1875 189.75 C 427.964844 189.417969 427.777344 189.0625 427.625 188.691406 C 427.46875 188.320312 427.355469 187.9375 427.273438 187.546875 C 427.195312 187.152344 427.15625 186.753906 427.15625 186.351562 C 427.15625 185.949219 427.195312 185.550781 427.273438 185.15625 C 427.355469 184.765625 427.46875 184.382812 427.625 184.011719 C 427.777344 183.640625 427.964844 183.285156 428.1875 182.953125 C 428.410156 182.617188 428.664062 182.308594 428.949219 182.027344 C 429.234375 181.742188 429.542969 181.488281 429.875 181.265625 C 430.210938 181.042969 430.5625 180.851562 430.933594 180.699219 C 431.304688 180.546875 431.6875 180.429688 432.078125 180.351562 C 432.472656 180.273438 432.871094 180.234375 433.273438 180.234375 C 433.671875 180.234375 434.070312 180.273438 434.464844 180.351562 C 434.859375 180.429688 435.242188 180.546875 435.613281 180.699219 C 435.984375 180.851562 436.335938 181.042969 436.667969 181.265625 C 437.003906 181.488281 437.3125 181.742188 437.59375 182.027344 C 437.878906 182.308594 438.132812 182.617188 438.355469 182.953125 C 438.578125 183.285156 438.765625 183.640625 438.921875 184.011719 C 439.074219 184.382812 439.191406 184.765625 439.269531 185.15625 C 439.347656 185.550781 439.386719 185.949219 439.386719 186.351562 Z M 439.386719 186.351562 " fill-opacity="1" fill-rule="nonzero"/><path fill="#1a4447" d="M 439.386719 273.5625 C 439.386719 273.964844 439.347656 274.363281 439.269531 274.757812 C 439.191406 275.152344 439.074219 275.535156 438.921875 275.90625 C 438.765625 276.277344 438.578125 276.628906 438.355469 276.964844 C 438.132812 277.296875 437.878906 277.605469 437.59375 277.890625 C 437.3125 278.175781 437.003906 278.429688 436.667969 278.652344 C 436.335938 278.875 435.984375 279.0625 435.613281 279.214844 C 435.242188 279.371094 434.859375 279.484375 434.464844 279.566406 C 434.070312 279.644531 433.671875 279.683594 433.273438 279.683594 C 432.871094 279.683594 432.472656 279.644531 432.078125 279.566406 C 431.6875 279.484375 431.304688 279.371094 430.933594 279.214844 C 430.5625 279.0625 430.210938 278.875 429.875 278.652344 C 429.542969 278.429688 429.234375 278.175781 428.949219 277.890625 C 428.664062 277.605469 428.410156 277.296875 428.1875 276.960938 C 427.964844 276.628906 427.777344 276.277344 427.625 275.90625 C 427.46875 275.535156 427.355469 275.152344 427.273438 274.757812 C 427.195312 274.363281 427.15625 273.964844 427.15625 273.5625 C 427.15625 273.160156 427.195312 272.765625 427.273438 272.371094 C 427.355469 271.976562 427.46875 271.59375 427.625 271.222656 C 427.777344 270.851562 427.964844 270.5 428.1875 270.164062 C 428.410156 269.832031 428.664062 269.519531 428.949219 269.238281 C 429.234375 268.953125 429.542969 268.699219 429.875 268.476562 C 430.210938 268.253906 430.5625 268.066406 430.933594 267.910156 C 431.304688 267.757812 431.6875 267.640625 432.078125 267.5625 C 432.472656 267.484375 432.871094 267.445312 433.273438 267.445312 C 433.671875 267.445312 434.070312 267.484375 434.464844 267.5625 C 434.859375 267.640625 435.242188 267.757812 435.613281 267.910156 C 435.984375 268.066406 436.335938 268.253906 436.667969 268.476562 C 437.003906 268.699219 437.3125 268.953125 437.59375 269.238281 C 437.878906 269.519531 438.132812 269.832031 438.355469 270.164062 C 438.578125 270.5 438.765625 270.851562 438.921875 271.222656 C 439.074219 271.59375 439.191406 271.976562 439.269531 272.371094 C 439.347656 272.765625 439.386719 273.160156 439.386719 273.5625 Z M 439.386719 273.5625 " fill-opacity="1" fill-rule="nonzero"/><path fill="#1a4447" d="M 395.808594 229.957031 C 395.808594 230.359375 395.769531 230.757812 395.691406 231.152344 C 395.613281 231.542969 395.496094 231.925781 395.34375 232.296875 C 395.191406 232.667969 395 233.023438 394.777344 233.355469 C 394.554688 233.691406 394.300781 234 394.019531 234.285156 C 393.734375 234.566406 393.425781 234.820312 393.089844 235.042969 C 392.757812 235.265625 392.40625 235.457031 392.035156 235.609375 C 391.664062 235.761719 391.28125 235.878906 390.886719 235.957031 C 390.492188 236.035156 390.097656 236.074219 389.695312 236.074219 C 389.292969 236.074219 388.894531 236.035156 388.5 235.957031 C 388.109375 235.878906 387.726562 235.761719 387.355469 235.609375 C 386.984375 235.457031 386.632812 235.265625 386.296875 235.042969 C 385.964844 234.820312 385.65625 234.566406 385.371094 234.285156 C 385.085938 234 384.832031 233.691406 384.609375 233.355469 C 384.386719 233.023438 384.199219 232.667969 384.046875 232.296875 C 383.890625 231.925781 383.777344 231.542969 383.699219 231.152344 C 383.621094 230.757812 383.582031 230.359375 383.582031 229.957031 C 383.582031 229.554688 383.621094 229.15625 383.699219 228.761719 C 383.777344 228.371094 383.890625 227.988281 384.046875 227.617188 C 384.199219 227.246094 384.386719 226.890625 384.609375 226.558594 C 384.832031 226.222656 385.085938 225.914062 385.371094 225.628906 C 385.65625 225.347656 385.964844 225.09375 386.296875 224.871094 C 386.632812 224.648438 386.984375 224.457031 387.355469 224.304688 C 387.726562 224.152344 388.109375 224.035156 388.5 223.957031 C 388.894531 223.878906 389.292969 223.839844 389.695312 223.839844 C 390.097656 223.839844 390.492188 223.878906 390.886719 223.957031 C 391.28125 224.035156 391.664062 224.152344 392.035156 224.304688 C 392.40625 224.457031 392.757812 224.648438 393.089844 224.871094 C 393.425781 225.09375 393.734375 225.347656 394.019531 225.628906 C 394.300781 225.914062 394.554688 226.222656 394.777344 226.558594 C 395 226.890625 395.191406 227.246094 395.34375 227.617188 C 395.496094 227.988281 395.613281 228.371094 395.691406 228.761719 C 395.769531 229.15625 395.808594 229.554688 395.808594 229.957031 Z M 395.808594 229.957031 " fill-opacity="1" fill-rule="nonzero"/><path fill="#1a4447" d="M 482.964844 229.957031 C 482.964844 230.359375 482.925781 230.757812 482.847656 231.152344 C 482.769531 231.542969 482.652344 231.925781 482.5 232.296875 C 482.34375 232.667969 482.15625 233.023438 481.933594 233.355469 C 481.710938 233.691406 481.457031 234 481.171875 234.285156 C 480.890625 234.566406 480.582031 234.820312 480.246094 235.042969 C 479.914062 235.265625 479.5625 235.457031 479.191406 235.609375 C 478.820312 235.761719 478.4375 235.878906 478.042969 235.957031 C 477.648438 236.035156 477.25 236.074219 476.851562 236.074219 C 476.449219 236.074219 476.050781 236.035156 475.65625 235.957031 C 475.261719 235.878906 474.882812 235.761719 474.511719 235.609375 C 474.140625 235.457031 473.785156 235.265625 473.453125 235.042969 C 473.121094 234.820312 472.808594 234.566406 472.527344 234.285156 C 472.242188 234 471.988281 233.691406 471.765625 233.355469 C 471.542969 233.023438 471.355469 232.667969 471.199219 232.296875 C 471.046875 231.925781 470.929688 231.542969 470.851562 231.152344 C 470.773438 230.757812 470.734375 230.359375 470.734375 229.957031 C 470.734375 229.554688 470.773438 229.15625 470.851562 228.761719 C 470.929688 228.371094 471.046875 227.988281 471.199219 227.617188 C 471.355469 227.246094 471.542969 226.890625 471.765625 226.558594 C 471.988281 226.222656 472.242188 225.914062 472.527344 225.628906 C 472.808594 225.347656 473.121094 225.09375 473.453125 224.871094 C 473.785156 224.648438 474.140625 224.457031 474.511719 224.304688 C 474.882812 224.152344 475.261719 224.035156 475.65625 223.957031 C 476.050781 223.878906 476.449219 223.839844 476.851562 223.839844 C 477.25 223.839844 477.648438 223.878906 478.042969 223.957031 C 478.4375 224.035156 478.820312 224.152344 479.191406 224.304688 C 479.5625 224.457031 479.914062 224.648438 480.246094 224.871094 C 480.582031 225.09375 480.890625 225.347656 481.171875 225.628906 C 481.457031 225.914062 481.710938 226.222656 481.933594 226.558594 C 482.15625 226.890625 482.34375 227.246094 482.5 227.617188 C 482.652344 227.988281 482.769531 228.371094 482.847656 228.761719 C 482.925781 229.15625 482.964844 229.554688 482.964844 229.957031 Z M 482.964844 229.957031 " fill-opacity="1" fill-rule="nonzero"/><path fill="#1a4447" d="M 408.574219 199.125 C 408.574219 199.527344 408.53125 199.921875 408.453125 200.316406 C 408.375 200.710938 408.261719 201.09375 408.105469 201.464844 C 407.953125 201.835938 407.765625 202.1875 407.542969 202.523438 C 407.320312 202.855469 407.066406 203.167969 406.78125 203.449219 C 406.496094 203.734375 406.1875 203.988281 405.855469 204.210938 C 405.519531 204.433594 405.167969 204.621094 404.796875 204.777344 C 404.425781 204.929688 404.042969 205.046875 403.652344 205.125 C 403.257812 205.203125 402.859375 205.242188 402.457031 205.242188 C 402.054688 205.242188 401.660156 205.203125 401.265625 205.125 C 400.871094 205.046875 400.488281 204.929688 400.117188 204.777344 C 399.746094 204.621094 399.394531 204.433594 399.0625 204.210938 C 398.726562 203.988281 398.417969 203.734375 398.132812 203.449219 C 397.851562 203.167969 397.597656 202.855469 397.375 202.523438 C 397.152344 202.1875 396.960938 201.835938 396.808594 201.464844 C 396.65625 201.09375 396.539062 200.710938 396.460938 200.316406 C 396.382812 199.921875 396.34375 199.527344 396.34375 199.125 C 396.34375 198.722656 396.382812 198.324219 396.460938 197.929688 C 396.539062 197.535156 396.65625 197.152344 396.808594 196.78125 C 396.960938 196.410156 397.152344 196.058594 397.375 195.726562 C 397.597656 195.390625 397.851562 195.082031 398.132812 194.796875 C 398.417969 194.511719 398.726562 194.261719 399.0625 194.035156 C 399.394531 193.8125 399.746094 193.625 400.117188 193.472656 C 400.488281 193.316406 400.871094 193.203125 401.265625 193.125 C 401.660156 193.042969 402.054688 193.003906 402.457031 193.003906 C 402.859375 193.003906 403.257812 193.042969 403.652344 193.125 C 404.042969 193.203125 404.425781 193.316406 404.796875 193.472656 C 405.167969 193.625 405.519531 193.8125 405.855469 194.035156 C 406.1875 194.261719 406.496094 194.511719 406.78125 194.796875 C 407.066406 195.082031 407.320312 195.390625 407.542969 195.726562 C 407.765625 196.058594 407.953125 196.410156 408.105469 196.78125 C 408.261719 197.152344 408.375 197.535156 408.453125 197.929688 C 408.53125 198.324219 408.574219 198.722656 408.574219 199.125 Z M 408.574219 199.125 " fill-opacity="1" fill-rule="nonzero"/><path fill="#1a4447" d="M 470.199219 260.792969 C 470.199219 261.195312 470.160156 261.589844 470.082031 261.984375 C 470.003906 262.378906 469.890625 262.761719 469.734375 263.132812 C 469.582031 263.503906 469.394531 263.855469 469.171875 264.191406 C 468.945312 264.523438 468.695312 264.832031 468.410156 265.117188 C 468.125 265.402344 467.816406 265.65625 467.484375 265.878906 C 467.148438 266.101562 466.796875 266.289062 466.425781 266.445312 C 466.054688 266.597656 465.671875 266.714844 465.277344 266.792969 C 464.886719 266.871094 464.488281 266.910156 464.085938 266.910156 C 463.683594 266.910156 463.289062 266.871094 462.894531 266.792969 C 462.5 266.714844 462.117188 266.597656 461.746094 266.445312 C 461.375 266.289062 461.023438 266.101562 460.6875 265.878906 C 460.355469 265.65625 460.046875 265.402344 459.761719 265.117188 C 459.480469 264.832031 459.226562 264.523438 459.003906 264.191406 C 458.78125 263.855469 458.589844 263.503906 458.4375 263.132812 C 458.285156 262.761719 458.167969 262.378906 458.089844 261.984375 C 458.011719 261.589844 457.972656 261.195312 457.972656 260.792969 C 457.972656 260.390625 458.011719 259.992188 458.089844 259.597656 C 458.167969 259.203125 458.285156 258.820312 458.4375 258.449219 C 458.589844 258.078125 458.78125 257.726562 459.003906 257.390625 C 459.226562 257.058594 459.480469 256.75 459.761719 256.464844 C 460.046875 256.179688 460.355469 255.925781 460.6875 255.703125 C 461.023438 255.480469 461.375 255.292969 461.746094 255.140625 C 462.117188 254.984375 462.5 254.871094 462.894531 254.789062 C 463.289062 254.710938 463.683594 254.671875 464.085938 254.671875 C 464.488281 254.671875 464.886719 254.710938 465.277344 254.789062 C 465.671875 254.871094 466.054688 254.984375 466.425781 255.140625 C 466.796875 255.292969 467.148438 255.480469 467.484375 255.703125 C 467.816406 255.925781 468.125 256.179688 468.410156 256.464844 C 468.695312 256.75 468.945312 257.058594 469.171875 257.390625 C 469.394531 257.726562 469.582031 258.078125 469.734375 258.449219 C 469.890625 258.820312 470.003906 259.203125 470.082031 259.597656 C 470.160156 259.992188 470.199219 260.390625 470.199219 260.792969 Z M 470.199219 260.792969 " fill-opacity="1" fill-rule="nonzero"/><path fill="#1a4447" d="M 470.199219 199.125 C 470.199219 199.527344 470.160156 199.921875 470.082031 200.316406 C 470.003906 200.710938 469.890625 201.09375 469.734375 201.464844 C 469.582031 201.835938 469.394531 202.1875 469.171875 202.523438 C 468.945312 202.855469 468.695312 203.167969 468.410156 203.449219 C 468.125 203.734375 467.816406 203.988281 467.484375 204.210938 C 467.148438 204.433594 466.796875 204.621094 466.425781 204.777344 C 466.054688 204.929688 465.671875 205.046875 465.277344 205.125 C 464.886719 205.203125 464.488281 205.242188 464.085938 205.242188 C 463.683594 205.242188 463.289062 205.203125 462.894531 205.125 C 462.5 205.046875 462.117188 204.929688 461.746094 204.777344 C 461.375 204.621094 461.023438 204.433594 460.6875 204.210938 C 460.355469 203.988281 460.046875 203.734375 459.761719 203.449219 C 459.480469 203.167969 459.226562 202.855469 459.003906 202.523438 C 458.78125 202.1875 458.589844 201.835938 458.4375 201.464844 C 458.285156 201.09375 458.167969 200.710938 458.089844 200.316406 C 458.011719 199.921875 457.972656 199.527344 457.972656 199.125 C 457.972656 198.722656 458.011719 198.324219 458.089844 197.929688 C 458.167969 197.535156 458.285156 197.152344 458.4375 196.78125 C 458.589844 196.410156 458.78125 196.058594 459.003906 195.726562 C 459.226562 195.390625 459.480469 195.082031 459.761719 194.796875 C 460.046875 194.511719 460.355469 194.261719 460.6875 194.035156 C 461.023438 193.8125 461.375 193.625 461.746094 193.472656 C 462.117188 193.316406 462.5 193.203125 462.894531 193.125 C 463.289062 193.042969 463.683594 193.003906 464.085938 193.003906 C 464.488281 193.003906 464.886719 193.042969 465.277344 193.125 C 465.671875 193.203125 466.054688 193.316406 466.425781 193.472656 C 466.796875 193.625 467.148438 193.8125 467.484375 194.035156 C 467.816406 194.261719 468.125 194.511719 468.410156 194.796875 C 468.695312 195.082031 468.945312 195.390625 469.171875 195.726562 C 469.394531 196.058594 469.582031 196.410156 469.734375 196.78125 C 469.890625 197.152344 470.003906 197.535156 470.082031 197.929688 C 470.160156 198.324219 470.199219 198.722656 470.199219 199.125 Z M 470.199219 199.125 " fill-opacity="1" fill-rule="nonzero"/><path fill="#1a4447" d="M 408.574219 260.792969 C 408.574219 261.195312 408.53125 261.589844 408.453125 261.984375 C 408.375 262.378906 408.261719 262.761719 408.105469 263.132812 C 407.953125 263.503906 407.765625 263.855469 407.542969 264.191406 C 407.320312 264.523438 407.066406 264.832031 406.78125 265.117188 C 406.496094 265.402344 406.1875 265.65625 405.855469 265.878906 C 405.519531 266.101562 405.167969 266.289062 404.796875 266.445312 C 404.425781 266.597656 404.042969 266.714844 403.652344 266.792969 C 403.257812 266.871094 402.859375 266.910156 402.457031 266.910156 C 402.054688 266.910156 401.660156 266.871094 401.265625 266.792969 C 400.871094 266.714844 400.488281 266.597656 400.117188 266.445312 C 399.746094 266.289062 399.394531 266.101562 399.0625 265.878906 C 398.726562 265.65625 398.417969 265.402344 398.132812 265.117188 C 397.851562 264.832031 397.597656 264.523438 397.375 264.191406 C 397.152344 263.855469 396.960938 263.503906 396.808594 263.132812 C 396.65625 262.761719 396.539062 262.378906 396.460938 261.984375 C 396.382812 261.589844 396.34375 261.195312 396.34375 260.792969 C 396.34375 260.390625 396.382812 259.992188 396.460938 259.597656 C 396.539062 259.203125 396.65625 258.820312 396.808594 258.449219 C 396.960938 258.078125 397.152344 257.726562 397.375 257.390625 C 397.597656 257.058594 397.851562 256.75 398.132812 256.464844 C 398.417969 256.179688 398.726562 255.925781 399.0625 255.703125 C 399.394531 255.480469 399.746094 255.292969 400.117188 255.140625 C 400.488281 254.984375 400.871094 254.871094 401.265625 254.789062 C 401.660156 254.710938 402.054688 254.671875 402.457031 254.671875 C 402.859375 254.671875 403.257812 254.710938 403.652344 254.789062 C 404.042969 254.871094 404.425781 254.984375 404.796875 255.140625 C 405.167969 255.292969 405.519531 255.480469 405.855469 255.703125 C 406.1875 255.925781 406.496094 256.179688 406.78125 256.464844 C 407.066406 256.75 407.320312 257.058594 407.542969 257.390625 C 407.765625 257.726562 407.953125 258.078125 408.105469 258.449219 C 408.261719 258.820312 408.375 259.203125 408.453125 259.597656 C 408.53125 259.992188 408.574219 260.390625 408.574219 260.792969 Z M 408.574219 260.792969 " fill-opacity="1" fill-rule="nonzero"/><path fill="#1a4447" d="M 613.335938 103.785156 C 612.988281 100.875 610.757812 98.542969 607.863281 98.066406 C 479.695312 76.886719 319.5625 75.410156 218.4375 94.484375 C 207.695312 96.511719 140.214844 128.515625 127.800781 145.785156 C 116.574219 161.40625 115.257812 269.738281 115.132812 305.550781 C 118.480469 304.363281 122.375 304.46875 126.375 306.632812 C 127.128906 307.039062 127.8125 307.5 128.464844 307.988281 C 128.570312 234.972656 131.914062 162.957031 138.503906 153.488281 C 148.386719 139.738281 212.578125 109.011719 220.878906 107.445312 C 319.378906 88.878906 474.867188 90.101562 600.832031 110.28125 C 619.207031 266.246094 618.183594 397.972656 597.535156 535.953125 C 500.300781 547.648438 307.941406 548.511719 207.949219 531.863281 C 196.042969 529.878906 161.792969 497.488281 138.488281 469.640625 C 134.527344 463.902344 131.738281 435.523438 130.125 397.921875 C 125.902344 399.265625 121.261719 399.84375 116.980469 399.460938 C 118.714844 435.9375 122.027344 470.511719 128.34375 478.0625 C 142.921875 495.488281 185.253906 541.460938 205.789062 544.875 C 259.25 553.777344 338.792969 557.730469 416.394531 557.730469 C 487.96875 557.730469 557.894531 554.363281 604.144531 548.421875 C 607.058594 548.046875 609.375 545.789062 609.816406 542.878906 C 631.597656 400.417969 632.683594 264.996094 613.335938 103.785156 Z M 613.335938 103.785156 " fill-opacity="1" fill-rule="nonzero"/><path fill="#1a4447" d="M 221.816406 98.46875 C 219.246094 99.238281 216.761719 100.285156 214.265625 101.296875 C 189.273438 238.882812 195.234375 385.683594 201.015625 527.679688 L 201.390625 536.929688 C 205.636719 537.492188 210.050781 538.742188 214.328125 540.257812 C 214.535156 539.574219 214.667969 538.859375 214.636719 538.101562 L 214.191406 527.144531 C 208.414062 385.351562 202.441406 238.734375 227.492188 102.152344 C 227.820312 100.367188 227.394531 98.617188 226.441406 97.230469 C 224.894531 97.597656 223.355469 98.003906 221.816406 98.46875 Z M 221.816406 98.46875 " fill-opacity="1" fill-rule="nonzero"/><path fill="#1a4447" d="M 272.9375 388.414062 C 271.433594 350.746094 270.648438 307.222656 271.328125 264.894531 C 270.585938 264.691406 269.851562 264.449219 269.113281 264.222656 C 267.9375 264.523438 266.695312 264.730469 265.308594 264.730469 C 263.328125 264.730469 261.601562 264.34375 260.046875 263.75 C 259.457031 263.816406 258.867188 263.902344 258.277344 263.929688 C 257.558594 305.914062 258.222656 349.5 259.710938 387.746094 C 264.167969 387.699219 268.625 387.679688 272.9375 388.414062 Z M 272.9375 388.414062 " fill-opacity="1" fill-rule="nonzero"/><path fill="#1a4447" d="M 568.730469 146.066406 C 568.535156 143.121094 566.40625 140.667969 563.523438 140.050781 C 469.425781 119.996094 374.007812 118.34375 271.816406 134.984375 C 268.984375 135.445312 266.773438 137.691406 266.351562 140.539062 C 262.894531 164.085938 260.65625 193.414062 259.375 225.105469 C 263.507812 225.191406 268.113281 225.160156 272.417969 225.84375 C 273.59375 197.132812 275.605469 170.109375 278.71875 147.242188 C 375.699219 131.96875 466.464844 133.503906 555.898438 151.929688 C 562.816406 260.371094 563.425781 375.863281 557.699219 495.394531 C 470.796875 503.949219 380.179688 502.625 281.054688 491.359375 C 279.011719 482.488281 276.675781 458.425781 274.777344 426.140625 C 272.902344 426.414062 271.023438 426.675781 269.140625 426.851562 C 266.664062 427.078125 264.121094 427.035156 261.617188 426.734375 C 264.074219 467.5 267.472656 496.574219 270.832031 501.277344 C 271.914062 502.789062 273.582031 503.777344 275.433594 503.992188 C 333.714844 510.757812 389.070312 514.132812 442.496094 514.132812 C 484.261719 514.132812 524.851562 512.066406 564.6875 507.945312 C 567.921875 507.609375 570.433594 504.960938 570.589844 501.710938 C 576.722656 377.824219 576.097656 258.167969 568.730469 146.070312 Z M 568.730469 146.066406 " fill-opacity="1" fill-rule="nonzero"/><path fill="#1a4447" d="M 295.886719 271.746094 C 285.136719 271.746094 274.324219 271.363281 263.867188 270.992188 C 255.898438 270.710938 247.921875 270.425781 239.902344 270.308594 C 238.113281 270.28125 236.414062 269.523438 235.191406 268.21875 C 233.96875 266.914062 233.328125 265.171875 233.417969 263.378906 C 233.765625 256.382812 233.925781 250.097656 234.082031 243.816406 C 234.246094 237.433594 234.410156 231.046875 234.765625 223.929688 C 234.933594 220.597656 237.5625 217.910156 240.894531 217.683594 C 260.945312 216.292969 278.28125 216.558594 297.089844 218.535156 C 300.347656 218.878906 302.863281 221.5625 302.992188 224.832031 C 303.703125 242.929688 303.726562 250.921875 302.449219 265.714844 C 302.160156 269.125 299.304688 271.746094 295.886719 271.746094 Z M 246.878906 257.253906 C 252.710938 257.398438 258.527344 257.605469 264.335938 257.8125 C 272.683594 258.101562 281.261719 258.40625 289.785156 258.515625 C 290.40625 249.386719 290.414062 242.347656 290.03125 231.105469 C 275.96875 229.886719 262.515625 229.695312 247.671875 230.480469 C 247.488281 235.210938 247.378906 239.683594 247.265625 244.15625 C 247.15625 248.445312 247.046875 252.738281 246.878906 257.253906 Z M 246.878906 257.253906 " fill-opacity="1" fill-rule="nonzero"/><path fill="#1a4447" d="M 295.886719 434.789062 C 285.136719 434.789062 274.324219 434.40625 263.867188 434.039062 C 255.898438 433.753906 247.921875 433.46875 239.902344 433.351562 C 238.113281 433.324219 236.414062 432.570312 235.191406 431.261719 C 233.96875 429.957031 233.328125 428.214844 233.417969 426.425781 C 233.765625 419.425781 233.925781 413.144531 234.082031 406.859375 C 234.246094 400.476562 234.410156 394.089844 234.765625 386.976562 C 234.933594 383.644531 237.5625 380.953125 240.894531 380.726562 C 260.945312 379.335938 278.28125 379.605469 297.089844 381.578125 C 300.347656 381.921875 302.863281 384.605469 302.992188 387.875 C 303.703125 405.972656 303.726562 413.96875 302.449219 428.761719 C 302.160156 432.167969 299.304688 434.789062 295.886719 434.789062 Z M 246.878906 420.296875 C 252.710938 420.441406 258.527344 420.648438 264.335938 420.855469 C 272.683594 421.148438 281.261719 421.453125 289.785156 421.558594 C 290.40625 412.429688 290.414062 405.390625 290.03125 394.148438 C 275.96875 392.929688 262.515625 392.734375 247.671875 393.523438 C 247.488281 398.253906 247.378906 402.726562 247.265625 407.199219 C 247.15625 411.488281 247.046875 415.785156 246.878906 420.296875 Z M 246.878906 420.296875 " fill-opacity="1" fill-rule="nonzero"/></svg>