<svg xmlns="http://www.w3.org/2000/svg" xmlns:xlink="http://www.w3.org/1999/xlink" width="1000" zoomAndPan="magnify" viewBox="0 0 750 749.999995" height="1000" preserveAspectRatio="xMidYMid meet" version="1.0"><path fill="#b2d7d8" d="M 139.699219 732.964844 C 136.570312 732.964844 133.574219 731.625 131.476562 729.304688 L 84.453125 677.523438 C 80.726562 673.449219 80.582031 667.183594 84.148438 662.96875 C 89.53125 656.671875 100.351562 646.164062 112.675781 646.164062 C 113.324219 646.164062 113.972656 646.1875 114.621094 646.246094 C 123.433594 647.070312 131.398438 653.214844 138.34375 664.539062 L 167.460938 638.082031 L 170.316406 656.695312 C 179.300781 657.835938 189.367188 659.058594 200.304688 660.320312 L 221.273438 662.746094 L 147.144531 730.082031 C 145.097656 731.945312 142.457031 732.964844 139.699219 732.964844 Z M 139.699219 732.964844 " fill-opacity="1" fill-rule="nonzero"/><path fill="#b2d7d8" d="M 455.113281 680.023438 C 347.816406 680.023438 233.375 667.773438 174.710938 660.472656 L 167.503906 659.578125 L 166.414062 652.394531 C 143.949219 504.296875 140.480469 360.246094 155.507812 199.058594 L 156.667969 186.589844 L 168.398438 190.964844 C 173.496094 192.863281 178.566406 193.929688 183.46875 194.136719 C 184.3125 194.171875 185.152344 194.195312 185.992188 194.195312 C 195.976562 194.195312 207.027344 191.683594 218.84375 186.734375 L 233.949219 180.40625 L 232.066406 196.679688 C 229.960938 214.917969 228.257812 236.097656 226.996094 259.621094 L 226.519531 268.5625 L 217.570312 268.699219 C 210.363281 268.808594 203.335938 269.09375 196.132812 269.566406 C 195.757812 277.425781 195.574219 284.574219 195.394531 291.699219 C 195.207031 299.171875 195.019531 306.375 194.648438 314.289062 C 200.972656 314.402344 207.269531 314.617188 213.5625 314.832031 L 224.945312 315.222656 L 224.773438 324.652344 C 223.949219 369.863281 224.410156 419.0625 226.101562 466.9375 L 226.445312 476.695312 L 216.683594 476.859375 C 209.835938 476.980469 203.097656 477.253906 196.132812 477.714844 C 195.757812 485.574219 195.574219 492.71875 195.394531 499.84375 C 195.207031 507.320312 195.019531 514.523438 194.648438 522.433594 C 202.929688 522.574219 211.167969 522.867188 219.398438 523.15625 L 228.722656 523.488281 L 229.292969 532.140625 C 232.539062 581.832031 236.125 602.699219 238.007812 608.148438 C 264.273438 611.1875 291.152344 613.714844 317.972656 615.664062 C 319.9375 615.804688 321.910156 615.714844 323.855469 615.398438 L 331.957031 614.070312 C 331.960938 616.515625 335.171875 621.359375 335.171875 621.359375 L 336.882812 624.113281 C 339.605469 628.515625 343.4375 632.867188 348.273438 637.050781 C 354.511719 642.449219 362.171875 645.433594 369.84375 645.460938 C 377.472656 645.460938 384.121094 642.574219 388.648438 637.34375 C 391.355469 634.222656 393.199219 630.726562 393.992188 627.230469 L 395.726562 619.605469 C 395.726562 619.605469 411.367188 619.929688 415.261719 619.984375 L 422.738281 620.09375 L 424.449219 627.371094 C 425.257812 630.808594 427.101562 634.257812 429.769531 637.34375 C 434.300781 642.574219 440.945312 645.460938 448.484375 645.460938 C 456.25 645.433594 463.910156 642.449219 470.148438 637.050781 C 475.078125 632.78125 478.964844 628.347656 481.695312 623.875 L 484.386719 619.46875 L 489.546875 619.292969 C 522.152344 618.167969 553.964844 616.042969 584.113281 612.957031 C 591.433594 464.179688 590.679688 320.496094 581.875 185.847656 C 520.308594 172.820312 459.542969 166.488281 396.148438 166.488281 C 355.984375 166.488281 314.402344 169.15625 272.550781 174.425781 L 239.847656 178.539062 L 234.9375 178.746094 L 265.246094 157.523438 C 284.113281 141.910156 299.425781 124.671875 306.226562 114.515625 L 308.851562 110.59375 L 313.5625 110.285156 C 352.667969 107.722656 392.078125 106.421875 430.695312 106.421875 C 508.335938 106.421875 578.835938 111.640625 634.578125 121.515625 L 641.167969 122.6875 L 642.339844 129.269531 C 671.785156 294.449219 664.617188 470.441406 657.683594 640.632812 L 657.101562 655.019531 L 650.886719 657.144531 C 606.460938 672.324219 540.589844 680.023438 455.113281 680.023438 Z M 455.113281 680.023438 " fill-opacity="1" fill-rule="nonzero"/><path fill="#d1f2f0" d="M 416.417969 623.074219 C 411.46875 623.007812 406.507812 622.917969 401.53125 622.808594 L 395.554688 622.675781 L 393.042969 617.25 C 390.652344 612.089844 385.386719 607.820312 377.390625 604.558594 L 371.421875 602.125 L 371.421875 595.679688 C 371.421875 591.871094 369.960938 587.957031 367.414062 584.929688 C 364.542969 581.519531 360.785156 579.714844 356.539062 579.714844 C 355.304688 579.714844 354.023438 579.867188 352.730469 580.167969 C 346.230469 581.675781 335.652344 590.0625 332.722656 601.878906 C 332.210938 603.949219 331.953125 606.097656 331.953125 608.265625 L 331.960938 616.515625 L 323.800781 617.753906 C 320.960938 618.179688 318.242188 618.378906 315.238281 618.378906 C 310.765625 618.378906 306.066406 617.953125 298.953125 617.296875 L 292.964844 616.753906 C 272.734375 615.050781 256.894531 613.515625 241.644531 611.777344 L 234.910156 611.011719 L 233.390625 604.40625 C 230.125 590.253906 227.464844 554.148438 226.171875 533.886719 L 225.5 523.375 L 236.027344 523.691406 C 243.382812 523.910156 251.253906 524.121094 259.234375 524.140625 C 260.566406 508.035156 260.554688 498.570312 259.785156 478.671875 C 250.519531 477.734375 241.5 477.160156 232.261719 476.921875 L 223.257812 476.6875 L 222.933594 467.683594 C 221.167969 418.917969 220.648438 369.511719 221.429688 324.804688 L 221.601562 315.0625 L 231.335938 315.390625 C 241.6875 315.734375 250.46875 315.972656 259.234375 315.992188 C 260.566406 299.890625 260.554688 290.425781 259.785156 270.523438 C 250.828125 269.617188 242.054688 269.050781 233.019531 268.792969 L 223.179688 268.515625 L 223.71875 258.683594 C 225.242188 231.0625 227.417969 206.542969 230.183594 185.804688 L 230.816406 181.101562 L 234.9375 178.746094 C 236.097656 178.082031 237.257812 177.40625 238.414062 176.707031 L 240.03125 175.734375 L 241.898438 175.445312 C 294.308594 167.359375 346.128906 163.261719 395.914062 163.261719 C 457.945312 163.261719 517.421875 169.300781 577.742188 181.722656 L 584.914062 183.195312 L 585.378906 190.5 C 593.785156 322.152344 594.523438 462.484375 587.574219 607.601562 L 587.175781 615.871094 L 578.9375 616.683594 C 552.484375 619.289062 524.621094 621.15625 496.121094 622.230469 L 484.84375 622.660156 L 482.894531 621.914062 L 486.25 611.460938 C 486.65625 608.21875 486.46875 604.996094 485.695312 601.878906 C 482.769531 590.0625 472.191406 581.675781 465.683594 580.167969 C 464.386719 579.867188 463.101562 579.710938 461.871094 579.710938 C 457.636719 579.710938 453.878906 581.515625 451.015625 584.921875 C 448.460938 587.957031 446.996094 591.878906 446.996094 595.683594 L 446.992188 602.128906 L 441.027344 604.558594 C 432.9375 607.855469 427.644531 612.179688 425.296875 617.414062 L 422.714844 623.164062 Z M 416.417969 623.074219 " fill-opacity="1" fill-rule="nonzero"/><path fill="#b2d7d8" d="M 448.488281 648.65625 C 439.996094 648.65625 432.488281 645.378906 427.347656 639.425781 C 421.65625 632.863281 419.507812 625.222656 421.46875 618.476562 C 423.121094 612.816406 428.449219 605.09375 444.359375 599.945312 C 442.859375 594.5 444.472656 587.730469 448.566406 582.867188 C 452.007812 578.78125 456.761719 576.535156 461.953125 576.535156 C 463.359375 576.535156 464.828125 576.699219 466.316406 577.027344 C 473.71875 578.742188 485.5625 588.050781 488.796875 601.113281 C 491.03125 610.132812 489.972656 624.113281 472.242188 639.46875 C 465.429688 645.367188 457.035156 648.628906 448.589844 648.65625 Z M 448.488281 648.65625 " fill-opacity="1" fill-rule="nonzero"/><path fill="#b2d7d8" d="M 369.859375 648.65625 C 361.390625 648.628906 352.992188 645.367188 346.179688 639.472656 C 328.445312 624.109375 327.386719 610.128906 329.625 601.109375 C 332.855469 588.050781 344.703125 578.742188 352.011719 577.046875 C 353.59375 576.699219 355.0625 576.53125 356.46875 576.53125 C 361.660156 576.53125 366.414062 578.78125 369.851562 582.867188 C 373.949219 587.738281 375.558594 594.507812 374.058594 599.945312 C 389.980469 605.105469 395.304688 612.824219 396.949219 618.476562 C 398.914062 625.222656 396.765625 632.863281 391.0625 639.441406 C 385.929688 645.378906 378.421875 648.65625 369.933594 648.65625 Z M 369.859375 648.65625 " fill-opacity="1" fill-rule="nonzero"/><path fill="#79afae" d="M 253.183594 319.152344 C 242.8125 319.015625 232.382812 318.652344 222.230469 318.296875 C 215.121094 318.042969 208.105469 317.792969 201.066406 317.621094 L 191.367188 317.378906 L 191.726562 307.683594 C 191.929688 302.265625 192.0625 297.117188 192.191406 291.980469 C 192.332031 286.472656 192.472656 281.007812 192.691406 275.234375 L 193.023438 266.488281 L 201.765625 266.023438 C 209.1875 265.632812 216.164062 265.445312 223.089844 265.445312 C 233.609375 265.445312 243.859375 265.890625 254.429688 266.808594 L 262.894531 267.542969 L 263.183594 276.03125 C 263.683594 290.765625 263.605469 299.390625 262.875 310.214844 L 262.257812 319.269531 Z M 253.183594 319.152344 " fill-opacity="1" fill-rule="nonzero"/><path fill="#79afae" d="M 253.183594 527.296875 C 242.8125 527.164062 232.382812 526.796875 222.230469 526.445312 C 215.121094 526.191406 208.105469 525.941406 201.066406 525.769531 L 191.367188 525.523438 L 191.726562 515.828125 C 191.929688 510.414062 192.0625 505.265625 192.191406 500.125 C 192.332031 494.617188 192.472656 489.15625 192.691406 483.382812 L 193.023438 474.632812 L 201.765625 474.171875 C 209.1875 473.78125 216.164062 473.59375 223.089844 473.59375 C 233.609375 473.59375 243.859375 474.035156 254.429688 474.957031 L 262.894531 475.691406 L 263.183594 484.179688 C 263.683594 498.914062 263.605469 507.539062 262.875 518.363281 L 262.257812 527.417969 Z M 253.183594 527.296875 " fill-opacity="1" fill-rule="nonzero"/><path fill="#b2d7d8" d="M 681.414062 743.621094 C 678.644531 743.621094 675.996094 742.589844 673.949219 740.722656 L 593.789062 667.910156 L 612.296875 664.125 C 626.730469 661.167969 639.921875 657.621094 651.507812 653.570312 L 656.890625 651.6875 L 682.761719 675.191406 C 689.710938 663.851562 697.683594 657.699219 706.480469 656.898438 C 707.101562 656.835938 707.816406 656.800781 708.535156 656.800781 C 720.136719 656.800781 730.378906 665.929688 736.921875 673.585938 C 740.511719 677.824219 740.378906 684.085938 736.648438 688.183594 L 689.605469 739.980469 C 687.613281 742.253906 684.585938 743.621094 681.414062 743.621094 Z M 681.414062 743.621094 " fill-opacity="1" fill-rule="nonzero"/><path fill="#79afae" d="M 654.785156 633.28125 C 661.269531 473.90625 668.621094 293.273438 638.902344 128.09375 L 638.078125 123.503906 L 641.1875 120.019531 C 649.449219 110.757812 660.128906 103.535156 674.910156 93.527344 C 678.246094 91.277344 681.867188 88.816406 685.652344 86.214844 L 696.789062 78.558594 L 700.332031 91.601562 C 716.855469 152.484375 735.226562 503.546875 709.949219 570.9375 C 704.800781 584.664062 685.566406 620.222656 672.195312 639.195312 L 661.167969 654.835938 C 658.902344 658.050781 653.84375 656.332031 654.003906 652.40625 Z M 654.785156 633.28125 " fill-opacity="1" fill-rule="nonzero"/><path fill="#79afae" d="M 635.042969 124.835938 C 579.445312 114.898438 508.796875 109.652344 430.734375 109.652344 C 395.230469 109.652344 358.960938 110.75 322.933594 112.921875 L 308.460938 113.796875 L 313.328125 100.132812 C 318.003906 87.011719 318.457031 73.136719 314.601562 61.0625 L 310.8125 49.179688 L 323.265625 48.574219 C 347.734375 47.375 376.339844 46.742188 405.992188 46.742188 C 428.453125 46.742188 451.460938 47.09375 474.371094 47.792969 C 578.289062 50.96875 656.976562 60.390625 684.863281 72.984375 L 696.125 78.070312 C 698 78.914062 698.226562 81.488281 696.53125 82.648438 L 686.335938 89.632812 C 682.945312 91.953125 679.71875 94.140625 676.703125 96.179688 C 662.792969 105.585938 651.804688 113.011719 643.835938 121.828125 L 640.273438 125.769531 Z M 635.042969 124.835938 " fill-opacity="1" fill-rule="nonzero"/><path fill="#f4c3e9" d="M 56.5625 280.222656 C 49.105469 276.546875 41.238281 262.179688 36.027344 242.734375 C 22.859375 193.589844 26.199219 116.394531 78.949219 60.554688 C 121.234375 15.789062 170.128906 6.394531 203.703125 6.394531 L 204.734375 6.394531 C 250.964844 6.675781 291.097656 24.152344 306.878906 41.273438 C 326.171875 62.199219 322.402344 93.3125 310.742188 113.375 C 296.558594 137.753906 235.269531 197.378906 185.933594 197.382812 C 185.070312 197.382812 184.207031 197.363281 183.34375 197.332031 C 167.207031 196.648438 151.355469 188.070312 140.933594 174.386719 C 138.957031 171.792969 137.210938 169.054688 135.730469 166.242188 L 132.265625 168.828125 C 110.375 185.148438 98.511719 215.269531 88.980469 239.472656 C 80.011719 262.238281 74.035156 276.402344 64.566406 280.441406 L 60.515625 282.175781 Z M 56.5625 280.222656 " fill-opacity="1" fill-rule="nonzero"/><path fill="#d1f2f0" d="M 183.089844 117.0625 L 144.683594 106.3125 L 176.574219 82.355469 L 174.929688 42.507812 L 207.5625 65.433594 L 244.953125 51.546875 L 233.226562 89.679688 L 257.980469 120.960938 L 218.105469 121.578125 L 196.007812 154.792969 Z M 183.089844 117.0625 " fill-opacity="1" fill-rule="nonzero"/><path fill="#f4c3e9" d="M 409.285156 369.835938 C 395.414062 369.835938 381.707031 366.414062 369.648438 359.933594 C 348.75 348.679688 333.226562 328.128906 328.117188 304.960938 C 320.957031 272.503906 332.738281 239.613281 358.875 219.117188 C 373.644531 207.535156 391.050781 201.414062 409.203125 201.414062 C 421.921875 201.414062 434.40625 204.390625 446.320312 210.25 C 479.226562 226.496094 498.714844 265.890625 491.660156 301.898438 C 484.601562 337.90625 451.683594 367.023438 415.085938 369.636719 C 413.164062 369.769531 411.222656 369.835938 409.285156 369.835938 Z M 409.285156 369.835938 " fill-opacity="1" fill-rule="nonzero"/><path fill="#1a4447" d="M 409.570312 312.625 C 405.066406 312.625 400.644531 311.527344 396.777344 309.457031 C 390.0625 305.839844 385.078125 299.246094 383.4375 291.800781 C 380.691406 279.382812 386.726562 269.453125 393.292969 264.304688 C 398.007812 260.597656 403.609375 258.636719 409.480469 258.636719 C 413.585938 258.636719 417.585938 259.589844 421.371094 261.464844 C 431.914062 266.660156 438.164062 279.292969 435.894531 290.84375 C 433.636719 302.386719 423.082031 311.730469 411.347656 312.566406 C 410.691406 312.601562 410.132812 312.625 409.570312 312.625 Z M 409.570312 312.625 " fill-opacity="1" fill-rule="nonzero"/><path fill="#f4c3e9" d="M 389.769531 530.066406 C 386.023438 530.066406 382.359375 528.953125 379.167969 526.839844 C 369.527344 520.441406 368.535156 509.925781 368.554688 505.703125 C 368.597656 495.929688 373.226562 486.871094 380.636719 482.066406 C 383.789062 480.011719 387.144531 478.964844 390.585938 478.964844 C 393.660156 478.964844 396.636719 479.808594 399.441406 481.46875 C 407.339844 486.148438 411.898438 496.210938 411.066406 507.09375 C 410.246094 517.757812 403.222656 527.171875 394.351562 529.488281 C 392.84375 529.871094 391.308594 530.066406 389.769531 530.066406 Z M 389.769531 530.066406 " fill-opacity="1" fill-rule="nonzero"/><path fill="#f4c3e9" d="M 319.664062 461.058594 C 319.664062 461.625 319.636719 462.191406 319.582031 462.757812 C 319.527344 463.324219 319.441406 463.886719 319.332031 464.441406 C 319.222656 465 319.082031 465.550781 318.917969 466.09375 C 318.753906 466.640625 318.5625 467.171875 318.34375 467.699219 C 318.128906 468.222656 317.882812 468.738281 317.617188 469.238281 C 317.347656 469.738281 317.058594 470.226562 316.742188 470.699219 C 316.425781 471.171875 316.085938 471.625 315.726562 472.066406 C 315.367188 472.503906 314.984375 472.925781 314.582031 473.328125 C 314.183594 473.730469 313.761719 474.109375 313.320312 474.472656 C 312.882812 474.832031 312.425781 475.167969 311.953125 475.484375 C 311.480469 475.800781 310.996094 476.09375 310.496094 476.359375 C 309.992188 476.628906 309.480469 476.871094 308.957031 477.089844 C 308.429688 477.304688 307.894531 477.496094 307.351562 477.664062 C 306.808594 477.828125 306.257812 477.964844 305.699219 478.078125 C 305.144531 478.1875 304.582031 478.269531 304.015625 478.328125 C 303.449219 478.382812 302.882812 478.410156 302.316406 478.410156 C 301.746094 478.410156 301.179688 478.382812 300.617188 478.328125 C 300.050781 478.269531 299.488281 478.1875 298.929688 478.078125 C 298.375 477.964844 297.824219 477.828125 297.28125 477.664062 C 296.734375 477.496094 296.203125 477.304688 295.675781 477.089844 C 295.152344 476.871094 294.636719 476.628906 294.136719 476.359375 C 293.636719 476.09375 293.148438 475.800781 292.675781 475.484375 C 292.203125 475.167969 291.75 474.832031 291.308594 474.472656 C 290.871094 474.109375 290.449219 473.730469 290.046875 473.328125 C 289.644531 472.925781 289.265625 472.503906 288.90625 472.066406 C 288.542969 471.625 288.207031 471.171875 287.890625 470.699219 C 287.574219 470.226562 287.28125 469.738281 287.015625 469.238281 C 286.746094 468.738281 286.503906 468.222656 286.289062 467.699219 C 286.070312 467.171875 285.878906 466.640625 285.714844 466.09375 C 285.546875 465.550781 285.410156 465 285.300781 464.441406 C 285.1875 463.886719 285.105469 463.324219 285.050781 462.757812 C 284.996094 462.191406 284.964844 461.625 284.964844 461.058594 C 284.964844 460.488281 284.996094 459.921875 285.050781 459.355469 C 285.105469 458.792969 285.1875 458.230469 285.300781 457.671875 C 285.410156 457.117188 285.546875 456.566406 285.714844 456.019531 C 285.878906 455.476562 286.070312 454.941406 286.289062 454.417969 C 286.503906 453.894531 286.746094 453.378906 287.015625 452.878906 C 287.28125 452.378906 287.574219 451.890625 287.890625 451.417969 C 288.207031 450.945312 288.542969 450.488281 288.90625 450.050781 C 289.265625 449.609375 289.644531 449.191406 290.046875 448.789062 C 290.449219 448.386719 290.871094 448.003906 291.308594 447.644531 C 291.75 447.285156 292.203125 446.945312 292.675781 446.628906 C 293.148438 446.316406 293.636719 446.023438 294.136719 445.753906 C 294.636719 445.488281 295.152344 445.246094 295.675781 445.027344 C 296.203125 444.808594 296.734375 444.617188 297.28125 444.453125 C 297.824219 444.289062 298.375 444.148438 298.929688 444.039062 C 299.488281 443.929688 300.050781 443.84375 300.617188 443.789062 C 301.179688 443.734375 301.746094 443.707031 302.316406 443.707031 C 302.882812 443.707031 303.449219 443.734375 304.015625 443.789062 C 304.582031 443.84375 305.144531 443.929688 305.699219 444.039062 C 306.257812 444.148438 306.808594 444.289062 307.351562 444.453125 C 307.894531 444.617188 308.429688 444.808594 308.957031 445.027344 C 309.480469 445.246094 309.992188 445.488281 310.496094 445.753906 C 310.996094 446.023438 311.480469 446.316406 311.953125 446.628906 C 312.425781 446.945312 312.882812 447.285156 313.320312 447.644531 C 313.761719 448.003906 314.183594 448.386719 314.582031 448.789062 C 314.984375 449.191406 315.367188 449.609375 315.726562 450.050781 C 316.085938 450.488281 316.425781 450.945312 316.742188 451.417969 C 317.058594 451.890625 317.347656 452.378906 317.617188 452.878906 C 317.882812 453.378906 318.128906 453.894531 318.34375 454.417969 C 318.5625 454.941406 318.753906 455.476562 318.917969 456.019531 C 319.082031 456.566406 319.222656 457.117188 319.332031 457.671875 C 319.441406 458.230469 319.527344 458.792969 319.582031 459.355469 C 319.636719 459.921875 319.664062 460.488281 319.664062 461.058594 Z M 319.664062 461.058594 " fill-opacity="1" fill-rule="nonzero"/><path fill="#f4c3e9" d="M 499.480469 461.058594 C 499.480469 461.625 499.453125 462.191406 499.394531 462.757812 C 499.339844 463.324219 499.257812 463.886719 499.144531 464.441406 C 499.035156 465 498.898438 465.550781 498.730469 466.09375 C 498.566406 466.640625 498.375 467.171875 498.160156 467.699219 C 497.941406 468.222656 497.699219 468.738281 497.429688 469.238281 C 497.164062 469.738281 496.871094 470.226562 496.554688 470.699219 C 496.238281 471.171875 495.902344 471.625 495.542969 472.066406 C 495.179688 472.503906 494.800781 472.925781 494.398438 473.328125 C 493.996094 473.730469 493.574219 474.109375 493.136719 474.472656 C 492.695312 474.832031 492.242188 475.167969 491.769531 475.484375 C 491.296875 475.800781 490.808594 476.09375 490.308594 476.359375 C 489.808594 476.628906 489.292969 476.871094 488.769531 477.089844 C 488.246094 477.304688 487.710938 477.496094 487.167969 477.664062 C 486.621094 477.828125 486.070312 477.964844 485.515625 478.078125 C 484.957031 478.1875 484.394531 478.269531 483.832031 478.328125 C 483.265625 478.382812 482.699219 478.410156 482.128906 478.410156 C 481.5625 478.410156 480.996094 478.382812 480.429688 478.328125 C 479.863281 478.269531 479.304688 478.1875 478.746094 478.078125 C 478.1875 477.964844 477.636719 477.828125 477.09375 477.664062 C 476.550781 477.496094 476.015625 477.304688 475.492188 477.089844 C 474.964844 476.871094 474.453125 476.628906 473.953125 476.359375 C 473.449219 476.09375 472.964844 475.800781 472.492188 475.484375 C 472.019531 475.167969 471.5625 474.832031 471.125 474.472656 C 470.683594 474.109375 470.265625 473.730469 469.863281 473.328125 C 469.460938 472.925781 469.078125 472.503906 468.71875 472.066406 C 468.359375 471.625 468.019531 471.171875 467.703125 470.699219 C 467.390625 470.226562 467.097656 469.738281 466.828125 469.238281 C 466.5625 468.738281 466.320312 468.222656 466.101562 467.699219 C 465.882812 467.171875 465.691406 466.640625 465.527344 466.09375 C 465.363281 465.550781 465.226562 465 465.113281 464.441406 C 465.003906 463.886719 464.921875 463.324219 464.863281 462.757812 C 464.808594 462.191406 464.78125 461.625 464.78125 461.058594 C 464.78125 460.488281 464.808594 459.921875 464.863281 459.355469 C 464.921875 458.792969 465.003906 458.230469 465.113281 457.671875 C 465.226562 457.117188 465.363281 456.566406 465.527344 456.019531 C 465.691406 455.476562 465.882812 454.941406 466.101562 454.417969 C 466.320312 453.894531 466.5625 453.378906 466.828125 452.878906 C 467.097656 452.378906 467.390625 451.890625 467.703125 451.417969 C 468.019531 450.945312 468.359375 450.488281 468.71875 450.050781 C 469.078125 449.609375 469.460938 449.191406 469.863281 448.789062 C 470.265625 448.386719 470.683594 448.003906 471.125 447.644531 C 471.5625 447.285156 472.019531 446.945312 472.492188 446.628906 C 472.964844 446.316406 473.449219 446.023438 473.953125 445.753906 C 474.453125 445.488281 474.964844 445.246094 475.492188 445.027344 C 476.015625 444.808594 476.550781 444.617188 477.09375 444.453125 C 477.636719 444.289062 478.1875 444.148438 478.746094 444.039062 C 479.304688 443.929688 479.863281 443.84375 480.429688 443.789062 C 480.996094 443.734375 481.5625 443.707031 482.128906 443.707031 C 482.699219 443.707031 483.265625 443.734375 483.832031 443.789062 C 484.394531 443.84375 484.957031 443.929688 485.515625 444.039062 C 486.070312 444.148438 486.621094 444.289062 487.167969 444.453125 C 487.710938 444.617188 488.246094 444.808594 488.769531 445.027344 C 489.292969 445.246094 489.808594 445.488281 490.308594 445.753906 C 490.808594 446.023438 491.296875 446.316406 491.769531 446.628906 C 492.242188 446.945312 492.695312 447.285156 493.136719 447.644531 C 493.574219 448.003906 493.996094 448.386719 494.398438 448.789062 C 494.800781 449.191406 495.179688 449.609375 495.542969 450.050781 C 495.902344 450.488281 496.238281 450.945312 496.554688 451.417969 C 496.871094 451.890625 497.164062 452.378906 497.429688 452.878906 C 497.699219 453.378906 497.941406 453.894531 498.160156 454.417969 C 498.375 454.941406 498.566406 455.476562 498.730469 456.019531 C 498.898438 456.566406 499.035156 457.117188 499.144531 457.671875 C 499.257812 458.230469 499.339844 458.792969 499.394531 459.355469 C 499.453125 459.921875 499.480469 460.488281 499.480469 461.058594 Z M 499.480469 461.058594 " fill-opacity="1" fill-rule="nonzero"/><path fill="#1a4447" d="M 448.484375 655.050781 C 438.117188 655.050781 428.902344 650.992188 422.519531 643.617188 C 415.378906 635.363281 412.757812 625.546875 415.335938 616.691406 C 417.214844 610.226562 422.636719 601.699219 437.410156 595.675781 C 437.414062 589.761719 439.59375 583.605469 443.675781 578.757812 C 449.726562 571.558594 458.546875 568.667969 467.847656 570.828125 C 478.292969 573.25 491.304688 584.660156 495 599.574219 C 497.667969 610.332031 496.609375 626.828125 476.417969 644.296875 C 468.449219 651.199219 458.570312 655.019531 448.609375 655.050781 Z M 461.953125 586.117188 C 459.566406 586.117188 457.539062 587.09375 455.902344 589.046875 C 453.457031 591.949219 452.898438 595.816406 453.765625 597.875 C 454.648438 599.96875 454.601562 602.335938 453.632812 604.390625 C 452.664062 606.4375 450.871094 607.984375 448.699219 608.632812 C 438.539062 611.679688 432.136719 616.128906 430.671875 621.152344 C 429.207031 626.199219 432.933594 631.234375 434.601562 633.164062 C 437.898438 636.976562 442.828125 639.070312 448.488281 639.070312 L 448.558594 639.070312 C 454.703125 639.050781 460.882812 636.621094 465.964844 632.222656 C 477.257812 622.449219 481.808594 612.757812 479.492188 603.417969 C 477.164062 594.015625 468.328125 587.339844 464.246094 586.390625 C 463.445312 586.210938 462.683594 586.117188 461.953125 586.117188 Z M 461.953125 586.117188 " fill-opacity="1" fill-rule="nonzero"/><path fill="#1a4447" d="M 549.695312 545.1875 C 545.355469 544.277344 541.148438 547.058594 540.246094 551.382812 C 534.726562 577.882812 510.988281 603.148438 485.058594 613.742188 C 484.976562 615.175781 484.804688 616.644531 484.484375 618.199219 C 483.773438 621.660156 482.210938 625.253906 480.234375 628.199219 C 479.015625 630.011719 477.652344 631.714844 476.164062 633.289062 C 512.949219 625.570312 548.0625 592.191406 555.886719 554.636719 C 556.785156 550.320312 554.015625 546.085938 549.695312 545.1875 Z M 549.695312 545.1875 " fill-opacity="1" fill-rule="nonzero"/><path fill="#1a4447" d="M 369.9375 655.050781 L 369.8125 655.050781 C 359.851562 655.019531 349.972656 651.199219 342 644.296875 C 321.8125 626.828125 320.753906 610.335938 323.421875 599.574219 C 327.117188 584.660156 340.128906 573.25 350.570312 570.828125 C 359.890625 568.675781 368.691406 571.5625 374.746094 578.757812 C 378.828125 583.605469 381.007812 589.769531 381.007812 595.675781 C 395.78125 601.699219 401.203125 610.226562 403.085938 616.691406 C 405.664062 625.546875 403.042969 635.363281 395.898438 643.617188 C 389.519531 650.992188 380.300781 655.050781 369.9375 655.050781 Z M 356.46875 586.117188 C 355.738281 586.117188 354.972656 586.210938 354.175781 586.390625 C 350.089844 587.339844 341.253906 594.015625 338.929688 603.417969 C 336.613281 612.757812 341.164062 622.449219 352.453125 632.222656 C 357.539062 636.621094 363.71875 639.050781 369.859375 639.070312 L 369.933594 639.070312 C 375.59375 639.070312 380.519531 636.976562 383.820312 633.164062 C 385.488281 631.234375 389.214844 626.203125 387.746094 621.15625 C 386.285156 616.128906 379.882812 611.679688 369.71875 608.632812 C 367.546875 607.984375 365.753906 606.4375 364.785156 604.382812 C 363.816406 602.335938 363.769531 599.96875 364.652344 597.875 C 365.519531 595.8125 364.960938 591.949219 362.519531 589.046875 C 360.882812 587.09375 358.855469 586.117188 356.46875 586.117188 Z M 356.46875 586.117188 " fill-opacity="1" fill-rule="nonzero"/><path fill="#1a4447" d="M 333.464844 614.800781 C 333.339844 614.429688 333.328125 614.0625 333.234375 613.691406 C 307.355469 603.070312 283.6875 577.839844 278.171875 551.382812 C 277.269531 547.058594 273.054688 544.265625 268.722656 545.1875 C 264.40625 546.085938 261.636719 550.320312 262.535156 554.636719 C 270.496094 592.867188 306.738281 626.691406 344.234375 633.605469 C 339.269531 628.097656 335.824219 621.828125 333.464844 614.800781 Z M 333.464844 614.800781 " fill-opacity="1" fill-rule="nonzero"/><path fill="#1a4447" d="M 409.332031 376.226562 C 394.511719 376.226562 379.550781 372.519531 366.613281 365.554688 C 344.105469 353.433594 327.378906 331.296875 321.875 306.335938 C 314.179688 271.457031 326.847656 236.109375 354.933594 214.085938 C 382.398438 192.546875 417.628906 188.972656 449.152344 204.527344 L 449.152344 204.53125 C 484.550781 221.996094 505.519531 264.386719 497.929688 303.128906 C 490.335938 341.871094 454.914062 373.207031 415.539062 376.007812 C 413.476562 376.15625 411.40625 376.226562 409.332031 376.226562 Z M 409.203125 210.996094 C 393.464844 210.996094 378.027344 216.28125 364.789062 226.664062 C 341.582031 244.859375 331.117188 274.066406 337.476562 302.894531 C 341.992188 323.375 355.71875 341.539062 374.183594 351.484375 C 386.300781 358.003906 400.601562 361.054688 414.40625 360.070312 C 446.832031 357.761719 476 331.960938 482.25 300.054688 C 488.503906 268.15625 471.234375 233.242188 442.082031 218.855469 C 431.417969 213.597656 420.234375 210.996094 409.203125 210.996094 Z M 409.203125 210.996094 " fill-opacity="1" fill-rule="nonzero"/><path fill="#1a4447" d="M 409.433594 319.023438 C 403.945312 319.023438 398.5625 317.675781 393.730469 315.070312 C 385.414062 310.59375 379.230469 302.410156 377.195312 293.183594 C 374.367188 280.363281 379.023438 267.363281 389.351562 259.269531 C 399.363281 251.425781 412.710938 250.0625 424.183594 255.71875 C 437.238281 262.164062 444.96875 277.789062 442.167969 292.074219 C 439.371094 306.351562 426.3125 317.90625 411.796875 318.941406 C 411.007812 318.996094 410.21875 319.023438 409.433594 319.023438 Z M 409.480469 268.222656 C 405.839844 268.222656 402.269531 269.445312 399.207031 271.84375 C 394.9375 275.191406 391.011719 281.652344 392.796875 289.738281 C 393.828125 294.414062 397.089844 298.734375 401.304688 301 C 404.121094 302.515625 407.414062 303.195312 410.667969 303.003906 C 418.101562 302.472656 425.054688 296.320312 426.488281 289 C 427.925781 281.671875 423.8125 273.351562 417.117188 270.054688 C 414.640625 268.824219 412.042969 268.222656 409.480469 268.222656 Z M 409.480469 268.222656 " fill-opacity="1" fill-rule="nonzero"/><path fill="#1a4447" d="M 416.976562 232.777344 C 416.976562 233.265625 416.929688 233.746094 416.832031 234.226562 C 416.738281 234.703125 416.597656 235.164062 416.410156 235.617188 C 416.226562 236.066406 415.996094 236.492188 415.726562 236.898438 C 415.457031 237.300781 415.148438 237.675781 414.804688 238.019531 C 414.460938 238.363281 414.085938 238.671875 413.683594 238.941406 C 413.277344 239.210938 412.851562 239.441406 412.402344 239.625 C 411.953125 239.8125 411.488281 239.953125 411.011719 240.046875 C 410.535156 240.144531 410.050781 240.191406 409.566406 240.191406 C 409.078125 240.191406 408.597656 240.144531 408.121094 240.046875 C 407.644531 239.953125 407.179688 239.8125 406.730469 239.625 C 406.28125 239.441406 405.851562 239.210938 405.449219 238.941406 C 405.042969 238.671875 404.667969 238.363281 404.324219 238.019531 C 403.980469 237.675781 403.675781 237.300781 403.402344 236.898438 C 403.132812 236.492188 402.90625 236.066406 402.71875 235.617188 C 402.53125 235.164062 402.390625 234.703125 402.296875 234.226562 C 402.203125 233.746094 402.15625 233.265625 402.15625 232.777344 C 402.15625 232.292969 402.203125 231.808594 402.296875 231.332031 C 402.390625 230.855469 402.53125 230.390625 402.71875 229.941406 C 402.90625 229.492188 403.132812 229.066406 403.402344 228.660156 C 403.675781 228.257812 403.980469 227.882812 404.324219 227.539062 C 404.667969 227.195312 405.042969 226.886719 405.449219 226.617188 C 405.851562 226.347656 406.28125 226.117188 406.730469 225.933594 C 407.179688 225.746094 407.644531 225.605469 408.121094 225.511719 C 408.597656 225.414062 409.078125 225.367188 409.566406 225.367188 C 410.050781 225.367188 410.535156 225.414062 411.011719 225.511719 C 411.488281 225.605469 411.953125 225.746094 412.402344 225.933594 C 412.851562 226.117188 413.277344 226.347656 413.683594 226.617188 C 414.085938 226.886719 414.460938 227.195312 414.804688 227.539062 C 415.148438 227.882812 415.457031 228.257812 415.726562 228.660156 C 415.996094 229.066406 416.226562 229.492188 416.410156 229.941406 C 416.597656 230.390625 416.738281 230.855469 416.832031 231.332031 C 416.929688 231.808594 416.976562 232.292969 416.976562 232.777344 Z M 416.976562 232.777344 " fill-opacity="1" fill-rule="nonzero"/><path fill="#1a4447" d="M 416.976562 338.417969 C 416.976562 338.90625 416.929688 339.386719 416.832031 339.867188 C 416.738281 340.34375 416.597656 340.804688 416.410156 341.253906 C 416.226562 341.707031 415.996094 342.132812 415.726562 342.535156 C 415.457031 342.941406 415.148438 343.316406 414.804688 343.660156 C 414.460938 344.003906 414.085938 344.3125 413.683594 344.582031 C 413.277344 344.851562 412.851562 345.082031 412.402344 345.265625 C 411.953125 345.453125 411.488281 345.59375 411.011719 345.6875 C 410.535156 345.785156 410.050781 345.832031 409.566406 345.832031 C 409.078125 345.832031 408.597656 345.785156 408.121094 345.6875 C 407.644531 345.59375 407.179688 345.453125 406.730469 345.265625 C 406.28125 345.082031 405.851562 344.851562 405.449219 344.582031 C 405.042969 344.3125 404.667969 344.003906 404.324219 343.660156 C 403.980469 343.316406 403.675781 342.941406 403.402344 342.535156 C 403.132812 342.132812 402.90625 341.707031 402.71875 341.253906 C 402.53125 340.804688 402.390625 340.34375 402.296875 339.867188 C 402.203125 339.386719 402.15625 338.90625 402.15625 338.417969 C 402.15625 337.933594 402.203125 337.449219 402.296875 336.972656 C 402.390625 336.496094 402.53125 336.03125 402.71875 335.582031 C 402.90625 335.132812 403.132812 334.707031 403.402344 334.300781 C 403.675781 333.898438 403.980469 333.523438 404.324219 333.179688 C 404.667969 332.835938 405.042969 332.527344 405.449219 332.257812 C 405.851562 331.988281 406.28125 331.757812 406.730469 331.570312 C 407.179688 331.386719 407.644531 331.246094 408.121094 331.152344 C 408.597656 331.054688 409.078125 331.007812 409.566406 331.007812 C 410.050781 331.007812 410.535156 331.054688 411.011719 331.152344 C 411.488281 331.246094 411.953125 331.386719 412.402344 331.570312 C 412.851562 331.757812 413.277344 331.988281 413.683594 332.257812 C 414.085938 332.527344 414.460938 332.835938 414.804688 333.179688 C 415.148438 333.523438 415.457031 333.898438 415.726562 334.300781 C 415.996094 334.707031 416.226562 335.132812 416.410156 335.582031 C 416.597656 336.03125 416.738281 336.496094 416.832031 336.972656 C 416.929688 337.449219 416.976562 337.933594 416.976562 338.417969 Z M 416.976562 338.417969 " fill-opacity="1" fill-rule="nonzero"/><path fill="#1a4447" d="M 364.164062 285.597656 C 364.164062 286.085938 364.117188 286.566406 364.023438 287.042969 C 363.925781 287.523438 363.785156 287.984375 363.601562 288.433594 C 363.414062 288.882812 363.1875 289.3125 362.914062 289.714844 C 362.644531 290.121094 362.339844 290.496094 361.996094 290.839844 C 361.648438 291.183594 361.277344 291.492188 360.871094 291.761719 C 360.464844 292.03125 360.039062 292.257812 359.589844 292.445312 C 359.140625 292.632812 358.675781 292.773438 358.199219 292.867188 C 357.722656 292.960938 357.242188 293.011719 356.753906 293.011719 C 356.269531 293.011719 355.785156 292.960938 355.308594 292.867188 C 354.832031 292.773438 354.367188 292.632812 353.917969 292.445312 C 353.46875 292.257812 353.042969 292.03125 352.636719 291.761719 C 352.234375 291.492188 351.859375 291.183594 351.515625 290.839844 C 351.171875 290.496094 350.863281 290.121094 350.59375 289.714844 C 350.324219 289.3125 350.09375 288.882812 349.90625 288.433594 C 349.722656 287.984375 349.582031 287.523438 349.488281 287.042969 C 349.390625 286.566406 349.34375 286.085938 349.34375 285.597656 C 349.34375 285.113281 349.390625 284.628906 349.488281 284.152344 C 349.582031 283.675781 349.722656 283.210938 349.90625 282.761719 C 350.09375 282.3125 350.324219 281.886719 350.59375 281.480469 C 350.863281 281.078125 351.171875 280.703125 351.515625 280.359375 C 351.859375 280.011719 352.234375 279.707031 352.636719 279.4375 C 353.042969 279.164062 353.46875 278.9375 353.917969 278.75 C 354.367188 278.566406 354.832031 278.425781 355.308594 278.328125 C 355.785156 278.234375 356.269531 278.1875 356.753906 278.1875 C 357.242188 278.1875 357.722656 278.234375 358.199219 278.328125 C 358.675781 278.425781 359.140625 278.566406 359.589844 278.75 C 360.039062 278.9375 360.464844 279.164062 360.871094 279.4375 C 361.277344 279.707031 361.648438 280.011719 361.996094 280.359375 C 362.339844 280.703125 362.644531 281.078125 362.914062 281.480469 C 363.1875 281.886719 363.414062 282.3125 363.601562 282.761719 C 363.785156 283.210938 363.925781 283.675781 364.023438 284.152344 C 364.117188 284.628906 364.164062 285.113281 364.164062 285.597656 Z M 364.164062 285.597656 " fill-opacity="1" fill-rule="nonzero"/><path fill="#1a4447" d="M 469.785156 285.597656 C 469.785156 286.085938 469.738281 286.566406 469.644531 287.042969 C 469.550781 287.523438 469.410156 287.984375 469.222656 288.433594 C 469.035156 288.882812 468.808594 289.3125 468.539062 289.714844 C 468.269531 290.121094 467.960938 290.496094 467.617188 290.839844 C 467.273438 291.183594 466.898438 291.492188 466.492188 291.761719 C 466.089844 292.03125 465.660156 292.257812 465.210938 292.445312 C 464.761719 292.632812 464.300781 292.773438 463.824219 292.867188 C 463.34375 292.960938 462.863281 293.011719 462.375 293.011719 C 461.890625 293.011719 461.410156 292.960938 460.929688 292.867188 C 460.453125 292.773438 459.992188 292.632812 459.539062 292.445312 C 459.089844 292.257812 458.664062 292.03125 458.257812 291.761719 C 457.855469 291.492188 457.480469 291.183594 457.136719 290.839844 C 456.792969 290.496094 456.484375 290.121094 456.214844 289.714844 C 455.945312 289.3125 455.714844 288.882812 455.53125 288.433594 C 455.34375 287.984375 455.203125 287.523438 455.109375 287.042969 C 455.015625 286.566406 454.964844 286.085938 454.964844 285.597656 C 454.964844 285.113281 455.015625 284.628906 455.109375 284.152344 C 455.203125 283.675781 455.34375 283.210938 455.53125 282.761719 C 455.714844 282.3125 455.945312 281.886719 456.214844 281.480469 C 456.484375 281.078125 456.792969 280.703125 457.136719 280.359375 C 457.480469 280.011719 457.855469 279.707031 458.257812 279.4375 C 458.664062 279.164062 459.089844 278.9375 459.539062 278.75 C 459.992188 278.566406 460.453125 278.425781 460.929688 278.328125 C 461.410156 278.234375 461.890625 278.1875 462.375 278.1875 C 462.863281 278.1875 463.34375 278.234375 463.824219 278.328125 C 464.300781 278.425781 464.761719 278.566406 465.210938 278.75 C 465.660156 278.9375 466.089844 279.164062 466.492188 279.4375 C 466.898438 279.707031 467.273438 280.011719 467.617188 280.359375 C 467.960938 280.703125 468.269531 281.078125 468.539062 281.480469 C 468.808594 281.886719 469.035156 282.3125 469.222656 282.761719 C 469.410156 283.210938 469.550781 283.675781 469.644531 284.152344 C 469.738281 284.628906 469.785156 285.113281 469.785156 285.597656 Z M 469.785156 285.597656 " fill-opacity="1" fill-rule="nonzero"/><path fill="#1a4447" d="M 379.632812 248.25 C 379.632812 248.738281 379.585938 249.21875 379.488281 249.695312 C 379.394531 250.171875 379.253906 250.636719 379.066406 251.085938 C 378.882812 251.535156 378.652344 251.964844 378.382812 252.367188 C 378.113281 252.773438 377.804688 253.148438 377.460938 253.492188 C 377.117188 253.835938 376.742188 254.140625 376.339844 254.414062 C 375.933594 254.683594 375.507812 254.910156 375.058594 255.097656 C 374.609375 255.285156 374.144531 255.425781 373.667969 255.519531 C 373.191406 255.613281 372.707031 255.660156 372.222656 255.660156 C 371.734375 255.660156 371.253906 255.613281 370.777344 255.519531 C 370.296875 255.425781 369.835938 255.285156 369.386719 255.097656 C 368.9375 254.910156 368.507812 254.683594 368.105469 254.414062 C 367.699219 254.140625 367.324219 253.835938 366.980469 253.492188 C 366.636719 253.148438 366.332031 252.773438 366.058594 252.367188 C 365.789062 251.964844 365.5625 251.535156 365.375 251.085938 C 365.1875 250.636719 365.046875 250.171875 364.953125 249.695312 C 364.859375 249.21875 364.8125 248.738281 364.8125 248.25 C 364.8125 247.761719 364.859375 247.28125 364.953125 246.804688 C 365.046875 246.328125 365.1875 245.863281 365.375 245.414062 C 365.5625 244.964844 365.789062 244.535156 366.058594 244.132812 C 366.332031 243.726562 366.636719 243.351562 366.980469 243.007812 C 367.324219 242.664062 367.699219 242.359375 368.105469 242.085938 C 368.507812 241.816406 368.9375 241.589844 369.386719 241.402344 C 369.835938 241.214844 370.296875 241.074219 370.777344 240.980469 C 371.253906 240.886719 371.734375 240.839844 372.222656 240.839844 C 372.707031 240.839844 373.191406 240.886719 373.667969 240.980469 C 374.144531 241.074219 374.609375 241.214844 375.058594 241.402344 C 375.507812 241.589844 375.933594 241.816406 376.339844 242.085938 C 376.742188 242.359375 377.117188 242.664062 377.460938 243.007812 C 377.804688 243.351562 378.113281 243.726562 378.382812 244.132812 C 378.652344 244.535156 378.882812 244.964844 379.066406 245.414062 C 379.253906 245.863281 379.394531 246.328125 379.488281 246.804688 C 379.585938 247.28125 379.632812 247.761719 379.632812 248.25 Z M 379.632812 248.25 " fill-opacity="1" fill-rule="nonzero"/><path fill="#1a4447" d="M 454.320312 322.949219 C 454.320312 323.433594 454.273438 323.917969 454.175781 324.394531 C 454.082031 324.871094 453.941406 325.335938 453.753906 325.785156 C 453.570312 326.234375 453.339844 326.660156 453.070312 327.066406 C 452.800781 327.472656 452.492188 327.84375 452.148438 328.1875 C 451.804688 328.535156 451.429688 328.839844 451.027344 329.109375 C 450.621094 329.382812 450.195312 329.609375 449.746094 329.796875 C 449.296875 329.980469 448.832031 330.121094 448.355469 330.21875 C 447.878906 330.3125 447.394531 330.359375 446.910156 330.359375 C 446.421875 330.359375 445.941406 330.3125 445.464844 330.21875 C 444.988281 330.121094 444.523438 329.980469 444.074219 329.796875 C 443.625 329.609375 443.195312 329.382812 442.792969 329.109375 C 442.386719 328.839844 442.015625 328.535156 441.667969 328.1875 C 441.324219 327.84375 441.019531 327.472656 440.75 327.066406 C 440.476562 326.660156 440.25 326.234375 440.0625 325.785156 C 439.878906 325.335938 439.738281 324.871094 439.640625 324.394531 C 439.546875 323.917969 439.5 323.433594 439.5 322.949219 C 439.5 322.460938 439.546875 321.980469 439.640625 321.503906 C 439.738281 321.023438 439.878906 320.5625 440.0625 320.113281 C 440.25 319.664062 440.476562 319.234375 440.75 318.832031 C 441.019531 318.425781 441.324219 318.050781 441.667969 317.707031 C 442.015625 317.363281 442.386719 317.054688 442.792969 316.785156 C 443.195312 316.515625 443.625 316.289062 444.074219 316.101562 C 444.523438 315.914062 444.988281 315.773438 445.464844 315.679688 C 445.941406 315.585938 446.421875 315.535156 446.910156 315.535156 C 447.394531 315.535156 447.878906 315.585938 448.355469 315.679688 C 448.832031 315.773438 449.296875 315.914062 449.746094 316.101562 C 450.195312 316.289062 450.621094 316.515625 451.027344 316.785156 C 451.429688 317.054688 451.804688 317.363281 452.148438 317.707031 C 452.492188 318.050781 452.800781 318.425781 453.070312 318.832031 C 453.339844 319.234375 453.570312 319.664062 453.753906 320.113281 C 453.941406 320.5625 454.082031 321.023438 454.175781 321.503906 C 454.273438 321.980469 454.320312 322.460938 454.320312 322.949219 Z M 454.320312 322.949219 " fill-opacity="1" fill-rule="nonzero"/><path fill="#1a4447" d="M 454.320312 248.25 C 454.320312 248.738281 454.273438 249.21875 454.175781 249.695312 C 454.082031 250.171875 453.941406 250.636719 453.753906 251.085938 C 453.570312 251.535156 453.339844 251.964844 453.070312 252.367188 C 452.800781 252.773438 452.492188 253.148438 452.148438 253.492188 C 451.804688 253.835938 451.429688 254.140625 451.027344 254.414062 C 450.621094 254.683594 450.195312 254.910156 449.746094 255.097656 C 449.296875 255.285156 448.832031 255.425781 448.355469 255.519531 C 447.878906 255.613281 447.394531 255.660156 446.910156 255.660156 C 446.421875 255.660156 445.941406 255.613281 445.464844 255.519531 C 444.988281 255.425781 444.523438 255.285156 444.074219 255.097656 C 443.625 254.910156 443.195312 254.683594 442.792969 254.414062 C 442.386719 254.140625 442.015625 253.835938 441.667969 253.492188 C 441.324219 253.148438 441.019531 252.773438 440.75 252.367188 C 440.476562 251.964844 440.25 251.535156 440.0625 251.085938 C 439.878906 250.636719 439.738281 250.171875 439.640625 249.695312 C 439.546875 249.21875 439.5 248.738281 439.5 248.25 C 439.5 247.761719 439.546875 247.28125 439.640625 246.804688 C 439.738281 246.328125 439.878906 245.863281 440.0625 245.414062 C 440.25 244.964844 440.476562 244.535156 440.75 244.132812 C 441.019531 243.726562 441.324219 243.351562 441.667969 243.007812 C 442.015625 242.664062 442.386719 242.359375 442.792969 242.085938 C 443.195312 241.816406 443.625 241.589844 444.074219 241.402344 C 444.523438 241.214844 444.988281 241.074219 445.464844 240.980469 C 445.941406 240.886719 446.421875 240.839844 446.910156 240.839844 C 447.394531 240.839844 447.878906 240.886719 448.355469 240.980469 C 448.832031 241.074219 449.296875 241.214844 449.746094 241.402344 C 450.195312 241.589844 450.621094 241.816406 451.027344 242.085938 C 451.429688 242.359375 451.804688 242.664062 452.148438 243.007812 C 452.492188 243.351562 452.800781 243.726562 453.070312 244.132812 C 453.339844 244.535156 453.570312 244.964844 453.753906 245.414062 C 453.941406 245.863281 454.082031 246.328125 454.175781 246.804688 C 454.273438 247.28125 454.320312 247.761719 454.320312 248.25 Z M 454.320312 248.25 " fill-opacity="1" fill-rule="nonzero"/><path fill="#1a4447" d="M 379.632812 322.949219 C 379.632812 323.433594 379.585938 323.917969 379.488281 324.394531 C 379.394531 324.871094 379.253906 325.335938 379.066406 325.785156 C 378.882812 326.234375 378.652344 326.660156 378.382812 327.066406 C 378.113281 327.472656 377.804688 327.84375 377.460938 328.1875 C 377.117188 328.535156 376.742188 328.839844 376.339844 329.109375 C 375.933594 329.382812 375.507812 329.609375 375.058594 329.796875 C 374.609375 329.980469 374.144531 330.121094 373.667969 330.21875 C 373.191406 330.3125 372.707031 330.359375 372.222656 330.359375 C 371.734375 330.359375 371.253906 330.3125 370.777344 330.21875 C 370.296875 330.121094 369.835938 329.980469 369.386719 329.796875 C 368.9375 329.609375 368.507812 329.382812 368.105469 329.109375 C 367.699219 328.839844 367.324219 328.535156 366.980469 328.1875 C 366.636719 327.84375 366.332031 327.472656 366.058594 327.066406 C 365.789062 326.660156 365.5625 326.234375 365.375 325.785156 C 365.1875 325.335938 365.046875 324.871094 364.953125 324.394531 C 364.859375 323.917969 364.8125 323.433594 364.8125 322.949219 C 364.8125 322.460938 364.859375 321.980469 364.953125 321.503906 C 365.046875 321.023438 365.1875 320.5625 365.375 320.113281 C 365.5625 319.664062 365.789062 319.234375 366.058594 318.832031 C 366.332031 318.425781 366.636719 318.050781 366.980469 317.707031 C 367.324219 317.363281 367.699219 317.054688 368.105469 316.785156 C 368.507812 316.515625 368.9375 316.289062 369.386719 316.101562 C 369.835938 315.914062 370.296875 315.773438 370.777344 315.679688 C 371.253906 315.585938 371.734375 315.535156 372.222656 315.535156 C 372.707031 315.535156 373.191406 315.585938 373.667969 315.679688 C 374.144531 315.773438 374.609375 315.914062 375.058594 316.101562 C 375.507812 316.289062 375.933594 316.515625 376.339844 316.785156 C 376.742188 317.054688 377.117188 317.363281 377.460938 317.707031 C 377.804688 318.050781 378.113281 318.425781 378.382812 318.832031 C 378.652344 319.234375 378.882812 319.664062 379.066406 320.113281 C 379.253906 320.5625 379.394531 321.023438 379.488281 321.503906 C 379.585938 321.980469 379.632812 322.460938 379.632812 322.949219 Z M 379.632812 322.949219 " fill-opacity="1" fill-rule="nonzero"/><path fill="#1a4447" d="M 701.121094 77.191406 C 682.371094 51.503906 551.128906 43.742188 474.566406 41.40625 C 416.289062 39.632812 352.992188 40.074219 305.601562 43.222656 C 310.351562 47.324219 313.949219 52.625 315.386719 58.589844 C 358.183594 56.175781 414.910156 55.582031 474.078125 57.375 C 609.566406 61.515625 680.058594 75.433594 688.210938 86.605469 C 704.777344 110.542969 727.378906 497.175781 700.976562 567.570312 C 694.773438 584.09375 662.832031 642.234375 652.785156 646.378906 C 536.429688 689.25 285.066406 664.546875 175.890625 650.957031 C 153.035156 500.296875 149.828125 355.71875 165.925781 190.324219 C 162.84375 189.765625 159.765625 188.382812 156.960938 185.90625 C 154.722656 184.230469 152.730469 182.320312 150.875 180.28125 C 133.472656 352.785156 136.726562 502.589844 161.015625 659.351562 C 161.5625 662.871094 164.375 665.609375 167.90625 666.054688 C 230.300781 673.96875 345.46875 686.351562 454.773438 686.351562 C 532.675781 686.351562 607.605469 680.058594 658.308594 661.371094 C 678.441406 653.953125 714.023438 578.273438 715.929688 573.1875 C 742.132812 503.335938 723.472656 107.808594 701.121094 77.191406 Z M 701.121094 77.191406 " fill-opacity="1" fill-rule="nonzero"/><path fill="#1a4447" d="M 641.300781 116.191406 C 553.773438 99.910156 430.203125 96.015625 309.769531 104.121094 C 306.644531 111.503906 302.714844 116.929688 297.835938 120.96875 C 420.976562 111.746094 548.859375 115.25 638.378906 131.902344 C 642.730469 132.71875 646.886719 129.847656 647.691406 125.507812 C 648.5 121.171875 645.636719 117 641.300781 116.191406 Z M 641.300781 116.191406 " fill-opacity="1" fill-rule="nonzero"/><path fill="#1a4447" d="M 690.472656 75.148438 C 690.34375 75.230469 690.203125 75.28125 690.074219 75.371094 C 683.140625 80.25 676.925781 84.453125 671.335938 88.234375 C 654.699219 99.484375 642.683594 107.617188 633.582031 119.078125 C 632.503906 120.441406 631.960938 122.039062 631.890625 123.652344 C 635.613281 125.390625 638.164062 128.445312 639.628906 132 C 639.699219 132.003906 639.765625 132.035156 639.835938 132.035156 C 642.1875 132.035156 644.519531 131 646.097656 129.015625 C 653.667969 119.472656 664.257812 112.3125 680.28125 101.472656 C 685.949219 97.640625 692.246094 93.382812 699.269531 88.4375 C 699.867188 88.015625 700.359375 87.511719 700.804688 86.972656 C 697.261719 83.121094 693.800781 79.203125 690.472656 75.148438 Z M 690.472656 75.148438 " fill-opacity="1" fill-rule="nonzero"/><path fill="#1a4447" d="M 647.699219 122.605469 C 647.382812 120.898438 646.539062 119.429688 645.378906 118.3125 C 642.597656 121.515625 638.453125 123.652344 632.929688 123.652344 C 632.5625 123.652344 632.246094 123.570312 631.890625 123.550781 C 631.851562 124.1875 631.863281 124.832031 631.980469 125.488281 C 662.335938 290.910156 655.101562 468.5 648.105469 640.242188 L 647.566406 653.550781 C 647.511719 654.914062 647.832031 656.191406 648.386719 657.339844 C 650.671875 656.449219 652.992188 655.660156 655.324219 654.890625 C 656.179688 654.226562 657.039062 653.5625 657.894531 652.894531 C 659.898438 651.332031 661.871094 649.738281 663.777344 648.054688 L 664.070312 640.890625 C 671.101562 468.273438 678.375 289.78125 647.699219 122.605469 Z M 647.699219 122.605469 " fill-opacity="1" fill-rule="nonzero"/><path fill="#1a4447" d="M 232.753906 269.601562 C 234.203125 239.351562 236.46875 210.9375 239.769531 186.410156 C 237.265625 188.089844 234.164062 189.15625 230.359375 189.15625 C 227.753906 189.15625 225.480469 188.644531 223.484375 187.808594 C 220.472656 211.402344 218.34375 238.988281 216.945312 268.574219 C 221.945312 268.535156 227.542969 268.652344 232.753906 269.601562 Z M 232.753906 269.601562 " fill-opacity="1" fill-rule="nonzero"/><path fill="#1a4447" d="M 232.808594 475.585938 C 230.90625 427.027344 229.996094 370.621094 231.15625 316.585938 C 225.976562 317.378906 220.460938 317.605469 215.3125 317.011719 C 214.171875 370.191406 214.921875 426.132812 216.789062 475.027344 C 221.992188 474.246094 227.59375 474.34375 232.808594 475.585938 Z M 232.808594 475.585938 " fill-opacity="1" fill-rule="nonzero"/><path fill="#1a4447" d="M 312.804688 608.800781 C 289.789062 607.046875 266.515625 604.957031 242.730469 602.257812 C 240.28125 591.625 237.480469 563.007812 235.195312 524.523438 C 229.773438 524.933594 224.382812 525.449219 219.242188 525.160156 C 222.214844 573.90625 226.296875 608.621094 230.335938 614.269531 C 231.648438 616.101562 233.675781 617.296875 235.914062 617.558594 C 269.308594 621.433594 301.886719 624.359375 333.824219 626.398438 C 332.859375 625.441406 331.945312 624.433594 331.015625 623.4375 C 324.441406 619.328125 317.136719 615.378906 312.804688 608.800781 Z M 312.804688 608.800781 " fill-opacity="1" fill-rule="nonzero"/><path fill="#1a4447" d="M 424.292969 629.734375 C 422.207031 624.625 422.425781 618.511719 424.980469 613.636719 C 414.570312 613.539062 404.117188 613.378906 393.574219 613.078125 C 397.59375 618.3125 397.261719 624.292969 394.425781 629.195312 C 404.441406 629.476562 414.386719 629.636719 424.292969 629.734375 Z M 424.292969 629.734375 " fill-opacity="1" fill-rule="nonzero"/><path fill="#1a4447" d="M 591.359375 184.007812 C 591.125 180.4375 588.550781 177.464844 585.054688 176.71875 C 475.675781 153.425781 364.824219 150.691406 246.691406 168.277344 C 247.816406 174.398438 246 181.09375 241.316406 185.21875 C 358.300781 166.957031 467.863281 168.882812 575.8125 191.105469 C 584.199219 322.464844 584.933594 462.355469 578 607.144531 C 548.488281 610.046875 518.597656 611.964844 488.234375 612.953125 C 488.136719 613.804688 488.03125 614.65625 487.789062 615.480469 C 486.144531 621.0625 483.035156 625.695312 479.03125 629.261719 C 515.457031 628.277344 551.214844 625.996094 586.464844 622.347656 C 590.386719 621.941406 593.425781 618.734375 593.621094 614.796875 C 601.050781 464.734375 600.292969 319.792969 591.359375 184.007812 Z M 591.359375 184.007812 " fill-opacity="1" fill-rule="nonzero"/><path fill="#1a4447" d="M 260.699219 325.585938 C 247.675781 325.585938 234.574219 325.125 221.902344 324.675781 C 212.246094 324.332031 202.574219 323.992188 192.855469 323.84375 C 190.683594 323.8125 188.625 322.898438 187.144531 321.316406 C 185.664062 319.734375 184.886719 317.625 184.996094 315.457031 C 185.417969 306.976562 185.613281 299.367188 185.804688 291.757812 C 186.003906 284.023438 186.195312 276.289062 186.628906 267.671875 C 186.828125 263.632812 190.019531 260.378906 194.054688 260.101562 C 218.355469 258.417969 239.363281 258.738281 262.160156 261.132812 C 266.109375 261.546875 269.148438 264.800781 269.308594 268.761719 C 270.171875 290.679688 270.195312 300.371094 268.660156 318.28125 C 268.300781 322.414062 264.847656 325.585938 260.699219 325.585938 Z M 201.308594 308.03125 C 208.378906 308.210938 215.425781 308.460938 222.46875 308.710938 C 232.582031 309.0625 242.976562 309.433594 253.308594 309.5625 C 254.058594 298.507812 254.066406 289.980469 253.605469 276.363281 C 236.566406 274.886719 220.261719 274.652344 202.269531 275.601562 C 202.050781 281.335938 201.914062 286.75 201.773438 292.167969 C 201.644531 297.363281 201.511719 302.566406 201.308594 308.03125 Z M 201.308594 308.03125 " fill-opacity="1" fill-rule="nonzero"/><path fill="#1a4447" d="M 260.699219 533.734375 C 247.675781 533.734375 234.574219 533.269531 221.902344 532.824219 C 212.246094 532.480469 202.574219 532.136719 192.855469 531.992188 C 190.683594 531.960938 188.625 531.046875 187.144531 529.464844 C 185.664062 527.882812 184.886719 525.769531 184.996094 523.601562 C 185.417969 515.125 185.613281 507.515625 185.804688 499.90625 C 186.003906 492.171875 186.195312 484.4375 186.628906 475.816406 C 186.828125 471.78125 190.019531 468.523438 194.054688 468.25 C 218.355469 466.5625 239.363281 466.886719 262.160156 469.277344 C 266.109375 469.695312 269.148438 472.945312 269.308594 476.910156 C 270.171875 498.828125 270.195312 508.519531 268.660156 526.425781 C 268.300781 530.5625 264.847656 533.734375 260.699219 533.734375 Z M 201.308594 516.179688 C 208.378906 516.355469 215.425781 516.605469 222.46875 516.855469 C 232.582031 517.210938 242.976562 517.578125 253.308594 517.707031 C 254.058594 506.65625 254.066406 498.125 253.605469 484.507812 C 236.566406 483.03125 220.261719 482.796875 202.269531 483.75 C 202.050781 489.480469 201.914062 494.894531 201.773438 500.316406 C 201.644531 505.511719 201.511719 510.714844 201.308594 516.179688 Z M 201.308594 516.179688 " fill-opacity="1" fill-rule="nonzero"/><path fill="#1a4447" d="M 741.78125 669.4375 C 733.761719 660.046875 720.960938 649.078125 705.890625 650.539062 C 696.878906 651.363281 688.753906 656.402344 681.652344 665.546875 L 656.921875 643.082031 C 656.800781 645.761719 656.152344 648.507812 654.796875 651.25 C 653.378906 654.117188 651.582031 656.289062 649.523438 657.945312 L 677.765625 683.601562 C 679.550781 685.226562 681.996094 685.957031 684.363281 685.582031 C 686.75 685.207031 688.835938 683.777344 690.046875 681.691406 C 695.585938 672.121094 701.40625 666.992188 707.347656 666.449219 C 716.425781 665.53125 725.964844 675.523438 729.640625 679.820312 C 730.097656 680.355469 730.0625 681.175781 729.558594 681.726562 L 682.511719 733.539062 C 681.960938 734.15625 681.019531 734.199219 680.402344 733.640625 L 604.835938 664.996094 C 598.34375 666.179688 591.9375 667.730469 585.464844 668.980469 L 669.667969 745.476562 C 673.007812 748.503906 677.207031 750 681.398438 750 C 686.15625 750 690.894531 748.070312 694.335938 744.285156 L 741.386719 692.46875 C 747.285156 685.972656 747.453125 676.070312 741.78125 669.4375 Z M 741.78125 669.4375 " fill-opacity="1" fill-rule="nonzero"/><path fill="#1a4447" d="M 208.988281 660.953125 L 140.703125 722.984375 C 140.09375 723.539062 139.148438 723.492188 138.59375 722.886719 L 91.546875 671.074219 C 91.042969 670.523438 91.007812 669.703125 91.464844 669.167969 C 95.136719 664.871094 104.675781 654.976562 113.757812 655.796875 C 119.699219 656.34375 125.519531 661.46875 131.054688 671.039062 C 132.269531 673.125 134.355469 674.554688 136.742188 674.929688 C 139.121094 675.304688 141.554688 674.574219 143.339844 672.949219 L 168.769531 649.84375 C 168.589844 649.28125 168.390625 648.730469 168.265625 648.117188 C 167.125 642.515625 166.253906 636.863281 165.550781 631.1875 L 139.453125 654.894531 C 132.355469 645.75 124.226562 640.710938 115.214844 639.886719 C 100.039062 638.453125 87.347656 649.402344 79.320312 658.785156 C 73.648438 665.414062 73.820312 675.320312 79.722656 681.820312 L 126.769531 733.632812 C 130.207031 737.417969 134.945312 739.34375 139.703125 739.34375 C 143.894531 739.34375 148.101562 737.851562 151.441406 734.816406 L 229.878906 663.5625 C 222.890625 662.945312 215.925781 662.070312 208.988281 660.953125 Z M 208.988281 660.953125 " fill-opacity="1" fill-rule="nonzero"/><path fill="#1a4447" d="M 389.777344 536.460938 C 384.839844 536.460938 379.910156 534.992188 375.644531 532.167969 C 367.027344 526.460938 362.113281 516.808594 362.164062 505.679688 C 362.214844 493.777344 367.960938 482.679688 377.152344 476.710938 C 385.164062 471.503906 394.722656 471.230469 402.710938 475.972656 C 412.675781 481.886719 418.453125 494.292969 417.433594 507.582031 C 416.417969 520.882812 407.386719 532.695312 395.960938 535.667969 C 393.933594 536.199219 391.855469 536.460938 389.777344 536.460938 Z M 390.585938 488.554688 C 389.03125 488.554688 387.445312 489.074219 385.851562 490.109375 C 381.195312 493.132812 378.167969 499.273438 378.140625 505.75 C 378.128906 508.425781 378.71875 515.039062 384.460938 518.84375 C 386.738281 520.351562 389.46875 520.84375 391.9375 520.210938 C 396.808594 518.941406 401.007812 512.859375 401.507812 506.363281 C 402.140625 498.089844 398.472656 492.039062 394.558594 489.714844 C 393.257812 488.945312 391.933594 488.554688 390.585938 488.554688 Z M 390.585938 488.554688 " fill-opacity="1" fill-rule="nonzero"/><path fill="#1a4447" d="M 329.199219 467.167969 C 321.800781 467.167969 314.796875 464.113281 309.363281 458.488281 C 303.890625 452.820312 300.675781 445.171875 300.300781 436.941406 C 300.097656 432.535156 303.507812 428.796875 307.914062 428.601562 C 312.429688 428.429688 316.058594 431.804688 316.257812 436.214844 C 316.457031 440.550781 318.089844 444.519531 320.855469 447.386719 C 323.359375 449.980469 326.527344 451.289062 329.714844 451.179688 C 332.925781 451.03125 335.9375 449.40625 338.191406 446.597656 C 340.6875 443.492188 341.949219 439.390625 341.75 435.050781 C 341.550781 430.644531 344.957031 426.902344 349.363281 426.707031 C 353.824219 426.515625 357.507812 429.910156 357.710938 434.320312 C 358.085938 442.550781 355.578125 450.460938 350.648438 456.605469 C 345.476562 463.039062 338.304688 466.78125 330.441406 467.136719 C 330.027344 467.15625 329.613281 467.167969 329.199219 467.167969 Z M 329.199219 467.167969 " fill-opacity="1" fill-rule="nonzero"/><path fill="#1a4447" d="M 455.441406 465.988281 C 448.039062 465.988281 441.035156 462.933594 435.601562 457.304688 C 430.132812 451.640625 426.914062 443.992188 426.539062 435.761719 C 426.339844 431.355469 429.746094 427.617188 434.15625 427.417969 C 438.652344 427.316406 442.300781 430.628906 442.5 435.035156 C 442.695312 439.371094 444.328125 443.339844 447.097656 446.207031 C 449.59375 448.800781 452.777344 450.132812 455.953125 449.996094 C 459.167969 449.851562 462.175781 448.222656 464.433594 445.414062 C 466.925781 442.308594 468.191406 438.210938 467.992188 433.867188 C 467.792969 429.464844 471.199219 425.722656 475.609375 425.527344 C 480.105469 425.359375 483.753906 428.730469 483.953125 433.140625 C 484.328125 441.367188 481.820312 449.28125 476.890625 455.421875 C 471.71875 461.855469 464.542969 465.601562 456.679688 465.957031 C 456.265625 465.976562 455.855469 465.988281 455.441406 465.988281 Z M 455.441406 465.988281 " fill-opacity="1" fill-rule="nonzero"/><path fill="#1a4447" d="M 60.847656 287.707031 C 55.800781 287.707031 48.691406 285.007812 41.515625 273.339844 C 21.511719 240.816406 2.535156 132.132812 74.304688 56.164062 C 118.046875 9.863281 168.597656 0 203.695312 0 L 204.832031 0 C 252.820312 0.292969 294.855469 18.804688 311.578125 36.941406 C 329.992188 56.914062 331.921875 89.671875 316.261719 116.585938 C 303.566406 138.414062 239.320312 206.125 183.0625 203.71875 C 165.058594 202.957031 147.40625 193.4375 135.847656 178.261719 C 135.1875 177.390625 134.554688 176.515625 133.949219 175.632812 C 114.816406 191.304688 103.890625 219.058594 94.929688 241.808594 C 85.863281 264.824219 78.703125 283.003906 64.847656 287.125 C 63.746094 287.453125 62.394531 287.707031 60.847656 287.707031 Z M 203.703125 15.976562 C 171.761719 15.976562 125.761719 24.960938 85.914062 67.140625 C 35.882812 120.105469 32.757812 193.5 45.285156 240.253906 C 50.878906 261.121094 57.996094 270.238281 60.800781 271.625 C 67.066406 268.949219 73.960938 251.449219 80.0625 235.953125 C 90.121094 210.417969 102.457031 179.09375 126.535156 161.140625 C 123.144531 151.503906 122.421875 141.410156 124.625 131.871094 C 125.609375 127.5625 129.917969 124.894531 134.199219 125.878906 C 138.5 126.871094 141.179688 131.160156 140.1875 135.457031 C 138.390625 143.261719 139.484375 151.734375 143.179688 159.695312 C 143.222656 159.769531 143.265625 159.835938 143.308594 159.90625 C 143.609375 160.402344 143.851562 160.917969 144.035156 161.445312 C 145.296875 163.886719 146.808594 166.277344 148.554688 168.574219 C 157.273438 180.019531 170.425781 187.191406 183.738281 187.753906 C 230.253906 189.667969 290.164062 129.679688 302.453125 108.558594 C 312.40625 91.445312 315.832031 65.121094 299.832031 47.769531 C 285.804688 32.554688 247.703125 16.238281 204.734375 15.976562 Z M 203.703125 15.976562 " fill-opacity="1" fill-rule="nonzero"/><path fill="#1a4447" d="M 196.472656 159.203125 C 196.132812 159.203125 195.789062 159.179688 195.445312 159.132812 C 192.429688 158.746094 189.898438 156.679688 188.914062 153.804688 L 178.132812 122.304688 L 146.074219 113.332031 C 143.148438 112.515625 140.9375 110.101562 140.378906 107.109375 C 139.816406 104.125 141 101.078125 143.433594 99.25 L 170.050781 79.261719 L 168.679688 45.996094 C 168.550781 42.957031 170.164062 40.113281 172.832031 38.65625 C 175.496094 37.199219 178.765625 37.386719 181.25 39.128906 L 208.488281 58.269531 L 239.691406 46.6875 C 242.546875 45.625 245.746094 46.28125 247.957031 48.367188 C 250.167969 50.457031 251 53.621094 250.105469 56.527344 L 240.320312 88.351562 L 260.980469 114.449219 C 262.867188 116.832031 263.238281 120.082031 261.933594 122.828125 C 260.632812 125.574219 257.882812 127.347656 254.84375 127.394531 L 221.5625 127.921875 L 203.121094 155.640625 C 201.628906 157.882812 199.121094 159.203125 196.472656 159.203125 Z M 165.96875 102.308594 L 186.480469 108.050781 C 189.011719 108.757812 191.035156 110.667969 191.882812 113.15625 L 198.785156 133.308594 L 210.585938 115.574219 C 212.042969 113.382812 214.484375 112.050781 217.109375 112.011719 L 238.40625 111.671875 L 225.183594 94.972656 C 223.554688 92.910156 223.039062 90.179688 223.816406 87.664062 L 230.078125 67.300781 L 210.109375 74.710938 C 207.644531 75.621094 204.886719 75.269531 202.738281 73.761719 L 185.308594 61.511719 L 186.1875 82.800781 C 186.296875 85.425781 185.105469 87.9375 183 89.515625 Z M 165.96875 102.308594 " fill-opacity="1" fill-rule="nonzero"/></svg>