<svg xmlns="http://www.w3.org/2000/svg" xmlns:xlink="http://www.w3.org/1999/xlink" width="1000" zoomAndPan="magnify" viewBox="0 0 750 749.999995" height="1000" preserveAspectRatio="xMidYMid meet" version="1.0"><defs><clipPath id="1b5de2f4ed"><path d="M 224 601 L 340 601 L 340 705.28125 L 224 705.28125 Z M 224 601 " clip-rule="nonzero"/></clipPath><clipPath id="5b6fc52ac5"><path d="M 466 605 L 581 605 L 581 705.28125 L 466 705.28125 Z M 466 605 " clip-rule="nonzero"/></clipPath><clipPath id="6057e07ee0"><path d="M 250 44.53125 L 604 44.53125 L 604 570 L 250 570 Z M 250 44.53125 " clip-rule="nonzero"/></clipPath></defs><path fill="#b2d7d8" d="M 238.476562 699.273438 C 232.082031 697.488281 230.917969 692.363281 230.710938 690.835938 C 229.617188 682.75 229.101562 667.9375 237.933594 659.703125 C 242.207031 655.722656 248.125 653.699219 255.53125 653.699219 C 258.34375 653.699219 261.4375 653.996094 264.746094 654.582031 C 263.824219 648.304688 262.121094 628.980469 271.546875 607.6875 L 274.03125 602.085938 L 280.140625 602.542969 C 292.371094 603.457031 305.308594 604.261719 318.601562 604.9375 L 333.507812 605.695312 L 325.488281 618.28125 C 320.441406 626.199219 317.378906 635.160156 316.378906 644.917969 C 314.042969 667.78125 315.429688 687.929688 315.441406 688.125 L 315.472656 688.777344 C 315.5 691.488281 314.46875 694.046875 312.570312 695.988281 C 310.632812 697.949219 308.09375 699.023438 305.382812 699.046875 L 239.65625 699.601562 Z M 238.476562 699.273438 " fill-opacity="1" fill-rule="nonzero"/><path fill="#b2d7d8" d="M 499.394531 699.046875 C 493.976562 699.003906 489.441406 694.753906 489.28125 689.574219 L 489.265625 689.125 L 489.300781 688.671875 C 489.316406 688.46875 490.757812 668.027344 488.390625 644.914062 C 487.472656 635.9375 484.765625 627.578125 480.347656 620.082031 L 472.832031 607.328125 L 487.636719 606.992188 C 500.542969 606.695312 513.601562 606.285156 526.449219 605.769531 L 532.628906 605.519531 L 534.886719 611.277344 C 542.710938 631.234375 541.015625 648.558594 540.050781 654.589844 C 543.242188 654.003906 546.386719 653.699219 549.242188 653.699219 C 556.644531 653.699219 562.566406 655.71875 566.835938 659.703125 C 575.667969 667.9375 575.148438 682.75 574.054688 690.847656 C 573.382812 695.832031 569.050781 699.589844 563.972656 699.589844 Z M 499.394531 699.046875 " fill-opacity="1" fill-rule="nonzero"/><path fill="#1a4447" d="M 583.445312 401.394531 C 571.417969 390.476562 557.128906 381.824219 540.976562 375.675781 L 528.261719 370.835938 L 522.390625 369.035156 L 528.34375 367.214844 C 534.085938 364.367188 538 361.339844 538 361.339844 C 541.589844 357.84375 543.269531 353.175781 542.390625 349.164062 C 541.1875 343.695312 535.414062 339.414062 526.949219 337.707031 C 523.527344 337.015625 519.613281 336.664062 515.304688 336.664062 C 506.007812 336.664062 496.074219 338.316406 488.050781 341.195312 C 479.070312 344.410156 472.6875 349.824219 470.976562 355.675781 C 470.664062 356.75 470.300781 360.777344 470.773438 362.570312 C 471.25 364.367188 473.605469 367 473.605469 367 L 470.761719 367.207031 L 462.730469 368 C 452.550781 369.011719 442.597656 370.625 433.140625 372.796875 L 422.210938 375.304688 L 422.511719 364.101562 C 424.464844 290.75 424.667969 220.621094 423.105469 155.664062 L 422.890625 146.6875 L 431.867188 146.769531 C 484.183594 147.238281 529.910156 152.199219 584.765625 163.363281 L 591.273438 164.683594 L 591.703125 171.308594 C 596.339844 242.566406 598.453125 317.835938 597.972656 395.019531 L 597.851562 414.476562 Z M 583.445312 401.394531 " fill-opacity="1" fill-rule="nonzero"/><path fill="#79afae" d="M 455.84375 563.53125 C 402.007812 563.53125 347.476562 560.601562 289.128906 554.578125 L 269.484375 552.550781 C 267.898438 552.386719 267.398438 550.320312 268.734375 549.449219 L 285.273438 538.664062 C 335.621094 505.835938 375.570312 485.589844 418.765625 464.460938 C 420.109375 436.480469 421.222656 407.75 422.078125 379.046875 L 422.277344 372.460938 L 428.675781 370.875 C 440.984375 367.828125 453.863281 365.75 466.957031 364.710938 L 471.25 364.367188 L 474.121094 367.578125 C 476.75 370.519531 481.097656 372.132812 487.792969 372.660156 C 490.269531 372.855469 492.777344 372.957031 495.253906 372.957031 C 504.882812 372.957031 514.496094 371.492188 523.816406 368.605469 L 526.238281 367.859375 L 528.683594 368.53125 C 547.429688 373.660156 574.265625 384.972656 595.65625 409.707031 L 597.8125 412.199219 L 597.773438 415.496094 C 597.230469 460.433594 595.867188 505.410156 593.730469 549.167969 L 593.363281 556.667969 L 585.886719 557.386719 C 543.636719 561.464844 499.882812 563.53125 455.84375 563.53125 Z M 455.84375 563.53125 " fill-opacity="1" fill-rule="nonzero"/><path fill="#79afae" d="M 495.261719 375.851562 C 492.6875 375.851562 490.121094 375.75 487.570312 375.546875 C 482.503906 375.148438 475.3125 374.011719 471.304688 368.820312 C 467.890625 364.398438 466.816406 359.570312 468.199219 354.859375 C 470.164062 348.128906 477.222656 342 487.070312 338.472656 C 495.417969 335.476562 505.703125 333.761719 515.285156 333.761719 C 519.757812 333.761719 523.871094 334.132812 527.519531 334.867188 C 537.144531 336.808594 543.757812 341.917969 545.21875 348.535156 C 546.332031 353.621094 544.28125 359.386719 539.863281 363.589844 C 535.753906 367.5 530.292969 369.609375 525.996094 371.003906 C 516.117188 374.21875 505.777344 375.851562 495.261719 375.851562 Z M 495.261719 375.851562 " fill-opacity="1" fill-rule="nonzero"/><path fill="#d1f2f0" d="M 265.324219 540.640625 C 263.195312 527.777344 261.007812 503.695312 259.167969 472.832031 L 258.601562 463.390625 L 268.0625 463.632812 C 274.441406 463.796875 280.851562 463.929688 287.269531 463.945312 C 288.460938 451.257812 288.449219 443.730469 287.761719 428.0625 C 280.121094 427.382812 272.679688 426.941406 265.054688 426.722656 L 256.910156 426.484375 L 256.625 418.34375 C 255.371094 382.738281 254.855469 346.140625 255.128906 312.511719 L 255.199219 303.644531 L 264.0625 303.898438 C 271.460938 304.109375 279.367188 304.304688 287.269531 304.324219 C 288.460938 291.636719 288.449219 284.101562 287.761719 268.425781 C 280.007812 267.734375 272.476562 267.296875 264.769531 267.078125 L 256 266.832031 L 256.332031 258.066406 C 257.769531 220.316406 260.367188 188.269531 264.042969 162.820312 L 264.5 159.660156 L 266.890625 157.546875 C 278.328125 147.453125 338.957031 95.128906 409.441406 56.25 L 421.507812 49.597656 L 422.308594 63.347656 C 428.746094 173.398438 428.566406 318.398438 421.820312 461.175781 L 421.578125 466.304688 L 416.96875 468.566406 C 374.691406 489.28125 332.308594 510.828125 278.707031 546.457031 L 269.699219 552.441406 C 268.675781 553.121094 267.292969 552.519531 267.089844 551.308594 Z M 265.324219 540.640625 " fill-opacity="1" fill-rule="nonzero"/><path fill="#79afae" d="M 281.855469 307.183594 C 272.46875 307.082031 263.03125 306.789062 253.84375 306.503906 C 247.300781 306.300781 240.957031 306.105469 234.601562 305.96875 L 225.753906 305.773438 L 226.113281 296.933594 C 226.273438 292.941406 226.382812 289.121094 226.492188 285.300781 C 226.613281 281.203125 226.730469 277.109375 226.914062 272.804688 L 227.246094 264.871094 L 235.179688 264.492188 C 241.871094 264.175781 248.183594 264.019531 254.472656 264.019531 C 263.949219 264.019531 273.230469 264.378906 282.847656 265.113281 L 290.578125 265.703125 L 290.867188 273.449219 C 291.273438 284.316406 291.207031 291.035156 290.613281 299.132812 L 290.019531 307.273438 Z M 281.855469 307.183594 " fill-opacity="1" fill-rule="nonzero"/><path fill="#79afae" d="M 281.855469 466.800781 C 272.410156 466.699219 262.917969 466.40625 253.675781 466.121094 C 247.328125 465.921875 240.972656 465.726562 234.601562 465.589844 L 225.753906 465.394531 L 226.109375 456.554688 C 226.273438 452.566406 226.382812 448.75 226.492188 444.929688 C 226.613281 440.835938 226.730469 436.742188 226.914062 432.441406 L 227.246094 424.507812 L 235.183594 424.132812 C 241.871094 423.8125 248.183594 423.660156 254.464844 423.660156 C 263.949219 423.660156 273.230469 424.019531 282.847656 424.75 L 290.578125 425.34375 L 290.867188 433.085938 C 291.273438 443.945312 291.207031 450.660156 290.613281 458.753906 L 290.015625 466.890625 Z M 281.855469 466.800781 " fill-opacity="1" fill-rule="nonzero"/><path fill="#b2d7d8" d="M 431.085938 610.5625 C 340.777344 610.5625 261.050781 605.898438 206.585938 597.429688 L 199.527344 596.332031 L 198.996094 583.09375 C 192.792969 428.90625 186.375 269.472656 212.722656 119.816406 L 213.777344 113.84375 L 219.746094 112.773438 C 247.84375 107.734375 280.074219 104.027344 315.539062 101.746094 L 344.660156 99.875 L 321.304688 117.363281 C 290.664062 140.3125 270.203125 158.457031 267.21875 161.132812 C 263.46875 186.3125 260.820312 219.09375 259.335938 258.589844 L 259.023438 266.867188 L 250.742188 266.949219 C 243.945312 267.015625 237.167969 267.253906 230.054688 267.664062 C 229.71875 273.953125 229.554688 279.667969 229.390625 285.382812 C 229.21875 291.191406 229.054688 296.8125 228.730469 302.960938 C 235.382812 303.0625 242.003906 303.265625 248.628906 303.46875 L 258.207031 303.765625 L 258.128906 312.265625 C 257.820312 346.160156 258.289062 382.585938 259.488281 417.601562 L 259.792969 426.5 L 250.886719 426.582031 C 244.0625 426.644531 237.234375 426.882812 230.054688 427.300781 C 229.71875 433.585938 229.554688 439.296875 229.390625 445.011719 C 229.21875 450.808594 229.054688 456.429688 228.730469 462.582031 C 237.042969 462.707031 245.320312 462.964844 253.585938 463.222656 L 261.507812 463.46875 L 261.988281 471.378906 C 265.113281 522.976562 268.726562 544.308594 270.632812 549.664062 C 335.789062 557.046875 396.386719 560.640625 455.863281 560.640625 C 501.519531 560.640625 546.839844 558.410156 590.589844 554.015625 C 597.355469 419.230469 596.65625 289.066406 588.523438 167.089844 C 531.867188 155.324219 484.796875 150.109375 431.339844 149.660156 L 422.96875 149.589844 L 422.726562 141.226562 C 422.40625 130.066406 422.015625 119.207031 421.589844 108.496094 L 421.226562 99.300781 L 430.429688 99.46875 C 501.734375 100.761719 572.40625 106.71875 634.800781 116.699219 L 641.550781 117.777344 L 642.089844 124.589844 C 655.132812 289.730469 663.160156 429.132812 638.617188 593.707031 L 637.640625 600.261719 L 631.058594 601.050781 C 580.757812 607.09375 507.867188 610.5625 431.085938 610.5625 Z M 431.085938 610.5625 " fill-opacity="1" fill-rule="nonzero"/><path fill="#79afae" d="M 188.679688 591.324219 C 169.507812 579.53125 139.195312 549.148438 119.160156 525.234375 L 118.902344 524.929688 L 118.675781 524.601562 C 107.011719 507.761719 106.113281 383.753906 106.113281 346.148438 C 106.113281 308.539062 107.027344 184.53125 118.707031 167.757812 C 129.796875 152.34375 183.945312 125.960938 202.425781 118.082031 L 212.546875 113.765625 C 214.492188 112.9375 216.582031 114.585938 216.230469 116.667969 L 214.398438 127.515625 C 189.503906 275.058594 195.800781 431.597656 201.890625 582.980469 L 202.335938 594.363281 C 202.425781 596.707031 199.863281 598.207031 197.867188 596.976562 Z M 188.679688 591.324219 " fill-opacity="1" fill-rule="nonzero"/><path fill="#b2d7d8" d="M 34.375 519.925781 C 29.175781 519.925781 24.648438 517.730469 21.773438 515.886719 C 9.398438 507.945312 6.789062 489.890625 15.941406 475.628906 C 24.429688 462.402344 34.382812 455.699219 45.519531 455.699219 C 46.414062 455.699219 47.3125 455.742188 48.210938 455.832031 C 60.34375 457.046875 70.214844 466.472656 72.675781 472.808594 C 74.996094 478.777344 73.933594 484.882812 69.765625 489.558594 C 66.410156 493.316406 61.421875 495.644531 56.738281 495.644531 C 56.144531 495.644531 55.5625 495.609375 54.988281 495.535156 C 52.417969 510.476562 46.179688 516.25 41.320312 518.453125 C 39.15625 519.433594 36.824219 519.925781 34.375 519.925781 Z M 34.375 519.925781 " fill-opacity="1" fill-rule="nonzero"/><path fill="#b2d7d8" d="M 715.472656 519.925781 C 713.019531 519.925781 710.683594 519.429688 708.53125 518.453125 C 703.667969 516.25 697.429688 510.472656 694.863281 495.535156 C 694.328125 495.605469 693.726562 495.644531 693.121094 495.644531 C 688.433594 495.644531 683.441406 493.316406 680.09375 489.5625 C 675.921875 484.882812 674.859375 478.78125 677.175781 472.8125 C 679.640625 466.472656 689.511719 457.046875 701.644531 455.832031 C 702.542969 455.742188 703.433594 455.699219 704.316406 455.699219 C 715.464844 455.699219 725.421875 462.402344 733.914062 475.628906 C 743.066406 489.890625 740.453125 507.949219 728.089844 515.878906 C 725.730469 517.394531 720.957031 519.925781 715.472656 519.925781 Z M 715.472656 519.925781 " fill-opacity="1" fill-rule="nonzero"/><path fill="#f4c3e9" d="M 346.378906 261.644531 C 341.617188 261.605469 333.507812 259.136719 329.101562 257.671875 L 319.902344 254.613281 L 323.949219 245.808594 C 329.382812 233.972656 331.832031 216.207031 330.5 198.292969 C 329.582031 185.941406 327.011719 174.292969 323.265625 165.496094 L 319.714844 157.152344 L 328.207031 153.964844 C 334.695312 151.527344 340.792969 149.765625 344.929688 149.121094 L 347.5 148.722656 L 349.871094 149.804688 C 360.621094 154.710938 368.734375 173.996094 370.539062 198.9375 C 372.335938 223.839844 366.777344 252.609375 350.300781 260.746094 L 348.445312 261.664062 Z M 346.378906 261.644531 " fill-opacity="1" fill-rule="nonzero"/><path fill="#1a4447" d="M 314.78125 252.011719 C 308.222656 248.921875 303.660156 245.90625 300.832031 242.796875 C 291.855469 232.90625 290.734375 182.863281 299.234375 171.390625 C 302.007812 167.652344 306.832031 164.011719 313.984375 160.261719 L 322.351562 155.875 L 326.023438 164.578125 C 329.894531 173.742188 332.4375 185.324219 333.386719 198.078125 C 334.828125 217.453125 332.25 235.621094 326.308594 247.929688 L 322.566406 255.679688 Z M 314.78125 252.011719 " fill-opacity="1" fill-rule="nonzero"/><path fill="#79afae" d="M 500.515625 517.1875 C 495.121094 517.1875 491.070312 515.910156 488.128906 513.289062 C 483.964844 509.570312 482.023438 505.023438 482.511719 500.136719 C 483.210938 493.15625 489.019531 485.835938 498.046875 480.558594 C 509.28125 473.984375 524.730469 469.574219 536.492188 469.574219 L 537.144531 469.578125 C 546.964844 469.710938 554.40625 473.515625 557.054688 479.757812 C 559.089844 484.542969 558.132812 490.589844 554.558594 495.542969 C 551.246094 500.136719 546.261719 503.210938 542.292969 505.378906 C 530.960938 511.558594 518.1875 515.546875 505.359375 516.910156 C 503.578125 517.097656 501.964844 517.1875 500.515625 517.1875 Z M 500.515625 517.1875 " fill-opacity="1" fill-rule="nonzero"/><path fill="#79afae" d="M 505.894531 447.5625 C 504.121094 447.5625 502.394531 447.460938 500.828125 447.328125 C 487.964844 446.261719 475.105469 442.5625 463.636719 436.640625 C 459.125 434.308594 452.933594 430.480469 451.246094 424.140625 C 449.808594 418.75 450.691406 413.882812 453.785156 410.070312 C 457.855469 405.0625 465.578125 402.191406 474.976562 402.191406 C 475.828125 402.191406 476.6875 402.214844 477.5625 402.261719 C 490.851562 402.976562 506.402344 407.933594 516.230469 414.605469 C 524.351562 420.117188 528.472656 427.386719 527.25 434.054688 C 526.308594 439.175781 522.179688 443.695312 516.480469 445.863281 C 513.472656 447.007812 510.011719 447.5625 505.894531 447.5625 Z M 505.894531 447.5625 " fill-opacity="1" fill-rule="nonzero"/><path fill="#f4c3e9" d="M 298.164062 361.332031 C 298.160156 362.363281 298.0625 363.386719 297.859375 364.398438 C 297.660156 365.414062 297.359375 366.394531 296.964844 367.347656 C 296.570312 368.300781 296.085938 369.207031 295.511719 370.066406 C 294.9375 370.925781 294.285156 371.71875 293.554688 372.449219 C 292.828125 373.179688 292.03125 373.832031 291.171875 374.402344 C 290.316406 374.976562 289.410156 375.460938 288.457031 375.855469 C 287.5 376.25 286.519531 376.550781 285.503906 376.75 C 284.492188 376.953125 283.46875 377.054688 282.4375 377.054688 C 281.40625 377.054688 280.382812 376.953125 279.371094 376.75 C 278.355469 376.550781 277.375 376.25 276.421875 375.855469 C 275.464844 375.460938 274.558594 374.976562 273.703125 374.402344 C 272.84375 373.832031 272.046875 373.179688 271.320312 372.449219 C 270.589844 371.71875 269.9375 370.925781 269.363281 370.066406 C 268.789062 369.207031 268.304688 368.300781 267.910156 367.347656 C 267.515625 366.394531 267.214844 365.414062 267.015625 364.398438 C 266.8125 363.386719 266.714844 362.363281 266.714844 361.332031 C 266.714844 360.300781 266.8125 359.277344 267.015625 358.265625 C 267.214844 357.253906 267.515625 356.269531 267.910156 355.316406 C 268.304688 354.363281 268.789062 353.457031 269.363281 352.597656 C 269.9375 351.742188 270.589844 350.945312 271.320312 350.21875 C 272.046875 349.488281 272.84375 348.835938 273.703125 348.261719 C 274.558594 347.6875 275.464844 347.203125 276.421875 346.808594 C 277.375 346.414062 278.355469 346.117188 279.371094 345.914062 C 280.382812 345.714844 281.40625 345.613281 282.4375 345.613281 C 283.46875 345.613281 284.492188 345.714844 285.503906 345.914062 C 286.519531 346.117188 287.5 346.414062 288.457031 346.808594 C 289.410156 347.203125 290.316406 347.6875 291.171875 348.261719 C 292.03125 348.835938 292.828125 349.488281 293.554688 350.21875 C 294.285156 350.945312 294.9375 351.742188 295.511719 352.597656 C 296.085938 353.457031 296.570312 354.363281 296.964844 355.316406 C 297.359375 356.269531 297.660156 357.253906 297.859375 358.265625 C 298.0625 359.277344 298.160156 360.300781 298.164062 361.332031 Z M 298.164062 361.332031 " fill-opacity="1" fill-rule="nonzero"/><path fill="#f4c3e9" d="M 408.242188 329.894531 C 408.242188 330.925781 408.140625 331.949219 407.941406 332.960938 C 407.738281 333.972656 407.441406 334.957031 407.046875 335.910156 C 406.648438 336.863281 406.164062 337.769531 405.59375 338.628906 C 405.019531 339.484375 404.367188 340.28125 403.636719 341.011719 C 402.90625 341.738281 402.113281 342.390625 401.253906 342.964844 C 400.394531 343.539062 399.488281 344.023438 398.535156 344.417969 C 397.582031 344.8125 396.597656 345.109375 395.585938 345.3125 C 394.574219 345.515625 393.550781 345.613281 392.519531 345.613281 C 391.484375 345.613281 390.460938 345.515625 389.449219 345.3125 C 388.4375 345.109375 387.453125 344.8125 386.5 344.417969 C 385.546875 344.023438 384.640625 343.539062 383.78125 342.964844 C 382.921875 342.390625 382.128906 341.738281 381.398438 341.011719 C 380.667969 340.28125 380.015625 339.484375 379.445312 338.628906 C 378.871094 337.769531 378.386719 336.863281 377.992188 335.910156 C 377.59375 334.957031 377.296875 333.972656 377.09375 332.960938 C 376.894531 331.949219 376.792969 330.925781 376.792969 329.894531 C 376.792969 328.863281 376.894531 327.839844 377.09375 326.828125 C 377.296875 325.816406 377.59375 324.832031 377.992188 323.878906 C 378.386719 322.925781 378.871094 322.019531 379.445312 321.160156 C 380.015625 320.300781 380.667969 319.507812 381.398438 318.777344 C 382.128906 318.046875 382.921875 317.398438 383.78125 316.824219 C 384.640625 316.25 385.546875 315.765625 386.5 315.371094 C 387.453125 314.976562 388.4375 314.679688 389.449219 314.476562 C 390.460938 314.273438 391.484375 314.175781 392.519531 314.175781 C 393.550781 314.175781 394.574219 314.273438 395.585938 314.476562 C 396.597656 314.679688 397.582031 314.976562 398.535156 315.371094 C 399.488281 315.765625 400.394531 316.25 401.253906 316.824219 C 402.113281 317.398438 402.90625 318.046875 403.636719 318.777344 C 404.367188 319.507812 405.019531 320.300781 405.59375 321.160156 C 406.164062 322.019531 406.648438 322.925781 407.046875 323.878906 C 407.441406 324.832031 407.738281 325.816406 407.941406 326.828125 C 408.140625 327.839844 408.242188 328.863281 408.242188 329.894531 Z M 408.242188 329.894531 " fill-opacity="1" fill-rule="nonzero"/><path fill="#1a4447" d="M 347.09375 267.316406 C 334.628906 267.316406 305.628906 256.683594 296.542969 246.683594 C 284.515625 233.445312 284.894531 181.011719 294.582031 167.945312 C 304.4375 154.652344 336.234375 143.898438 346.476562 143.109375 C 347.273438 143.054688 348.054688 143.117188 348.824219 143.3125 C 366.476562 147.808594 374.597656 174.78125 376.3125 198.523438 C 378.183594 224.382812 372.742188 257.746094 351.265625 266.667969 C 351.09375 266.738281 350.914062 266.804688 350.738281 266.859375 C 349.792969 267.171875 348.558594 267.316406 347.09375 267.316406 Z M 346.261719 157.703125 C 337.042969 159.132812 312.292969 168.371094 306.214844 176.5625 C 300.113281 184.796875 300.898438 229.945312 307.261719 236.953125 C 314.09375 244.472656 340.214844 252.910156 346.453125 252.960938 C 357.285156 247.609375 363.742188 225.429688 361.871094 199.5625 C 360.207031 176.539062 352.828125 160.699219 346.261719 157.703125 Z M 346.261719 157.703125 " fill-opacity="1" fill-rule="nonzero"/><path fill="#1a4447" d="M 312.835938 252.355469 C 313.785156 252.921875 314.722656 253.515625 315.71875 254.015625 C 318.65625 255.488281 315.886719 254.179688 318.421875 255.136719 C 321.394531 256.253906 324.03125 257.414062 326.472656 258.726562 C 337.835938 243.941406 340.710938 218.480469 339.164062 197.648438 C 338.042969 182.566406 334.457031 166.207031 327.695312 154.902344 C 322.808594 156.484375 318.472656 158.144531 314.132812 160.582031 C 318.988281 167.609375 323.414062 181.097656 324.722656 198.71875 C 326.519531 222.871094 321.632812 243.949219 312.835938 252.355469 Z M 312.835938 252.355469 " fill-opacity="1" fill-rule="nonzero"/><path fill="#1a4447" d="M 333.65625 390.433594 C 323.691406 390.433594 314.246094 386.230469 309.460938 379.15625 C 307.222656 375.84375 308.09375 371.34375 311.402344 369.105469 C 314.714844 366.871094 319.214844 367.734375 321.457031 371.046875 C 323.792969 374.507812 330.90625 377.167969 338.339844 375.417969 C 345.804688 373.667969 351.074219 368.066406 351.683594 363.875 C 352.253906 359.917969 355.957031 357.179688 359.882812 357.75 C 363.839844 358.324219 366.582031 361.992188 366.011719 365.949219 C 364.460938 376.652344 354.21875 386.5625 341.652344 389.511719 C 339.003906 390.132812 336.308594 390.433594 333.65625 390.433594 Z M 333.65625 390.433594 " fill-opacity="1" fill-rule="nonzero"/><path fill="#1a4447" d="M 647.414062 118.46875 C 647.152344 115.152344 644.660156 112.441406 641.375 111.898438 C 572.003906 100.453125 494.167969 94.335938 419.710938 93.496094 C 419.84375 98.277344 419.675781 103.132812 419.457031 107.941406 C 491.164062 108.746094 566.097656 114.507812 633.429688 125.273438 C 646.453125 290.171875 654.210938 430.21875 630.023438 592.425781 C 523.230469 605.257812 311.949219 606.203125 202.117188 587.9375 C 189.039062 585.761719 151.421875 550.21875 125.820312 519.65625 C 111.121094 498.433594 111.128906 193.839844 125.839844 172.722656 C 136.699219 157.625 207.199219 123.914062 216.320312 122.199219 C 249.628906 115.921875 288.886719 111.714844 331.292969 109.53125 C 336.722656 103.398438 343.933594 98.316406 350.917969 94.222656 C 300.023438 96.035156 252.792969 100.597656 213.640625 107.972656 C 201.84375 110.195312 127.726562 145.304688 114.082031 164.269531 C 100.757812 182.792969 100.136719 320.148438 100.148438 347.496094 C 100.167969 386 101.261719 512.878906 114.679688 528.902344 C 130.691406 548.023438 177.1875 598.464844 199.738281 602.214844 C 258.464844 611.988281 345.832031 616.320312 431.066406 616.320312 C 509.683594 616.320312 586.484375 612.632812 637.285156 606.109375 C 640.488281 605.699219 643.03125 603.21875 643.519531 600.027344 C 669.21875 432.117188 660.925781 288.617188 647.414062 118.46875 Z M 647.414062 118.46875 " fill-opacity="1" fill-rule="nonzero"/><path fill="#1a4447" d="M 193.667969 594.738281 C 198.21875 595.464844 202.738281 596.976562 207.117188 598.820312 C 207.828125 597.648438 208.222656 596.261719 208.164062 594.789062 L 207.675781 582.746094 C 201.414062 427.148438 194.941406 266.25 222.105469 116.375 C 222.429688 114.578125 222.035156 112.832031 221.164062 111.382812 C 219.714844 111.703125 218.253906 112.035156 216.773438 112.425781 C 213.523438 113.285156 210.421875 114.730469 207.421875 116.394531 C 180.515625 267.09375 186.953125 427.835938 193.210938 583.328125 Z M 193.667969 594.738281 " fill-opacity="1" fill-rule="nonzero"/><path fill="#1a4447" d="M 288.585938 313.011719 C 276.792969 313.011719 264.929688 312.640625 253.453125 312.285156 C 244.691406 312.011719 235.921875 311.738281 227.101562 311.625 C 225.128906 311.597656 223.253906 310.765625 221.90625 309.320312 C 220.558594 307.878906 219.859375 305.949219 219.972656 303.976562 C 220.355469 297.234375 220.527344 291.179688 220.703125 285.128906 C 220.882812 278.949219 221.0625 272.769531 221.453125 265.882812 C 221.660156 262.21875 224.578125 259.292969 228.246094 259.070312 C 250.226562 257.738281 269.214844 257.992188 289.820312 259.890625 C 293.421875 260.222656 296.222656 263.164062 296.386719 266.773438 C 297.171875 284.332031 297.195312 292.097656 295.789062 306.476562 C 295.429688 310.183594 292.3125 313.011719 288.585938 313.011719 Z M 234.792969 297.28125 C 241.175781 297.421875 247.542969 297.621094 253.902344 297.816406 C 263.101562 298.101562 272.550781 298.398438 281.949219 298.5 C 282.546875 290.328125 282.558594 283.785156 282.183594 273.773438 C 266.722656 272.589844 251.921875 272.394531 235.59375 273.167969 C 235.414062 277.433594 235.296875 281.492188 235.175781 285.550781 C 235.066406 289.402344 234.953125 293.257812 234.792969 297.28125 Z M 234.792969 297.28125 " fill-opacity="1" fill-rule="nonzero"/><path fill="#1a4447" d="M 288.585938 472.632812 C 276.808594 472.632812 264.957031 472.261719 253.492188 471.90625 C 244.71875 471.632812 235.9375 471.359375 227.105469 471.246094 C 225.132812 471.21875 223.253906 470.386719 221.90625 468.945312 C 220.558594 467.5 219.859375 465.570312 219.972656 463.597656 C 220.355469 456.855469 220.527344 450.808594 220.703125 444.757812 C 220.882812 438.582031 221.0625 432.40625 221.453125 425.523438 C 221.660156 421.859375 224.578125 418.929688 228.246094 418.707031 C 250.238281 417.367188 269.226562 417.628906 289.820312 419.53125 C 293.421875 419.863281 296.222656 422.800781 296.386719 426.414062 C 297.171875 443.960938 297.195312 451.722656 295.789062 466.09375 C 295.429688 469.804688 292.3125 472.632812 288.585938 472.632812 Z M 234.792969 456.90625 C 241.191406 457.042969 247.570312 457.242188 253.945312 457.4375 C 263.128906 457.722656 272.566406 458.015625 281.949219 458.117188 C 282.546875 449.953125 282.558594 443.417969 282.183594 433.414062 C 266.730469 432.230469 251.929688 432.035156 235.59375 432.808594 C 235.414062 437.070312 235.296875 441.125 235.175781 445.179688 C 235.066406 449.03125 234.953125 452.878906 234.792969 456.90625 Z M 234.792969 456.90625 " fill-opacity="1" fill-rule="nonzero"/><path fill="#1a4447" d="M 34.375 525.710938 C 29.183594 525.714844 23.753906 524.039062 18.632812 520.753906 C 3.582031 511.097656 0.1875 489.453125 11.066406 472.503906 C 24.125 452.144531 38.769531 449.082031 48.789062 450.070312 C 62.636719 451.460938 74.554688 461.652344 78.074219 470.710938 L 78.070312 470.707031 C 81.210938 478.78125 79.757812 487.058594 74.085938 493.417969 C 70.257812 497.699219 65.015625 500.453125 59.714844 501.21875 C 56.21875 515.242188 49.277344 521.203125 43.714844 523.726562 C 40.785156 525.054688 37.625 525.710938 34.375 525.710938 Z M 45.519531 464.382812 C 37.53125 464.382812 30.046875 469.734375 23.253906 480.320312 C 16.683594 490.554688 18.121094 503.222656 26.453125 508.574219 C 28.402344 509.820312 33.390625 512.507812 37.730469 510.542969 C 42.054688 508.585938 45.214844 502.269531 46.636719 492.761719 C 46.9375 490.726562 48.09375 488.921875 49.808594 487.789062 C 51.527344 486.652344 53.652344 486.304688 55.632812 486.832031 C 57.605469 487.339844 60.992188 486.34375 63.277344 483.78125 C 65.285156 481.53125 65.71875 478.898438 64.578125 475.953125 C 64.578125 475.949219 64.574219 475.949219 64.574219 475.949219 C 63.203125 472.410156 56.070312 465.347656 47.339844 464.472656 C 46.734375 464.414062 46.125 464.382812 45.519531 464.382812 Z M 45.519531 464.382812 " fill-opacity="1" fill-rule="nonzero"/><path fill="#1a4447" d="M 107.46875 397.550781 C 84.210938 395.902344 54.65625 403.496094 37.773438 420.753906 C 25.558594 433.238281 21.617188 448.984375 26.054688 466.429688 C 26.210938 466.289062 26.34375 466.125 26.503906 465.988281 C 30.421875 462.699219 34.664062 460.535156 39.265625 459.136719 C 37.496094 448.25 40.417969 438.75 48.125 430.875 C 61.792969 416.90625 87.953125 410.421875 107.472656 412.085938 C 107.246094 407.246094 107.273438 402.398438 107.46875 397.550781 Z M 107.46875 397.550781 " fill-opacity="1" fill-rule="nonzero"/><path fill="#1a4447" d="M 715.476562 525.710938 C 712.226562 525.710938 709.066406 525.054688 706.136719 523.726562 C 700.578125 521.203125 693.632812 515.242188 690.136719 501.21875 C 684.835938 500.453125 679.59375 497.699219 675.765625 493.417969 C 670.09375 487.058594 668.640625 478.78125 671.78125 470.707031 C 675.296875 461.65625 687.210938 451.460938 701.0625 450.070312 C 711.046875 449.085938 725.71875 452.144531 738.785156 472.503906 C 749.664062 489.453125 746.269531 511.097656 731.21875 520.753906 C 726.097656 524.039062 720.667969 525.710938 715.476562 525.710938 Z M 696.054688 486.59375 C 697.460938 486.59375 698.847656 487 700.042969 487.789062 C 701.757812 488.921875 702.914062 490.726562 703.214844 492.761719 C 704.636719 502.269531 707.796875 508.585938 712.121094 510.542969 C 716.449219 512.507812 721.449219 509.820312 723.398438 508.570312 C 731.730469 503.222656 733.167969 490.554688 726.601562 480.320312 C 719.292969 468.9375 711.1875 463.613281 702.507812 464.472656 C 693.78125 465.347656 686.652344 472.410156 685.277344 475.949219 C 685.277344 475.949219 685.273438 475.949219 685.273438 475.953125 C 684.132812 478.898438 684.566406 481.53125 686.574219 483.78125 C 688.859375 486.34375 692.257812 487.339844 694.21875 486.832031 C 694.824219 486.671875 695.441406 486.59375 696.054688 486.59375 Z M 696.054688 486.59375 " fill-opacity="1" fill-rule="nonzero"/><path fill="#1a4447" d="M 710.558594 459.34375 C 711.082031 459.296875 711.558594 459.191406 712.109375 459.191406 C 717.679688 459.191406 721.652344 461.613281 724.144531 465.066406 C 728.035156 448.164062 723.972656 432.910156 712.078125 420.753906 C 696.957031 405.296875 671.675781 397.605469 649.847656 397.351562 C 650.359375 402.15625 650.597656 406.992188 650.597656 411.847656 C 668.734375 412.308594 689.90625 418.792969 701.726562 430.875 C 709.484375 438.800781 712.402344 448.367188 710.558594 459.34375 Z M 710.558594 459.34375 " fill-opacity="1" fill-rule="nonzero"/><g clip-path="url(#1b5de2f4ed)"><path fill="#1a4447" d="M 323.132812 606.773438 C 316.292969 615.054688 309.453125 627.230469 307.734375 644.035156 C 305.324219 667.621094 306.742188 688.429688 306.785156 688.855469 C 306.789062 689.367188 306.554688 689.714844 306.355469 689.917969 C 306.160156 690.117188 305.816406 690.359375 305.304688 690.363281 L 240.8125 690.90625 C 240.042969 690.691406 239.417969 690.386719 239.324219 689.683594 C 238.625 684.503906 237.660156 671.832031 243.855469 666.054688 C 247.910156 662.277344 255.042969 661.410156 265.0625 663.484375 C 267.476562 663.988281 269.96875 663.226562 271.691406 661.46875 C 273.417969 659.714844 274.132812 657.207031 273.59375 654.804688 C 273.515625 654.472656 268.441406 630.53125 282.527344 605.011719 C 282.117188 605.023438 281.722656 605.070312 281.300781 605.054688 C 276.523438 604.859375 272.414062 602.683594 268.109375 601.082031 C 258.679688 619.726562 257.648438 637.414062 258.238281 648 C 247.988281 647.476562 239.894531 649.957031 233.984375 655.46875 C 223.78125 664.980469 223.453125 680.382812 224.976562 691.625 C 226.039062 699.492188 232.828125 705.382812 240.796875 705.382812 L 240.933594 705.382812 L 305.425781 704.839844 C 309.691406 704.804688 313.691406 703.105469 316.683594 700.066406 C 319.675781 697.019531 321.304688 692.996094 321.246094 688.285156 C 321.234375 688.085938 319.863281 667.796875 322.140625 645.507812 C 324.023438 627.105469 333.511719 615.757812 339.945312 610.039062 C 334.335938 609.65625 328.714844 608.203125 323.132812 606.773438 Z M 323.132812 606.773438 " fill-opacity="1" fill-rule="nonzero"/></g><g clip-path="url(#5b6fc52ac5)"><path fill="#1a4447" d="M 570.789062 655.46875 C 564.878906 649.953125 556.726562 647.464844 546.535156 648 C 547.066406 638.433594 546.277344 623.066406 539.171875 606.441406 C 533.558594 606.53125 527.992188 606.605469 522.570312 605.398438 C 536.21875 630.304688 531.46875 653.480469 531.179688 654.804688 C 530.636719 657.203125 531.351562 659.714844 533.078125 661.46875 C 534.796875 663.226562 537.296875 663.984375 539.710938 663.484375 C 549.722656 661.40625 556.855469 662.269531 560.914062 666.054688 C 567.109375 671.832031 566.148438 684.503906 565.449219 689.683594 C 565.351562 690.382812 564.71875 690.90625 563.972656 690.90625 L 563.957031 690.90625 L 499.464844 690.363281 C 498.640625 690.355469 497.976562 689.679688 497.964844 689.300781 C 498.027344 688.429688 499.449219 667.621094 497.035156 644.03125 C 495.34375 627.5 488.695312 615.449219 481.964844 607.175781 C 478.476562 608.359375 475.085938 609.859375 471.488281 610.707031 C 469.816406 611.101562 468.136719 611.390625 466.453125 611.582031 C 472.75 617.707031 480.90625 628.664062 482.628906 645.503906 C 484.910156 667.796875 483.539062 688.085938 483.503906 688.730469 C 483.429688 697.542969 490.535156 704.765625 499.34375 704.839844 L 563.835938 705.382812 L 563.972656 705.382812 C 571.941406 705.382812 578.730469 699.492188 579.796875 691.625 C 581.316406 680.378906 580.988281 664.980469 570.789062 655.46875 Z M 570.789062 655.46875 " fill-opacity="1" fill-rule="nonzero"/></g><path fill="#1a4447" d="M 357.046875 341.21875 C 353.90625 341.21875 351.015625 339.160156 350.09375 335.992188 C 348.441406 330.285156 348.871094 324.300781 351.300781 319.140625 C 353.878906 313.667969 358.367188 309.769531 363.925781 308.15625 C 369.492188 306.550781 375.371094 307.445312 380.472656 310.691406 C 385.285156 313.757812 388.84375 318.585938 390.5 324.292969 C 391.613281 328.136719 389.398438 332.148438 385.558594 333.257812 C 381.707031 334.367188 377.699219 332.15625 376.589844 328.320312 C 375.917969 325.996094 374.535156 324.074219 372.699219 322.90625 C 371.804688 322.339844 370.003906 321.457031 367.953125 322.0625 C 365.917969 322.65625 364.851562 324.351562 364.402344 325.308594 C 363.472656 327.28125 363.332031 329.644531 364.003906 331.964844 C 365.117188 335.804688 362.90625 339.820312 359.066406 340.929688 C 358.390625 341.125 357.714844 341.21875 357.046875 341.21875 Z M 357.046875 341.21875 " fill-opacity="1" fill-rule="nonzero"/><path fill="#1a4447" d="M 286.632812 358.175781 C 283.492188 358.175781 280.601562 356.117188 279.683594 352.949219 C 278.027344 347.242188 278.457031 341.257812 280.886719 336.101562 C 283.464844 330.628906 287.953125 326.730469 293.511719 325.121094 C 299.078125 323.515625 304.957031 324.40625 310.058594 327.652344 C 314.871094 330.714844 318.429688 335.542969 320.085938 341.253906 C 321.199219 345.089844 318.984375 349.105469 315.144531 350.21875 C 311.292969 351.328125 307.285156 349.117188 306.175781 345.277344 C 305.503906 342.957031 304.125 341.035156 302.289062 339.867188 C 301.390625 339.300781 299.589844 338.429688 297.539062 339.023438 C 295.503906 339.617188 294.4375 341.3125 293.988281 342.269531 C 293.058594 344.242188 292.917969 346.601562 293.589844 348.921875 C 294.703125 352.761719 292.492188 356.773438 288.652344 357.890625 C 287.980469 358.082031 287.300781 358.175781 286.632812 358.175781 Z M 286.632812 358.175781 " fill-opacity="1" fill-rule="nonzero"/><path fill="#1a4447" d="M 500.53125 522.980469 C 495.207031 522.980469 489.121094 521.925781 484.28125 517.609375 C 478.753906 512.679688 476.078125 506.273438 476.746094 499.566406 C 477.644531 490.613281 484.339844 481.863281 495.121094 475.558594 C 507.46875 468.339844 524.382812 463.726562 537.226562 463.785156 C 549.40625 463.957031 558.8125 469.082031 562.386719 477.492188 C 565.207031 484.136719 564.007812 492.347656 559.257812 498.925781 C 555.261719 504.46875 549.574219 508.003906 545.070312 510.460938 C 533.074219 517.003906 519.550781 521.222656 505.96875 522.667969 C 504.324219 522.839844 502.476562 522.980469 500.53125 522.980469 Z M 536.492188 478.257812 C 526.273438 478.257812 512.363281 482.246094 502.433594 488.054688 C 495.992188 491.820312 491.566406 496.902344 491.15625 501.003906 C 491.023438 502.320312 491.167969 504.355469 493.917969 506.804688 L 493.917969 506.808594 C 495.660156 508.363281 499.101562 508.839844 504.441406 508.269531 C 516.148438 507.027344 527.796875 503.390625 538.132812 497.753906 C 541.296875 496.027344 545.222656 493.640625 547.515625 490.457031 C 549.265625 488.03125 549.886719 485.097656 549.058594 483.152344 C 547.570312 479.644531 541.648438 478.324219 537.027344 478.261719 C 536.851562 478.257812 536.671875 478.257812 536.492188 478.257812 Z M 536.492188 478.257812 " fill-opacity="1" fill-rule="nonzero"/><path fill="#1a4447" d="M 505.898438 453.355469 C 503.917969 453.355469 502.042969 453.242188 500.339844 453.097656 C 486.726562 451.964844 473.117188 448.054688 460.976562 441.785156 C 455.488281 438.949219 447.925781 434.191406 445.648438 425.628906 C 443.746094 418.476562 445.039062 411.652344 449.289062 406.421875 C 454.964844 399.4375 465.398438 395.816406 477.847656 396.480469 C 492.128906 397.246094 508.859375 402.601562 519.480469 409.8125 C 529.558594 416.652344 534.59375 426.105469 532.949219 435.097656 C 531.644531 442.195312 526.125 448.390625 518.539062 451.273438 C 514.273438 452.894531 509.875 453.355469 505.898438 453.355469 Z M 459.644531 421.90625 C 460.242188 424.164062 462.851562 426.460938 467.621094 428.925781 C 478.082031 434.328125 489.8125 437.699219 501.542969 438.671875 C 505.136719 438.96875 509.726562 439.140625 513.394531 437.742188 C 516.191406 436.679688 518.324219 434.570312 518.707031 432.488281 C 519.390625 428.742188 515.171875 424.382812 511.347656 421.789062 C 502.855469 416.023438 488.761719 411.558594 477.074219 410.9375 C 469.625 410.515625 463.128906 412.347656 460.527344 415.546875 C 459.695312 416.574219 458.695312 418.351562 459.644531 421.90625 Z M 459.644531 421.90625 " fill-opacity="1" fill-rule="nonzero"/><path fill="#1a4447" d="M 495.253906 381.640625 C 492.53125 381.640625 489.8125 381.53125 487.109375 381.316406 C 480.953125 380.832031 472.136719 379.371094 466.71875 372.359375 C 462.195312 366.5 460.746094 359.707031 462.636719 353.238281 C 465.164062 344.601562 473.355469 337.230469 485.117188 333.019531 C 498.574219 328.191406 516.082031 326.648438 528.667969 329.191406 C 540.609375 331.597656 548.914062 338.367188 550.875 347.296875 C 552.421875 354.335938 549.734375 362.1875 543.859375 367.78125 C 538.902344 372.5 532.664062 374.925781 527.785156 376.511719 C 517.367188 379.898438 506.261719 381.640625 495.253906 381.640625 Z M 515.285156 342.445312 C 506.921875 342.445312 497.582031 343.925781 490 346.644531 C 482.980469 349.164062 477.691406 353.34375 476.535156 357.300781 C 476.164062 358.574219 475.929688 360.597656 478.179688 363.511719 L 478.183594 363.511719 C 479.609375 365.359375 482.902344 366.464844 488.253906 366.890625 C 499.996094 367.816406 512.109375 366.390625 523.308594 362.746094 C 526.730469 361.632812 531.027344 360.007812 533.875 357.296875 C 536.039062 355.238281 537.1875 352.46875 536.734375 350.402344 C 535.914062 346.683594 530.335938 344.296875 525.804688 343.382812 C 522.667969 342.75 519.078125 342.445312 515.285156 342.445312 Z M 515.285156 342.445312 " fill-opacity="1" fill-rule="nonzero"/><path fill="#1a4447" d="M 470.902344 358.5625 C 453.804688 359.648438 436.996094 362.414062 420.863281 366.90625 C 420.488281 372.078125 419.984375 377.238281 419.34375 382.378906 C 438.308594 376.5625 458.378906 373.316406 478.835938 372.644531 C 472.796875 369.933594 470.445312 364.242188 470.898438 358.5625 Z M 470.902344 358.5625 " fill-opacity="1" fill-rule="nonzero"/><path fill="#1a4447" d="M 533.710938 364.019531 C 533.125 364.429688 532.554688 364.859375 531.878906 365.160156 C 524.03125 368.660156 516.363281 371.699219 508.523438 373.488281 C 508.976562 373.527344 509.425781 373.542969 509.878906 373.585938 C 512.332031 373.824219 566.761719 379.664062 598.117188 427.324219 C 598.574219 419.804688 598.867188 412.277344 598.996094 404.738281 C 577.949219 381.054688 551.941406 369.53125 533.710938 364.019531 Z M 533.710938 364.019531 " fill-opacity="1" fill-rule="nonzero"/><g clip-path="url(#6057e07ee0)"><path fill="#1a4447" d="M 597.117188 165.414062 C 596.898438 162.175781 594.550781 159.476562 591.375 158.8125 C 533.894531 146.816406 485.75 141.429688 431.410156 140.976562 C 430.507812 109.308594 429.171875 79.34375 427.398438 51.652344 C 427.242188 49.207031 425.855469 47.003906 423.71875 45.804688 C 421.574219 44.597656 418.964844 44.5625 416.804688 45.707031 C 333.929688 89.265625 261.714844 154.390625 260.996094 155.042969 C 259.761719 156.164062 258.949219 157.679688 258.703125 159.328125 C 254.25 189.007812 251.605469 227.050781 250.308594 267.785156 C 255.089844 268.054688 259.859375 268.558594 264.640625 268.878906 C 265.851562 230.335938 268.34375 193.820312 272.640625 164.058594 C 283.96875 154.0625 343.960938 102.285156 413.636719 63.855469 C 420.074219 173.960938 419.910156 317.539062 413.144531 460.765625 C 368.648438 482.570312 326.820312 504.042969 273.894531 539.222656 C 271.667969 525.761719 269.253906 498.386719 267.335938 463.558594 C 262.53125 463.964844 257.65625 463.289062 252.796875 462.941406 C 255.578125 513.121094 259.671875 549.710938 263.726562 555.265625 C 264.921875 556.902344 266.746094 557.960938 268.757812 558.191406 C 334.035156 565.621094 396.035156 569.324219 455.863281 569.324219 C 502.636719 569.324219 548.09375 567.054688 592.703125 562.53125 C 596.261719 562.171875 599.027344 559.265625 599.203125 555.695312 C 606.074219 419.726562 605.371094 288.417969 597.117188 165.414062 Z M 585.054688 548.742188 C 492.0625 557.710938 395.28125 556.804688 290.019531 545.9375 C 339.945312 513.382812 380.191406 492.988281 423.355469 471.890625 C 425.726562 470.730469 427.277344 468.371094 427.402344 465.734375 C 432.59375 357.960938 434.058594 249.757812 431.792969 155.453125 C 483.226562 155.914062 529.070312 160.894531 583.03125 171.871094 C 590.78125 290.847656 591.460938 417.578125 585.050781 548.742188 Z M 585.054688 548.742188 " fill-opacity="1" fill-rule="nonzero"/></g><path fill="#1a4447" d="M 256.238281 424.410156 C 258.644531 424.527344 261.125 424.753906 263.4375 425.445312 C 264.226562 425.683594 264.921875 425.957031 265.601562 426.25 C 264.15625 388.738281 263.382812 346.328125 263.882812 304.582031 C 259.121094 304.832031 254.203125 304.347656 249.523438 303.578125 C 248.984375 344.691406 249.632812 386.796875 251.03125 424.578125 C 252.765625 424.460938 254.5 424.324219 256.238281 424.410156 Z M 256.238281 424.410156 " fill-opacity="1" fill-rule="nonzero"/></svg>